<?xml version="1.0" encoding="UTF-8" standalone="no"?>
<svg xmlns="http://www.w3.org/2000/svg"
     xmlns:svg="http://www.w3.org/2000/svg"
     version="1.1"
     viewBox="0 0 400 400">
  <path id="path1" transform="translate(-280, -260)"
        d="M 527.29,384.22
           C 527.29,384.22 526.03,380.23 526.03,380.23
             526.03,380.23 525.69,378.19 525.69,378.19
             525.69,378.19 525.61,377.07 525.61,377.07
             525.61,377.07 525.09,374.72 525.09,374.72
             525.09,374.72 524.74,371.24 524.74,371.24
             524.74,371.24 524.48,369.00 524.48,369.00
             524.48,369.00 524.48,366.96 524.48,366.96
             524.48,366.96 524.38,365.53 524.38,365.53
             524.38,365.53 524.57,360.72 524.57,360.72
             524.57,360.72 524.83,359.50 524.83,359.50
             524.83,359.50 525.17,357.15 525.17,357.15
             525.17,357.15 525.47,355.82 525.47,355.82
             525.47,355.82 525.47,354.80 525.47,354.80
             525.47,354.80 525.96,351.94 525.96,351.94
             525.96,351.94 527.09,348.37 527.09,348.37
             527.41,347.62 527.64,347.53 527.76,347.23
             527.76,347.23 527.98,346.43 527.98,346.43
             527.98,346.43 528.71,345.10 528.71,345.10
             528.71,345.10 529.48,343.36 529.48,343.36
             529.48,343.36 530.90,340.81 530.90,340.81
             530.90,340.81 532.62,337.74 532.62,337.74
             532.62,337.74 533.42,336.71 533.42,336.71
             533.42,336.71 533.84,335.80 533.84,335.80
             533.84,335.80 535.07,333.96 535.07,333.96
             535.07,333.96 536.36,331.92 536.36,331.92
             536.36,331.92 538.46,329.37 538.46,329.37
             538.46,329.37 539.98,327.84 539.98,327.84
             539.98,327.84 540.91,326.82 540.91,326.82
             540.91,326.82 542.42,325.47 542.42,325.47
             542.42,325.47 543.17,324.57 543.17,324.57
             543.17,324.57 545.19,322.54 545.19,322.54
             545.19,322.54 546.42,321.62 546.42,321.62
             546.42,321.62 548.36,320.04 548.36,320.04
             548.36,320.04 550.10,318.36 550.10,318.36
             550.10,318.36 551.22,317.50 551.22,317.50
             551.22,317.50 552.24,316.55 552.24,316.55
             552.24,316.55 553.98,315.47 553.98,315.47
             553.98,315.47 556.64,313.67 556.64,313.67
             556.64,313.67 557.86,312.72 557.86,312.72
             558.95,311.95 560.68,310.85 561.85,310.24
             561.85,310.24 564.91,308.71 564.91,308.71
             564.91,308.71 567.47,307.33 567.47,307.33
             567.47,307.33 570.33,305.95 570.33,305.95
             570.33,305.95 571.35,305.32 571.35,305.32
             571.35,305.32 572.58,304.79 572.58,304.79
             573.49,304.33 573.79,303.69 574.42,303.38
             574.42,303.38 576.05,302.74 576.05,302.74
             576.05,302.74 576.87,302.50 576.87,302.50
             576.87,302.50 577.79,301.96 577.79,301.96
             578.13,301.76 579.35,301.31 579.73,301.23
             579.73,301.23 581.47,301.06 581.47,301.06
             581.47,301.06 583.92,300.83 583.92,300.83
             583.92,300.83 586.78,301.15 586.78,301.15
             587.74,301.28 588.72,301.36 589.64,301.66
             591.28,302.20 592.84,303.32 594.14,304.43
             594.75,304.96 595.73,305.57 596.08,306.29
             596.08,306.29 596.38,306.18 596.38,306.18
             596.50,306.47 596.80,306.50 597.18,307.10
             598.04,308.48 598.73,309.46 599.06,311.09
             599.33,312.33 599.05,313.97 599.06,315.27
             599.06,315.27 598.73,318.24 598.73,318.24
             598.73,318.24 598.73,319.36 598.73,319.36
             598.73,319.36 598.24,322.01 598.24,322.01
             598.24,322.01 598.43,324.36 598.43,324.36
             598.44,325.52 598.68,327.46 599.02,328.55
             599.21,329.19 599.60,329.69 599.88,330.29
             600.30,331.21 600.27,331.49 600.90,332.54
             601.59,333.68 603.54,336.14 604.46,337.13
             604.46,337.13 606.60,339.28 606.60,339.28
             606.60,339.28 609.26,342.44 609.26,342.44
             609.26,342.44 615.17,348.26 615.17,348.26
             615.17,348.26 616.93,350.31 616.93,350.31
             616.93,350.31 620.60,353.88 620.60,353.88
             620.60,353.88 621.62,355.01 621.62,355.01
             621.62,355.01 624.07,357.46 624.07,357.46
             624.07,357.46 624.80,358.26 624.80,358.26
             624.80,358.26 627.04,360.27 627.04,360.27
             627.04,360.27 628.36,361.34 628.36,361.34
             628.36,361.34 631.11,364.10 631.11,364.10
             631.11,364.10 632.46,365.63 632.46,365.63
             632.46,365.63 634.49,367.57 634.49,367.57
             634.49,367.57 636.67,370.12 636.67,370.12
             636.67,370.12 639.42,373.39 639.42,373.39
             640.71,374.84 641.35,375.16 642.53,376.96
             642.53,376.96 644.53,381.15 644.53,381.15
             644.53,381.15 647.05,386.46 647.05,386.46
             647.05,386.46 647.62,387.69 647.62,387.69
             648.23,389.35 648.81,391.86 649.06,393.61
             649.06,393.61 649.33,395.96 649.33,395.96
             649.33,395.96 649.81,400.15 649.81,400.15
             649.81,400.15 649.62,403.21 649.62,403.21
             649.61,404.63 649.18,406.01 648.94,407.40
             648.94,407.40 648.40,410.36 648.40,410.36
             648.40,410.36 647.81,412.00 647.81,412.00
             647.81,412.00 647.12,414.14 647.12,414.14
             647.12,414.14 644.77,418.84 644.77,418.84
             644.77,418.84 644.23,419.66 644.23,419.66
             644.23,419.66 642.97,421.70 642.97,421.70
             642.97,421.70 640.18,425.17 640.18,425.17
             638.99,426.71 636.56,429.94 635.30,431.19
             635.30,431.19 632.86,433.27 632.86,433.27
             632.86,433.27 630.31,435.70 630.31,435.70
             630.31,435.70 626.42,439.47 626.42,439.47
             626.42,439.47 623.36,442.41 623.36,442.41
             623.36,442.41 621.42,443.91 621.42,443.91
             621.42,443.91 618.56,446.31 618.56,446.31
             618.56,446.31 617.33,447.19 617.33,447.19
             617.33,447.19 616.19,448.29 616.19,448.29
             615.85,448.54 615.53,448.51 615.19,448.74
             614.85,448.96 614.71,449.23 614.46,449.45
             614.46,449.45 613.88,449.83 613.88,449.83
             613.88,449.83 612.90,450.85 612.90,450.85
             611.76,451.84 611.43,451.61 610.38,453.16
             609.43,452.95 608.78,454.16 608.13,454.69
             608.13,454.69 608.24,454.28 608.24,454.28
             608.24,454.28 607.75,454.90 607.75,454.90
             607.75,454.90 606.40,455.64 606.40,455.64
             606.40,455.64 605.07,456.40 605.07,456.40
             605.07,456.40 602.92,457.48 602.92,457.48
             602.92,457.48 600.98,458.76 600.98,458.76
             600.98,458.76 600.06,459.44 600.06,459.44
             600.06,459.44 598.04,460.11 598.04,460.11
             598.04,460.11 597.51,460.82 597.51,460.82
             597.08,460.32 597.49,460.24 597.36,459.87
             597.19,459.42 596.50,459.21 596.08,459.18
             596.08,459.18 595.05,457.65 595.05,457.65
             595.05,457.65 594.85,457.75 594.85,457.75
             594.85,457.75 594.75,457.45 594.75,457.45
             594.75,457.45 593.83,458.27 593.83,458.27
             593.74,457.46 593.50,457.64 593.23,457.21
             593.09,456.98 593.05,456.59 593.01,456.32
             593.01,456.32 592.30,457.04 592.30,457.04
             592.30,457.04 591.99,456.63 591.99,456.63
             591.99,456.63 591.99,457.35 591.99,457.35
             591.52,457.02 591.88,456.76 591.85,456.22
             591.85,456.22 591.51,454.59 591.51,454.59
             591.42,454.38 591.31,454.24 591.16,454.09
             590.69,453.59 589.11,452.48 589.12,452.49
             589.12,452.49 588.40,451.52 588.40,451.52
             588.40,451.52 586.06,449.19 586.06,449.19
             586.06,449.19 585.04,448.34 585.04,448.34
             585.04,448.34 584.22,447.59 584.22,447.59
             584.22,447.59 582.69,446.49 582.69,446.49
             582.69,446.49 580.14,444.18 580.14,444.18
             580.14,444.18 578.40,442.58 578.40,442.58
             578.40,442.58 575.96,440.55 575.96,440.55
             575.96,440.55 574.52,439.07 574.52,439.07
             574.52,439.07 572.98,437.74 572.98,437.74
             572.18,437.04 570.73,435.59 569.72,435.42
             568.22,435.18 566.06,436.87 565.02,437.78
             563.92,438.73 562.17,440.95 561.47,442.23
             560.71,443.62 559.69,446.40 559.22,447.95
             559.22,447.95 558.84,449.38 558.84,449.38
             558.61,450.19 558.28,450.60 558.26,451.52
             558.26,451.52 558.26,452.55 558.26,452.55
             558.20,453.12 557.95,453.95 558.17,454.49
             558.58,455.49 560.10,456.34 560.93,456.96
             560.93,456.96 567.06,461.82 567.06,461.82
             567.06,461.82 569.72,464.04 569.72,464.04
             569.72,464.04 570.94,465.02 570.94,465.02
             570.94,465.02 571.97,466.10 571.97,466.10
             571.97,466.10 572.98,466.88 572.98,466.88
             572.98,466.88 574.01,467.85 574.01,467.85
             574.01,467.85 575.61,469.24 575.61,469.24
             575.61,469.24 576.57,470.30 576.57,470.30
             576.57,470.30 577.45,471.09 577.45,471.09
             577.45,471.09 581.88,475.63 581.88,475.63
             581.88,475.63 583.81,477.57 583.81,477.57
             583.81,477.57 587.30,481.55 587.30,481.55
             587.30,481.55 590.36,484.72 590.36,484.72
             590.36,484.72 592.89,487.27 592.89,487.27
             592.89,487.27 597.09,492.28 597.09,492.28
             598.36,493.70 597.86,493.52 598.48,494.32
             598.84,494.78 599.22,494.92 599.14,495.55
             600.08,496.01 600.34,496.74 600.87,497.59
             600.87,497.59 602.90,501.16 602.90,501.16
             602.90,501.16 603.66,502.80 603.66,502.80
             603.66,502.80 605.63,507.19 605.63,507.19
             605.63,507.19 606.10,508.21 606.10,508.21
             606.10,508.21 606.84,510.15 606.84,510.15
             606.84,510.15 608.07,513.93 608.07,513.93
             608.07,513.93 608.77,515.56 608.77,515.56
             608.77,515.56 609.30,517.10 609.30,517.10
             609.30,517.10 609.72,518.02 609.72,518.02
             609.72,518.02 610.25,519.75 610.25,519.75
             610.25,519.75 611.33,522.71 611.33,522.71
             611.33,522.71 612.17,526.08 612.17,526.08
             612.17,526.08 612.68,528.02 612.68,528.02
             612.68,528.02 613.39,532.52 613.39,532.52
             613.39,532.52 613.72,534.36 613.72,534.36
             613.72,534.36 613.80,535.17 613.80,535.17
             613.80,535.17 614.42,538.65 614.42,538.65
             614.42,538.65 614.88,544.16 614.88,544.16
             614.88,544.16 614.67,547.02 614.67,547.02
             614.67,547.02 614.67,548.55 614.67,548.55
             614.67,548.55 614.49,551.72 614.49,551.72
             614.49,551.72 614.57,552.54 614.57,552.54
             614.57,552.54 614.21,555.09 614.21,555.09
             614.21,555.09 613.66,558.16 613.66,558.16
             613.66,558.16 613.50,559.59 613.50,559.59
             613.50,559.59 613.14,561.01 613.14,561.01
             613.14,561.01 612.85,562.75 612.85,562.75
             612.85,562.75 612.56,563.98 612.56,563.98
             612.56,563.98 612.33,565.20 612.33,565.20
             612.33,565.20 611.60,567.25 611.60,567.25
             611.60,567.25 611.43,568.16 611.43,568.16
             611.43,568.16 610.78,570.51 610.78,570.51
             610.78,570.51 610.34,572.35 610.34,572.35
             610.34,572.35 609.68,573.88 609.68,573.88
             609.68,573.88 609.25,575.52 609.25,575.52
             609.25,575.52 607.69,579.40 607.69,579.40
             607.69,579.40 607.21,580.93 607.21,580.93
             607.21,580.93 605.83,584.20 605.83,584.20
             605.83,584.20 604.52,587.26 604.52,587.26
             604.52,587.26 603.56,589.00 603.56,589.00
             603.56,589.00 602.28,591.55 602.28,591.55
             602.28,591.55 601.23,593.29 601.23,593.29
             601.23,593.29 600.54,594.72 600.54,594.72
             600.54,594.72 599.68,596.15 599.68,596.15
             599.68,596.15 596.75,601.67 596.75,601.67
             596.75,601.67 595.57,603.40 595.57,603.40
             595.57,603.40 594.87,604.73 594.87,604.73
             594.87,604.73 593.84,606.16 593.84,606.16
             593.84,606.16 592.86,607.90 592.86,607.90
             592.86,607.90 588.98,613.10 588.98,613.10
             588.98,613.10 587.96,614.53 587.96,614.53
             587.96,614.53 586.42,616.48 586.42,616.48
             586.42,616.48 584.74,618.93 584.74,618.93
             584.74,618.93 583.67,620.56 583.67,620.56
             583.67,620.56 583.03,621.28 583.03,621.28
             583.03,621.28 582.25,622.30 582.25,622.30
             582.25,622.30 579.82,624.95 579.82,624.95
             579.82,624.95 578.62,626.08 578.62,626.08
             578.62,626.08 576.62,628.53 576.62,628.53
             576.62,628.53 575.64,629.45 575.64,629.45
             575.64,629.45 574.64,630.57 574.64,630.57
             574.64,630.57 571.35,634.35 571.35,634.35
             571.35,634.35 569.62,635.79 569.62,635.79
             569.62,635.79 567.35,638.40 567.35,638.40
             567.35,638.40 565.93,639.49 565.93,639.49
             565.93,639.49 563.38,641.66 563.38,641.66
             563.38,641.66 562.40,642.35 562.40,642.35
             562.40,642.35 561.13,643.74 561.13,643.74
             560.71,644.14 560.49,644.20 560.11,644.50
             560.11,644.50 558.37,646.02 558.37,646.02
             558.37,646.02 556.43,647.91 556.43,647.91
             556.43,647.91 555.54,648.49 555.54,648.49
             555.22,648.76 555.10,649.03 554.59,649.34
             553.84,649.80 554.08,649.38 553.06,650.24
             552.77,650.48 552.46,650.76 552.14,650.95
             551.68,651.23 551.20,651.33 550.71,651.51
             549.89,651.83 549.74,652.02 548.77,652.10
             548.77,652.10 546.62,652.02 546.62,652.02
             546.62,652.02 544.07,651.65 544.07,651.65
             543.75,651.60 543.36,651.65 543.25,651.30
             542.40,651.26 540.75,650.73 539.98,650.35
             539.98,650.35 538.96,649.75 538.96,649.75
             537.60,649.03 536.32,648.39 535.08,647.46
             534.27,646.86 533.35,646.23 532.80,645.38
             532.80,645.38 532.26,644.46 532.26,644.46
             531.54,643.33 531.50,643.26 531.69,641.91
             531.75,641.47 531.73,641.05 532.11,640.78
             532.05,640.52 532.01,640.34 532.03,640.07
             532.03,640.07 532.83,637.62 532.83,637.62
             532.83,637.62 534.11,634.66 534.11,634.66
             534.11,634.66 535.38,630.77 535.38,630.77
             535.60,630.03 535.52,629.85 535.64,629.24
             535.64,629.24 535.91,628.12 535.91,628.12
             535.91,628.12 536.45,625.05 536.45,625.05
             536.45,625.05 537.19,621.58 537.19,621.58
             537.19,621.58 537.55,617.60 537.55,617.60
             537.55,617.60 537.93,614.84 537.93,614.84
             537.93,614.84 537.84,613.72 537.84,613.72
             537.84,613.72 537.84,611.78 537.84,611.78
             537.83,610.10 537.34,606.68 536.93,605.04
             536.93,605.04 536.57,603.91 536.57,603.91
             536.57,603.91 536.33,602.38 536.33,602.38
             536.33,602.38 535.05,598.81 535.05,598.81
             535.05,598.81 534.67,597.68 534.67,597.68
             534.67,597.68 533.82,596.25 533.82,596.25
             533.82,596.25 532.49,593.29 532.49,593.29
             532.49,593.29 532.23,592.68 532.23,592.68
             532.23,592.68 531.83,592.06 531.83,592.06
             531.83,592.06 531.44,591.35 531.44,591.35
             531.44,591.35 530.72,590.33 530.72,590.33
             530.72,590.33 528.80,587.16 528.80,587.16
             528.80,587.16 528.08,586.14 528.08,586.14
             528.08,586.14 527.14,584.61 527.14,584.61
             527.14,584.61 526.00,583.18 526.00,583.18
             526.00,583.18 525.19,581.99 525.19,581.99
             525.19,581.99 524.63,581.42 524.63,581.42
             524.63,581.42 523.61,580.22 523.61,580.22
             523.61,580.22 521.52,577.77 521.52,577.77
             521.52,577.77 520.44,576.45 520.44,576.45
             520.44,576.45 519.26,575.31 519.26,575.31
             519.26,575.31 518.11,573.88 518.11,573.88
             518.11,573.88 515.05,570.82 515.05,570.82
             515.05,570.82 514.00,569.62 514.00,569.62
             514.00,569.62 512.60,568.36 512.60,568.36
             512.60,568.36 511.58,567.26 511.58,567.26
             511.58,567.26 510.35,566.30 510.35,566.30
             510.35,566.30 509.01,564.82 509.01,564.82
             508.66,564.52 508.39,564.50 507.90,564.06
             507.90,564.06 506.85,562.88 506.85,562.88
             506.85,562.88 505.04,561.25 505.04,561.25
             505.04,561.25 502.07,558.84 502.07,558.84
             502.07,558.84 499.72,556.90 499.72,556.90
             499.72,556.90 498.29,555.99 498.29,555.99
             498.29,555.99 496.25,553.78 496.25,553.78
             496.25,553.78 494.62,552.37 494.62,552.37
             494.62,552.37 493.59,551.70 493.59,551.70
             493.59,551.70 490.73,549.34 490.73,549.34
             490.73,549.34 488.69,547.52 488.69,547.52
             488.69,547.52 486.34,545.92 486.34,545.92
             486.34,545.92 485.11,544.94 485.11,544.94
             485.11,544.94 482.97,543.64 482.97,543.64
             482.97,543.64 481.74,542.67 481.74,542.67
             481.74,542.67 478.98,540.78 478.98,540.78
             478.98,540.78 477.86,539.82 477.86,539.82
             477.86,539.82 476.12,538.59 476.12,538.59
             476.12,538.59 475.10,537.96 475.10,537.96
             475.10,537.96 473.98,537.13 473.98,537.13
             473.98,537.13 472.85,536.45 472.85,536.45
             472.85,536.45 469.07,533.49 469.07,533.49
             469.07,533.49 467.33,532.65 467.33,532.65
             467.33,532.65 465.70,531.50 465.70,531.50
             465.70,531.50 463.15,529.89 463.15,529.89
             463.15,529.89 459.77,527.33 459.77,527.33
             459.77,527.33 458.65,526.61 458.65,526.61
             458.65,526.61 456.91,525.29 456.91,525.29
             456.91,525.29 450.17,520.58 450.17,520.58
             450.17,520.58 448.94,519.78 448.94,519.78
             448.94,519.78 448.13,519.12 448.13,519.12
             448.13,519.12 445.78,517.44 445.78,517.44
             445.78,517.44 444.34,516.22 444.34,516.22
             444.34,516.22 443.53,515.61 443.53,515.61
             443.53,515.61 442.20,514.36 442.20,514.36
             441.16,513.54 439.13,512.16 438.42,511.17
             438.42,511.17 438.72,511.07 438.72,511.07
             437.52,510.82 437.14,510.24 436.27,509.45
             436.27,509.45 434.96,508.30 434.96,508.30
             434.64,507.97 434.53,507.77 434.13,507.45
             434.13,507.45 432.59,506.39 432.59,506.39
             432.59,506.39 431.27,505.28 431.27,505.28
             431.27,505.28 429.43,503.80 429.43,503.80
             429.43,503.80 428.20,502.51 428.20,502.51
             428.20,502.51 427.38,501.94 427.38,501.94
             427.38,501.94 426.36,501.06 426.36,501.06
             426.36,501.06 425.44,500.41 425.44,500.41
             425.44,500.41 424.41,499.38 424.41,499.38
             424.41,499.38 422.99,498.30 422.99,498.30
             422.86,498.94 422.56,499.74 422.59,500.35
             422.72,502.64 423.26,504.87 423.82,507.09
             423.82,507.09 424.19,508.72 424.19,508.72
             424.19,508.72 424.91,510.36 424.91,510.36
             424.91,510.36 425.99,513.11 425.99,513.11
             425.99,513.11 427.35,515.67 427.35,515.67
             427.35,515.67 428.64,518.53 428.64,518.53
             428.64,518.53 429.50,520.16 429.50,520.16
             429.50,520.16 430.60,522.51 430.60,522.51
             430.60,522.51 432.43,525.16 432.43,525.16
             432.43,525.16 433.29,526.49 433.29,526.49
             433.29,526.49 434.39,527.92 434.39,527.92
             434.39,527.92 435.93,529.97 435.93,529.97
             435.93,529.97 437.66,531.91 437.66,531.91
             437.66,531.91 439.08,533.95 439.08,533.95
             439.08,533.95 442.19,537.42 442.19,537.42
             442.19,537.42 443.04,538.54 443.04,538.54
             443.04,538.54 445.25,540.89 445.25,540.89
             445.25,540.89 447.56,543.75 447.56,543.75
             447.56,543.75 448.63,544.88 448.63,544.88
             448.63,544.88 449.46,545.80 449.46,545.80
             449.46,545.80 450.78,547.12 450.78,547.12
             450.78,547.12 451.51,547.91 451.51,547.91
             451.51,547.91 452.69,548.79 452.69,548.79
             452.69,548.79 455.58,551.71 455.58,551.71
             455.58,551.71 458.13,554.07 458.13,554.07
             458.13,554.07 460.45,556.73 460.45,556.73
             460.45,556.73 462.09,558.97 462.09,558.97
             462.09,558.97 463.68,560.71 463.68,560.71
             463.68,560.71 464.38,561.83 464.38,561.83
             464.38,561.83 466.46,565.30 466.46,565.30
             466.46,565.30 467.55,567.04 467.55,567.04
             467.55,567.04 469.10,570.00 469.10,570.00
             469.10,570.00 470.16,571.84 470.16,571.84
             470.16,571.84 471.43,574.50 471.43,574.50
             471.43,574.50 471.98,576.13 471.98,576.13
             471.98,576.13 472.89,578.79 472.89,578.79
             472.89,578.79 473.73,581.03 473.73,581.03
             473.73,581.03 474.12,582.57 474.12,582.57
             474.12,582.57 474.62,584.40 474.62,584.40
             474.62,584.40 474.74,585.22 474.74,585.22
             474.74,585.22 475.03,586.24 475.03,586.24
             475.03,586.24 475.35,587.98 475.35,587.98
             475.35,587.98 475.56,588.90 475.56,588.90
             475.56,588.90 475.93,591.86 475.93,591.86
             475.93,591.86 476.10,592.98 476.10,592.98
             476.10,592.98 476.17,594.11 476.17,594.11
             476.40,595.40 476.73,596.29 476.73,597.68
             476.73,597.68 476.73,598.09 476.73,598.09
             476.73,598.09 476.83,599.42 476.83,599.42
             476.83,599.42 476.44,603.30 476.44,603.30
             476.40,603.86 476.51,604.05 476.53,604.53
             476.53,604.53 476.42,606.26 476.42,606.26
             476.42,606.26 476.12,608.81 476.12,608.81
             476.11,609.67 476.13,610.52 475.97,611.37
             475.97,611.37 475.66,612.59 475.66,612.59
             475.66,612.59 475.53,613.82 475.53,613.82
             475.53,613.82 474.74,616.37 474.74,616.37
             474.74,616.37 474.66,617.39 474.66,617.39
             474.66,617.39 473.98,620.46 473.98,620.46
             473.98,620.46 473.27,622.19 473.27,622.19
             473.27,622.19 472.81,623.52 472.81,623.52
             472.81,623.52 470.33,628.83 470.33,628.83
             470.33,628.83 468.76,631.90 468.76,631.90
             468.76,631.90 467.71,633.33 467.71,633.33
             467.71,633.33 466.67,634.76 466.67,634.76
             466.67,634.76 463.96,637.52 463.96,637.52
             463.96,637.52 460.18,641.28 460.18,641.28
             460.18,641.28 457.63,643.28 457.63,643.28
             457.63,643.28 456.40,644.33 456.40,644.33
             456.40,644.33 454.87,645.38 454.87,645.38
             454.87,645.38 452.31,647.15 452.31,647.15
             452.31,647.15 451.19,647.80 451.19,647.80
             451.19,647.80 446.49,650.46 446.49,650.46
             446.49,650.46 444.04,651.54 444.04,651.54
             444.04,651.54 441.99,652.48 441.99,652.48
             441.99,652.48 439.85,653.15 439.85,653.15
             439.85,653.15 436.68,654.39 436.68,654.39
             436.68,654.39 435.15,654.79 435.15,654.79
             435.15,654.79 433.41,655.42 433.41,655.42
             433.41,655.42 431.88,656.09 431.88,656.09
             431.88,656.09 427.38,657.21 427.38,657.21
             427.38,657.21 424.83,657.88 424.83,657.88
             424.83,657.88 423.50,658.28 423.50,658.28
             423.50,658.28 421.76,658.48 421.76,658.48
             421.76,658.48 419.92,658.83 419.92,658.83
             419.92,658.83 415.74,659.34 415.74,659.34
             415.74,659.34 414.82,659.42 414.82,659.42
             414.82,659.42 413.59,659.73 413.59,659.73
             413.59,659.73 411.85,659.93 411.85,659.93
             411.85,659.93 409.30,660.29 409.30,660.29
             409.30,660.29 407.25,660.39 407.25,660.39
             407.25,660.39 406.13,660.32 406.13,660.32
             405.81,660.37 405.57,660.59 405.01,660.59
             405.01,660.59 404.09,660.48 404.09,660.48
             404.09,660.48 403.37,660.53 403.37,660.53
             402.01,660.53 401.37,660.28 400.00,660.80
             400.00,660.80 400.10,660.50 400.10,660.50
             400.10,660.50 398.47,660.50 398.47,660.50
             398.47,660.50 397.45,660.41 397.45,660.41
             397.45,660.41 395.91,660.50 395.91,660.50
             395.91,660.50 393.46,660.31 393.46,660.31
             393.46,660.31 392.85,660.38 392.85,660.38
             392.85,660.38 392.13,660.30 392.13,660.30
             392.13,660.30 390.60,660.19 390.60,660.19
             390.60,660.19 389.68,660.19 389.68,660.19
             389.68,660.19 387.84,659.91 387.84,659.91
             387.84,659.91 385.49,659.63 385.49,659.63
             385.49,659.63 383.86,659.30 383.86,659.30
             383.86,659.30 379.77,658.95 379.77,658.95
             379.77,658.95 378.75,658.63 378.75,658.63
             378.75,658.63 378.13,658.63 378.13,658.63
             378.13,658.63 376.40,658.54 376.40,658.54
             376.40,658.54 373.64,658.04 373.64,658.04
             373.64,658.04 372.72,657.77 372.72,657.77
             372.72,657.77 370.88,657.60 370.88,657.60
             370.88,657.60 366.49,656.35 366.49,656.35
             366.49,656.35 365.54,655.92 365.54,655.92
             365.54,655.92 364.75,655.98 364.75,655.98
             364.75,655.98 362.60,655.77 362.60,655.77
             362.60,655.77 360.56,655.26 360.56,655.26
             360.56,655.26 359.54,655.12 359.54,655.12
             359.54,655.12 357.90,654.70 357.90,654.70
             357.90,654.70 352.79,653.58 352.79,653.58
             352.79,653.58 351.26,652.75 351.26,652.75
             351.26,652.75 350.34,652.48 350.34,652.48
             350.34,652.48 348.30,651.81 348.30,651.81
             348.30,651.81 346.66,651.17 346.66,651.17
             346.66,651.17 343.70,650.21 343.70,650.21
             343.70,650.21 342.58,649.77 342.58,649.77
             342.17,649.77 341.25,649.24 340.81,649.04
             340.81,649.04 340.12,648.76 340.12,648.76
             340.12,648.76 336.65,646.64 336.65,646.64
             336.65,646.64 335.06,645.64 335.06,645.64
             334.59,645.24 332.97,643.28 332.60,642.72
             332.60,642.72 331.98,641.70 331.98,641.70
             331.98,641.70 331.08,640.38 331.08,640.38
             331.08,640.38 328.55,635.37 328.55,635.37
             328.55,635.37 327.34,633.12 327.34,633.12
             327.34,633.12 326.86,631.90 326.86,631.90
             326.86,631.90 326.21,630.88 326.21,630.88
             325.76,629.97 325.69,629.43 325.41,628.53
             325.10,627.53 324.72,626.52 324.70,625.46
             324.68,624.76 324.78,624.29 325.00,623.62
             325.17,623.13 325.31,622.84 325.60,622.40
             327.24,619.96 329.90,621.17 332.26,621.17
             332.26,621.17 334.30,621.34 334.30,621.34
             334.30,621.34 336.45,621.09 336.45,621.09
             336.45,621.09 341.35,620.31 341.35,620.31
             341.35,620.31 342.68,619.94 342.68,619.94
             342.68,619.94 344.82,619.50 344.82,619.50
             344.82,619.50 347.17,618.72 347.17,618.72
             347.17,618.72 348.61,618.30 348.61,618.30
             348.61,618.30 351.26,617.03 351.26,617.03
             351.26,617.03 353.20,616.35 353.20,616.35
             353.20,616.35 354.84,615.38 354.84,615.38
             354.84,615.38 358.41,613.39 358.41,613.39
             358.41,613.39 359.54,612.47 359.54,612.47
             359.54,612.47 360.56,611.82 360.56,611.82
             360.56,611.82 361.38,611.11 361.38,611.11
             361.38,611.11 362.71,610.07 362.71,610.07
             362.71,610.07 364.44,608.61 364.44,608.61
             365.07,608.13 365.59,607.85 366.18,607.28
             366.62,606.85 367.07,606.25 367.44,605.75
             368.78,603.95 369.80,602.09 370.07,599.83
             370.07,599.83 370.07,598.40 370.07,598.40
             370.04,596.44 369.60,595.57 368.72,593.90
             368.24,592.99 368.05,592.50 367.36,591.66
             366.64,590.78 366.09,590.57 365.77,590.11
             365.77,590.11 365.22,589.00 365.22,589.00
             364.60,587.87 363.93,586.76 363.15,585.73
             363.15,585.73 361.91,584.20 361.91,584.20
             361.91,584.20 359.66,581.24 359.66,581.24
             359.66,581.24 357.94,579.20 357.94,579.20
             357.94,579.20 357.06,577.77 357.06,577.77
             355.69,575.81 355.01,574.93 354.08,572.66
             354.08,572.66 352.80,569.19 352.80,569.19
             352.80,569.19 352.54,568.16 352.54,568.16
             352.54,568.16 351.95,566.63 351.95,566.63
             351.95,566.63 351.62,564.90 351.62,564.90
             351.62,564.90 351.32,563.77 351.32,563.77
             351.32,563.77 351.11,561.42 351.11,561.42
             350.88,559.91 350.34,557.61 350.34,556.11
             350.34,556.11 350.34,550.70 350.34,550.70
             350.34,549.73 350.58,548.89 350.72,547.94
             350.72,547.94 351.02,545.90 351.02,545.90
             351.02,545.90 351.42,543.96 351.42,543.96
             351.42,543.96 351.60,542.53 351.60,542.53
             351.60,542.53 351.79,541.92 351.79,541.92
             351.79,541.92 351.79,541.40 351.79,541.40
             351.79,541.40 352.02,540.08 352.02,540.08
             352.02,540.08 352.42,538.54 352.42,538.54
             352.98,536.11 353.69,533.77 354.46,531.40
             354.46,531.40 354.83,530.17 354.83,530.17
             354.83,530.17 354.94,529.45 354.94,529.45
             354.94,529.45 356.44,525.98 356.44,525.98
             356.44,525.98 356.83,524.96 356.83,524.96
             356.83,524.96 357.36,523.94 357.36,523.94
             357.36,523.94 357.83,522.82 357.83,522.82
             357.83,522.82 359.65,519.75 359.65,519.75
             359.65,519.75 360.29,518.42 360.29,518.42
             360.29,518.42 361.23,516.89 361.23,516.89
             361.23,516.89 361.73,515.97 361.73,515.97
             361.73,515.97 362.99,514.24 362.99,514.24
             362.99,514.24 365.03,510.97 365.03,510.97
             365.03,510.97 367.55,507.80 367.55,507.80
             367.55,507.80 368.68,506.27 368.68,506.27
             368.68,506.27 370.23,504.33 370.23,504.33
             370.23,504.33 371.58,502.29 371.58,502.29
             371.58,502.29 373.73,499.63 373.73,499.63
             373.73,499.63 375.70,497.28 375.70,497.28
             375.70,497.28 377.72,495.34 377.72,495.34
             377.72,495.34 379.77,493.21 379.77,493.21
             379.77,493.21 382.22,491.05 382.22,491.05
             382.22,491.05 384.09,488.92 384.09,488.92
             384.09,488.92 386.31,486.94 386.31,486.94
             386.31,486.94 386.97,486.22 386.97,486.22
             386.97,486.22 387.74,485.70 387.74,485.70
             388.34,485.27 388.93,484.78 389.47,484.28
             389.47,484.28 390.20,483.55 390.20,483.55
             390.77,483.08 391.06,483.21 391.61,482.67
             392.13,482.16 392.58,481.18 393.36,481.14
             393.66,480.50 395.09,479.31 395.71,478.86
             395.71,478.86 396.53,478.32 396.53,478.32
             396.53,478.32 397.34,477.61 397.34,477.61
             398.10,476.98 399.88,475.58 400.72,475.22
             400.72,475.22 400.61,474.91 400.61,474.91
             400.61,474.91 400.31,475.02 400.31,475.02
             399.90,474.36 399.48,473.72 398.88,473.23
             398.88,473.23 398.16,472.66 398.16,472.66
             398.16,472.66 397.33,471.76 397.33,471.76
             397.33,471.76 396.43,470.93 396.43,470.93
             396.43,470.93 394.46,468.48 394.46,468.48
             394.46,468.48 393.64,467.46 393.64,467.46
             393.64,467.46 393.00,466.83 393.00,466.83
             393.00,466.83 391.91,465.21 391.91,465.21
             391.91,465.21 390.24,463.07 390.24,463.07
             390.24,463.07 389.63,462.15 389.63,462.15
             389.63,462.15 387.71,459.59 387.71,459.59
             387.71,459.59 387.06,458.47 387.06,458.47
             387.06,458.47 386.16,457.24 386.16,457.24
             386.16,457.24 385.22,455.61 385.22,455.61
             385.22,455.61 383.49,452.95 383.49,452.95
             383.49,452.95 380.89,448.15 380.89,448.15
             380.89,448.15 379.52,444.68 379.52,444.68
             379.52,444.68 378.94,443.25 378.94,443.25
             378.94,443.25 378.64,442.23 378.64,442.23
             378.64,442.23 377.19,437.84 377.19,437.84
             377.19,437.84 376.87,436.41 376.87,436.41
             376.87,436.41 376.45,434.88 376.45,434.88
             376.45,434.88 376.37,433.96 376.37,433.96
             376.37,433.96 376.06,431.61 376.06,431.61
             376.06,431.61 375.90,430.69 375.90,430.69
             375.90,430.69 375.77,429.05 375.77,429.05
             375.70,428.41 375.58,428.49 375.58,427.62
             375.58,427.62 375.48,425.07 375.48,425.07
             375.48,425.07 375.32,423.33 375.32,423.33
             375.32,423.33 375.46,422.31 375.46,422.31
             375.46,422.31 375.38,421.19 375.38,421.19
             375.38,421.19 375.77,417.41 375.77,417.41
             375.77,417.41 375.93,415.57 375.93,415.57
             375.93,415.57 376.37,413.22 376.37,413.22
             376.37,413.22 376.55,411.49 376.55,411.49
             376.55,411.49 377.38,408.01 377.38,408.01
             377.38,408.01 377.77,405.87 377.77,405.87
             377.77,405.87 378.47,403.62 378.47,403.62
             378.47,403.62 378.93,401.17 378.93,401.17
             378.93,401.17 379.89,398.82 379.89,398.82
             379.89,398.82 380.30,397.90 380.30,397.90
             380.30,397.90 380.76,395.96 380.76,395.96
             380.76,395.96 381.43,394.02 381.43,394.02
             381.43,394.02 382.09,391.77 382.09,391.77
             382.09,391.77 383.24,389.02 383.24,389.02
             383.24,389.02 384.41,385.54 384.41,385.54
             384.41,385.54 385.04,384.22 385.04,384.22
             385.04,384.22 385.47,382.99 385.47,382.99
             385.47,382.99 386.26,381.25 386.26,381.25
             386.26,381.25 387.20,379.42 387.20,379.42
             387.20,379.42 388.38,376.56 388.38,376.56
             388.38,376.56 388.94,375.53 388.94,375.53
             388.94,375.53 390.07,373.29 390.07,373.29
             390.07,373.29 391.87,370.33 391.87,370.33
             391.87,370.33 393.06,368.18 393.06,368.18
             393.06,368.18 396.62,363.18 396.62,363.18
             396.62,363.18 397.38,361.95 397.38,361.95
             397.38,361.95 398.22,360.72 398.22,360.72
             398.22,360.72 399.09,359.09 399.09,359.09
             399.09,359.09 400.80,356.84 400.80,356.84
             400.80,356.84 401.79,355.31 401.79,355.31
             401.79,355.31 403.01,353.88 403.01,353.88
             403.01,353.88 405.55,350.51 405.55,350.51
             405.55,350.51 407.62,348.26 407.62,348.26
             407.62,348.26 410.88,343.87 410.88,343.87
             410.88,343.87 412.11,342.34 412.11,342.34
             412.11,342.34 413.61,340.40 413.61,340.40
             413.61,340.40 414.35,339.28 414.35,339.28
             414.35,339.28 416.51,336.52 416.51,336.52
             416.51,336.52 418.36,334.07 418.36,334.07
             418.36,334.07 420.50,331.72 420.50,331.72
             420.50,331.72 422.22,329.37 422.22,329.37
             422.22,329.37 422.95,328.04 422.95,328.04
             422.95,328.04 424.28,326.30 424.28,326.30
             424.28,326.30 426.22,323.75 426.22,323.75
             426.22,323.75 427.95,321.91 427.95,321.91
             427.95,321.91 431.08,318.03 431.08,318.03
             431.08,318.03 432.16,316.97 432.16,316.97
             432.16,316.97 432.82,316.19 432.82,316.19
             432.82,316.19 433.48,315.48 433.48,315.48
             433.48,315.48 434.19,314.46 434.19,314.46
             434.19,314.46 437.41,310.48 437.41,310.48
             438.76,309.05 441.47,307.40 443.43,307.05
             443.43,307.05 444.55,306.99 444.55,306.99
             444.90,306.97 445.10,306.89 445.47,306.92
             446.61,307.00 448.55,307.62 449.56,308.16
             449.56,308.16 451.19,309.21 451.19,309.21
             452.89,310.35 452.89,310.42 454.36,311.79
             455.08,312.47 455.23,312.47 455.96,313.33
             456.78,314.30 458.02,316.70 458.36,317.93
             458.36,317.93 458.56,319.16 458.56,319.16
             458.62,319.57 458.77,320.52 458.74,320.89
             458.71,321.35 458.54,321.78 458.45,322.22
             458.26,323.07 458.38,323.31 457.99,324.26
             457.99,324.26 455.84,328.35 455.84,328.35
             455.31,329.45 455.41,329.60 455.14,330.70
             454.85,331.88 454.56,332.94 454.56,334.17
             454.56,335.60 454.50,337.04 454.69,338.46
             454.69,338.46 455.54,342.44 455.54,342.44
             455.54,342.44 455.89,344.69 455.89,344.69
             455.89,344.69 456.07,345.32 456.07,345.32
             456.14,345.69 456.04,346.10 456.30,346.94
             456.30,346.94 457.28,349.59 457.28,349.59
             457.28,349.59 457.62,350.61 457.62,350.61
             457.62,350.61 458.09,351.53 458.09,351.53
             458.09,351.53 458.59,353.17 458.59,353.17
             458.59,353.17 459.85,356.23 459.85,356.23
             459.85,356.23 461.37,360.11 461.37,360.11
             461.37,360.11 462.88,363.99 462.88,363.99
             462.88,363.99 463.59,365.63 463.59,365.63
             463.59,365.63 463.96,366.85 463.96,366.85
             463.96,366.85 464.54,367.98 464.54,367.98
             464.54,367.98 464.91,368.90 464.91,368.90
             464.91,368.90 465.98,370.73 465.98,370.73
             465.98,370.73 467.53,373.59 467.53,373.59
             467.53,373.59 468.16,374.62 468.16,374.62
             468.16,374.62 469.12,376.45 469.12,376.45
             469.12,376.45 471.27,379.82 471.27,379.82
             471.27,379.82 472.86,382.48 472.86,382.48
             472.86,382.48 474.95,385.03 474.95,385.03
             474.95,385.03 476.54,387.18 476.54,387.18
             476.54,387.18 478.28,389.83 478.28,389.83
             478.28,389.83 479.71,391.67 479.71,391.67
             479.71,391.67 481.87,394.43 481.87,394.43
             481.87,394.43 483.35,396.06 483.35,396.06
             483.35,396.06 484.62,397.59 484.62,397.59
             484.62,397.59 485.62,398.52 485.62,398.52
             485.62,398.52 487.87,400.66 487.87,400.66
             487.87,400.66 490.73,403.62 490.73,403.62
             490.73,403.62 492.27,405.05 492.27,405.05
             492.27,405.05 493.90,406.79 493.90,406.79
             493.90,406.79 495.02,407.81 495.02,407.81
             495.02,407.81 497.78,410.56 497.78,410.56
             497.78,410.56 498.70,411.39 498.70,411.39
             498.70,411.39 499.83,412.49 499.83,412.49
             499.83,412.49 501.15,413.56 501.15,413.56
             501.15,413.56 502.99,415.10 502.99,415.10
             502.99,415.10 504.02,415.83 504.02,415.83
             504.02,415.83 505.24,416.82 505.24,416.82
             505.24,416.82 506.67,417.79 506.67,417.79
             506.67,417.79 507.80,418.69 507.80,418.69
             507.80,418.69 509.64,420.03 509.64,420.03
             509.64,420.03 512.80,422.56 512.80,422.56
             512.80,422.56 514.13,423.67 514.13,423.67
             514.13,423.67 517.30,425.78 517.30,425.78
             517.30,425.78 518.32,426.61 518.32,426.61
             518.32,426.61 523.84,430.80 523.84,430.80
             523.84,430.80 525.68,431.98 525.68,431.98
             525.68,431.98 527.93,433.51 527.93,433.51
             527.93,433.51 528.74,433.94 528.74,433.94
             528.74,433.94 529.87,434.89 529.87,434.89
             529.87,434.89 531.81,436.36 531.81,436.36
             532.71,437.02 533.68,437.60 534.67,438.12
             535.06,438.33 535.78,438.92 536.10,438.96
             536.47,439.01 537.00,438.65 537.33,438.47
             537.85,438.17 539.10,437.58 539.28,437.02
             539.37,436.79 539.31,436.54 539.28,436.31
             539.28,436.31 539.68,436.82 539.68,436.82
             540.04,436.59 540.38,436.41 540.68,436.09
             541.17,435.58 541.54,434.46 541.66,433.75
             541.66,433.75 541.72,433.24 541.72,433.24
             541.72,433.24 542.05,432.42 542.05,432.42
             542.05,432.42 542.47,430.79 542.47,430.79
             542.47,430.79 543.20,427.11 543.20,427.11
             543.20,427.11 543.30,426.30 543.30,426.30
             543.30,426.30 543.61,424.97 543.61,424.97
             543.61,424.97 544.45,420.47 544.45,420.47
             544.58,419.58 544.58,419.32 544.58,418.43
             544.58,418.43 544.78,414.86 544.78,414.86
             544.78,414.86 544.89,413.33 544.89,413.33
             544.90,412.12 545.11,411.04 544.63,409.85
             544.17,408.69 542.85,407.91 542.04,406.99
             542.04,406.99 540.67,405.15 540.67,405.15
             540.25,404.69 540.08,404.61 539.68,404.23
             539.68,404.23 538.75,403.23 538.75,403.23
             538.75,403.23 537.64,402.19 537.64,402.19
             537.64,402.19 536.66,400.78 536.66,400.78
             535.96,399.96 534.75,399.02 534.26,398.11
             534.26,398.11 533.95,398.21 533.95,398.21
             534.30,397.32 533.90,397.05 533.03,397.09
             533.03,397.09 533.14,396.57 533.14,396.57
             533.14,396.57 532.11,395.66 532.11,395.66
             532.11,395.66 532.01,395.96 532.01,395.96
             530.90,395.31 531.65,393.98 531.42,393.10
             531.24,392.43 530.81,392.21 530.58,391.77
             530.58,391.77 530.32,391.06 530.32,391.06
             530.32,391.06 529.36,389.12 529.36,389.12
             529.36,389.12 528.84,389.32 528.84,389.32
             529.04,388.43 528.77,388.43 528.42,387.69
             528.42,387.69 528.13,386.87 528.13,386.87
             527.89,387.27 527.83,387.29 527.41,387.48
             527.34,387.07 527.22,386.48 527.31,386.07
             527.45,385.41 527.69,385.95 527.62,384.83
             527.62,384.83 527.21,384.93 527.21,384.93
             527.25,384.70 527.31,384.46 527.29,384.22 Z
           M 599.35,311.29
           C 599.35,311.29 599.24,311.39 599.24,311.39
             599.24,311.39 599.24,311.29 599.24,311.29
             599.24,311.29 599.35,311.29 599.35,311.29 Z
           M 578.20,321.88
           C 578.20,321.88 575.44,323.03 575.44,323.03
             575.44,323.03 572.89,324.28 572.89,324.28
             572.89,324.28 572.25,324.79 572.25,324.79
             572.25,324.79 571.45,325.19 571.45,325.19
             570.32,325.86 570.51,325.99 569.10,326.41
             569.10,326.41 569.00,326.00 569.00,326.00
             569.00,326.00 568.68,326.71 568.68,326.71
             568.68,326.71 568.26,327.43 568.26,327.43
             568.26,327.43 568.08,328.25 568.08,328.25
             567.73,327.70 567.36,328.08 566.94,328.35
             566.20,328.82 565.10,329.55 564.81,330.39
             564.81,330.39 564.61,330.29 564.61,330.29
             564.61,330.29 564.50,330.70 564.50,330.70
             563.51,330.57 562.37,331.80 561.64,332.41
             561.20,332.78 560.32,333.45 560.00,333.87
             559.57,334.44 559.65,334.73 559.35,335.07
             559.01,335.45 558.68,335.34 558.09,336.01
             558.09,336.01 557.28,337.13 557.28,337.13
             556.68,337.91 555.99,338.67 555.31,339.38
             555.31,339.38 554.34,340.59 554.34,340.59
             553.85,341.18 552.97,341.79 553.06,342.65
             552.24,343.03 552.44,343.22 551.97,343.87
             551.64,344.34 551.38,344.38 551.43,345.00
             551.43,345.00 551.12,344.89 551.12,344.89
             550.87,345.74 550.54,345.70 550.36,346.14
             550.36,346.14 550.16,346.94 550.16,346.94
             550.16,346.94 549.31,348.67 549.31,348.67
             549.31,348.67 548.51,350.51 548.51,350.51
             548.51,350.51 547.99,351.33 547.99,351.33
             547.99,351.33 547.71,352.15 547.71,352.15
             547.71,352.15 547.28,353.06 547.28,353.06
             547.28,353.06 546.49,355.41 546.49,355.41
             546.49,355.41 545.86,356.95 545.86,356.95
             545.86,356.95 545.57,359.81 545.57,359.81
             545.57,359.81 545.38,360.93 545.38,360.93
             545.38,360.93 545.20,361.44 545.20,361.44
             545.15,361.75 545.26,361.86 545.20,362.26
             545.20,362.26 544.96,363.07 544.96,363.07
             544.96,363.07 545.09,364.61 545.09,364.61
             545.09,364.61 545.00,365.93 545.00,365.93
             545.00,365.93 545.18,367.06 545.18,367.06
             545.18,367.06 545.44,369.20 545.44,369.20
             545.44,369.20 545.78,370.53 545.78,370.53
             545.78,370.53 545.95,371.42 545.95,371.42
             545.95,371.42 546.19,372.06 546.19,372.06
             546.19,372.06 546.48,374.21 546.48,374.21
             546.64,374.70 547.09,375.30 547.36,375.74
             547.36,375.74 548.43,377.88 548.43,377.88
             548.69,378.47 548.48,378.58 548.71,379.21
             549.04,380.07 549.82,381.25 550.28,382.07
             550.28,382.07 550.61,382.84 550.61,382.84
             550.73,383.03 550.92,383.11 551.17,383.50
             551.17,383.50 552.12,385.14 552.12,385.14
             552.12,385.14 553.59,386.97 553.59,386.97
             553.59,386.97 554.24,387.62 554.24,387.62
             554.24,387.62 554.85,388.60 554.85,388.60
             554.85,388.60 556.11,389.83 556.11,389.83
             556.11,389.83 557.09,391.06 557.09,391.06
             557.09,391.06 557.91,391.98 557.91,391.98
             557.91,391.98 558.41,392.67 558.41,392.67
             558.41,392.67 559.23,393.41 559.23,393.41
             559.23,393.41 559.66,394.01 559.66,394.01
             559.66,394.01 561.55,396.15 561.55,396.15
             561.55,396.15 562.36,396.88 562.36,396.88
             562.36,396.88 563.40,397.94 563.40,397.94
             563.40,397.94 564.50,398.85 564.50,398.85
             564.50,398.85 566.13,400.46 566.13,400.46
             566.13,400.46 567.32,401.96 567.32,401.96
             567.66,402.27 567.88,402.21 568.11,402.45
             568.48,402.84 568.30,403.23 569.20,403.42
             569.20,403.42 569.10,403.83 569.10,403.83
             569.10,403.83 570.74,404.85 570.74,404.85
             570.74,404.85 570.63,405.15 570.63,405.15
             571.40,405.42 571.17,405.66 571.52,406.02
             571.89,406.39 572.11,406.08 572.37,406.79
             573.18,407.03 573.11,407.65 573.71,408.18
             573.71,408.18 575.23,409.19 575.23,409.19
             575.68,409.57 575.69,409.81 575.99,410.13
             575.99,410.13 576.54,410.60 576.54,410.60
             576.54,410.60 577.54,411.59 577.54,411.59
             577.54,411.59 578.60,412.61 578.60,412.61
             579.10,413.12 579.10,413.44 579.83,413.53
             579.94,414.19 580.47,414.34 580.95,414.77
             580.95,414.77 581.87,415.66 581.87,415.66
             582.57,416.29 583.42,416.89 583.71,417.82
             583.71,417.82 583.82,417.82 583.82,417.82
             583.82,417.82 584.02,417.61 584.02,417.61
             584.02,417.61 584.12,418.02 584.12,418.02
             584.12,418.02 584.53,417.92 584.53,417.92
             584.81,418.51 585.10,418.63 585.55,419.05
             585.55,419.05 586.39,419.94 586.39,419.94
             587.21,420.70 587.40,420.56 588.00,421.70
             588.00,421.70 589.13,422.11 589.13,422.11
             589.13,422.11 588.92,422.31 588.92,422.31
             588.92,422.31 588.92,422.42 588.92,422.42
             588.92,422.42 589.44,422.52 589.44,422.52
             589.44,422.52 589.74,423.13 589.74,423.13
             590.53,423.20 590.54,423.56 591.08,423.99
             591.44,424.28 591.67,424.27 592.07,424.67
             592.48,425.08 592.59,425.58 593.22,425.58
             593.60,426.34 593.67,426.12 594.21,426.62
             595.37,427.72 595.10,427.31 596.28,427.99
             596.28,427.99 598.53,429.43 598.53,429.43
             599.02,429.76 600.14,430.65 600.67,430.73
             601.42,430.84 601.73,430.05 602.11,429.87
             602.34,429.75 602.58,429.83 602.82,429.87
             602.82,429.87 602.92,429.26 602.92,429.26
             603.71,429.23 603.45,429.10 603.96,428.72
             604.10,428.61 604.29,428.52 604.46,428.44
             604.46,428.44 604.35,428.14 604.35,428.14
             605.03,427.94 605.06,427.64 605.58,427.26
             605.58,427.26 606.70,426.67 606.70,426.67
             606.70,426.67 607.93,425.52 607.93,425.52
             607.93,425.52 609.30,424.68 609.30,424.68
             609.30,424.68 609.88,423.95 609.88,423.95
             609.88,423.95 611.61,422.26 611.61,422.26
             611.61,422.26 613.55,420.80 613.55,420.80
             613.88,420.58 614.26,420.43 614.54,420.15
             614.54,420.15 615.01,419.56 615.01,419.56
             615.01,419.56 615.75,418.90 615.75,418.90
             615.75,418.90 616.52,418.07 616.52,418.07
             616.52,418.07 617.54,417.29 617.54,417.29
             618.47,416.48 618.33,416.23 619.58,415.67
             619.58,415.67 619.48,415.37 619.48,415.37
             619.48,415.37 619.99,415.06 619.99,415.06
             619.99,415.06 620.19,415.16 620.19,415.16
             620.19,415.16 621.48,413.68 621.48,413.68
             621.48,413.68 622.07,413.12 622.07,413.12
             622.07,413.12 622.59,412.30 622.59,412.30
             622.59,412.30 623.87,410.26 623.87,410.26
             623.87,410.26 624.07,410.36 624.07,410.36
             624.07,410.36 625.61,407.81 625.61,407.81
             625.61,407.81 625.40,407.61 625.40,407.61
             626.10,407.07 626.78,405.40 627.03,404.54
             627.03,404.54 627.31,403.62 627.31,403.62
             627.31,403.62 627.40,402.70 627.40,402.70
             627.60,401.87 627.89,401.02 627.95,400.15
             627.95,400.15 627.82,397.80 627.82,397.80
             627.82,397.32 627.98,397.30 627.95,396.88
             627.95,396.88 627.81,395.96 627.81,395.96
             627.81,395.96 627.61,395.35 627.61,395.35
             627.61,395.35 627.61,394.84 627.61,394.84
             627.45,394.28 627.09,394.24 627.34,393.20
             627.34,393.20 627.04,393.10 627.04,393.10
             627.22,392.63 627.04,391.75 626.81,391.29
             626.81,391.29 625.09,389.01 625.09,389.01
             625.09,389.01 624.48,387.79 624.48,387.79
             624.48,387.79 624.18,387.89 624.18,387.89
             624.12,386.71 623.22,385.92 622.64,384.93
             622.21,384.81 621.98,384.44 621.69,384.11
             621.69,384.11 620.09,382.38 620.09,382.38
             619.76,382.04 619.54,381.75 619.07,381.66
             619.07,381.66 618.76,380.74 618.76,380.74
             618.76,380.74 618.45,380.85 618.45,380.85
             618.11,380.05 617.16,379.00 616.51,378.42
             616.51,378.42 615.34,377.40 615.34,377.40
             614.90,376.94 614.54,376.28 613.86,376.25
             613.86,376.25 612.22,374.43 612.22,374.43
             612.22,374.43 611.40,373.74 611.40,373.74
             610.96,373.37 610.25,372.97 610.18,372.37
             610.18,372.37 608.92,371.18 608.92,371.18
             608.55,370.90 608.28,370.90 607.73,370.41
             607.10,369.86 607.03,369.51 606.75,369.25
             606.75,369.25 605.90,368.66 605.90,368.66
             605.90,368.66 604.97,367.69 604.97,367.69
             604.97,367.69 603.84,366.93 603.84,366.93
             603.84,366.93 602.61,365.54 602.61,365.54
             601.66,364.63 601.72,364.96 600.53,363.58
             600.53,363.58 599.34,362.40 599.34,362.40
             599.34,362.40 598.81,361.67 598.81,361.67
             598.46,361.30 597.95,361.03 597.81,360.52
             597.81,360.52 595.82,358.65 595.82,358.65
             595.82,358.65 595.50,358.19 595.50,358.19
             595.50,358.19 594.63,357.28 594.63,357.28
             594.63,357.28 593.73,356.43 593.73,356.43
             593.73,356.43 593.00,355.63 593.00,355.63
             593.00,355.63 592.25,354.97 592.25,354.97
             592.25,354.97 591.81,354.19 591.81,354.19
             591.81,354.19 590.62,352.76 590.62,352.76
             590.62,352.76 588.99,351.12 588.99,351.12
             588.99,351.12 587.80,349.29 587.80,349.29
             587.80,349.29 587.19,347.86 587.19,347.86
             587.19,347.86 586.32,346.83 586.32,346.83
             586.32,346.83 585.76,345.51 585.76,345.51
             585.76,345.51 585.65,345.51 585.65,345.51
             585.65,345.51 585.45,345.71 585.45,345.71
             585.44,345.15 585.48,344.88 584.94,344.59
             584.98,343.83 584.59,343.26 583.92,342.95
             583.92,342.95 584.02,342.65 584.02,342.65
             584.02,342.65 583.92,342.54 583.92,342.54
             583.92,342.54 583.71,342.65 583.71,342.65
             583.71,342.65 582.85,341.01 582.85,341.01
             582.85,341.01 582.28,339.99 582.28,339.99
             582.34,339.35 581.86,338.76 581.67,338.15
             581.67,338.15 581.49,337.34 581.49,337.34
             581.49,337.34 581.00,335.91 581.00,335.91
             581.00,335.91 580.81,334.78 580.81,334.78
             580.61,334.02 580.23,333.34 580.23,332.54
             580.23,330.80 579.75,331.74 579.73,329.68
             579.73,329.68 579.47,327.94 579.47,327.94
             579.47,327.94 579.30,326.30 579.30,326.30
             579.30,326.30 579.14,324.98 579.14,324.98
             579.14,324.98 579.22,323.85 579.22,323.85
             579.22,323.85 579.22,321.71 579.22,321.71
             579.22,321.71 578.20,321.88 578.20,321.88 Z
           M 580.75,334.88
           C 580.75,334.88 580.65,334.99 580.65,334.99
             580.65,334.99 580.65,334.88 580.65,334.88
             580.65,334.88 580.75,334.88 580.75,334.88 Z
           M 584.12,343.16
           C 584.12,343.16 584.02,343.26 584.02,343.26
             584.02,343.26 584.02,343.16 584.02,343.16
             584.02,343.16 584.12,343.16 584.12,343.16 Z
           M 435.37,347.04
           C 435.37,347.04 434.18,348.88 434.18,348.88
             434.18,348.88 432.57,351.23 432.57,351.23
             432.57,351.23 429.12,355.82 429.12,355.82
             429.12,355.82 428.21,357.35 428.21,357.35
             428.21,357.35 426.08,360.32 426.08,360.32
             426.08,360.32 423.82,362.87 423.82,362.87
             423.82,362.87 422.62,364.40 422.62,364.40
             422.62,364.40 419.95,367.98 419.95,367.98
             419.95,367.98 418.04,370.33 418.04,370.33
             418.04,370.33 416.61,372.37 416.61,372.37
             416.61,372.37 412.64,377.68 412.64,377.68
             412.64,377.68 410.22,381.56 410.22,381.56
             410.22,381.56 409.43,382.99 409.43,382.99
             409.43,382.99 408.14,384.83 408.14,384.83
             408.14,384.83 406.95,386.77 406.95,386.77
             406.95,386.77 406.09,388.00 406.09,388.00
             406.09,388.00 405.47,389.32 405.47,389.32
             405.47,389.32 404.22,391.37 404.22,391.37
             404.22,391.37 403.21,393.61 403.21,393.61
             403.21,393.61 402.70,394.63 402.70,394.63
             402.70,394.63 402.24,395.96 402.24,395.96
             402.24,395.96 401.82,396.88 401.82,396.88
             401.82,396.88 401.60,397.70 401.60,397.70
             401.60,397.70 401.25,398.52 401.25,398.52
             401.25,398.52 399.96,403.01 399.96,403.01
             399.96,403.01 399.23,405.56 399.23,405.56
             399.23,405.56 398.96,407.50 398.96,407.50
             398.96,407.50 398.16,411.49 398.16,411.49
             398.16,411.49 397.70,413.12 397.70,413.12
             397.70,413.12 397.75,414.45 397.75,414.45
             397.75,414.45 397.56,416.08 397.56,416.08
             397.56,416.08 397.65,417.41 397.65,417.41
             397.65,417.41 397.44,419.25 397.44,419.25
             397.44,419.25 397.44,420.37 397.44,420.37
             397.44,420.37 397.34,421.50 397.34,421.50
             397.34,421.50 397.34,423.44 397.34,423.44
             397.34,423.44 397.45,424.46 397.45,424.46
             397.45,424.46 397.45,425.48 397.45,425.48
             397.45,425.48 397.65,427.11 397.65,427.11
             397.65,427.11 397.65,427.93 397.65,427.93
             397.65,427.93 397.82,428.75 397.82,428.75
             397.84,429.12 397.74,429.20 397.82,429.67
             397.82,429.67 399.18,434.57 399.18,434.57
             399.18,434.57 399.51,435.90 399.51,435.90
             399.51,435.90 400.63,438.14 400.63,438.14
             400.63,438.14 401.56,440.29 401.56,440.29
             402.45,442.02 404.34,444.67 405.56,446.21
             405.56,446.21 407.17,448.15 407.17,448.15
             407.17,448.15 408.24,449.28 408.24,449.28
             408.53,449.65 408.73,450.18 408.98,450.61
             408.98,450.61 410.08,452.33 410.08,452.33
             410.08,452.33 410.67,452.96 410.67,452.96
             410.67,452.96 411.73,454.08 411.73,454.08
             411.73,454.08 413.33,455.90 413.33,455.90
             413.33,455.90 414.08,456.86 414.08,456.86
             414.20,456.96 414.22,456.92 414.30,456.94
             414.46,457.38 415.08,457.80 415.42,458.16
             415.42,458.16 417.68,460.72 417.68,460.72
             418.67,461.74 419.46,462.95 420.31,464.09
             420.31,464.09 421.02,464.90 421.02,464.90
             421.02,464.90 421.80,465.93 421.80,465.93
             421.80,465.93 422.45,466.64 422.45,466.64
             422.45,466.64 424.06,468.68 424.06,468.68
             424.40,469.08 424.69,469.41 425.24,469.40
             425.37,470.19 425.91,470.13 426.46,470.56
             426.46,470.56 427.20,471.26 427.20,471.26
             427.95,471.89 428.49,472.25 429.22,472.97
             429.22,472.97 430.76,474.61 430.76,474.61
             430.76,474.61 432.80,476.55 432.80,476.55
             432.80,476.55 433.85,477.71 433.85,477.71
             433.85,477.71 434.84,478.43 434.84,478.43
             434.84,478.43 438.21,481.41 438.21,481.41
             438.21,481.41 441.48,484.12 441.48,484.12
             441.48,484.12 442.51,485.08 442.51,485.08
             442.51,485.08 445.78,487.62 445.78,487.62
             445.78,487.62 447.61,489.41 447.61,489.41
             447.61,489.41 448.64,490.24 448.64,490.24
             448.64,490.24 449.76,491.22 449.76,491.22
             449.76,491.22 450.88,492.01 450.88,492.01
             450.88,492.01 453.23,493.69 453.23,493.69
             453.23,493.69 454.97,495.01 454.97,495.01
             454.97,495.01 455.67,495.51 455.67,495.51
             455.67,495.51 456.40,496.19 456.40,496.19
             456.40,496.19 457.83,497.00 457.83,497.00
             457.83,497.00 459.57,498.06 459.57,498.06
             460.10,498.29 460.38,498.10 460.88,498.49
             461.24,498.76 461.44,499.18 461.75,499.50
             461.75,499.50 463.55,501.12 463.55,501.12
             463.55,501.12 465.50,502.33 465.50,502.33
             465.50,502.33 467.03,503.44 467.03,503.44
             467.03,503.44 467.85,504.15 467.85,504.15
             467.85,504.15 469.17,505.02 469.17,505.02
             469.17,505.02 471.42,506.69 471.42,506.69
             472.29,507.35 472.41,507.69 472.86,508.03
             472.86,508.03 473.87,508.66 473.87,508.66
             473.87,508.66 475.84,510.23 475.84,510.23
             475.84,510.23 476.30,510.53 476.30,510.53
             476.59,510.78 476.55,511.07 476.86,511.30
             477.06,511.45 477.32,511.46 477.55,511.55
             477.91,511.69 478.56,512.05 478.88,512.28
             478.88,512.28 480.41,513.45 480.41,513.45
             480.41,513.45 481.23,514.19 481.23,514.19
             481.23,514.19 482.56,515.18 482.56,515.18
             482.56,515.18 483.78,516.23 483.78,516.23
             483.78,516.23 486.34,518.11 486.34,518.11
             486.34,518.11 487.97,519.46 487.97,519.46
             487.97,519.46 489.30,520.41 489.30,520.41
             489.30,520.41 490.56,521.62 490.56,521.62
             490.56,521.62 491.65,522.25 491.65,522.25
             491.65,522.25 493.18,523.46 493.18,523.46
             493.18,523.46 493.80,523.99 493.80,523.99
             494.16,524.25 494.40,524.23 494.91,524.64
             494.91,524.64 496.15,525.98 496.15,525.98
             496.64,525.94 497.09,526.31 497.48,526.59
             497.48,526.59 500.13,528.85 500.13,528.85
             500.13,528.85 502.69,530.65 502.69,530.65
             502.69,530.65 504.32,531.96 504.32,531.96
             504.32,531.96 507.18,533.93 507.18,533.93
             507.18,533.93 509.74,535.70 509.74,535.70
             509.74,535.70 510.76,536.50 510.76,536.50
             511.56,537.04 511.81,536.96 512.70,537.83
             512.70,537.83 514.03,539.24 514.03,539.24
             514.03,539.24 516.38,541.20 516.38,541.20
             516.87,541.68 517.47,542.49 518.22,542.43
             518.24,542.56 518.23,542.64 518.32,542.77
             518.32,542.77 520.06,544.27 520.06,544.27
             520.06,544.27 521.89,546.00 521.89,546.00
             521.89,546.00 522.63,546.88 522.63,546.88
             523.58,547.80 523.76,547.70 524.66,548.96
             525.41,549.15 525.46,549.82 526.01,550.23
             527.56,551.40 529.97,554.16 531.33,555.70
             531.33,555.70 533.17,557.82 533.17,557.82
             533.17,557.82 535.04,559.66 535.04,559.66
             535.04,559.66 535.42,560.20 535.42,560.20
             535.42,560.20 536.08,561.01 536.08,561.01
             536.08,561.01 536.77,562.01 536.77,562.01
             536.77,562.01 537.69,562.86 537.69,562.86
             537.69,562.86 538.62,564.08 538.62,564.08
             538.62,564.08 540.37,566.33 540.37,566.33
             540.60,566.66 540.58,566.73 540.74,567.04
             540.74,567.04 541.58,568.47 541.58,568.47
             541.58,568.47 543.51,571.33 543.51,571.33
             543.51,571.33 544.71,573.58 544.71,573.58
             544.71,573.58 545.36,574.70 545.36,574.70
             546.02,576.08 545.67,575.88 546.11,576.85
             546.74,576.88 546.49,577.14 546.70,577.56
             546.70,577.56 547.18,578.28 547.18,578.28
             547.18,578.28 547.59,579.20 547.59,579.20
             547.59,579.20 548.31,580.11 548.31,580.11
             548.31,580.11 548.76,580.93 548.76,580.93
             549.23,581.69 549.53,581.98 549.91,582.87
             549.91,582.87 550.60,584.73 550.60,584.73
             550.71,584.84 550.74,584.79 550.81,584.81
             550.65,585.42 550.84,585.32 550.99,585.84
             551.29,586.91 551.72,587.88 552.15,588.90
             552.42,589.51 552.33,589.86 553.06,590.02
             553.06,590.02 553.50,591.86 553.50,591.86
             553.50,591.86 553.81,592.47 553.81,592.47
             553.81,592.47 554.06,593.90 554.06,593.90
             554.06,593.90 554.84,595.64 554.84,595.64
             554.84,595.64 555.58,598.50 555.58,598.50
             555.58,598.50 555.87,599.42 555.87,599.42
             555.87,599.42 556.27,601.26 556.27,601.26
             556.27,601.26 556.91,603.10 556.91,603.10
             556.91,603.10 557.15,606.67 557.15,606.67
             557.15,606.67 557.05,608.61 557.05,608.61
             557.05,608.61 556.94,609.53 556.94,609.53
             556.94,609.53 556.78,610.76 556.78,610.76
             556.78,610.76 557.03,612.19 557.03,612.19
             557.03,612.19 556.93,614.43 556.93,614.43
             556.93,614.43 556.63,616.37 556.63,616.37
             556.63,616.37 556.63,617.39 556.63,617.39
             556.63,617.39 556.18,618.62 556.18,618.62
             556.18,618.62 556.13,619.85 556.13,619.85
             557.69,618.85 558.03,617.35 559.06,615.96
             559.06,615.96 560.48,614.43 560.48,614.43
             560.48,614.43 561.12,613.41 561.12,613.41
             561.12,613.41 561.90,612.30 561.90,612.30
             561.90,612.30 562.53,611.57 562.53,611.57
             562.53,611.57 563.39,610.14 563.39,610.14
             563.39,610.14 563.95,609.43 563.95,609.43
             563.95,609.43 564.35,608.82 564.35,608.82
             564.59,608.51 564.77,608.49 564.91,608.10
             564.91,608.10 565.32,608.20 565.32,608.20
             565.32,608.20 566.21,606.57 566.21,606.57
             566.21,606.57 567.04,604.85 567.04,604.85
             567.04,604.85 567.60,604.29 567.60,604.29
             567.60,604.29 568.26,603.20 568.26,603.20
             568.26,603.20 569.67,601.46 569.67,601.46
             569.67,601.46 570.34,600.34 570.34,600.34
             570.34,600.34 570.96,599.52 570.96,599.52
             571.19,599.14 571.11,599.03 571.57,598.40
             571.57,598.40 572.80,596.97 572.80,596.97
             572.80,596.97 574.46,594.11 574.46,594.11
             574.46,594.11 576.39,591.04 576.39,591.04
             576.39,591.04 576.95,590.02 576.95,590.02
             576.95,590.02 577.45,589.31 577.45,589.31
             577.45,589.31 577.84,588.39 577.84,588.39
             578.16,587.70 578.55,587.15 579.00,586.55
             579.52,585.86 579.36,585.37 579.83,585.22
             579.96,584.60 580.12,584.62 580.37,584.10
             580.37,584.10 580.70,583.28 580.70,583.28
             580.70,583.28 581.46,581.95 581.46,581.95
             581.46,581.95 582.71,580.22 582.71,580.22
             582.71,580.22 583.24,579.09 583.24,579.09
             583.24,579.09 583.99,577.66 583.99,577.66
             583.99,577.66 584.90,575.71 584.90,575.71
             584.90,575.71 585.16,575.11 585.16,575.11
             585.40,574.67 585.73,574.52 586.13,573.78
             586.52,573.07 587.61,569.96 587.86,569.08
             587.86,569.08 588.12,567.86 588.12,567.86
             588.12,567.86 589.77,562.65 589.77,562.65
             589.77,562.65 590.02,561.63 590.02,561.63
             590.02,561.63 591.02,558.16 591.02,558.16
             591.02,558.16 591.18,556.01 591.18,556.01
             591.26,555.28 591.38,555.67 591.38,554.48
             591.38,554.48 591.58,554.58 591.58,554.58
             591.58,554.58 591.58,553.25 591.58,553.25
             591.58,553.25 591.77,552.44 591.77,552.44
             591.77,552.44 591.90,550.80 591.90,550.80
             592.08,549.61 592.39,550.07 592.19,548.55
             592.19,548.55 592.40,548.66 592.40,548.66
             592.40,548.66 592.30,545.59 592.30,545.59
             592.30,545.59 592.47,543.24 592.47,543.24
             592.47,543.24 592.68,541.92 592.68,541.92
             592.68,541.92 592.36,540.08 592.36,540.08
             592.36,540.08 592.60,538.54 592.60,538.54
             592.24,538.40 592.03,537.30 592.04,536.91
             592.04,536.91 592.04,536.30 592.04,536.30
             592.06,535.63 591.85,535.15 591.75,534.56
             591.75,534.56 591.75,533.85 591.75,533.85
             591.75,533.85 591.52,533.13 591.52,533.13
             591.44,532.64 591.59,532.43 591.52,532.14
             591.52,532.14 591.30,531.60 591.30,531.60
             591.15,531.11 590.97,529.59 591.17,529.15
             590.63,528.19 590.84,528.23 590.61,527.31
             590.61,527.31 590.20,526.19 590.20,526.19
             590.13,525.85 590.15,525.23 590.15,524.86
             590.15,524.86 589.74,524.96 589.74,524.96
             589.78,524.04 589.21,522.50 588.75,521.69
             588.75,521.69 588.23,520.88 588.23,520.88
             588.23,520.88 587.75,519.45 587.75,519.45
             587.50,518.80 586.96,518.07 587.09,517.40
             586.50,517.22 586.45,516.80 586.22,516.28
             586.22,516.28 585.22,513.73 585.22,513.73
             585.18,513.54 585.22,513.30 585.22,513.11
             585.22,513.11 584.74,513.11 584.74,513.11
             584.62,512.29 584.32,511.78 583.92,511.07
             583.92,511.07 583.61,511.17 583.61,511.17
             583.61,511.17 582.18,508.82 582.18,508.82
             582.18,508.82 581.87,508.93 581.87,508.93
             581.87,508.93 581.44,507.82 581.44,507.82
             581.44,507.82 580.82,507.27 580.82,507.27
             580.82,507.27 580.44,506.27 580.44,506.27
             580.44,506.27 580.14,506.37 580.14,506.37
             580.08,506.19 580.08,506.13 579.97,505.96
             579.97,505.96 577.92,503.72 577.92,503.72
             577.92,503.72 575.66,500.65 575.66,500.65
             575.66,500.65 574.86,499.73 574.86,499.73
             574.86,499.73 574.27,498.83 574.27,498.83
             574.27,498.83 573.65,498.20 573.65,498.20
             573.65,498.20 572.34,496.60 572.34,496.60
             572.34,496.60 570.57,494.80 570.57,494.80
             570.57,494.80 569.20,493.21 569.20,493.21
             569.20,493.21 567.57,492.03 567.57,492.03
             567.57,492.03 563.99,488.71 563.99,488.71
             563.99,488.71 563.08,487.97 563.08,487.97
             563.08,487.97 561.95,486.77 561.95,486.77
             561.95,486.77 561.13,486.04 561.13,486.04
             561.13,486.04 560.21,485.16 560.21,485.16
             560.21,485.16 559.52,484.66 559.52,484.66
             559.52,484.66 558.78,483.84 558.78,483.84
             558.78,483.84 556.23,481.81 556.23,481.81
             556.23,481.81 555.31,480.96 555.31,480.96
             555.31,480.96 554.49,480.30 554.49,480.30
             554.49,480.30 553.49,479.39 553.49,479.39
             553.49,479.39 552.93,478.76 552.93,478.76
             552.93,478.76 551.94,478.25 551.94,478.25
             551.94,478.25 550.81,477.43 550.81,477.43
             549.83,476.68 549.89,476.52 549.48,476.17
             549.48,476.17 548.85,475.80 548.85,475.80
             548.85,475.80 547.13,474.44 547.13,474.44
             547.13,474.44 545.70,473.44 545.70,473.44
             545.70,473.44 544.26,472.22 544.26,472.22
             544.26,472.22 543.66,471.81 543.66,471.81
             543.66,471.81 542.95,471.18 542.95,471.18
             542.95,471.18 541.21,470.13 541.21,470.13
             541.21,470.13 539.78,469.15 539.78,469.15
             539.35,468.82 539.11,468.50 538.55,468.48
             538.38,468.04 537.75,467.52 537.33,467.31
             537.33,467.31 536.61,467.03 536.61,467.03
             536.61,467.03 535.08,466.06 535.08,466.06
             534.46,465.66 534.47,465.36 533.65,464.79
             533.65,464.79 532.74,464.32 532.74,464.32
             532.74,464.32 532.11,463.78 532.11,463.78
             532.11,463.78 531.31,463.31 531.31,463.31
             531.31,463.31 530.76,462.73 530.76,462.73
             530.76,462.73 530.08,462.39 530.08,462.39
             530.08,462.39 529.45,461.80 529.45,461.80
             529.45,461.80 528.74,461.40 528.74,461.40
             528.74,461.40 527.93,460.82 527.93,460.82
             527.93,460.82 527.72,461.02 527.72,461.02
             527.29,460.08 527.09,460.17 526.29,459.73
             526.29,459.73 525.57,459.24 525.57,459.24
             524.95,458.84 524.78,459.04 524.14,458.16
             523.65,458.40 523.16,457.80 522.82,457.51
             522.82,457.51 521.69,456.61 521.69,456.61
             521.69,456.61 520.77,455.75 520.77,455.75
             520.27,455.37 520.29,455.65 519.24,454.79
             519.24,454.79 519.04,455.00 519.04,455.00
             519.02,454.65 518.97,454.61 518.63,454.59
             518.38,453.77 517.91,453.86 517.52,453.60
             517.29,453.44 517.21,453.24 516.97,453.10
             516.97,453.10 516.48,452.90 516.48,452.90
             516.11,452.73 515.79,452.48 515.46,452.24
             515.46,452.24 514.43,451.49 514.43,451.49
             514.43,451.49 513.01,450.81 513.01,450.81
             513.01,450.81 510.35,448.90 510.35,448.90
             510.35,448.90 508.61,447.77 508.61,447.77
             508.61,447.77 507.49,446.80 507.49,446.80
             507.49,446.80 505.55,445.62 505.55,445.62
             505.02,445.22 504.90,444.92 504.52,444.65
             504.52,444.65 502.59,443.55 502.59,443.55
             502.59,443.55 500.24,441.77 500.24,441.77
             500.24,441.77 499.01,440.93 499.01,440.93
             499.01,440.93 498.09,440.10 498.09,440.10
             498.09,440.10 496.56,438.89 496.56,438.89
             496.09,438.57 495.79,438.58 495.33,438.35
             494.94,438.16 493.65,437.26 493.29,436.97
             493.29,436.97 492.06,435.86 492.06,435.86
             492.06,435.86 488.28,432.77 488.28,432.77
             488.28,432.77 487.46,431.96 487.46,431.96
             487.46,431.96 486.34,431.07 486.34,431.07
             486.34,431.07 485.11,429.88 485.11,429.88
             485.11,429.88 484.11,429.00 484.11,429.00
             484.11,429.00 483.45,428.27 483.45,428.27
             483.45,428.27 481.64,426.51 481.64,426.51
             481.64,426.51 480.21,425.21 480.21,425.21
             480.21,425.21 479.31,424.53 479.31,424.53
             479.31,424.53 477.89,423.13 477.89,423.13
             477.89,423.13 476.82,421.72 476.82,421.72
             476.82,421.72 475.62,420.67 475.62,420.67
             475.62,420.67 474.45,419.28 474.45,419.28
             474.45,419.28 473.60,418.51 473.60,418.51
             473.60,418.51 471.94,416.70 471.94,416.70
             470.94,415.65 470.47,414.32 469.07,413.63
             469.07,413.63 469.28,413.22 469.28,413.22
             469.28,413.22 468.35,413.02 468.35,413.02
             468.38,412.81 468.45,412.53 468.35,412.34
             468.09,411.88 467.62,412.12 467.54,411.18
             467.54,411.18 467.03,411.18 467.03,411.18
             466.99,410.51 466.78,409.89 466.01,409.85
             466.01,409.85 466.11,409.24 466.11,409.24
             465.16,409.14 465.15,408.77 464.60,408.14
             464.60,408.14 464.05,407.58 464.05,407.58
             464.05,407.58 463.04,405.87 463.04,405.87
             463.04,405.87 462.74,405.97 462.74,405.97
             462.32,405.03 461.64,404.29 461.12,403.42
             460.78,402.85 460.52,402.79 460.59,402.09
             460.12,401.94 459.86,401.45 459.57,401.07
             459.57,401.07 459.26,401.17 459.26,401.17
             459.26,401.17 458.23,399.03 458.23,399.03
             458.23,399.03 458.23,398.62 458.23,398.62
             458.23,398.62 457.83,398.41 457.83,398.41
             457.75,397.38 457.14,396.63 456.63,395.76
             456.32,395.23 456.32,394.93 455.69,394.74
             455.69,394.74 455.69,394.23 455.69,394.23
             455.69,394.23 455.58,394.23 455.58,394.23
             455.58,394.23 455.38,394.43 455.38,394.43
             455.49,393.41 454.71,393.20 454.43,392.78
             454.29,392.57 454.33,392.40 454.24,392.18
             454.07,391.74 453.93,391.85 453.74,391.06
             453.74,391.06 453.34,391.06 453.34,391.06
             453.47,390.25 453.00,390.38 452.83,389.63
             452.01,389.10 452.27,388.84 451.77,387.89
             451.77,387.89 450.97,386.46 450.97,386.46
             450.97,386.46 450.53,385.44 450.53,385.44
             450.53,385.44 450.08,384.62 450.08,384.62
             450.08,384.62 449.97,383.92 449.97,383.92
             449.86,383.62 449.58,383.45 449.41,383.19
             449.20,382.89 449.18,382.62 449.15,382.28
             449.15,382.28 448.82,382.13 448.82,382.13
             448.82,382.13 448.02,380.54 448.02,380.54
             448.02,380.54 447.41,379.42 447.41,379.42
             447.41,379.42 447.72,379.31 447.72,379.31
             447.48,378.73 447.25,378.52 446.80,378.09
             446.80,378.09 447.00,377.88 447.00,377.88
             447.00,377.88 446.80,377.78 446.80,377.78
             446.80,377.78 446.69,377.88 446.69,377.88
             446.69,377.88 446.08,375.84 446.08,375.84
             446.08,375.84 445.78,375.94 445.78,375.94
             445.74,375.51 445.11,374.08 444.90,373.59
             444.78,373.33 444.73,372.97 444.45,372.88
             444.45,372.88 444.65,372.47 444.65,372.47
             444.65,372.47 444.24,372.37 444.24,372.37
             444.38,371.33 443.79,371.07 443.73,370.12
             443.24,369.99 443.23,369.65 443.08,369.20
             443.08,369.20 442.62,367.67 442.62,367.67
             442.62,367.67 441.82,366.04 441.82,366.04
             441.68,365.58 441.73,364.74 441.18,364.61
             441.18,364.61 440.87,362.87 440.87,362.87
             440.35,362.73 440.31,362.21 440.16,361.75
             439.70,360.39 439.55,360.15 439.24,358.68
             439.24,358.68 438.79,357.05 438.79,357.05
             438.79,357.05 438.44,355.11 438.44,355.11
             438.44,355.11 438.14,353.88 438.14,353.88
             438.14,353.88 438.06,353.17 438.06,353.17
             438.06,353.17 437.79,352.04 437.79,352.04
             437.79,352.04 437.66,350.72 437.66,350.72
             437.66,350.72 437.45,350.00 437.45,350.00
             437.45,350.00 437.31,349.08 437.31,349.08
             437.31,349.08 436.93,347.24 436.93,347.24
             436.93,347.24 436.78,345.61 436.78,345.61
             436.12,345.81 435.76,346.51 435.37,347.04 Z
           M 550.61,346.22
           C 550.61,346.22 550.51,346.32 550.51,346.32
             550.51,346.32 550.51,346.22 550.51,346.22
             550.51,346.22 550.61,346.22 550.61,346.22 Z
           M 449.04,382.79
           C 449.04,382.79 448.94,382.89 448.94,382.89
             448.94,382.89 448.94,382.79 448.94,382.79
             448.94,382.79 449.04,382.79 449.04,382.79 Z
           M 454.05,391.67
           C 454.05,391.67 454.15,391.77 454.15,391.77
             454.15,391.77 454.15,391.67 454.15,391.67
             454.15,391.67 454.05,391.67 454.05,391.67 Z
           M 459.57,400.97
           C 459.57,400.97 459.67,401.07 459.67,401.07
             459.67,401.07 459.67,400.97 459.67,400.97
             459.67,400.97 459.57,400.97 459.57,400.97 Z
           M 459.88,401.58
           C 459.88,401.58 459.77,401.68 459.77,401.68
             459.77,401.68 459.77,401.58 459.77,401.58
             459.77,401.58 459.88,401.58 459.88,401.58 Z
           M 463.55,406.89
           C 463.55,406.89 463.45,406.99 463.45,406.99
             463.45,406.99 463.45,406.89 463.45,406.89
             463.45,406.89 463.55,406.89 463.55,406.89 Z
           M 399.08,433.14
           C 399.08,433.14 398.98,433.24 398.98,433.24
             398.98,433.24 398.98,433.14 398.98,433.14
             398.98,433.14 399.08,433.14 399.08,433.14 Z
           M 615.08,448.97
           C 615.08,448.97 614.98,449.07 614.98,449.07
             614.98,449.07 614.98,448.97 614.98,448.97
             614.98,448.97 615.08,448.97 615.08,448.97 Z
           M 614.88,449.28
           C 614.88,449.28 614.78,449.38 614.78,449.38
             614.78,449.38 614.78,449.28 614.78,449.28
             614.78,449.28 614.88,449.28 614.88,449.28 Z
           M 611.40,452.14
           C 611.40,452.14 611.30,452.24 611.30,452.24
             611.30,452.24 611.30,452.14 611.30,452.14
             611.30,452.14 611.40,452.14 611.40,452.14 Z
           M 593.62,457.65
           C 593.62,457.65 593.52,457.75 593.52,457.75
             593.52,457.75 593.52,457.65 593.52,457.65
             593.52,457.65 593.62,457.65 593.62,457.65 Z
           M 400.41,475.12
           C 400.41,475.12 400.31,475.22 400.31,475.22
             400.31,475.22 400.31,475.12 400.31,475.12
             400.31,475.12 400.41,475.12 400.41,475.12 Z
           M 402.45,502.10
           C 402.45,502.10 401.53,502.73 401.53,502.73
             401.53,502.73 400.41,503.74 400.41,503.74
             400.41,503.74 398.99,504.95 398.99,504.95
             398.99,504.95 397.96,506.06 397.96,506.06
             397.96,506.06 396.84,507.09 396.84,507.09
             396.84,507.09 395.87,508.29 395.87,508.29
             395.87,508.29 395.16,508.86 395.16,508.86
             395.16,508.86 394.25,510.04 394.25,510.04
             394.25,510.04 393.05,511.17 393.05,511.17
             393.05,511.17 391.29,513.11 391.29,513.11
             391.29,513.11 388.57,515.97 388.57,515.97
             388.57,515.97 387.36,517.50 387.36,517.50
             387.36,517.50 385.62,519.65 385.62,519.65
             385.62,519.65 384.95,520.37 384.95,520.37
             384.95,520.37 384.26,521.59 384.26,521.59
             384.26,521.59 382.47,524.35 382.47,524.35
             382.47,524.35 380.95,527.11 380.95,527.11
             380.95,527.11 380.01,528.64 380.01,528.64
             380.01,528.64 378.21,532.42 378.21,532.42
             378.21,532.42 375.69,537.73 375.69,537.73
             375.69,537.73 374.89,540.28 374.89,540.28
             374.63,541.17 374.04,542.67 374.10,543.55
             374.10,543.55 374.18,544.47 374.18,544.47
             374.18,544.47 373.95,546.21 373.95,546.21
             373.95,546.21 373.84,550.39 373.84,550.39
             373.84,551.25 373.92,551.19 374.02,551.92
             374.02,551.92 374.20,553.76 374.20,553.76
             374.20,553.76 374.49,555.30 374.49,555.30
             374.49,555.30 374.73,556.11 374.73,556.11
             374.73,556.11 374.92,557.24 374.92,557.24
             374.92,557.24 376.05,560.61 376.05,560.61
             376.05,560.61 376.22,561.40 376.22,561.40
             376.31,561.70 376.49,561.75 376.61,562.05
             376.69,562.23 376.77,562.93 376.81,563.16
             377.31,563.29 377.34,563.63 377.55,564.08
             377.80,564.61 378.39,566.05 378.69,566.43
             378.89,566.70 379.20,566.95 379.36,567.25
             379.47,567.46 379.85,568.80 380.31,569.49
             380.31,569.49 381.56,571.02 381.56,571.02
             381.56,571.02 382.40,572.45 382.40,572.45
             382.40,572.45 383.80,573.99 383.80,573.99
             383.80,573.99 384.44,574.91 384.44,574.91
             384.44,574.91 385.41,576.13 385.41,576.13
             385.41,576.13 385.86,576.95 385.86,576.95
             385.86,576.95 386.99,578.17 386.99,578.17
             386.99,578.17 389.22,581.03 389.22,581.03
             389.22,581.03 390.22,582.16 390.22,582.16
             391.38,583.72 392.17,585.50 392.98,587.26
             392.98,587.26 393.98,589.41 393.98,589.41
             393.98,589.41 395.27,593.70 395.27,593.70
             395.27,593.70 395.42,595.23 395.42,595.23
             395.42,595.23 395.60,597.17 395.60,597.17
             395.60,597.17 395.54,597.78 395.54,597.78
             395.54,598.17 395.64,598.20 395.61,598.91
             395.61,598.91 395.32,600.75 395.32,600.75
             395.32,600.75 395.15,602.79 395.15,602.79
             394.81,604.73 393.59,608.29 392.71,610.04
             392.13,611.19 390.10,614.24 389.25,615.14
             389.25,615.14 388.25,616.07 388.25,616.07
             388.25,616.07 385.90,618.41 385.90,618.41
             385.90,618.41 384.99,619.18 384.99,619.18
             384.99,619.18 383.64,620.72 383.64,620.72
             383.64,620.72 382.32,621.83 382.32,621.83
             382.32,621.83 381.30,622.55 381.30,622.55
             381.30,622.55 379.97,623.68 379.97,623.68
             379.97,623.68 378.54,624.70 378.54,624.70
             378.54,624.70 377.32,625.71 377.32,625.71
             377.32,625.71 376.40,626.23 376.40,626.23
             376.40,626.23 375.58,626.83 375.58,626.83
             375.58,626.83 374.76,627.25 374.76,627.25
             374.76,627.25 372.21,628.65 372.21,628.65
             372.21,628.65 370.57,629.56 370.57,629.56
             370.57,629.56 369.86,629.84 369.86,629.84
             369.86,629.84 368.73,630.39 368.73,630.39
             368.73,630.39 367.30,631.15 367.30,631.15
             367.30,631.15 365.46,631.84 365.46,631.84
             364.82,632.10 363.12,632.88 362.50,632.92
             362.50,632.92 362.30,633.33 362.30,633.33
             362.30,633.33 361.58,633.33 361.58,633.33
             361.58,633.33 361.68,633.12 361.68,633.12
             361.68,633.12 361.58,633.02 361.58,633.02
             361.58,633.02 361.17,633.23 361.17,633.23
             361.17,633.23 361.07,633.74 361.07,633.74
             361.07,633.74 361.17,633.33 361.17,633.33
             361.17,633.33 360.36,633.33 360.36,633.33
             360.36,633.33 360.36,633.94 360.36,633.94
             360.36,633.94 360.25,634.04 360.25,634.04
             360.25,634.04 359.75,633.84 359.75,633.84
             359.72,634.05 359.65,634.34 359.75,634.54
             359.98,634.99 361.58,635.36 362.09,635.49
             362.09,635.49 364.85,636.14 364.85,636.14
             365.33,636.22 365.48,636.08 365.71,636.14
             365.71,636.14 367.30,636.73 367.30,636.73
             367.30,636.73 370.16,637.33 370.16,637.33
             370.16,637.33 375.48,638.39 375.48,638.39
             375.48,638.39 377.01,638.58 377.01,638.58
             378.84,638.83 377.93,638.92 380.08,638.95
             380.08,638.95 384.98,639.66 384.98,639.66
             384.98,639.66 386.41,639.56 386.41,639.56
             386.41,639.56 389.78,639.86 389.78,639.86
             389.78,639.86 392.44,639.86 392.44,639.86
             392.44,639.86 394.28,640.05 394.28,640.05
             394.28,640.05 394.99,639.97 394.99,639.97
             394.99,639.97 395.81,640.06 395.81,640.06
             395.81,640.06 396.93,640.06 396.93,640.06
             396.93,640.06 398.47,640.18 398.47,640.18
             398.47,640.18 399.69,640.18 399.69,640.18
             399.69,640.18 400.51,640.27 400.51,640.27
             400.51,640.27 401.63,640.15 401.63,640.15
             401.63,640.15 402.76,640.37 402.76,640.37
             402.76,640.37 403.88,640.31 403.88,640.31
             404.35,640.34 404.62,640.50 405.21,640.47
             405.21,640.47 407.36,640.18 407.36,640.18
             407.36,640.18 409.60,640.05 409.60,640.05
             409.60,640.05 411.14,639.86 411.14,639.86
             412.77,639.85 412.46,639.76 413.90,639.59
             413.90,639.59 414.71,639.53 414.71,639.53
             414.71,639.53 417.47,638.97 417.47,638.97
             417.47,638.97 418.90,638.80 418.90,638.80
             418.90,638.80 422.99,637.95 422.99,637.95
             422.99,637.95 424.52,637.67 424.52,637.67
             424.52,637.67 425.65,637.33 425.65,637.33
             425.65,637.33 426.87,637.02 426.87,637.02
             426.87,637.02 428.30,636.50 428.30,636.50
             428.30,636.50 430.35,635.94 430.35,635.94
             430.35,635.94 431.47,635.55 431.47,635.55
             431.47,635.55 432.59,635.22 432.59,635.22
             432.59,635.22 435.56,633.87 435.56,633.87
             435.56,633.87 437.81,632.89 437.81,632.89
             437.81,632.89 439.95,631.61 439.95,631.61
             439.95,631.61 440.77,631.05 440.77,631.05
             440.77,631.05 444.04,629.40 444.04,629.40
             444.04,629.40 445.57,628.26 445.57,628.26
             445.57,628.26 446.69,627.48 446.69,627.48
             446.69,627.48 448.53,625.92 448.53,625.92
             448.53,625.92 449.64,624.94 449.64,624.94
             449.64,624.94 451.79,622.19 451.79,622.19
             451.79,622.19 453.43,620.05 453.43,620.05
             453.43,620.05 454.70,617.70 454.70,617.70
             454.70,617.70 455.52,616.37 455.52,616.37
             455.52,616.37 455.93,615.35 455.93,615.35
             455.93,615.35 456.92,612.90 456.92,612.90
             456.92,612.90 457.47,611.67 457.47,611.67
             457.47,611.67 458.19,609.22 458.19,609.22
             458.19,609.22 458.51,606.98 458.51,606.98
             458.74,605.52 459.06,604.06 459.06,602.58
             459.06,602.58 459.16,600.95 459.16,600.95
             459.16,600.95 459.16,599.72 459.16,599.72
             459.16,599.72 458.97,597.68 458.97,597.68
             458.97,597.68 458.75,594.62 458.75,594.62
             458.73,593.08 458.30,591.60 457.91,590.12
             457.91,590.12 457.38,587.98 457.38,587.98
             457.38,587.98 456.31,584.91 456.31,584.91
             456.31,584.91 455.14,581.85 455.14,581.85
             455.14,581.85 453.67,578.89 453.67,578.89
             453.67,578.89 452.83,576.85 452.83,576.85
             452.83,576.85 451.02,574.60 451.02,574.60
             451.02,574.60 449.27,571.94 449.27,571.94
             449.27,571.94 447.38,569.70 447.38,569.70
             447.38,569.70 444.21,565.71 444.21,565.71
             444.21,565.71 441.71,563.06 441.71,563.06
             441.71,563.06 440.15,561.12 440.15,561.12
             440.15,561.12 438.35,559.28 438.35,559.28
             438.35,559.28 436.36,556.93 436.36,556.93
             436.36,556.93 434.96,555.50 434.96,555.50
             434.96,555.50 434.28,554.61 434.28,554.61
             434.28,554.61 432.51,552.95 432.51,552.95
             432.51,552.95 430.94,551.01 430.94,551.01
             430.94,551.01 427.49,547.43 427.49,547.43
             427.49,547.43 425.80,545.40 425.80,545.40
             425.80,545.40 424.83,544.56 424.83,544.56
             424.83,544.56 424.10,543.75 424.10,543.75
             424.10,543.75 423.21,542.83 423.21,542.83
             423.21,542.83 422.25,541.61 422.25,541.61
             422.25,541.61 420.80,539.87 420.80,539.87
             420.80,539.87 419.56,538.54 419.56,538.54
             419.56,538.54 418.28,536.81 418.28,536.81
             418.28,536.81 417.12,535.48 417.12,535.48
             417.12,535.48 416.31,534.26 416.31,534.26
             416.31,534.26 415.13,532.52 415.13,532.52
             415.13,532.52 413.83,530.37 413.83,530.37
             413.83,530.37 411.39,526.59 411.39,526.59
             411.39,526.59 410.69,525.27 410.69,525.27
             410.69,525.27 409.79,523.74 409.79,523.74
             409.79,523.74 408.65,521.08 408.65,521.08
             408.65,521.08 407.71,518.93 407.71,518.93
             407.71,518.93 407.22,517.40 407.22,517.40
             407.22,517.40 407.10,516.69 407.10,516.69
             407.10,516.69 406.82,515.87 406.82,515.87
             406.82,515.87 406.72,515.36 406.72,515.36
             406.55,514.78 406.34,515.01 405.91,513.21
             405.91,513.21 405.68,511.58 405.68,511.58
             405.68,511.58 405.41,510.36 405.41,510.36
             405.41,510.36 405.41,509.74 405.41,509.74
             405.41,509.74 405.15,509.03 405.15,509.03
             405.15,509.03 404.78,506.58 404.78,506.58
             404.78,506.58 404.78,505.45 404.78,505.45
             404.78,505.45 404.70,504.74 404.70,504.74
             404.70,504.74 404.70,503.82 404.70,503.82
             404.70,503.82 404.50,503.00 404.50,503.00
             404.50,503.00 404.50,502.18 404.50,502.18
             404.50,502.18 404.39,501.06 404.39,501.06
             403.54,501.15 403.10,501.60 402.45,502.10 Z
           M 592.60,538.44
           C 592.60,538.44 592.70,538.54 592.70,538.54
             592.70,538.54 592.70,538.44 592.70,538.44
             592.70,538.44 592.60,538.44 592.60,538.44 Z
           M 545.70,575.82
           C 545.70,575.82 545.81,575.93 545.81,575.93
             545.81,575.93 545.81,575.82 545.81,575.82
             545.81,575.82 545.70,575.82 545.70,575.82 Z
           M 362.71,632.82
           C 362.71,632.82 362.81,632.92 362.81,632.92
             362.81,632.92 362.81,632.82 362.81,632.82
             362.81,632.82 362.71,632.82 362.71,632.82 Z" />
</svg>
