<?xml version="1.0" encoding="UTF-8" standalone="no"?>
<svg xmlns="http://www.w3.org/2000/svg"
     xmlns:svg="http://www.w3.org/2000/svg"
     version="1.1"
     width="5.55333in" height="4.67667in"
     viewBox="0 0 1666 1403">
  <path id="path1"
        d="M 720.17,1078.00
           C 720.17,1078.00 722.09,1051.00 722.09,1051.00
             722.09,1051.00 723.00,1039.00 723.00,1039.00
             723.00,1039.00 724.00,1019.00 724.00,1019.00
             724.00,1019.00 724.00,991.00 724.00,991.00
             724.00,991.00 725.00,970.00 725.00,970.00
             725.00,970.00 725.00,812.00 725.00,812.00
             725.00,812.00 725.00,637.00 725.00,637.00
             725.00,637.00 725.00,549.00 725.00,549.00
             725.00,549.00 724.00,532.00 724.00,532.00
             724.00,532.00 724.00,486.00 724.00,486.00
             724.00,486.00 723.00,469.00 723.00,469.00
             723.00,469.00 722.00,436.00 722.00,436.00
             722.00,436.00 721.00,423.00 721.00,423.00
             721.00,423.00 719.09,396.00 719.09,396.00
             717.22,368.87 714.14,341.72 708.80,315.00
             702.86,285.32 690.55,252.09 668.00,231.09
             656.83,220.68 644.18,215.59 632.00,206.52
             615.62,194.33 604.24,175.78 604.00,155.00
             603.82,139.06 608.09,128.77 611.99,114.00
             613.85,106.95 613.11,102.70 617.80,96.00
             627.03,82.79 643.90,73.80 658.00,66.75
             676.99,57.26 699.38,49.30 720.00,44.13
             731.22,41.31 746.54,38.02 758.00,38.00
             758.00,38.00 772.00,38.00 772.00,38.00
             789.69,38.21 810.04,47.70 825.00,56.60
             858.91,76.78 892.16,110.48 918.15,140.00
             918.15,140.00 979.80,216.00 979.80,216.00
             979.80,216.00 1077.55,338.00 1077.55,338.00
             1077.55,338.00 1117.60,388.00 1117.60,388.00
             1117.60,388.00 1140.17,416.00 1140.17,416.00
             1154.52,431.95 1173.82,450.55 1190.00,464.71
             1229.37,499.18 1280.21,533.97 1332.00,545.58
             1342.80,547.99 1353.92,549.94 1365.00,550.16
             1365.00,550.16 1376.00,550.16 1376.00,550.16
             1376.00,550.16 1387.00,550.16 1387.00,550.16
             1405.63,549.78 1432.49,542.49 1450.00,535.95
             1450.00,535.95 1477.00,524.53 1477.00,524.53
             1479.62,523.93 1482.33,524.00 1485.00,524.00
             1485.00,524.00 1594.00,524.00 1594.00,524.00
             1596.17,524.00 1599.75,523.78 1601.57,525.02
             1604.37,526.93 1606.31,540.09 1607.43,544.00
             1614.09,567.38 1619.30,574.49 1619.00,600.00
             1618.65,629.59 1587.43,656.68 1565.00,671.97
             1536.78,691.21 1499.01,708.25 1467.00,720.42
             1467.00,720.42 1405.00,742.72 1405.00,742.72
             1385.96,748.46 1352.27,758.77 1333.00,759.00
             1333.00,759.00 1320.00,759.00 1320.00,759.00
             1303.81,758.97 1287.95,751.97 1274.00,744.30
             1253.28,732.93 1232.29,716.02 1215.00,699.91
             1215.00,699.91 1199.00,684.04 1199.00,684.04
             1199.00,684.04 1159.00,645.00 1159.00,645.00
             1159.00,645.00 1089.01,575.00 1089.01,575.00
             1089.01,575.00 1077.91,562.96 1077.91,562.96
             1055.38,539.72 1032.31,516.64 1008.00,495.28
             975.74,466.95 941.81,439.73 906.00,416.00
             906.00,416.00 849.00,382.00 849.00,382.00
             849.00,382.00 854.83,450.00 854.83,450.00
             854.83,450.00 866.83,581.00 866.83,581.00
             866.83,581.00 871.17,633.00 871.17,633.00
             871.17,633.00 894.83,899.00 894.83,899.00
             894.83,899.00 901.17,978.00 901.17,978.00
             901.17,978.00 913.09,1127.00 913.09,1127.00
             913.09,1127.00 917.09,1182.00 917.09,1182.00
             917.09,1182.00 918.00,1189.00 918.00,1189.00
             918.00,1189.00 918.00,1199.00 918.00,1199.00
             918.00,1199.00 919.00,1209.00 919.00,1209.00
             919.25,1230.37 920.33,1243.69 911.57,1264.00
             898.14,1295.17 858.78,1323.39 829.00,1338.25
             816.12,1344.67 801.55,1350.16 787.00,1350.00
             776.37,1349.88 748.88,1339.95 738.00,1335.81
             722.90,1330.06 713.49,1326.22 699.00,1318.74
             699.00,1318.74 687.00,1311.85 687.00,1311.85
             681.60,1309.01 680.32,1310.57 677.17,1308.39
             675.07,1306.94 670.68,1301.25 668.71,1299.00
             664.19,1293.83 661.73,1292.12 657.44,1286.00
             657.44,1286.00 647.19,1270.00 647.19,1270.00
             647.19,1270.00 583.20,1190.00 583.20,1190.00
             583.20,1190.00 534.17,1134.00 534.17,1134.00
             534.17,1134.00 489.83,1085.09 489.83,1085.09
             489.83,1085.09 483.17,1078.91 483.17,1078.91
             483.17,1078.91 450.00,1045.00 450.00,1045.00
             450.00,1045.00 392.83,989.14 392.83,989.14
             392.83,989.14 356.00,955.83 356.00,955.83
             356.00,955.83 314.00,918.44 314.00,918.44
             314.00,918.44 288.00,897.39 288.00,897.39
             288.00,897.39 261.00,875.21 261.00,875.21
             261.00,875.21 187.00,819.68 187.00,819.68
             187.00,819.68 129.00,778.67 129.00,778.67
             129.00,778.67 90.00,751.41 90.00,751.41
             86.97,749.44 73.23,740.26 72.16,737.91
             70.85,735.48 71.77,731.60 72.16,729.00
             72.16,729.00 74.97,719.28 74.97,719.28
             74.97,719.28 77.99,706.00 77.99,706.00
             77.99,706.00 84.58,680.00 84.58,680.00
             85.23,677.13 86.58,669.63 88.58,667.74
             90.39,666.03 102.84,665.30 106.00,664.95
             106.00,664.95 136.04,661.88 136.04,661.88
             141.72,661.14 150.57,659.22 156.00,660.00
             156.00,660.00 156.00,658.00 156.00,658.00
             167.75,659.15 181.94,655.61 193.72,654.47
             193.72,654.47 225.00,651.71 225.00,651.71
             225.00,651.71 243.83,648.53 243.83,648.53
             243.83,648.53 290.00,643.84 290.00,643.84
             290.00,643.84 319.99,640.21 319.99,640.21
             322.88,639.68 332.65,638.10 334.99,639.12
             338.27,640.54 342.79,647.01 345.00,650.00
             345.00,650.00 363.86,675.91 363.86,675.91
             363.86,675.91 391.51,715.00 391.51,715.00
             391.51,715.00 416.67,750.09 416.67,750.09
             416.67,750.09 437.87,780.00 437.87,780.00
             437.87,780.00 474.29,830.00 474.29,830.00
             474.29,830.00 529.50,902.00 529.50,902.00
             529.50,902.00 599.57,989.00 599.57,989.00
             599.57,989.00 608.76,1000.42 608.76,1000.42
             608.76,1000.42 645.91,1041.00 645.91,1041.00
             645.91,1041.00 669.95,1066.83 669.95,1066.83
             669.95,1066.83 716.00,1111.00 716.00,1111.00
             716.00,1111.00 720.17,1078.00 720.17,1078.00 Z" />
</svg>
