<?xml version="1.0" encoding="UTF-8" standalone="no"?>
<svg xmlns="http://www.w3.org/2000/svg"
     xmlns:svg="http://www.w3.org/2000/svg"
     version="1.1"
     viewBox="0 0 400 400">
  <path id="path1" transform="translate(-280, -300)"
        d="M 480.89,391.88
           C 480.89,391.88 482.58,388.30 482.58,388.30
             482.58,388.30 483.50,386.67 483.50,386.67
             483.50,386.67 485.16,383.50 485.16,383.50
             485.16,383.50 486.09,382.07 486.09,382.07
             486.09,382.07 487.10,380.13 487.10,380.13
             487.10,380.13 488.44,377.99 488.44,377.99
             488.44,377.99 489.23,376.45 489.23,376.45
             489.23,376.45 489.93,375.33 489.93,375.33
             489.93,375.33 490.84,373.80 490.84,373.80
             490.84,373.80 492.65,371.24 492.65,371.24
             492.65,371.24 493.77,369.30 493.77,369.30
             493.77,369.30 495.87,366.65 495.87,366.65
             495.87,366.65 498.35,363.28 498.35,363.28
             498.35,363.28 500.08,360.83 500.08,360.83
             500.08,360.83 501.50,359.19 501.50,359.19
             501.50,359.19 504.96,354.90 504.96,354.90
             504.96,354.90 506.97,352.86 506.97,352.86
             506.97,352.86 509.74,350.00 509.74,350.00
             509.74,350.00 512.09,347.85 512.09,347.85
             512.09,347.85 515.26,344.81 515.26,344.81
             515.26,344.81 521.08,340.08 521.08,340.08
             523.10,338.57 525.28,337.29 527.41,335.96
             527.41,335.96 531.09,333.61 531.09,333.61
             531.09,333.61 534.67,331.84 534.67,331.84
             534.67,331.84 537.12,330.42 537.12,330.42
             537.12,330.42 541.00,328.53 541.00,328.53
             541.00,328.53 543.97,327.05 543.97,327.05
             543.97,327.05 545.50,326.47 545.50,326.47
             545.50,326.47 549.18,325.06 549.18,325.06
             549.18,325.06 554.70,322.84 554.70,322.84
             554.70,322.84 557.15,322.12 557.15,322.12
             557.15,322.12 560.52,320.96 560.52,320.96
             560.52,320.96 568.08,319.19 568.08,319.19
             568.08,319.19 569.51,319.02 569.51,319.02
             569.51,319.02 573.90,318.44 573.90,318.44
             573.90,318.44 575.44,318.54 575.44,318.54
             575.44,318.54 576.46,318.54 576.46,318.54
             576.46,318.54 577.89,318.44 577.89,318.44
             579.04,318.49 580.80,319.17 581.87,319.62
             582.85,320.03 583.54,320.25 584.43,320.86
             584.43,320.86 585.93,321.93 585.93,321.93
             586.31,322.32 586.59,322.97 587.19,323.04
             587.26,323.93 587.67,323.81 588.07,324.47
             588.07,324.47 588.80,326.20 588.80,326.20
             588.83,326.44 588.82,326.78 588.80,327.02
             588.80,327.02 589.03,326.92 589.03,326.92
             589.03,326.92 589.03,328.35 589.03,328.35
             589.03,328.35 589.13,329.47 589.13,329.47
             589.13,329.47 589.13,330.39 589.13,330.39
             589.13,331.35 588.68,332.98 588.29,333.86
             588.29,333.86 587.53,335.29 587.53,335.29
             587.02,336.23 586.64,337.17 585.99,338.05
             585.99,338.05 585.22,338.97 585.22,338.97
             585.22,338.97 582.47,342.44 582.47,342.44
             582.47,342.44 580.43,344.89 580.43,344.89
             580.43,344.89 578.60,346.71 578.60,346.71
             578.60,346.71 576.57,348.57 576.57,348.57
             576.57,348.57 575.61,349.69 575.61,349.69
             575.61,349.69 574.52,350.82 574.52,350.82
             574.52,350.82 573.79,351.62 573.79,351.62
             573.79,351.62 571.86,353.21 571.86,353.21
             571.86,353.21 569.10,355.70 569.10,355.70
             569.10,355.70 567.77,356.85 567.77,356.85
             567.77,356.85 566.83,357.85 566.83,357.85
             566.83,357.85 564.30,360.31 564.30,360.31
             564.30,360.31 562.05,362.36 562.05,362.36
             562.05,362.36 559.90,364.70 559.90,364.70
             559.90,364.70 558.70,365.75 558.70,365.75
             558.70,365.75 556.74,367.87 556.74,367.87
             556.74,367.87 552.14,372.02 552.14,372.02
             552.14,372.02 548.26,375.34 548.26,375.34
             548.26,375.34 545.60,378.09 545.60,378.09
             545.60,378.09 544.18,379.52 544.18,379.52
             544.18,379.52 543.12,380.73 543.12,380.73
             543.12,380.73 542.36,381.46 542.36,381.46
             542.36,381.46 539.65,384.52 539.65,384.52
             539.65,384.52 537.61,387.59 537.61,387.59
             537.61,387.59 535.59,389.83 535.59,389.83
             535.59,389.83 532.98,392.49 532.98,392.49
             532.98,392.49 530.49,395.76 530.49,395.76
             530.49,395.76 526.08,401.68 526.08,401.68
             526.08,401.68 525.31,402.91 525.31,402.91
             525.31,402.91 523.58,405.05 523.58,405.05
             523.58,405.05 521.29,408.42 521.29,408.42
             521.29,408.42 520.72,409.44 520.72,409.44
             520.72,409.44 519.85,410.67 519.85,410.67
             519.85,410.67 519.21,411.90 519.21,411.90
             519.21,411.90 518.35,413.22 518.35,413.22
             518.35,413.22 515.59,418.64 515.59,418.64
             515.59,418.64 514.82,420.27 514.82,420.27
             514.82,420.27 511.19,426.91 511.19,426.91
             511.19,426.91 507.31,434.88 507.31,434.88
             507.31,434.88 504.79,439.57 504.79,439.57
             504.79,439.57 503.98,441.41 503.98,441.41
             503.98,441.41 502.73,444.07 502.73,444.07
             502.73,444.07 502.07,445.91 502.07,445.91
             502.07,445.91 500.22,450.30 500.22,450.30
             500.22,450.30 499.20,453.98 499.20,453.98
             499.20,453.98 498.31,456.84 498.31,456.84
             498.31,456.84 497.39,461.02 497.39,461.02
             497.39,461.02 496.51,463.99 496.51,463.99
             496.51,463.99 496.23,466.44 496.23,466.44
             496.23,466.44 495.97,467.97 495.97,467.97
             495.97,467.97 495.91,468.79 495.91,468.79
             495.91,468.79 495.63,470.73 495.63,470.73
             495.63,470.73 495.63,471.54 495.63,471.54
             495.63,471.54 495.29,472.97 495.29,472.97
             495.29,472.97 495.42,475.32 495.42,475.32
             495.42,475.32 495.32,476.85 495.32,476.85
             495.32,476.85 495.32,478.28 495.32,478.28
             495.32,478.28 495.16,479.71 495.16,479.71
             495.16,479.71 495.23,480.84 495.23,480.84
             495.23,480.84 495.23,482.57 495.23,482.57
             495.23,482.57 495.13,484.21 495.13,484.21
             495.13,484.21 495.13,485.94 495.13,485.94
             495.13,485.94 495.22,487.17 495.22,487.17
             495.22,487.17 495.13,488.29 495.13,488.29
             495.13,488.29 495.13,493.71 495.13,493.71
             495.13,493.71 495.23,495.24 495.23,495.24
             495.23,495.24 495.23,496.77 495.23,496.77
             495.23,496.77 495.43,498.81 495.43,498.81
             495.43,498.81 495.35,500.55 495.35,500.55
             495.35,500.55 495.54,501.57 495.54,501.57
             495.54,501.57 495.54,502.69 495.54,502.69
             495.66,503.42 495.74,503.37 495.74,504.23
             495.74,504.90 495.72,504.98 495.84,505.66
             495.84,505.66 495.64,505.66 495.64,505.66
             495.64,505.66 495.96,509.64 495.96,509.64
             495.96,509.64 496.20,510.46 496.20,510.46
             496.20,510.46 496.40,511.58 496.40,511.58
             496.40,511.58 496.79,512.70 496.79,512.70
             496.90,513.14 496.84,513.33 496.88,513.73
             496.88,513.73 497.05,514.54 497.05,514.54
             497.05,514.54 497.51,516.79 497.51,516.79
             497.60,517.12 497.68,517.52 497.93,517.77
             498.54,518.38 499.95,518.20 500.75,518.63
             500.93,518.22 501.13,518.47 501.67,518.53
             501.67,518.53 502.38,518.53 502.38,518.53
             502.38,518.53 503.91,518.74 503.91,518.74
             503.91,518.74 504.63,518.57 504.63,518.57
             504.63,518.57 505.75,518.57 505.75,518.57
             505.75,518.57 506.37,518.57 506.37,518.57
             506.37,518.57 507.18,518.43 507.18,518.43
             507.62,518.40 507.87,518.51 508.06,518.50
             508.06,518.50 508.62,518.38 508.62,518.38
             509.14,518.37 509.43,518.82 509.84,518.82
             509.84,518.82 510.55,518.64 510.55,518.64
             510.55,518.64 511.31,518.70 511.31,518.70
             511.31,518.70 511.88,518.54 511.88,518.54
             511.88,518.54 513.21,518.54 513.21,518.54
             513.21,518.54 514.23,518.70 514.23,518.70
             514.23,518.70 515.15,518.54 515.15,518.54
             515.15,518.54 516.28,518.62 516.28,518.62
             516.28,518.62 517.30,518.62 517.30,518.62
             517.30,518.62 517.91,518.52 517.91,518.52
             517.91,518.52 518.73,518.52 518.73,518.52
             518.73,518.52 520.57,518.52 520.57,518.52
             520.57,518.52 522.41,518.33 522.41,518.33
             522.41,518.33 523.63,518.33 523.63,518.33
             523.63,518.33 525.17,518.22 525.17,518.22
             525.17,518.22 526.29,518.32 526.29,518.32
             526.29,518.32 528.64,518.32 528.64,518.32
             528.64,518.32 532.11,518.12 532.11,518.12
             532.11,518.12 534.46,517.91 534.46,517.91
             534.46,517.91 536.51,517.91 536.51,517.91
             537.57,517.91 537.62,517.70 537.94,517.70
             538.37,517.72 538.31,518.01 539.57,518.02
             539.57,518.02 541.51,518.02 541.51,518.02
             541.51,518.02 542.74,517.92 542.74,517.92
             542.74,517.92 544.07,517.92 544.07,517.92
             544.07,517.92 545.19,517.98 545.19,517.98
             545.19,517.98 546.42,517.91 546.42,517.91
             546.42,517.91 547.34,518.01 547.34,518.01
             547.34,518.01 549.08,518.01 549.08,518.01
             549.08,518.01 550.40,518.11 550.40,518.11
             550.40,518.11 551.22,518.01 551.22,518.01
             551.22,518.01 552.86,518.01 552.86,518.01
             552.86,518.01 554.18,518.11 554.18,518.11
             554.18,518.11 555.21,518.02 555.21,518.02
             555.21,518.02 557.15,518.02 557.15,518.02
             557.15,518.02 558.58,518.12 558.58,518.12
             558.58,518.12 561.85,518.12 561.85,518.12
             561.85,518.12 563.79,518.12 563.79,518.12
             563.79,518.12 565.12,517.99 565.12,517.99
             565.65,518.05 565.72,518.12 566.34,518.11
             566.34,518.11 567.88,518.11 567.88,518.11
             567.88,518.11 568.69,518.02 568.69,518.02
             568.69,518.02 570.12,518.11 570.12,518.11
             570.12,518.11 570.94,518.02 570.94,518.02
             570.94,518.02 572.58,518.02 572.58,518.02
             572.58,518.02 575.23,517.82 575.23,517.82
             575.23,517.82 576.66,517.90 576.66,517.90
             577.05,517.87 577.20,517.68 577.99,517.71
             578.61,517.74 578.89,517.85 579.63,517.80
             579.63,517.80 580.85,517.61 580.85,517.61
             580.85,517.61 581.87,517.61 581.87,517.61
             581.87,517.61 582.79,517.48 582.79,517.48
             583.65,517.49 583.60,517.90 584.74,517.91
             584.74,517.91 586.37,517.91 586.37,517.91
             586.37,517.91 589.84,517.50 589.84,517.50
             589.84,517.50 590.25,517.50 590.25,517.50
             590.25,517.50 593.32,517.30 593.32,517.30
             593.32,517.30 599.45,517.20 599.45,517.20
             599.45,517.20 601.59,517.10 601.59,517.10
             601.59,517.10 602.62,517.01 602.62,517.01
             602.62,517.01 603.84,517.10 603.84,517.10
             603.84,517.10 607.62,517.10 607.62,517.10
             607.62,517.10 609.36,517.20 609.36,517.20
             609.36,517.20 610.79,517.20 610.79,517.20
             610.79,517.20 612.53,517.30 612.53,517.30
             612.53,517.30 613.86,517.20 613.86,517.20
             613.86,517.20 615.80,517.30 615.80,517.30
             615.80,517.30 617.13,517.30 617.13,517.30
             617.13,517.30 619.27,517.40 619.27,517.40
             619.27,517.40 620.80,517.30 620.80,517.30
             620.80,517.30 624.18,517.30 624.18,517.30
             624.18,517.30 625.50,517.20 625.50,517.20
             625.50,517.20 628.16,517.10 628.16,517.10
             628.16,517.10 629.90,517.28 629.90,517.28
             629.90,517.28 630.61,517.20 630.61,517.20
             630.61,517.20 633.47,517.05 633.47,517.05
             633.90,517.02 634.28,517.14 634.70,517.20
             634.70,517.20 635.82,517.20 635.82,517.20
             636.51,517.25 637.23,516.97 637.66,517.61
             638.46,517.27 639.74,517.39 640.63,517.40
             641.34,517.41 641.70,517.59 642.36,517.81
             643.01,518.03 643.56,518.21 644.10,518.66
             644.57,519.06 644.86,519.54 644.91,520.16
             645.00,521.54 643.74,523.63 642.77,524.54
             642.46,524.84 642.10,525.08 641.75,525.33
             640.68,526.09 640.77,526.06 639.60,526.67
             639.21,526.88 639.00,527.14 638.58,526.90
             638.58,526.90 637.46,527.92 637.46,527.92
             637.46,527.92 637.25,527.72 637.25,527.72
             637.12,528.03 637.06,527.98 636.74,527.92
             636.47,528.73 636.02,528.86 635.31,529.20
             635.31,529.20 634.60,529.56 634.60,529.56
             634.60,529.56 634.10,529.76 634.10,529.76
             633.74,529.97 633.58,530.36 632.55,530.91
             632.55,530.91 628.67,532.69 628.67,532.69
             628.67,532.69 627.24,533.35 627.24,533.35
             625.18,534.49 625.26,534.38 623.15,535.14
             623.15,535.14 621.93,535.70 621.93,535.70
             621.64,535.77 621.40,535.69 621.11,535.70
             621.11,535.70 619.68,535.92 619.68,535.92
             619.68,535.92 618.76,536.20 618.76,536.20
             618.76,536.20 617.43,536.33 617.43,536.33
             617.43,536.33 615.39,536.70 615.39,536.70
             615.39,536.70 614.26,536.70 614.26,536.70
             613.54,536.80 613.54,536.91 612.63,536.92
             612.63,536.92 611.30,536.92 611.30,536.92
             610.91,536.95 610.72,537.03 610.28,537.00
             610.28,537.00 609.56,536.92 609.56,536.92
             609.56,536.92 608.03,536.92 608.03,536.92
             608.03,536.92 606.29,537.01 606.29,537.01
             606.29,537.01 600.67,537.01 600.67,537.01
             600.67,537.01 599.45,537.08 599.45,537.08
             599.45,537.08 597.81,536.93 597.81,536.93
             597.81,536.93 594.75,537.01 594.75,537.01
             594.75,537.01 593.62,537.11 593.62,537.11
             593.62,537.11 592.30,536.99 592.30,536.99
             592.30,536.99 591.17,536.99 591.17,536.99
             591.17,536.99 589.84,536.92 589.84,536.92
             589.84,536.92 588.00,537.12 588.00,537.12
             588.00,537.12 587.09,537.12 587.09,537.12
             586.47,537.22 586.45,537.44 585.35,537.42
             585.35,537.42 584.43,537.32 584.43,537.32
             584.43,537.32 582.69,537.32 582.69,537.32
             582.69,537.32 581.47,537.23 581.47,537.23
             581.47,537.23 577.79,537.01 577.79,537.01
             577.79,537.01 576.46,537.11 576.46,537.11
             576.46,537.11 575.03,537.02 575.03,537.02
             575.03,537.02 573.50,537.02 573.50,537.02
             573.50,537.02 572.07,536.91 572.07,536.91
             572.07,536.91 570.12,537.01 570.12,537.01
             570.12,537.01 569.00,537.01 569.00,537.01
             569.00,537.01 567.47,537.18 567.47,537.18
             567.47,537.18 566.45,537.12 566.45,537.12
             566.45,537.12 565.32,537.20 565.32,537.20
             564.79,537.16 564.34,537.07 563.79,537.13
             563.18,537.21 562.80,537.56 562.05,537.49
             561.76,537.48 561.66,537.43 561.34,537.49
             561.34,537.49 557.66,537.49 557.66,537.49
             557.66,537.49 556.33,537.62 556.33,537.62
             556.33,537.62 554.59,537.43 554.59,537.43
             554.59,537.43 553.67,537.54 553.67,537.54
             553.67,537.54 552.55,537.54 552.55,537.54
             552.55,537.54 549.59,537.63 549.59,537.63
             549.59,537.63 547.95,537.73 547.95,537.73
             547.95,537.73 546.52,537.60 546.52,537.60
             546.52,537.60 544.68,537.60 544.68,537.60
             544.68,537.60 542.03,537.71 542.03,537.71
             542.03,537.71 539.98,537.52 539.98,537.52
             539.98,537.52 537.73,537.52 537.73,537.52
             537.73,537.52 536.61,537.44 536.61,537.44
             536.61,537.44 535.79,537.52 535.79,537.52
             535.79,537.52 534.87,537.44 534.87,537.44
             534.87,537.44 533.44,537.52 533.44,537.52
             533.44,537.52 530.89,537.32 530.89,537.32
             530.89,537.32 529.87,537.40 529.87,537.40
             529.87,537.40 527.52,537.22 527.52,537.22
             527.52,537.22 525.06,537.22 525.06,537.22
             525.06,537.22 523.43,537.32 523.43,537.32
             523.43,537.32 522.10,537.22 522.10,537.22
             522.10,537.22 520.26,537.40 520.26,537.40
             520.26,537.40 519.24,537.23 519.24,537.23
             519.24,537.23 516.79,537.13 516.79,537.13
             516.79,537.13 516.28,537.20 516.28,537.20
             516.28,537.20 515.26,537.12 515.26,537.12
             515.26,537.12 513.82,537.12 513.82,537.12
             513.82,537.12 510.96,537.12 510.96,537.12
             510.96,537.12 509.23,537.22 509.23,537.22
             509.23,537.22 507.08,537.22 507.08,537.22
             507.08,537.22 505.45,537.32 505.45,537.32
             505.45,537.32 503.50,537.12 503.50,537.12
             503.15,537.14 502.97,537.23 502.59,537.20
             502.59,537.20 501.87,537.13 501.87,537.13
             501.87,537.13 501.05,537.20 501.05,537.20
             501.05,537.20 499.42,537.02 499.42,537.02
             499.42,537.02 497.17,537.02 497.17,537.02
             497.17,537.02 495.64,537.11 495.64,537.11
             495.64,537.11 493.18,537.22 493.18,537.22
             493.18,537.22 491.04,537.39 491.04,537.39
             491.04,537.39 488.59,537.12 488.59,537.12
             488.59,537.12 484.19,537.32 484.19,537.32
             482.98,537.32 482.30,537.59 481.03,537.42
             481.30,539.18 483.30,541.05 484.25,542.63
             484.25,542.63 484.76,543.55 484.76,543.55
             484.76,543.55 485.47,544.57 485.47,544.57
             485.47,544.57 486.19,545.80 486.19,545.80
             486.19,545.80 487.31,547.33 487.31,547.33
             487.31,547.33 487.92,548.45 487.92,548.45
             487.92,548.45 488.92,549.98 488.92,549.98
             488.92,549.98 489.48,550.90 489.48,550.90
             489.48,550.90 490.29,551.92 490.29,551.92
             490.29,551.92 491.17,553.25 491.17,553.25
             491.17,553.25 493.62,556.52 493.62,556.52
             493.62,556.52 494.43,557.75 494.43,557.75
             494.43,557.75 495.46,559.07 495.46,559.07
             495.46,559.07 497.33,561.93 497.33,561.93
             497.33,561.93 500.21,565.41 500.21,565.41
             500.21,565.41 501.62,567.35 501.62,567.35
             501.62,567.35 503.09,569.08 503.09,569.08
             503.09,569.08 504.27,570.62 504.27,570.62
             504.27,570.62 506.53,573.37 506.53,573.37
             506.53,573.37 507.22,574.39 507.22,574.39
             507.22,574.39 508.70,575.83 508.70,575.83
             508.70,575.83 509.65,576.95 509.65,576.95
             509.65,576.95 511.76,579.20 511.76,579.20
             511.76,579.20 512.94,580.62 512.94,580.62
             512.94,580.62 513.93,581.55 513.93,581.55
             514.32,581.93 514.66,582.35 515.01,582.77
             515.01,582.77 517.45,585.94 517.45,585.94
             517.45,585.94 520.68,590.02 520.68,590.02
             520.68,590.02 524.19,594.72 524.19,594.72
             524.19,594.72 525.42,596.46 525.42,596.46
             525.42,596.46 526.78,598.09 526.78,598.09
             526.78,598.09 529.00,601.15 529.00,601.15
             529.00,601.15 530.24,602.48 530.24,602.48
             530.24,602.48 532.77,605.65 532.77,605.65
             532.77,605.65 534.03,606.98 534.03,606.98
             534.03,606.98 536.03,609.33 536.03,609.33
             536.03,609.33 538.42,611.98 538.42,611.98
             538.42,611.98 541.42,615.66 541.42,615.66
             541.42,615.66 543.66,617.75 543.66,617.75
             544.33,618.28 545.22,618.80 545.78,619.44
             546.00,619.69 546.84,620.80 546.99,621.07
             546.99,621.07 547.37,621.89 547.37,621.89
             547.37,621.89 547.92,622.91 547.92,622.91
             548.20,623.53 548.55,625.06 548.71,625.77
             548.88,626.53 549.17,627.67 549.18,628.43
             549.18,628.43 549.28,630.37 549.28,630.37
             549.28,630.37 549.39,632.92 549.39,632.92
             549.39,632.92 549.48,634.14 549.48,634.14
             549.49,635.95 549.62,638.80 549.28,640.48
             549.08,641.48 548.58,643.27 547.74,643.90
             546.88,644.54 545.59,644.47 544.58,644.46
             544.58,644.46 542.54,644.15 542.54,644.15
             542.54,644.15 541.51,644.15 541.51,644.15
             539.80,643.91 537.42,643.21 535.89,642.39
             535.89,642.39 534.46,641.63 534.46,641.63
             534.46,641.63 533.14,641.03 533.14,641.03
             533.14,641.03 531.30,640.04 531.30,640.04
             530.63,639.70 529.80,639.16 529.05,639.15
             528.91,638.75 528.84,638.76 528.44,638.84
             528.44,638.84 528.33,638.54 528.33,638.54
             527.83,638.43 527.66,638.11 527.72,637.62
             527.72,637.62 527.41,637.52 527.41,637.52
             527.41,637.52 527.52,637.21 527.52,637.21
             527.26,637.07 527.13,637.00 526.92,636.79
             526.92,636.79 525.00,634.04 525.00,634.04
             525.00,634.04 522.16,629.24 522.16,629.24
             522.16,629.24 520.61,626.69 520.61,626.69
             520.61,626.69 519.74,625.05 519.74,625.05
             519.74,625.05 517.65,621.48 517.65,621.48
             517.65,621.48 516.59,619.64 516.59,619.64
             516.59,619.64 515.65,618.52 515.65,618.52
             515.65,618.52 513.79,615.86 513.79,615.86
             513.79,615.86 512.44,613.72 512.44,613.72
             512.44,613.72 511.93,612.80 511.93,612.80
             511.93,612.80 509.57,609.33 509.57,609.33
             509.57,609.33 507.45,605.96 507.45,605.96
             507.45,605.96 505.87,603.81 505.87,603.81
             505.87,603.81 502.94,599.72 502.94,599.72
             502.94,599.72 500.47,596.05 500.47,596.05
             500.47,596.05 498.63,593.80 498.63,593.80
             498.63,593.80 497.85,592.78 497.85,592.78
             497.85,592.78 497.21,592.06 497.21,592.06
             497.21,592.06 496.71,591.35 496.71,591.35
             496.71,591.35 496.12,590.71 496.12,590.71
             496.12,590.71 495.60,589.92 495.60,589.92
             495.60,589.92 494.85,589.10 494.85,589.10
             494.85,589.10 494.01,588.08 494.01,588.08
             494.01,588.08 492.36,586.24 492.36,586.24
             491.78,585.60 491.24,585.10 491.14,584.20
             491.14,584.20 490.63,584.20 490.63,584.20
             490.35,583.24 489.56,582.66 488.90,581.95
             488.90,581.95 487.68,580.63 487.68,580.63
             487.68,580.63 485.19,577.66 485.19,577.66
             485.19,577.66 483.50,575.93 483.50,575.93
             483.50,575.93 481.28,573.17 481.28,573.17
             480.49,572.21 479.37,571.75 478.98,570.41
             478.98,570.41 478.78,570.51 478.78,570.51
             478.78,570.51 477.65,569.58 477.65,569.58
             477.65,569.58 474.90,567.35 474.90,567.35
             474.61,568.90 474.79,568.88 474.79,570.41
             474.79,570.41 474.89,572.25 474.89,572.25
             474.85,573.15 474.59,572.63 474.59,574.29
             474.59,574.29 474.49,576.20 474.49,576.20
             474.55,576.78 474.49,576.82 474.49,577.36
             474.49,577.36 474.49,579.50 474.49,579.50
             474.49,579.50 474.56,580.73 474.56,580.73
             474.56,580.73 474.23,582.16 474.23,582.16
             474.23,582.16 474.30,583.69 474.30,583.69
             474.30,583.69 474.30,585.53 474.30,585.53
             474.27,586.32 474.08,586.56 474.08,586.96
             474.08,586.96 474.27,588.39 474.27,588.39
             474.32,589.12 474.19,589.37 474.19,589.82
             474.19,589.82 474.35,591.04 474.35,591.04
             474.35,591.04 474.28,592.17 474.28,592.17
             474.28,592.17 474.49,594.52 474.49,594.52
             474.49,594.52 474.49,596.76 474.49,596.76
             474.49,596.76 474.28,598.91 474.28,598.91
             474.28,598.91 474.28,605.44 474.28,605.44
             474.28,605.44 474.38,606.98 474.38,606.98
             474.38,606.98 474.18,609.12 474.18,609.12
             474.18,609.12 474.18,610.45 474.18,610.45
             474.18,610.45 474.08,611.37 474.08,611.37
             474.08,611.37 474.28,614.13 474.28,614.13
             474.28,614.13 474.08,614.13 474.08,614.13
             474.17,614.42 474.26,614.62 474.22,614.94
             474.22,614.94 473.98,617.09 473.98,617.09
             473.98,617.09 474.18,619.03 474.18,619.03
             474.18,619.03 474.18,621.38 474.18,621.38
             474.18,621.38 474.08,623.22 474.08,623.22
             474.08,623.22 474.17,624.34 474.17,624.34
             474.17,624.34 474.07,625.57 474.07,625.57
             474.07,625.57 474.07,627.20 474.07,627.20
             474.07,627.20 473.98,628.43 473.98,628.43
             473.98,628.43 474.08,637.00 474.08,637.00
             474.08,637.00 474.28,639.35 474.28,639.35
             474.28,639.35 474.49,642.32 474.49,642.32
             474.49,642.32 474.49,643.34 474.49,643.34
             474.49,643.34 474.67,644.36 474.67,644.36
             474.67,644.36 474.81,646.40 474.81,646.40
             474.81,646.40 475.19,650.38 475.19,650.38
             475.19,650.38 475.31,652.02 475.31,652.02
             475.31,652.02 475.31,652.94 475.31,652.94
             475.31,652.94 475.56,653.96 475.56,653.96
             475.56,653.96 475.64,654.78 475.64,654.78
             475.64,654.78 475.80,655.90 475.80,655.90
             475.80,655.90 476.06,659.27 476.06,659.27
             476.06,659.27 476.70,663.36 476.70,663.36
             476.70,663.36 476.55,665.09 476.55,665.09
             476.55,665.09 476.93,669.08 476.93,669.08
             476.93,669.08 476.84,670.20 476.84,670.20
             476.83,671.06 476.78,671.91 476.58,672.75
             476.58,672.75 476.02,674.39 476.02,674.39
             476.02,674.39 475.23,676.84 475.23,676.84
             475.23,676.84 474.62,678.06 474.62,678.06
             474.62,678.06 474.03,679.49 474.03,679.49
             474.03,679.49 473.46,680.51 473.46,680.51
             473.46,680.51 472.51,682.46 472.51,682.46
             472.51,682.46 471.87,683.58 471.87,683.58
             471.13,685.05 470.88,685.63 469.92,687.05
             469.92,687.05 468.84,688.58 468.84,688.58
             467.95,689.94 467.49,691.05 465.80,691.68
             465.17,691.91 465.09,691.83 464.47,691.77
             464.11,691.73 463.94,691.77 463.55,691.67
             462.60,691.43 460.32,689.96 459.36,689.38
             459.36,689.38 455.48,686.76 455.48,686.76
             455.48,686.76 454.56,685.98 454.56,685.98
             454.56,685.98 453.74,685.38 453.74,685.38
             453.21,684.94 452.74,684.40 452.29,683.89
             452.29,683.89 451.43,682.97 451.43,682.97
             451.09,682.56 450.37,681.32 450.16,680.82
             449.50,679.29 449.33,677.07 449.35,675.41
             449.35,675.41 449.59,671.83 449.59,671.83
             449.59,671.83 450.24,668.67 450.24,668.67
             450.24,668.67 450.68,665.91 450.68,665.91
             450.68,665.91 450.68,664.89 450.68,664.89
             450.68,664.89 451.02,662.74 451.02,662.74
             451.02,662.74 451.25,661.72 451.25,661.72
             451.25,661.72 451.44,660.39 451.44,660.39
             451.44,660.39 451.98,657.94 451.98,657.94
             451.98,657.94 452.13,656.31 452.13,656.31
             452.13,656.31 452.42,654.27 452.42,654.27
             452.42,654.27 452.42,653.24 452.42,653.24
             452.42,653.24 453.29,648.24 453.29,648.24
             453.29,648.24 453.35,646.91 453.35,646.91
             453.35,646.91 453.51,645.89 453.51,645.89
             453.51,645.89 453.65,644.15 453.65,644.15
             453.65,644.15 453.86,642.42 453.86,642.42
             453.86,642.42 453.86,641.40 453.86,641.40
             453.99,640.51 454.15,640.40 454.15,639.35
             454.15,639.35 454.15,637.31 454.15,637.31
             454.15,637.31 454.26,635.68 454.26,635.68
             454.26,635.68 454.32,631.59 454.32,631.59
             454.32,631.59 454.32,630.67 454.32,630.67
             454.32,630.67 454.46,628.53 454.46,628.53
             454.46,628.53 454.46,627.30 454.46,627.30
             454.46,627.30 454.54,626.59 454.54,626.59
             454.54,626.18 454.41,625.90 454.48,625.16
             454.48,625.16 454.76,622.40 454.76,622.40
             454.76,622.40 454.68,621.68 454.68,621.68
             454.68,621.68 455.07,617.80 455.07,617.80
             455.07,617.80 454.97,615.66 454.97,615.66
             454.98,614.99 455.16,614.40 455.02,613.72
             454.88,613.00 454.57,613.05 454.56,612.19
             454.56,612.19 454.85,609.63 454.85,609.63
             454.89,609.18 454.79,608.94 454.77,608.51
             454.77,608.51 454.86,606.98 454.86,606.98
             454.86,606.98 454.67,604.93 454.67,604.93
             454.67,604.93 454.73,604.32 454.73,604.32
             454.73,604.32 454.56,601.67 454.56,601.67
             454.56,601.67 454.56,598.91 454.56,598.91
             454.56,598.91 454.46,597.17 454.46,597.17
             454.46,597.17 454.46,591.55 454.46,591.55
             454.46,591.55 454.56,589.51 454.56,589.51
             454.56,589.51 454.66,588.49 454.66,588.49
             454.66,588.49 454.66,586.75 454.66,586.75
             454.66,586.75 454.76,585.43 454.76,585.43
             454.76,585.43 454.70,584.71 454.70,584.71
             454.70,584.71 454.77,583.69 454.77,583.69
             454.77,583.69 454.67,582.77 454.67,582.77
             454.67,582.77 454.67,581.44 454.67,581.44
             454.67,581.44 454.56,579.91 454.56,579.91
             454.56,579.91 454.56,578.58 454.56,578.58
             454.56,578.58 454.46,577.36 454.46,577.36
             454.46,577.36 454.46,573.48 454.46,573.48
             454.46,573.48 454.36,571.74 454.36,571.74
             454.36,571.74 454.36,564.90 454.36,564.90
             454.36,564.90 454.26,563.36 454.26,563.36
             454.26,563.36 454.26,560.91 454.26,560.91
             453.53,561.58 452.79,562.21 452.14,562.96
             452.14,562.96 450.75,564.79 450.75,564.79
             450.75,564.79 449.33,566.43 449.33,566.43
             449.33,566.43 448.66,567.45 448.66,567.45
             448.66,567.45 447.75,568.68 447.75,568.68
             447.75,568.68 447.11,569.70 447.11,569.70
             447.11,569.70 444.97,572.15 444.97,572.15
             444.97,572.15 443.46,574.09 443.46,574.09
             443.46,574.09 442.28,575.42 442.28,575.42
             442.28,575.42 440.85,577.56 440.85,577.56
             440.85,577.56 439.43,579.20 439.43,579.20
             439.43,579.20 438.40,580.51 438.40,580.51
             437.95,580.97 437.34,581.26 436.74,581.96
             436.74,581.96 434.47,584.81 434.47,584.81
             434.47,584.81 433.67,585.73 433.67,585.73
             433.67,585.73 431.29,588.90 431.29,588.90
             431.29,588.90 430.42,589.92 430.42,589.92
             430.42,589.92 429.32,591.55 429.32,591.55
             429.32,591.55 427.09,594.62 427.09,594.62
             427.09,594.62 425.06,596.97 425.06,596.97
             425.06,596.97 424.02,598.40 424.02,598.40
             424.02,598.40 422.31,600.54 422.31,600.54
             422.31,600.54 420.92,602.07 420.92,602.07
             420.92,602.07 419.96,603.40 419.96,603.40
             419.96,603.40 419.45,604.21 419.45,604.21
             419.45,604.21 418.86,604.85 418.86,604.85
             418.86,604.85 418.34,605.65 418.34,605.65
             418.34,605.65 417.34,606.87 417.34,606.87
             417.34,606.87 416.30,608.71 416.30,608.71
             416.30,608.71 413.57,612.08 413.57,612.08
             413.57,612.08 411.60,614.64 411.60,614.64
             411.60,614.64 410.07,616.37 410.07,616.37
             410.07,616.37 409.02,617.90 409.02,617.90
             409.02,617.90 408.33,618.63 408.33,618.63
             408.33,618.63 406.52,621.07 406.52,621.07
             406.52,621.07 405.67,622.50 405.67,622.50
             405.67,622.50 404.44,623.93 404.44,623.93
             404.44,623.93 403.56,625.05 403.56,625.05
             403.56,625.05 402.70,625.97 402.70,625.97
             402.70,625.97 401.81,627.10 401.81,627.10
             401.81,627.10 401.07,627.91 401.07,627.91
             401.07,627.91 398.54,631.08 398.54,631.08
             398.54,631.08 395.40,634.35 395.40,634.35
             394.23,635.53 392.55,637.12 391.11,637.94
             389.59,638.81 388.89,638.76 387.33,639.24
             387.33,639.24 384.78,640.19 384.78,640.19
             384.78,640.19 382.83,640.60 382.83,640.60
             382.83,640.60 381.10,640.97 381.10,640.97
             379.61,641.37 378.70,641.70 377.21,640.97
             376.89,640.80 376.58,640.62 376.33,640.36
             375.76,639.75 375.45,638.43 375.30,637.62
             374.88,635.36 374.94,633.06 374.97,630.77
             374.98,629.90 375.22,628.87 375.40,628.02
             375.59,627.05 375.78,625.85 376.17,624.95
             376.17,624.95 376.59,624.14 376.59,624.14
             376.59,624.14 376.96,623.11 376.96,623.11
             377.15,622.70 377.97,621.55 378.28,621.17
             378.78,620.57 379.96,619.58 380.59,619.01
             380.59,619.01 384.06,615.66 384.06,615.66
             384.06,615.66 385.60,613.92 385.60,613.92
             385.60,613.92 388.85,610.55 388.85,610.55
             388.85,610.55 391.73,607.39 391.73,607.39
             391.73,607.39 393.46,605.67 393.46,605.67
             393.46,605.67 395.38,603.97 395.38,603.97
             395.38,603.97 397.04,602.28 397.04,602.28
             397.04,602.28 397.84,601.55 397.84,601.55
             397.84,601.55 398.98,600.34 398.98,600.34
             398.98,600.34 399.98,599.42 399.98,599.42
             399.98,599.42 400.76,598.40 400.76,598.40
             400.76,598.40 401.69,597.38 401.69,597.38
             401.69,597.38 403.13,595.66 403.13,595.66
             403.13,595.66 405.40,593.80 405.40,593.80
             405.40,593.80 407.78,590.84 407.78,590.84
             407.78,590.84 409.49,589.00 409.49,589.00
             409.49,589.00 410.53,587.77 410.53,587.77
             410.53,587.77 411.52,586.75 411.52,586.75
             411.52,586.75 413.33,584.30 413.33,584.30
             413.33,584.30 415.40,582.06 415.40,582.06
             415.40,582.06 420.28,576.03 420.28,576.03
             420.28,576.03 421.11,575.11 421.11,575.11
             421.11,575.11 422.98,572.35 422.98,572.35
             422.98,572.35 423.92,571.23 423.92,571.23
             423.92,571.23 425.28,569.39 425.28,569.39
             425.28,569.39 426.08,568.47 426.08,568.47
             426.08,568.47 428.09,565.61 428.09,565.61
             428.09,565.61 429.44,563.98 429.44,563.98
             429.44,563.98 431.26,561.32 431.26,561.32
             431.26,561.32 432.71,559.59 432.71,559.59
             432.71,559.59 433.67,558.56 433.67,558.56
             433.67,558.56 435.03,556.73 435.03,556.73
             435.03,556.73 436.56,554.68 436.56,554.68
             436.56,554.68 437.20,553.66 437.20,553.66
             437.20,553.66 439.48,550.39 439.48,550.39
             439.48,550.39 440.68,548.76 440.68,548.76
             440.68,548.76 442.86,544.98 442.86,544.98
             442.86,544.98 443.80,543.35 443.80,543.35
             443.80,543.35 445.19,540.59 445.19,540.59
             445.19,540.59 446.24,538.54 446.24,538.54
             446.24,538.54 446.80,536.40 446.80,536.40
             446.80,536.40 443.63,536.30 443.63,536.30
             443.63,536.30 440.56,536.60 440.56,536.60
             440.56,536.60 435.86,536.60 435.86,536.60
             435.86,536.60 434.33,536.71 434.33,536.71
             434.33,536.71 431.57,536.71 431.57,536.71
             431.57,536.71 429.43,536.60 429.43,536.60
             429.43,536.60 428.20,536.70 428.20,536.70
             428.20,536.70 427.08,536.64 427.08,536.64
             427.08,536.64 426.36,536.70 426.36,536.70
             426.36,536.70 425.24,536.61 425.24,536.61
             425.24,536.61 424.11,536.70 424.11,536.70
             424.11,536.70 422.79,536.63 422.79,536.63
             422.79,536.63 421.05,536.80 421.05,536.80
             421.05,536.80 419.92,536.80 419.92,536.80
             419.92,536.80 418.39,536.92 418.39,536.92
             418.39,536.92 417.27,536.92 417.27,536.92
             417.27,536.92 416.25,537.01 416.25,537.01
             416.25,537.01 414.61,537.01 414.61,537.01
             414.61,537.01 413.08,537.12 413.08,537.12
             413.08,537.12 412.06,537.12 412.06,537.12
             412.06,537.12 410.63,537.32 410.63,537.32
             410.63,537.32 409.09,537.32 409.09,537.32
             409.09,537.32 407.56,537.42 407.56,537.42
             407.56,537.42 406.03,537.42 406.03,537.42
             406.03,537.42 402.45,537.82 402.45,537.82
             402.45,537.82 401.23,537.73 401.23,537.73
             401.23,537.73 399.90,537.73 399.90,537.73
             399.90,537.73 397.96,537.63 397.96,537.63
             397.96,537.63 395.81,537.32 395.81,537.32
             395.81,537.32 393.36,537.32 393.36,537.32
             393.36,537.32 391.93,537.22 391.93,537.22
             391.93,537.22 390.40,537.42 390.40,537.42
             390.40,537.42 388.76,537.34 388.76,537.34
             388.76,537.34 387.43,537.34 387.43,537.34
             387.43,537.34 385.80,537.22 385.80,537.22
             385.80,537.22 383.96,537.12 383.96,537.12
             383.96,537.12 382.02,537.12 382.02,537.12
             382.02,537.12 379.56,537.32 379.56,537.32
             379.56,537.32 377.73,537.32 377.73,537.32
             377.73,537.32 376.09,537.42 376.09,537.42
             376.09,537.42 373.33,537.52 373.33,537.52
             373.33,537.52 371.80,537.42 371.80,537.42
             371.80,537.42 365.98,537.42 365.98,537.42
             365.98,537.42 363.73,537.28 363.73,537.28
             363.73,537.28 363.22,537.01 363.22,537.01
             362.47,537.58 361.41,537.33 360.56,537.32
             360.56,537.32 357.90,537.52 357.90,537.52
             357.90,537.52 356.68,537.52 356.68,537.52
             356.68,537.52 354.84,537.63 354.84,537.63
             354.84,537.63 353.41,537.52 353.41,537.52
             353.41,537.52 350.24,537.52 350.24,537.52
             350.24,537.52 348.71,537.63 348.71,537.63
             348.71,537.63 345.44,537.63 345.44,537.63
             345.44,537.63 343.70,537.73 343.70,537.73
             343.70,537.73 341.96,537.83 341.96,537.83
             341.96,537.83 340.02,537.83 340.02,537.83
             340.02,537.83 337.88,537.75 337.88,537.75
             337.27,537.82 337.00,538.11 336.24,538.00
             336.24,538.00 334.91,537.67 334.91,537.67
             334.91,537.67 333.89,537.44 333.89,537.44
             333.89,537.44 332.87,537.02 332.87,537.02
             331.41,536.46 331.36,536.53 329.91,535.68
             328.17,534.67 327.32,534.01 326.08,532.42
             325.30,531.41 324.80,530.57 324.92,529.25
             325.15,526.66 326.86,524.62 328.57,522.82
             329.25,522.10 329.65,521.62 330.42,520.95
             331.49,520.01 332.49,519.00 333.99,519.04
             333.99,519.04 336.14,519.24 336.14,519.24
             336.14,519.24 337.47,519.15 337.47,519.15
             337.92,519.12 338.10,519.21 338.49,519.23
             338.49,519.23 340.33,519.04 340.33,519.04
             340.33,519.04 343.70,519.04 343.70,519.04
             343.70,519.04 344.82,518.97 344.82,518.97
             344.82,518.97 345.74,519.04 345.74,519.04
             345.74,519.04 347.69,518.93 347.69,518.93
             347.69,518.93 348.91,518.93 348.91,518.93
             348.91,518.93 350.04,518.83 350.04,518.83
             350.04,518.83 352.39,518.83 352.39,518.83
             352.39,518.83 353.82,518.93 353.82,518.93
             353.82,518.93 356.17,518.73 356.17,518.73
             356.17,518.73 357.60,518.83 357.60,518.83
             357.60,518.83 361.07,518.83 361.07,518.83
             361.07,518.83 363.93,519.04 363.93,519.04
             363.93,519.04 365.46,518.93 365.46,518.93
             365.46,518.93 368.33,518.93 368.33,518.93
             368.33,518.93 371.29,518.73 371.29,518.73
             371.29,518.73 373.94,518.73 373.94,518.73
             373.94,518.73 377.21,518.53 377.21,518.53
             377.21,518.53 378.24,518.60 378.24,518.60
             379.23,518.52 379.31,518.39 380.28,518.83
             380.50,518.51 380.62,518.53 381.00,518.53
             381.00,518.53 383.65,518.46 383.65,518.46
             383.65,518.46 386.21,518.53 386.21,518.53
             386.21,518.53 389.07,518.53 389.07,518.53
             389.07,518.53 390.70,518.42 390.70,518.42
             390.70,518.42 392.13,518.34 392.13,518.34
             392.13,518.34 392.85,518.41 392.85,518.41
             392.85,518.41 394.18,518.32 394.18,518.32
             394.18,518.32 399.59,518.32 399.59,518.32
             399.59,518.32 400.61,518.23 400.61,518.23
             400.61,518.23 402.96,518.11 402.96,518.11
             402.96,518.11 404.19,518.02 404.19,518.02
             404.19,518.02 407.46,518.02 407.46,518.02
             407.46,518.02 410.12,517.80 410.12,517.80
             410.12,517.80 411.14,517.80 411.14,517.80
             411.14,517.80 412.47,517.63 412.47,517.63
             412.47,517.63 413.79,517.70 413.79,517.70
             413.79,517.70 415.33,517.59 415.33,517.59
             415.33,517.59 417.17,517.40 417.17,517.40
             417.17,517.40 418.39,517.40 418.39,517.40
             418.39,517.40 419.82,517.30 419.82,517.30
             419.82,517.30 421.25,517.40 421.25,517.40
             421.25,517.40 423.30,517.40 423.30,517.40
             423.30,517.40 424.93,517.50 424.93,517.50
             424.93,517.50 430.14,517.50 430.14,517.50
             430.61,517.50 431.07,517.53 431.43,517.16
             431.77,516.81 431.76,516.32 431.82,515.87
             431.82,515.87 432.07,514.24 432.07,514.24
             432.07,514.24 432.21,512.81 432.21,512.81
             432.21,512.81 432.91,507.50 432.91,507.50
             432.91,507.50 433.00,506.27 433.00,506.27
             433.00,506.27 432.62,498.81 432.62,498.81
             432.62,498.81 432.62,497.49 432.62,497.49
             432.62,497.49 432.36,493.30 432.36,493.30
             432.36,493.30 431.11,486.05 431.11,486.05
             431.11,486.05 431.03,485.03 431.03,485.03
             431.03,485.03 430.77,483.49 430.77,483.49
             430.77,483.49 430.69,482.37 430.69,482.37
             430.69,482.37 430.09,480.02 430.09,480.02
             430.09,480.02 429.85,478.49 429.85,478.49
             429.85,478.49 428.48,473.69 428.48,473.69
             428.48,473.69 427.07,468.79 427.07,468.79
             427.07,468.79 426.27,467.15 426.27,467.15
             426.27,467.15 425.40,464.80 425.40,464.80
             425.40,464.80 424.76,463.58 424.76,463.58
             424.76,463.58 423.78,461.33 423.78,461.33
             423.78,461.33 421.86,457.86 421.86,457.86
             421.86,457.86 420.08,455.41 420.08,455.41
             420.08,455.41 419.34,454.18 419.34,454.18
             419.34,454.18 417.32,451.32 417.32,451.32
             416.06,449.68 415.01,448.85 413.70,447.44
             413.70,447.44 412.66,446.21 412.66,446.21
             412.66,446.21 408.38,441.94 408.38,441.94
             408.38,441.94 407.36,441.04 407.36,441.04
             407.36,441.04 406.54,440.46 406.54,440.46
             406.54,440.46 405.11,439.23 405.11,439.23
             405.11,439.23 403.99,438.42 403.99,438.42
             403.99,438.42 403.36,437.74 403.36,437.74
             403.36,437.74 402.26,436.61 402.26,436.61
             402.26,436.61 400.82,435.10 400.82,435.10
             400.82,435.10 398.57,433.38 398.57,433.38
             398.57,433.38 396.83,431.96 396.83,431.96
             396.83,431.96 395.81,431.26 395.81,431.26
             395.81,431.26 393.77,429.41 393.77,429.41
             393.77,429.41 392.23,428.32 392.23,428.32
             392.23,428.32 388.66,425.56 388.66,425.56
             388.66,425.56 383.96,422.60 383.96,422.60
             383.96,422.60 382.73,421.67 382.73,421.67
             382.73,421.67 380.79,420.36 380.79,420.36
             380.79,420.36 379.05,419.08 379.05,419.08
             379.05,419.08 377.21,417.98 377.21,417.98
             377.21,417.98 375.27,416.68 375.27,416.68
             375.27,416.68 373.33,415.50 373.33,415.50
             373.33,415.50 368.63,412.54 368.63,412.54
             368.63,412.54 363.11,409.64 363.11,409.64
             363.11,409.64 362.19,409.30 362.19,409.30
             362.19,409.30 360.97,408.72 360.97,408.72
             360.97,408.72 359.74,408.27 359.74,408.27
             359.74,408.27 358.93,407.90 358.93,407.90
             358.93,407.90 357.49,407.37 357.49,407.37
             357.49,407.37 355.55,406.26 355.55,406.26
             353.78,405.25 352.22,404.39 351.07,402.60
             350.70,402.03 350.42,401.11 350.21,400.46
             350.00,399.84 349.60,398.74 349.65,398.11
             349.69,397.49 349.95,396.96 350.07,396.37
             350.22,395.65 350.02,395.54 350.37,394.74
             351.05,393.21 351.42,392.74 352.59,391.57
             352.94,391.22 353.30,390.83 353.71,390.56
             354.14,390.28 356.35,389.49 356.88,389.38
             356.88,389.38 357.80,389.29 357.80,389.29
             357.80,389.29 358.72,389.06 358.72,389.06
             358.72,389.06 360.87,388.92 360.87,388.92
             360.87,388.92 363.42,389.31 363.42,389.31
             363.42,389.31 364.85,389.31 364.85,389.31
             365.82,389.33 366.49,389.61 367.41,389.86
             367.41,389.86 369.04,390.23 369.04,390.23
             369.04,390.23 370.27,390.68 370.27,390.68
             370.27,390.68 373.43,391.54 373.43,391.54
             373.43,391.54 377.32,393.06 377.32,393.06
             377.32,393.06 379.67,393.97 379.67,393.97
             379.67,393.97 381.51,394.79 381.51,394.79
             381.51,394.79 383.04,395.39 383.04,395.39
             383.04,395.39 384.47,396.14 384.47,396.14
             384.47,396.14 385.80,396.67 385.80,396.67
             385.80,396.67 387.84,397.78 387.84,397.78
             387.84,397.78 391.52,399.57 391.52,399.57
             391.52,399.57 393.87,400.96 393.87,400.96
             393.87,400.96 394.79,401.61 394.79,401.61
             394.79,401.61 396.02,402.35 396.02,402.35
             396.02,402.35 397.14,403.17 397.14,403.17
             397.14,403.17 399.80,404.75 399.80,404.75
             399.80,404.75 402.15,406.23 402.15,406.23
             402.15,406.23 403.68,407.10 403.68,407.10
             403.68,407.10 404.50,407.70 404.50,407.70
             404.50,407.70 405.72,408.43 405.72,408.43
             405.72,408.43 406.85,409.27 406.85,409.27
             406.85,409.27 408.38,410.31 408.38,410.31
             408.38,410.31 409.40,411.10 409.40,411.10
             409.40,411.10 410.83,412.00 410.83,412.00
             410.83,412.00 414.10,414.27 414.10,414.27
             414.10,414.27 416.14,415.67 416.14,415.67
             416.14,415.67 417.06,416.44 417.06,416.44
             417.06,416.44 418.70,417.58 418.70,417.58
             418.70,417.58 421.97,420.16 421.97,420.16
             421.97,420.16 423.40,421.12 423.40,421.12
             423.40,421.12 428.51,425.65 428.51,425.65
             428.51,425.65 429.93,426.75 429.93,426.75
             429.93,426.75 430.87,427.82 430.87,427.82
             430.87,427.82 431.88,428.75 431.88,428.75
             431.88,428.75 432.90,429.87 432.90,429.87
             432.90,429.87 435.35,431.92 435.35,431.92
             435.35,431.92 439.34,435.89 439.34,435.89
             439.34,435.89 443.75,440.04 443.75,440.04
             443.75,440.04 444.96,441.11 444.96,441.11
             444.96,441.11 446.60,442.83 446.60,442.83
             446.60,442.83 448.02,444.07 448.02,444.07
             448.02,444.07 449.76,446.01 449.76,446.01
             449.76,446.01 451.45,447.56 451.45,447.56
             451.45,447.56 452.43,448.77 452.43,448.77
             452.43,448.77 454.29,450.62 454.29,450.62
             454.29,450.62 455.70,452.44 455.70,452.44
             455.70,452.44 457.91,454.79 457.91,454.79
             457.91,454.79 460.69,458.06 460.69,458.06
             460.69,458.06 461.09,455.00 461.09,455.00
             461.09,455.00 461.00,453.77 461.00,453.77
             461.00,453.77 461.00,452.55 461.00,452.55
             461.00,452.55 461.30,448.77 461.30,448.77
             461.30,448.77 461.43,446.32 461.43,446.32
             461.43,446.32 461.71,444.89 461.71,444.89
             461.71,444.89 461.71,444.07 461.71,444.07
             461.71,444.07 461.89,443.25 461.89,443.25
             461.89,443.25 462.07,441.92 462.07,441.92
             462.07,441.92 462.47,440.19 462.47,440.19
             462.47,440.19 463.00,437.53 463.00,437.53
             463.00,437.53 463.11,436.41 463.11,436.41
             463.11,436.41 464.18,432.63 464.18,432.63
             464.18,432.63 464.45,431.51 464.45,431.51
             464.45,431.51 464.86,430.28 464.86,430.28
             464.86,430.28 465.67,427.52 465.67,427.52
             465.67,427.52 466.26,426.09 466.26,426.09
             466.26,426.09 466.71,424.56 466.71,424.56
             466.71,424.56 468.41,420.27 468.41,420.27
             468.41,420.27 468.89,418.84 468.89,418.84
             468.89,418.84 469.95,416.19 469.95,416.19
             469.95,416.19 472.08,410.47 472.08,410.47
             472.08,410.47 472.87,408.73 472.87,408.73
             472.87,408.73 474.51,404.85 474.51,404.85
             474.51,404.85 475.68,402.70 475.68,402.70
             475.68,402.70 476.30,401.17 476.30,401.17
             476.30,401.17 477.83,398.41 477.83,398.41
             477.83,398.41 478.32,396.78 478.32,396.78
             478.32,396.78 479.00,395.35 479.00,395.35
             479.23,394.83 479.32,394.32 479.90,394.12
             480.00,393.08 480.48,392.75 480.89,391.88 Z
           M 482.56,512.40
           C 482.56,512.40 482.46,510.76 482.46,510.76
             482.46,510.76 482.35,509.03 482.35,509.03
             482.35,509.03 482.05,505.35 482.05,505.35
             482.05,505.35 482.05,504.12 482.05,504.12
             482.05,504.12 481.84,500.96 481.84,500.96
             481.84,500.96 481.84,497.69 481.84,497.69
             481.84,497.69 481.74,495.95 481.74,495.95
             481.74,495.95 481.74,490.44 481.74,490.44
             481.74,490.44 481.74,488.80 481.74,488.80
             481.74,488.80 481.65,487.37 481.65,487.37
             481.68,486.89 481.76,486.75 481.74,486.15
             481.74,486.15 481.66,485.13 481.66,485.13
             481.66,485.13 481.84,482.68 481.84,482.68
             481.84,482.68 481.74,481.55 481.74,481.55
             481.74,481.55 481.74,479.82 481.74,479.82
             481.74,479.82 481.84,478.18 481.84,478.18
             481.85,477.18 482.03,475.82 482.18,474.81
             482.18,474.81 482.54,472.77 482.54,472.77
             482.54,472.77 482.69,470.22 482.69,470.22
             482.69,470.22 483.04,468.38 483.04,468.38
             483.04,468.38 483.51,464.90 483.51,464.90
             483.51,464.90 484.43,461.13 484.43,461.13
             484.43,461.13 485.13,457.86 485.13,457.86
             485.13,457.86 485.68,456.12 485.68,456.12
             485.68,456.12 486.29,453.98 486.29,453.98
             486.29,453.98 486.84,452.55 486.84,452.55
             486.84,452.55 487.29,450.81 487.29,450.81
             487.29,450.81 488.61,447.03 488.61,447.03
             488.61,447.03 489.76,442.84 489.76,442.84
             489.76,442.84 490.22,441.72 490.22,441.72
             490.22,441.72 490.62,440.60 490.62,440.60
             490.62,440.60 491.13,439.47 491.13,439.47
             491.13,439.47 492.03,436.92 492.03,436.92
             492.03,436.92 492.53,436.00 492.53,436.00
             492.53,436.00 493.35,434.06 493.35,434.06
             493.35,434.06 494.76,430.28 494.76,430.28
             494.76,430.28 495.32,429.05 495.32,429.05
             495.32,429.05 496.59,425.58 496.59,425.58
             496.59,425.58 497.76,423.33 497.76,423.33
             497.76,423.33 498.88,420.99 498.88,420.99
             498.88,420.99 499.59,419.76 499.59,419.76
             499.59,419.76 500.04,418.74 500.04,418.74
             500.04,418.74 500.67,417.61 500.67,417.61
             500.67,417.61 501.49,415.98 501.49,415.98
             501.49,415.98 503.41,412.81 503.41,412.81
             503.41,412.81 504.43,410.98 504.43,410.98
             504.43,410.98 505.78,409.04 505.78,409.04
             505.78,409.04 507.06,407.09 507.06,407.09
             507.06,407.09 507.89,405.66 507.89,405.66
             507.89,405.66 510.12,402.81 510.12,402.81
             510.12,402.81 510.81,401.48 510.81,401.48
             510.81,401.48 512.39,399.23 512.39,399.23
             512.39,399.23 513.64,397.29 513.64,397.29
             513.64,397.29 515.72,394.43 515.72,394.43
             515.72,394.43 516.72,392.90 516.72,392.90
             516.72,392.90 518.87,389.94 518.87,389.94
             518.87,389.94 519.40,389.12 519.40,389.12
             519.40,389.12 521.69,386.36 521.69,386.36
             521.69,386.36 522.81,384.83 522.81,384.83
             522.81,384.83 524.32,382.99 524.32,382.99
             524.32,382.99 525.30,381.76 525.30,381.76
             525.30,381.76 526.96,380.03 526.96,380.03
             526.96,380.03 531.33,374.82 531.33,374.82
             531.33,374.82 532.20,373.90 532.20,373.90
             532.20,373.90 533.35,372.57 533.35,372.57
             533.35,372.57 534.33,371.65 534.33,371.65
             534.33,371.65 537.34,368.29 537.34,368.29
             537.34,368.29 538.13,367.56 538.13,367.56
             538.13,367.56 539.06,366.55 539.06,366.55
             539.06,366.55 542.23,363.48 542.23,363.48
             542.23,363.48 543.38,362.15 543.38,362.15
             543.58,361.87 543.61,361.64 543.89,361.36
             543.89,361.36 545.38,360.29 545.38,360.29
             545.38,360.29 547.66,357.70 547.66,357.70
             547.66,357.70 548.77,356.73 548.77,356.73
             548.77,356.73 550.20,355.36 550.20,355.36
             550.20,355.36 551.81,354.12 551.81,354.12
             551.81,354.12 553.37,352.56 553.37,352.56
             553.37,352.56 554.47,351.61 554.47,351.61
             554.47,351.61 555.21,350.84 555.21,350.84
             555.21,350.84 556.43,349.87 556.43,349.87
             556.43,349.87 558.07,348.40 558.07,348.40
             558.07,348.40 559.60,347.23 559.60,347.23
             559.60,347.23 563.18,343.95 563.18,343.95
             563.18,343.95 564.40,342.94 564.40,342.94
             564.40,342.94 566.04,341.36 566.04,341.36
             566.04,341.36 568.57,339.33 568.57,339.33
             568.57,339.33 569.54,338.15 569.54,338.15
             570.15,337.43 570.69,336.77 570.89,335.80
             570.98,335.35 570.84,334.89 570.64,334.48
             570.41,334.03 570.05,333.53 569.61,333.27
             569.11,332.98 568.54,332.98 567.98,332.93
             567.98,332.93 566.55,332.77 566.55,332.77
             566.55,332.77 565.02,332.84 565.02,332.84
             564.26,332.85 564.12,333.00 563.48,333.08
             562.90,333.16 563.04,332.98 561.95,333.19
             561.95,333.19 560.42,333.59 560.42,333.59
             560.42,333.59 559.29,333.99 559.29,333.99
             559.29,333.99 556.84,334.48 556.84,334.48
             556.84,334.48 553.57,335.65 553.57,335.65
             553.57,335.65 552.04,336.39 552.04,336.39
             552.04,336.39 550.51,336.96 550.51,336.96
             550.51,336.96 548.36,338.07 548.36,338.07
             548.36,338.07 546.93,338.66 546.93,338.66
             546.93,338.66 545.30,339.56 545.30,339.56
             545.30,339.56 543.15,340.51 543.15,340.51
             543.15,340.51 539.78,342.51 539.78,342.51
             539.78,342.51 538.24,343.25 538.24,343.25
             538.24,343.25 534.46,345.48 534.46,345.48
             534.46,345.48 532.83,346.63 532.83,346.63
             532.83,346.63 531.09,347.82 531.09,347.82
             531.09,347.82 529.66,349.02 529.66,349.02
             529.66,349.02 528.64,349.66 528.64,349.66
             528.64,349.66 526.29,351.32 526.29,351.32
             526.29,351.32 524.86,352.61 524.86,352.61
             524.86,352.61 522.51,354.51 522.51,354.51
             522.51,354.51 521.49,355.51 521.49,355.51
             521.49,355.51 520.57,356.33 520.57,356.33
             520.57,356.33 519.24,357.76 519.24,357.76
             519.24,357.76 517.72,359.12 517.72,359.12
             517.72,359.12 516.89,360.00 516.89,360.00
             516.89,360.00 514.86,361.95 514.86,361.95
             514.86,361.95 513.49,363.58 513.49,363.58
             513.49,363.58 511.44,366.04 511.44,366.04
             511.44,366.04 509.67,368.39 509.67,368.39
             509.67,368.39 508.36,369.92 508.36,369.92
             508.36,369.92 507.46,371.24 507.46,371.24
             507.46,371.24 504.06,375.53 504.06,375.53
             503.47,376.34 503.71,376.44 503.17,377.17
             503.17,377.17 501.69,379.01 501.69,379.01
             501.69,379.01 500.20,381.05 500.20,381.05
             500.20,381.05 498.90,382.68 498.90,382.68
             498.90,382.68 496.25,386.67 496.25,386.67
             496.25,386.67 493.74,390.45 493.74,390.45
             493.74,390.45 493.14,391.57 493.14,391.57
             493.14,391.57 491.42,394.63 491.42,394.63
             491.42,394.63 489.14,398.82 489.14,398.82
             489.14,398.82 488.14,401.17 488.14,401.17
             488.14,401.17 487.41,402.40 487.41,402.40
             487.41,402.40 486.61,404.13 486.61,404.13
             486.61,404.13 485.76,405.87 485.76,405.87
             485.76,405.87 485.23,407.30 485.23,407.30
             485.23,407.30 484.11,409.95 484.11,409.95
             484.11,409.95 483.59,411.08 483.59,411.08
             483.59,411.08 482.62,413.84 482.62,413.84
             482.62,413.84 481.79,415.78 481.79,415.78
             481.79,415.78 480.75,418.74 480.75,418.74
             480.75,418.74 480.41,420.07 480.41,420.07
             480.41,420.07 479.85,421.80 479.85,421.80
             479.85,421.80 479.52,423.44 479.52,423.44
             479.52,423.44 478.97,425.38 478.97,425.38
             478.97,425.38 478.22,428.85 478.22,428.85
             478.22,428.85 477.21,433.04 477.21,433.04
             477.21,433.04 477.08,433.96 477.08,433.96
             477.08,433.96 476.45,436.71 476.45,436.71
             476.45,436.71 475.98,439.47 475.98,439.47
             475.98,439.47 475.45,442.43 475.45,442.43
             475.45,442.43 475.38,443.66 475.38,443.66
             475.38,443.66 475.12,444.89 475.12,444.89
             475.12,444.89 474.69,449.69 474.69,449.69
             474.69,449.69 474.69,450.61 474.69,450.61
             474.69,450.61 474.49,453.46 474.49,453.46
             474.49,453.46 474.49,454.79 474.49,454.79
             474.49,454.79 474.29,456.63 474.29,456.63
             474.29,456.63 474.29,457.65 474.29,457.65
             474.29,457.65 474.18,458.88 474.18,458.88
             474.18,458.88 474.18,462.66 474.18,462.66
             474.18,462.66 474.08,464.29 474.08,464.29
             474.08,464.29 474.08,467.05 474.08,467.05
             474.08,467.05 474.01,468.17 474.01,468.17
             474.01,468.17 474.18,470.01 474.18,470.01
             474.18,470.01 474.26,471.24 474.26,471.24
             474.23,471.71 474.15,471.95 474.19,472.46
             474.19,472.46 474.38,475.53 474.38,475.53
             474.38,475.53 474.68,478.59 474.68,478.59
             474.68,478.59 474.68,479.82 474.68,479.82
             474.68,479.82 474.90,482.37 474.90,482.37
             474.90,482.37 474.90,483.49 474.90,483.49
             474.90,483.49 475.30,486.86 475.30,486.86
             475.30,486.86 475.30,488.09 475.30,488.09
             475.30,488.09 475.49,489.93 475.49,489.93
             475.49,489.93 475.76,492.28 475.76,492.28
             475.76,492.28 476.28,495.14 476.28,495.14
             476.28,495.14 476.70,498.00 476.70,498.00
             476.70,498.00 477.79,502.29 477.79,502.29
             477.79,502.29 477.95,503.10 477.95,503.10
             477.95,503.10 478.24,504.12 478.24,504.12
             478.47,505.20 478.28,504.95 478.71,506.17
             478.71,506.17 479.39,508.11 479.39,508.11
             479.39,508.11 480.16,510.66 480.16,510.66
             480.16,510.66 481.06,512.70 481.06,512.70
             481.31,513.26 481.85,514.61 482.46,514.75
             482.46,514.75 482.66,515.16 482.66,515.16
             482.66,515.16 482.56,512.40 482.56,512.40 Z
           M 428.85,447.13
           C 428.85,447.13 430.05,449.18 430.05,449.18
             430.05,449.18 432.20,452.65 432.20,452.65
             432.20,452.65 434.46,457.55 434.46,457.55
             434.46,457.55 436.02,460.82 436.02,460.82
             436.02,460.82 436.58,462.45 436.58,462.45
             436.58,462.45 437.98,466.44 437.98,466.44
             437.98,466.44 439.01,469.40 439.01,469.40
             439.01,469.40 439.71,472.05 439.71,472.05
             439.71,472.05 440.77,476.65 440.77,476.65
             440.77,476.65 440.99,477.98 440.99,477.98
             440.99,477.98 441.31,479.20 441.31,479.20
             441.31,479.20 441.55,480.63 441.55,480.63
             441.55,480.63 442.07,483.39 442.07,483.39
             442.07,483.39 442.23,485.33 442.23,485.33
             442.23,485.33 442.68,488.40 442.68,488.40
             442.68,488.40 442.93,491.26 442.93,491.26
             442.93,491.26 443.25,494.52 443.25,494.52
             443.25,494.52 443.25,495.85 443.25,495.85
             443.25,495.85 443.42,499.02 443.42,499.02
             443.42,499.02 443.52,501.57 443.52,501.57
             443.52,501.57 443.52,503.82 443.52,503.82
             443.52,503.82 443.52,505.15 443.52,505.15
             443.52,505.15 443.72,507.39 443.72,507.39
             443.72,507.39 443.83,510.05 443.83,510.05
             443.83,510.05 443.93,511.27 443.93,511.27
             443.93,511.27 443.93,512.40 443.93,512.40
             443.93,512.40 444.04,513.42 444.04,513.42
             444.04,513.42 444.04,514.24 444.04,514.24
             444.04,514.24 444.23,516.07 444.23,516.07
             444.27,516.52 444.28,517.43 444.60,517.76
             444.98,518.14 446.27,518.22 446.80,518.22
             446.80,518.22 449.25,518.22 449.25,518.22
             449.25,518.22 451.29,518.42 451.29,518.42
             451.29,518.42 453.54,518.54 453.54,518.54
             453.54,518.54 455.48,518.72 455.48,518.72
             456.28,518.68 456.43,518.51 457.53,518.53
             457.53,518.53 460.28,518.73 460.28,518.73
             460.28,518.73 462.74,518.56 462.74,518.56
             463.73,518.44 464.49,518.73 464.57,517.61
             464.57,517.61 464.47,516.18 464.47,516.18
             464.47,516.18 464.58,514.24 464.58,514.24
             464.58,514.24 464.58,512.09 464.58,512.09
             464.58,512.09 464.58,506.07 464.58,506.07
             464.58,506.07 464.47,504.43 464.47,504.43
             464.47,504.43 464.47,501.67 464.47,501.67
             464.47,501.67 464.37,500.45 464.37,500.45
             464.37,500.45 464.37,499.53 464.37,499.53
             464.37,499.53 463.88,496.06 463.88,496.06
             463.88,496.06 463.20,491.56 463.20,491.56
             463.20,491.56 462.74,490.34 462.74,490.34
             462.17,488.57 461.62,486.82 460.85,485.13
             460.85,485.13 460.03,483.70 460.03,483.70
             459.65,482.81 459.49,481.34 458.75,479.92
             458.75,479.92 456.53,476.04 456.53,476.04
             456.53,476.04 454.94,473.79 454.94,473.79
             454.94,473.79 453.45,471.44 453.45,471.44
             453.45,471.44 451.92,469.50 451.92,469.50
             451.92,469.50 449.30,465.72 449.30,465.72
             449.30,465.72 446.23,462.04 446.23,462.04
             446.23,462.04 444.11,459.49 444.11,459.49
             444.11,459.49 443.23,458.67 443.23,458.67
             443.23,458.67 440.77,456.02 440.77,456.02
             440.77,456.02 439.75,454.90 439.75,454.90
             439.75,454.90 436.58,452.03 436.58,452.03
             436.58,452.03 434.44,449.89 434.44,449.89
             434.44,449.89 433.71,449.09 433.71,449.09
             433.71,449.09 432.80,448.34 432.80,448.34
             432.80,448.34 432.07,447.57 432.07,447.57
             432.07,447.57 429.12,445.19 429.12,445.19
             428.86,445.03 428.09,444.67 427.79,444.58
             427.62,445.45 428.42,446.40 428.85,447.13 Z
           M 474.28,576.34
           C 474.28,576.34 474.38,576.44 474.38,576.44
             474.38,576.44 474.38,576.34 474.38,576.34
             474.38,576.34 474.28,576.34 474.28,576.34 Z" />
</svg>
