<?xml version="1.0" encoding="UTF-8" standalone="no"?>
<svg xmlns="http://www.w3.org/2000/svg"
     xmlns:svg="http://www.w3.org/2000/svg"
     version="1.1"
     viewBox="0 0 400 400">
  <path id="path1" transform="translate(-280, -300)"
        d="M 491.04,305.42
           C 491.04,305.42 492.98,305.27 492.98,305.27
             492.98,305.27 494.31,305.27 494.31,305.27
             494.31,305.27 495.23,305.36 495.23,305.36
             495.23,305.36 497.68,305.16 497.68,305.16
             497.68,305.16 501.26,305.50 501.26,305.50
             502.41,305.65 502.42,305.81 503.40,306.25
             504.03,306.54 504.22,306.50 504.83,306.97
             507.10,308.71 507.63,311.18 507.92,313.84
             507.92,313.84 508.15,316.91 508.15,316.91
             508.15,316.91 507.90,319.87 507.90,319.87
             507.89,320.79 507.59,322.60 507.24,323.44
             507.09,323.80 506.89,324.05 506.67,324.36
             506.43,324.71 506.22,325.07 505.94,325.39
             505.25,326.17 503.64,327.38 502.69,327.84
             502.69,327.84 501.15,328.44 501.15,328.44
             501.15,328.44 497.37,330.15 497.37,330.15
             497.37,330.15 495.43,331.03 495.43,331.03
             495.43,331.03 494.21,331.69 494.21,331.69
             494.21,331.69 492.37,332.48 492.37,332.48
             492.37,332.48 490.94,333.22 490.94,333.22
             490.94,333.22 489.51,333.88 489.51,333.88
             488.90,334.25 488.80,334.40 488.28,334.79
             488.28,334.79 486.65,335.93 486.65,335.93
             486.65,335.93 484.40,337.49 484.40,337.49
             484.40,337.49 482.76,338.92 482.76,338.92
             481.66,339.86 480.49,340.77 479.50,341.83
             479.50,341.83 476.50,345.51 476.50,345.51
             476.50,345.51 473.90,350.00 473.90,350.00
             473.90,350.00 472.96,352.15 472.96,352.15
             472.96,352.15 472.61,353.17 472.61,353.17
             472.61,353.17 471.94,354.70 471.94,354.70
             471.94,354.70 471.57,355.92 471.57,355.92
             471.57,355.92 470.98,357.35 470.98,357.35
             470.98,357.35 470.40,359.40 470.40,359.40
             470.40,359.40 469.92,360.83 469.92,360.83
             469.68,361.83 469.66,363.16 469.57,364.20
             469.57,364.20 469.40,365.53 469.40,365.53
             469.40,365.53 469.27,367.77 469.27,367.77
             469.27,367.77 469.17,368.79 469.17,368.79
             469.17,368.79 469.10,371.65 469.10,371.65
             469.10,371.65 469.44,373.49 469.44,373.49
             469.44,373.49 469.57,375.33 469.57,375.33
             469.57,375.33 469.50,376.35 469.50,376.35
             469.50,376.35 469.69,377.27 469.69,377.27
             469.69,377.27 469.69,378.50 469.69,378.50
             469.69,378.50 469.95,379.72 469.95,379.72
             469.95,379.72 470.36,382.58 470.36,382.58
             470.36,382.58 470.45,383.91 470.45,383.91
             470.64,384.81 471.77,388.04 472.17,388.91
             472.17,388.91 472.80,390.14 472.80,390.14
             472.80,390.14 473.16,390.96 473.16,390.96
             473.83,392.18 474.79,393.16 475.67,394.23
             475.67,394.23 476.48,395.35 476.48,395.35
             476.48,395.35 477.33,396.27 477.33,396.27
             478.08,397.10 478.75,397.96 479.60,398.70
             480.54,399.54 482.37,400.73 483.48,401.42
             483.48,401.42 485.83,402.85 485.83,402.85
             485.83,402.85 487.26,403.55 487.26,403.55
             487.26,403.55 488.59,404.21 488.59,404.21
             488.59,404.21 490.73,404.88 490.73,404.88
             492.52,405.48 492.55,405.74 494.51,405.77
             494.51,405.77 496.05,405.96 496.05,405.96
             496.05,405.96 496.97,405.96 496.97,405.96
             496.97,405.96 498.50,406.07 498.50,406.07
             498.50,406.07 500.54,405.97 500.54,405.97
             500.54,405.97 502.28,405.97 502.28,405.97
             503.33,405.96 504.99,405.59 506.06,405.40
             507.20,405.20 509.22,404.90 510.25,404.53
             510.25,404.53 512.09,403.56 512.09,403.56
             512.09,403.56 515.66,402.08 515.66,402.08
             515.66,402.08 516.38,401.83 516.38,401.83
             516.38,401.83 517.40,401.30 517.40,401.30
             517.40,401.30 519.85,400.22 519.85,400.22
             519.85,400.22 521.49,399.27 521.49,399.27
             521.49,399.27 525.68,396.80 525.68,396.80
             525.68,396.80 527.82,395.12 527.82,395.12
             527.82,395.12 530.58,392.96 530.58,392.96
             530.58,392.96 531.50,392.11 531.50,392.11
             531.50,392.11 532.81,391.11 532.81,391.11
             532.81,391.11 533.55,390.35 533.55,390.35
             533.55,390.35 534.86,389.12 534.86,389.12
             534.86,389.12 535.70,388.10 535.70,388.10
             535.70,388.10 537.29,386.46 537.29,386.46
             537.29,386.46 538.29,385.14 538.29,385.14
             538.29,385.14 539.16,384.32 539.16,384.32
             539.16,384.32 540.16,383.09 540.16,383.09
             540.16,383.09 541.48,381.05 541.48,381.05
             541.48,381.05 543.10,378.60 543.10,378.60
             543.10,378.60 543.82,377.58 543.82,377.58
             543.82,377.58 544.31,376.66 544.31,376.66
             544.31,376.66 545.92,374.31 545.92,374.31
             545.92,374.31 548.30,368.59 548.30,368.59
             548.88,367.13 549.80,365.23 550.16,363.79
             550.16,363.79 550.80,361.24 550.80,361.24
             550.80,361.24 551.00,359.70 551.00,359.70
             551.00,359.70 551.06,358.68 551.06,358.68
             551.06,358.68 551.37,357.76 551.37,357.76
             551.37,357.76 551.46,356.64 551.46,356.64
             551.46,356.64 551.71,355.62 551.71,355.62
             551.71,355.62 551.82,353.88 551.82,353.88
             551.82,353.88 551.74,353.17 551.74,353.17
             551.74,353.17 551.83,351.94 551.83,351.94
             551.83,351.94 551.83,349.08 551.83,349.08
             551.83,349.08 551.73,347.45 551.73,347.45
             551.73,347.45 551.81,346.22 551.81,346.22
             551.81,346.22 551.66,345.20 551.66,345.20
             551.66,345.20 551.53,343.16 551.53,343.16
             551.53,341.47 551.71,339.88 552.47,338.36
             553.12,337.07 554.04,335.97 554.97,334.88
             555.80,333.92 556.44,333.15 557.45,332.35
             558.31,331.69 559.61,331.01 560.72,331.08
             561.28,331.12 561.65,331.32 562.15,331.51
             563.86,332.13 563.90,332.25 565.42,333.02
             567.34,333.98 570.26,335.65 571.96,336.90
             571.96,336.90 573.39,338.09 573.39,338.09
             573.39,338.09 576.77,340.89 576.77,340.89
             576.77,340.89 578.60,342.36 578.60,342.36
             578.60,342.36 579.63,343.35 579.63,343.35
             579.63,343.35 580.54,344.18 580.54,344.18
             580.54,344.18 581.78,345.61 581.78,345.61
             581.78,345.61 582.99,346.83 582.99,346.83
             582.99,346.83 584.45,348.47 584.45,348.47
             584.45,348.47 586.61,350.82 586.61,350.82
             586.61,350.82 588.91,353.88 588.91,353.88
             588.91,353.88 589.83,355.01 589.83,355.01
             589.83,355.01 591.47,357.35 591.47,357.35
             591.47,357.35 592.53,358.68 592.53,358.68
             592.53,358.68 593.83,360.62 593.83,360.62
             593.83,360.62 594.67,361.85 594.67,361.85
             594.67,361.85 597.44,367.47 597.44,367.47
             597.44,367.47 598.80,370.43 598.80,370.43
             598.80,370.43 599.25,371.86 599.25,371.86
             599.25,371.86 600.09,374.21 600.09,374.21
             600.09,374.21 600.38,375.53 600.38,375.53
             600.38,375.53 601.45,380.13 601.45,380.13
             601.45,380.13 601.61,382.38 601.61,382.38
             601.61,382.38 601.80,384.93 601.80,384.93
             601.80,384.93 601.65,387.08 601.65,387.08
             601.65,387.08 601.79,389.32 601.79,389.32
             601.79,389.32 601.79,390.86 601.79,390.86
             601.79,390.86 601.61,393.00 601.61,393.00
             601.61,393.00 601.49,395.55 601.49,395.55
             601.49,395.55 601.21,397.80 601.21,397.80
             601.21,397.80 601.05,399.43 601.05,399.43
             601.05,399.43 600.64,401.27 600.64,401.27
             600.64,401.27 599.40,406.18 599.40,406.18
             599.40,406.18 598.45,408.01 598.45,408.01
             597.31,410.23 596.64,411.40 595.15,413.43
             595.15,413.43 593.89,415.16 593.89,415.16
             593.89,415.16 592.60,416.70 592.60,416.70
             592.60,416.70 591.56,418.02 591.56,418.02
             591.56,418.02 589.56,419.99 589.56,419.99
             589.56,419.99 588.91,420.75 588.91,420.75
             588.91,420.75 586.68,422.45 586.68,422.45
             586.68,422.45 583.41,425.27 583.41,425.27
             583.41,425.27 581.87,426.48 581.87,426.48
             581.87,426.48 580.97,426.98 580.97,426.98
             580.97,426.98 577.48,429.85 577.48,429.85
             577.48,429.85 576.56,430.51 576.56,430.51
             576.56,430.51 575.44,431.58 575.44,431.58
             575.44,431.58 574.76,431.99 574.76,431.99
             574.52,432.20 574.51,432.44 574.10,432.80
             573.54,433.29 573.02,433.44 572.74,433.65
             572.36,433.95 572.24,434.24 571.94,434.57
             571.44,435.12 571.29,435.03 570.63,435.90
             570.06,435.96 570.06,436.33 569.69,436.68
             569.49,436.86 569.37,436.87 569.18,437.00
             568.56,437.42 568.59,437.55 567.77,437.94
             567.77,437.94 567.88,438.35 567.88,438.35
             567.22,438.66 567.48,438.62 567.10,439.02
             567.47,438.64 565.69,440.31 566.13,439.94
             566.13,439.94 565.33,440.43 565.33,440.43
             565.33,440.43 563.98,441.92 563.98,441.92
             563.98,441.92 562.97,442.84 562.97,442.84
             562.97,442.84 561.37,444.58 561.37,444.58
             561.37,444.58 559.58,446.72 559.58,446.72
             559.58,446.72 558.55,448.03 558.55,448.03
             558.55,448.03 557.66,448.78 557.66,448.78
             557.66,448.78 556.25,450.20 556.25,450.20
             556.25,450.20 553.36,453.67 553.36,453.67
             553.36,453.67 551.05,455.92 551.05,455.92
             551.05,455.92 549.71,457.75 549.71,457.75
             549.71,457.75 548.24,459.49 548.24,459.49
             548.24,459.49 545.91,462.86 545.91,462.86
             545.91,462.86 544.63,465.21 544.63,465.21
             544.63,465.21 543.49,467.05 543.49,467.05
             543.49,467.05 542.47,469.19 542.47,469.19
             542.47,469.19 541.75,470.52 541.75,470.52
             541.75,470.52 540.47,473.79 540.47,473.79
             540.47,473.79 539.99,475.73 539.99,475.73
             539.99,475.73 539.46,477.67 539.46,477.67
             539.12,479.15 539.08,480.66 539.06,482.17
             539.06,482.17 538.95,484.62 538.95,484.62
             538.95,484.62 538.86,485.64 538.86,485.64
             538.86,485.64 538.86,487.07 538.86,487.07
             538.86,487.07 538.95,487.89 538.95,487.89
             538.95,487.89 538.86,489.01 538.86,489.01
             538.86,489.01 538.86,491.26 538.86,491.26
             538.86,491.26 539.36,494.83 539.36,494.83
             539.36,494.83 539.36,495.95 539.36,495.95
             539.36,495.95 540.04,499.73 540.04,499.73
             540.04,499.73 540.14,500.65 540.14,500.65
             540.40,501.88 540.93,503.05 541.34,504.23
             541.34,504.23 541.73,505.45 541.73,505.45
             541.73,505.45 543.02,508.52 543.02,508.52
             543.02,508.52 543.71,510.15 543.71,510.15
             543.71,510.15 545.92,513.01 545.92,513.01
             546.65,513.98 546.99,514.79 547.87,515.77
             547.87,515.77 548.97,516.80 548.97,516.80
             551.37,519.02 552.66,519.88 555.61,521.21
             555.61,521.21 556.84,521.79 556.84,521.79
             558.70,522.51 558.70,522.40 560.52,522.82
             560.52,522.82 562.26,523.21 562.26,523.21
             563.04,523.28 563.40,523.11 563.89,523.14
             563.89,523.14 566.96,523.22 566.96,523.22
             566.96,523.22 568.18,523.13 568.18,523.13
             568.18,523.13 570.12,522.99 570.12,522.99
             570.12,522.99 572.78,522.35 572.78,522.35
             572.78,522.35 574.42,522.05 574.42,522.05
             574.42,522.05 576.15,521.54 576.15,521.54
             576.15,521.54 577.79,521.10 577.79,521.10
             577.79,521.10 582.79,518.54 582.79,518.54
             583.39,518.27 584.07,517.74 584.74,517.81
             584.97,517.12 585.24,517.09 585.76,516.65
             585.76,516.65 586.68,515.80 586.68,515.80
             586.68,515.80 587.70,515.03 587.70,515.03
             587.70,515.03 588.72,514.05 588.72,514.05
             588.72,514.05 589.74,513.30 589.74,513.30
             589.74,513.30 591.43,511.65 591.43,511.65
             591.43,511.65 592.51,510.36 592.51,510.36
             592.51,510.36 594.28,508.52 594.28,508.52
             594.99,507.64 595.72,506.34 596.32,505.35
             596.32,505.35 597.00,504.41 597.00,504.41
             597.16,504.14 597.14,503.81 597.47,503.21
             597.47,503.21 598.52,501.57 598.52,501.57
             598.52,501.57 599.12,500.24 599.12,500.24
             599.12,500.24 600.85,497.38 600.85,497.38
             600.85,497.38 602.54,493.91 602.54,493.91
             602.54,493.91 603.60,491.87 603.60,491.87
             603.60,491.87 604.24,490.23 604.24,490.23
             604.86,488.82 605.81,486.59 606.22,485.13
             606.22,485.13 606.64,483.08 606.64,483.08
             606.64,483.08 607.08,481.14 607.08,481.14
             607.08,481.14 607.14,480.02 607.14,480.02
             607.14,480.02 607.44,478.59 607.44,478.59
             607.44,478.59 607.44,477.77 607.44,477.77
             607.44,477.77 607.36,476.24 607.36,476.24
             607.38,475.85 607.55,475.62 607.51,475.02
             607.45,473.91 606.87,470.98 606.43,470.01
             606.43,470.01 605.81,468.99 605.81,468.99
             605.81,468.99 605.14,467.66 605.14,467.66
             605.14,467.66 604.58,466.74 604.58,466.74
             604.58,466.74 604.20,465.93 604.20,465.93
             604.20,465.93 603.67,465.11 603.67,465.11
             602.72,463.40 601.92,461.59 601.91,459.59
             601.91,459.59 601.91,458.47 601.91,458.47
             601.91,458.47 602.09,456.63 602.09,456.63
             602.09,456.63 601.91,455.51 601.91,455.51
             601.88,454.79 602.15,453.71 602.44,453.06
             602.90,452.05 603.10,451.85 603.78,451.01
             604.33,450.34 604.96,449.58 605.68,449.08
             606.27,448.66 606.59,448.61 607.21,448.33
             607.21,448.33 608.75,447.69 608.75,447.69
             609.34,447.51 610.07,447.48 610.69,447.43
             610.69,447.43 611.91,447.34 611.91,447.34
             613.31,447.34 614.66,447.70 616.00,448.05
             616.00,448.05 616.92,448.21 616.92,448.21
             617.35,448.30 618.37,448.69 618.76,448.90
             618.76,448.90 620.09,449.80 620.09,449.80
             620.09,449.80 622.03,450.96 622.03,450.96
             622.03,450.96 623.26,451.89 623.26,451.89
             623.26,451.89 625.50,453.61 625.50,453.61
             625.50,453.61 627.14,455.08 627.14,455.08
             627.14,455.08 629.02,456.66 629.02,456.66
             629.02,456.66 632.43,460.72 632.43,460.72
             634.04,462.64 635.67,464.56 637.08,466.64
             637.08,466.64 638.63,469.30 638.63,469.30
             638.63,469.30 640.12,471.75 640.12,471.75
             640.12,471.75 640.79,472.77 640.79,472.77
             640.79,472.77 642.09,475.42 642.09,475.42
             642.09,475.42 643.15,477.26 643.15,477.26
             643.15,477.26 645.29,482.17 645.29,482.17
             645.29,482.17 646.27,484.51 646.27,484.51
             646.27,484.51 646.66,485.94 646.66,485.94
             646.66,485.94 647.48,488.70 647.48,488.70
             647.48,488.70 647.97,491.15 647.97,491.15
             647.97,491.15 648.55,493.09 648.55,493.09
             648.55,493.09 649.02,494.93 649.02,494.93
             649.02,494.93 649.47,496.67 649.47,496.67
             649.47,496.67 649.65,498.41 649.65,498.41
             649.65,498.41 650.13,501.47 650.13,501.47
             650.13,501.47 650.13,502.59 650.13,502.59
             650.25,503.52 650.53,503.70 650.54,504.94
             650.54,504.94 650.64,507.09 650.64,507.09
             650.64,507.09 650.84,511.89 650.84,511.89
             650.84,511.89 650.95,513.62 650.95,513.62
             650.95,513.62 650.95,520.26 650.95,520.26
             650.95,520.26 650.84,521.79 650.84,521.79
             650.84,521.79 650.63,525.16 650.63,525.16
             650.63,525.16 650.54,526.19 650.54,526.19
             650.51,528.25 650.17,529.44 649.89,531.40
             649.76,532.31 649.62,532.27 649.62,533.34
             649.62,533.34 649.62,533.85 649.62,533.85
             649.60,535.62 649.01,537.33 648.68,539.06
             648.68,539.06 647.83,543.65 647.83,543.65
             647.83,543.65 647.18,545.90 647.18,545.90
             647.18,545.90 646.48,548.55 646.48,548.55
             646.48,548.55 645.64,550.90 645.64,550.90
             645.64,550.90 645.15,552.54 645.15,552.54
             645.15,552.54 644.61,554.07 644.61,554.07
             644.61,554.07 644.20,555.50 644.20,555.50
             644.20,555.50 643.30,557.75 643.30,557.75
             643.30,557.75 642.89,558.87 642.89,558.87
             642.89,558.87 642.16,560.50 642.16,560.50
             642.16,560.50 641.60,562.24 641.60,562.24
             641.60,562.24 639.75,566.33 639.75,566.33
             639.75,566.33 638.32,569.59 638.32,569.59
             638.32,569.59 636.92,572.86 636.92,572.86
             636.92,572.86 635.77,574.70 635.77,574.70
             635.77,574.70 635.19,575.72 635.19,575.72
             635.19,575.72 633.22,578.58 633.22,578.58
             633.22,578.58 632.95,579.27 632.95,579.27
             632.95,579.27 632.66,579.72 632.66,579.72
             632.66,579.72 632.26,580.52 632.26,580.52
             632.26,580.52 631.73,581.34 631.73,581.34
             631.73,581.34 631.17,582.36 631.17,582.36
             631.17,582.36 629.75,584.40 629.75,584.40
             629.75,584.40 628.96,585.24 628.96,585.24
             628.77,585.52 628.72,585.92 628.29,586.55
             628.29,586.55 627.50,587.57 627.50,587.57
             627.50,587.57 626.90,588.49 626.90,588.49
             626.90,588.49 625.86,589.82 625.86,589.82
             625.86,589.82 625.13,591.04 625.13,591.04
             625.13,591.04 623.22,593.90 623.22,593.90
             623.22,593.90 621.86,596.05 621.86,596.05
             621.86,596.05 620.41,597.58 620.41,597.58
             620.41,597.58 618.74,599.62 618.74,599.62
             618.74,599.62 615.01,603.61 615.01,603.61
             615.01,603.61 613.11,605.96 613.11,605.96
             613.11,605.96 611.95,607.18 611.95,607.18
             611.95,607.18 609.94,609.63 609.94,609.63
             609.94,609.63 608.34,611.06 608.34,611.06
             608.34,611.06 607.02,612.39 607.02,612.39
             607.02,612.39 605.89,613.61 605.89,613.61
             605.89,613.61 604.15,614.97 604.15,614.97
             604.15,614.97 602.82,616.26 602.82,616.26
             602.82,616.26 601.29,617.54 601.29,617.54
             601.29,617.54 600.37,618.37 600.37,618.37
             600.37,618.37 597.10,620.91 597.10,620.91
             597.10,620.91 594.54,623.19 594.54,623.19
             594.54,623.19 592.50,624.80 592.50,624.80
             592.50,624.80 589.23,627.04 589.23,627.04
             589.23,627.04 587.70,628.25 587.70,628.25
             587.70,628.25 586.78,629.09 586.78,629.09
             586.78,629.09 584.33,630.94 584.33,630.94
             584.33,630.94 583.30,631.54 583.30,631.54
             583.30,631.54 582.08,632.40 582.08,632.40
             582.08,632.40 578.91,634.88 578.91,634.88
             578.91,634.88 576.56,636.36 576.56,636.36
             576.56,636.36 575.56,636.79 575.56,636.79
             575.56,636.79 574.01,637.99 574.01,637.99
             574.01,637.99 570.94,639.82 570.94,639.82
             570.94,639.82 568.08,641.60 568.08,641.60
             568.08,641.60 565.53,642.92 565.53,642.92
             565.53,642.92 563.28,644.33 563.28,644.33
             563.28,644.33 562.05,644.87 562.05,644.87
             562.05,644.87 560.83,645.55 560.83,645.55
             560.83,645.55 558.37,646.70 558.37,646.70
             558.37,646.70 555.21,648.41 555.21,648.41
             555.21,648.41 553.98,648.89 553.98,648.89
             553.98,648.89 552.45,649.65 552.45,649.65
             552.45,649.65 550.20,650.39 550.20,650.39
             550.20,650.39 549.18,650.85 549.18,650.85
             549.18,650.85 547.95,651.25 547.95,651.25
             547.95,651.25 546.01,652.03 546.01,652.03
             546.01,652.03 542.64,653.12 542.64,653.12
             542.64,653.12 541.31,653.61 541.31,653.61
             541.31,653.61 539.78,653.97 539.78,653.97
             539.78,653.97 536.81,654.81 536.81,654.81
             536.81,654.81 533.44,655.44 533.44,655.44
             533.44,655.44 531.71,655.82 531.71,655.82
             531.71,655.82 530.38,655.94 530.38,655.94
             530.38,655.94 529.46,656.25 529.46,656.25
             529.46,656.25 528.13,656.46 528.13,656.46
             528.13,656.46 527.01,656.80 527.01,656.80
             527.01,656.80 524.35,657.29 524.35,657.29
             524.35,657.29 522.00,657.64 522.00,657.64
             522.00,657.64 521.08,657.64 521.08,657.64
             521.08,657.64 519.14,657.93 519.14,657.93
             519.14,657.93 517.09,658.06 517.09,658.06
             517.09,658.06 516.17,658.25 516.17,658.25
             516.17,658.25 515.05,658.25 515.05,658.25
             515.05,658.25 513.62,658.53 513.62,658.53
             513.62,658.53 511.88,658.67 511.88,658.67
             511.88,658.67 511.07,658.83 511.07,658.83
             511.07,658.83 510.15,658.89 510.15,658.89
             510.15,658.89 509.23,659.05 509.23,659.05
             509.23,659.05 506.98,659.17 506.98,659.17
             506.98,659.17 505.04,659.30 505.04,659.30
             504.28,659.39 504.26,659.47 503.40,659.47
             503.40,659.47 499.83,659.47 499.83,659.47
             499.83,659.47 496.97,659.68 496.97,659.68
             496.97,659.68 494.51,659.87 494.51,659.87
             494.51,659.87 493.49,659.82 493.49,659.82
             493.49,659.82 492.37,659.88 492.37,659.88
             492.37,659.88 491.14,659.88 491.14,659.88
             491.14,659.88 489.00,660.08 489.00,660.08
             488.22,660.11 488.04,659.86 487.26,659.89
             487.26,659.89 484.19,660.09 484.19,660.09
             484.19,660.09 482.56,660.19 482.56,660.19
             482.56,660.19 481.33,660.09 481.33,660.09
             481.33,660.09 479.49,660.09 479.49,660.09
             479.49,660.09 478.06,660.19 478.06,660.19
             478.06,660.19 476.73,660.08 476.73,660.08
             476.73,660.08 475.30,660.08 475.30,660.08
             475.30,660.08 474.08,659.99 474.08,659.99
             474.08,659.99 472.34,659.99 472.34,659.99
             472.34,659.99 470.91,660.09 470.91,660.09
             470.91,660.09 468.97,659.99 468.97,659.99
             468.97,659.99 466.01,659.99 466.01,659.99
             466.01,659.99 464.78,659.88 464.78,659.88
             464.78,659.88 463.86,659.88 463.86,659.88
             463.13,659.79 463.14,659.68 462.23,659.68
             462.23,659.68 459.06,659.47 459.06,659.47
             459.06,659.47 457.83,659.47 457.83,659.47
             457.83,659.47 454.97,659.27 454.97,659.27
             454.97,659.27 451.19,658.89 451.19,658.89
             451.19,658.89 446.29,658.45 446.29,658.45
             445.59,658.44 445.62,658.36 445.06,658.26
             445.06,658.26 444.04,658.26 444.04,658.26
             443.13,658.24 442.27,658.00 441.38,657.85
             441.38,657.85 440.05,657.71 440.05,657.71
             440.05,657.71 438.52,657.38 438.52,657.38
             438.52,657.38 437.09,657.18 437.09,657.18
             437.09,657.18 435.76,656.77 435.76,656.77
             435.76,656.77 434.84,656.65 434.84,656.65
             434.84,656.65 432.59,656.13 432.59,656.13
             432.59,656.13 431.06,655.87 431.06,655.87
             431.06,655.87 429.94,655.54 429.94,655.54
             429.94,655.54 427.69,654.98 427.69,654.98
             427.69,654.98 427.69,655.19 427.69,655.19
             427.69,655.19 426.36,654.91 426.36,654.91
             426.36,654.91 425.44,654.81 425.44,654.81
             425.44,654.81 423.09,654.18 423.09,654.18
             423.09,654.18 421.66,653.87 421.66,653.87
             421.66,653.87 418.49,652.98 418.49,652.98
             418.49,652.98 415.12,652.38 415.12,652.38
             415.12,652.38 413.39,651.96 413.39,651.96
             413.39,651.96 411.55,651.59 411.55,651.59
             411.55,651.59 410.01,651.17 410.01,651.17
             410.01,651.17 409.09,651.01 409.09,651.01
             409.09,651.01 407.25,650.57 407.25,650.57
             407.25,650.57 405.93,650.36 405.93,650.36
             405.93,650.36 404.19,649.68 404.19,649.68
             404.19,649.68 402.45,649.12 402.45,649.12
             402.45,649.12 400.20,648.23 400.20,648.23
             400.20,648.23 397.96,647.10 397.96,647.10
             397.96,647.10 395.10,645.95 395.10,645.95
             395.10,645.95 392.13,644.49 392.13,644.49
             392.13,644.49 390.29,643.61 390.29,643.61
             390.29,643.61 389.07,642.83 389.07,642.83
             389.07,642.83 386.41,641.18 386.41,641.18
             386.41,641.18 379.46,636.97 379.46,636.97
             379.46,636.97 378.44,636.31 378.44,636.31
             378.44,636.31 376.70,634.77 376.70,634.77
             376.70,634.77 375.07,633.40 375.07,633.40
             375.07,633.40 373.64,632.13 373.64,632.13
             373.64,632.13 370.98,630.13 370.98,630.13
             370.98,630.13 369.66,628.93 369.66,628.93
             369.66,628.93 369.10,628.27 369.10,628.27
             369.10,628.27 368.33,627.70 368.33,627.70
             368.33,627.70 367.20,626.60 367.20,626.60
             367.20,626.60 364.04,623.62 364.04,623.62
             364.04,623.62 360.75,619.74 360.75,619.74
             360.75,619.74 357.82,616.68 357.82,616.68
             357.82,616.68 356.01,614.33 356.01,614.33
             356.01,614.33 353.97,611.88 353.97,611.88
             353.97,611.88 352.41,609.63 352.41,609.63
             352.41,609.63 351.67,608.71 351.67,608.71
             351.67,608.71 348.56,604.32 348.56,604.32
             348.56,604.32 346.81,601.87 346.81,601.87
             346.81,601.87 345.80,600.03 345.80,600.03
             345.80,600.03 343.22,595.23 343.22,595.23
             343.22,595.23 342.64,593.60 342.64,593.60
             342.64,593.60 342.01,592.58 342.01,592.58
             342.01,592.58 341.66,591.55 341.66,591.55
             341.66,591.55 340.97,590.53 340.97,590.53
             340.97,590.53 340.47,589.20 340.47,589.20
             340.47,589.20 339.95,588.20 339.95,588.20
             339.95,588.20 339.57,587.66 339.57,587.66
             339.57,587.66 338.93,585.83 338.93,585.83
             338.60,585.08 338.34,585.25 338.08,583.59
             338.08,583.59 337.77,583.69 337.77,583.69
             337.42,582.48 336.72,581.57 336.23,580.42
             336.23,580.42 335.28,577.77 335.28,577.77
             335.28,577.77 334.00,574.60 334.00,574.60
             334.00,574.60 333.32,571.84 333.32,571.84
             333.32,571.84 332.67,570.11 332.67,570.11
             332.67,570.11 332.34,568.68 332.34,568.68
             332.34,568.68 331.76,566.84 331.76,566.84
             331.76,566.84 330.98,563.47 330.98,563.47
             330.98,563.47 330.41,561.32 330.41,561.32
             330.41,561.32 329.96,559.89 329.96,559.89
             329.96,559.89 329.49,556.62 329.49,556.62
             329.49,556.62 328.93,553.46 328.93,553.46
             328.93,553.46 328.65,551.21 328.65,551.21
             328.65,551.21 328.37,549.68 328.37,549.68
             328.37,549.68 328.37,548.66 328.37,548.66
             328.37,548.66 328.10,546.92 328.10,546.92
             328.10,546.92 328.00,545.59 328.00,545.59
             328.00,545.59 327.50,543.55 327.50,543.55
             327.50,543.55 327.66,540.89 327.66,540.89
             327.66,540.89 327.66,537.73 327.66,537.73
             327.66,537.73 327.76,535.99 327.76,535.99
             327.76,535.99 327.76,534.46 327.76,534.46
             327.76,534.46 327.66,532.72 327.66,532.72
             327.66,532.72 327.76,530.88 327.76,530.88
             327.76,530.88 327.68,529.66 327.68,529.66
             327.68,529.66 327.76,528.43 327.76,528.43
             327.76,528.43 327.76,524.86 327.76,524.86
             327.76,524.86 327.85,523.84 327.85,523.84
             327.85,523.84 328.57,517.50 328.57,517.50
             328.57,517.50 328.78,515.97 328.78,515.97
             328.80,515.57 328.68,515.32 329.09,515.16
             328.97,514.97 328.88,514.87 328.83,514.64
             328.78,514.38 329.12,512.17 329.20,511.79
             329.20,511.79 329.36,510.66 329.36,510.66
             329.36,510.66 330.13,506.78 330.13,506.78
             330.13,506.78 330.80,504.23 330.80,504.23
             330.80,504.23 331.03,502.80 331.03,502.80
             331.03,502.80 331.30,501.78 331.30,501.78
             331.30,501.78 331.41,500.86 331.41,500.86
             331.41,500.86 331.82,499.32 331.82,499.32
             331.92,499.06 332.06,498.91 332.12,498.61
             332.12,498.61 332.21,497.89 332.21,497.89
             332.21,497.89 333.02,494.01 333.02,494.01
             333.02,494.01 333.41,492.79 333.41,492.79
             333.41,492.79 333.61,491.66 333.61,491.66
             333.61,491.66 333.95,490.64 333.95,490.64
             333.95,490.64 334.96,486.97 334.96,486.97
             334.96,486.97 335.26,486.15 335.26,486.15
             335.26,486.15 336.04,483.39 336.04,483.39
             336.04,483.39 337.05,480.63 337.05,480.63
             337.05,480.63 337.40,479.51 337.40,479.51
             337.40,479.51 337.96,478.08 337.96,478.08
             337.96,478.08 339.40,474.51 339.40,474.51
             339.40,474.51 340.20,472.97 340.20,472.97
             340.48,472.36 341.32,470.46 341.70,470.03
             341.91,469.78 342.50,469.34 342.78,469.14
             343.68,468.49 344.94,468.11 346.05,468.07
             346.05,468.07 347.28,468.16 347.28,468.16
             347.28,468.16 348.71,468.07 348.71,468.07
             349.82,468.12 352.50,468.77 353.51,469.23
             354.03,469.46 355.62,470.43 356.06,470.78
             356.06,470.78 356.88,471.49 356.88,471.49
             357.59,472.06 358.07,472.37 358.70,473.08
             358.70,473.08 360.34,475.22 360.34,475.22
             361.31,476.56 361.13,476.61 361.73,477.88
             361.73,477.88 362.35,478.90 362.35,478.90
             362.65,479.45 362.83,480.52 362.80,481.14
             362.80,481.14 362.40,484.72 362.40,484.72
             362.40,484.72 361.99,487.58 361.99,487.58
             361.99,487.58 361.99,488.60 361.99,488.60
             361.99,488.60 361.76,491.15 361.76,491.15
             361.76,491.15 361.51,492.38 361.51,492.38
             361.51,492.38 361.07,495.85 361.07,495.85
             361.07,495.85 361.07,497.28 361.07,497.28
             361.07,497.28 360.98,498.51 360.98,498.51
             360.98,498.51 360.87,501.26 360.87,501.26
             360.87,501.26 361.17,504.23 361.17,504.23
             361.17,504.23 361.37,505.86 361.37,505.86
             361.37,505.86 361.28,507.29 361.28,507.29
             361.28,507.29 361.28,509.64 361.28,509.64
             361.28,509.64 361.56,512.70 361.56,512.70
             361.56,512.70 361.77,515.05 361.77,515.05
             361.77,515.05 361.91,516.89 361.91,516.89
             361.91,516.89 362.27,519.45 362.27,519.45
             362.27,519.45 362.43,520.98 362.43,520.98
             362.43,520.98 363.13,523.84 363.13,523.84
             363.13,523.84 363.86,525.78 363.86,525.78
             363.86,525.78 364.59,528.13 364.59,528.13
             364.59,528.13 365.85,530.58 365.85,530.58
             365.85,530.58 366.62,532.31 366.62,532.31
             366.62,532.31 367.97,534.56 367.97,534.56
             367.97,534.56 369.00,536.40 369.00,536.40
             369.00,536.40 369.85,537.52 369.85,537.52
             370.76,538.88 371.58,540.26 372.65,541.51
             372.65,541.51 373.95,542.93 373.95,542.93
             373.95,542.93 376.30,545.08 376.30,545.08
             376.30,545.08 378.44,547.21 378.44,547.21
             378.44,547.21 380.18,548.60 380.18,548.60
             380.18,548.60 381.51,549.69 381.51,549.69
             382.09,550.11 382.31,550.04 382.61,550.26
             382.61,550.26 383.35,551.05 383.35,551.05
             383.35,551.05 385.90,552.56 385.90,552.56
             385.90,552.56 389.07,553.67 389.07,553.67
             389.07,553.67 393.67,555.24 393.67,555.24
             393.67,555.24 395.20,555.44 395.20,555.44
             395.20,555.44 398.98,556.01 398.98,556.01
             398.98,556.01 400.00,556.01 400.00,556.01
             400.00,556.01 401.84,556.21 401.84,556.21
             401.84,556.21 405.31,556.21 405.31,556.21
             405.31,556.21 408.17,555.90 408.17,555.90
             408.17,555.90 409.30,555.90 409.30,555.90
             409.30,555.90 412.26,555.24 412.26,555.24
             412.26,555.24 416.35,554.49 416.35,554.49
             416.35,554.49 419.41,553.49 419.41,553.49
             419.41,553.49 421.87,552.77 421.87,552.77
             421.87,552.77 423.30,552.11 423.30,552.11
             423.30,552.11 425.14,551.30 425.14,551.30
             425.14,551.30 426.97,550.66 426.97,550.66
             426.97,550.66 428.61,549.89 428.61,549.89
             428.61,549.89 429.63,549.30 429.63,549.30
             429.63,549.30 431.57,548.36 431.57,548.36
             432.51,547.83 432.83,547.34 433.51,546.92
             434.07,546.57 434.63,546.50 435.97,545.59
             435.97,545.59 439.03,543.31 439.03,543.31
             439.03,543.31 440.87,541.64 440.87,541.64
             441.53,541.06 442.09,540.63 442.70,539.97
             442.70,539.97 445.08,537.01 445.08,537.01
             445.08,537.01 446.69,534.97 446.69,534.97
             446.69,534.97 448.07,532.72 448.07,532.72
             448.07,532.72 448.62,531.60 448.62,531.60
             448.62,531.60 449.42,530.27 449.42,530.27
             449.42,530.27 450.03,528.84 450.03,528.84
             450.03,528.84 450.62,527.72 450.62,527.72
             450.62,527.72 451.13,525.78 451.13,525.78
             451.13,525.78 452.20,521.28 452.20,521.28
             452.20,521.28 452.33,519.85 452.33,519.85
             452.33,519.85 452.49,519.04 452.49,519.04
             452.49,519.04 452.65,517.61 452.65,517.61
             452.65,517.61 453.42,513.21 453.42,513.21
             453.46,512.76 453.37,512.60 453.35,512.19
             453.35,512.19 453.44,510.46 453.44,510.46
             453.42,508.63 452.66,506.46 452.08,504.74
             451.73,503.71 451.34,502.54 450.87,501.57
             450.87,501.57 450.09,500.14 450.09,500.14
             450.09,500.14 449.63,499.12 449.63,499.12
             449.63,499.12 448.89,497.89 448.89,497.89
             448.89,497.89 448.34,496.77 448.34,496.77
             448.34,496.77 447.31,495.24 447.31,495.24
             447.31,495.24 445.80,492.69 445.80,492.69
             445.80,492.69 443.68,490.03 443.68,490.03
             443.68,490.03 441.40,486.86 441.40,486.86
             441.40,486.86 440.83,486.05 440.83,486.05
             440.83,486.05 439.90,485.03 439.90,485.03
             439.90,485.03 437.57,482.06 437.57,482.06
             437.57,482.06 435.20,478.79 435.20,478.79
             435.20,478.79 432.23,475.53 432.23,475.53
             432.23,475.53 429.93,472.67 429.93,472.67
             429.93,472.67 428.36,470.63 428.36,470.63
             428.36,470.63 427.09,469.40 427.09,469.40
             427.09,469.40 424.43,466.33 424.43,466.33
             424.43,466.33 423.67,465.31 423.67,465.31
             423.67,465.31 421.81,463.27 421.81,463.27
             421.81,463.27 420.59,461.64 420.59,461.64
             420.59,461.64 419.68,460.61 419.68,460.61
             419.68,460.61 418.47,458.78 418.47,458.78
             418.47,458.78 416.35,456.22 416.35,456.22
             416.35,456.22 415.16,454.38 415.16,454.38
             415.16,454.38 413.66,452.24 413.66,452.24
             413.66,452.24 412.10,449.58 412.10,449.58
             412.10,449.58 410.33,446.62 410.33,446.62
             410.33,446.62 409.15,443.76 409.15,443.76
             409.15,443.76 408.53,442.33 408.53,442.33
             408.53,442.33 408.03,440.90 408.03,440.90
             408.03,440.90 407.30,439.27 407.30,439.27
             407.30,439.27 406.80,437.84 406.80,437.84
             406.80,437.84 405.67,435.18 405.67,435.18
             405.67,435.18 404.92,433.14 404.92,433.14
             404.92,433.14 404.03,431.30 404.03,431.30
             404.03,431.30 403.22,429.05 403.22,429.05
             403.22,429.05 402.67,427.83 402.67,427.83
             402.67,427.83 402.07,425.58 402.07,425.58
             402.07,425.58 401.45,423.85 401.45,423.85
             401.45,423.85 401.00,421.39 401.00,421.39
             401.00,421.39 400.47,418.94 400.47,418.94
             400.47,418.94 400.06,416.29 400.06,416.29
             400.06,416.29 399.21,411.90 399.21,411.90
             399.21,411.90 398.96,408.22 398.96,408.22
             398.96,408.22 398.59,405.87 398.59,405.87
             398.59,405.87 398.47,402.60 398.47,402.60
             398.47,402.60 398.38,400.46 398.38,400.46
             398.38,400.46 398.38,399.33 398.38,399.33
             398.38,399.33 398.38,398.00 398.38,398.00
             398.38,398.00 398.47,396.37 398.47,396.37
             398.47,396.37 398.47,395.14 398.47,395.14
             398.47,395.14 398.56,393.82 398.56,393.82
             398.56,393.82 398.47,391.77 398.47,391.77
             398.47,390.86 398.58,390.76 398.73,389.94
             398.73,389.94 398.84,388.91 398.84,388.91
             398.84,388.91 399.41,386.57 399.41,386.57
             399.41,386.57 399.74,384.32 399.74,384.32
             399.74,384.32 400.14,382.79 400.14,382.79
             400.14,382.79 400.22,381.46 400.22,381.46
             400.22,381.46 400.51,379.82 400.51,379.82
             400.51,379.82 401.43,376.76 401.43,376.76
             401.43,376.76 401.62,375.84 401.62,375.84
             401.62,375.84 402.22,373.70 402.22,373.70
             402.22,373.70 402.96,371.76 402.96,371.76
             402.96,371.76 403.52,369.71 403.52,369.71
             403.52,369.71 404.68,367.26 404.68,367.26
             404.68,367.26 405.71,364.30 405.71,364.30
             405.71,364.30 408.25,359.29 408.25,359.29
             408.25,359.29 409.09,357.66 409.09,357.66
             409.09,357.66 409.89,356.54 409.89,356.54
             409.89,356.54 411.22,354.60 411.22,354.60
             411.22,354.60 412.91,351.84 412.91,351.84
             412.91,351.84 413.66,351.02 413.66,351.02
             413.66,351.02 415.67,348.67 415.67,348.67
             415.67,348.67 417.52,346.32 417.52,346.32
             417.52,346.32 418.32,345.20 418.32,345.20
             419.06,344.32 419.89,343.50 420.54,342.54
             420.68,342.53 420.72,342.55 420.86,342.46
             420.86,342.46 422.07,341.01 422.07,341.01
             422.07,341.01 423.90,339.37 423.90,339.37
             424.16,339.10 424.21,338.96 424.41,338.69
             424.41,338.69 425.39,337.57 425.39,337.57
             425.39,337.57 426.24,336.81 426.24,336.81
             426.73,336.32 427.36,335.40 428.10,335.39
             428.37,334.72 428.62,334.66 429.12,334.17
             429.41,333.88 429.74,333.47 430.05,333.24
             430.05,333.24 432.29,331.88 432.29,331.88
             432.29,331.88 433.11,331.19 433.11,331.19
             433.11,331.19 436.17,329.02 436.17,329.02
             436.17,329.02 438.12,327.07 438.12,327.07
             438.62,326.66 439.06,326.52 439.54,326.21
             439.54,326.21 440.46,325.44 440.46,325.44
             440.46,325.44 441.50,324.81 441.50,324.81
             441.50,324.81 442.09,324.56 442.09,324.56
             442.64,324.25 442.59,324.00 443.32,324.06
             443.62,323.50 444.11,323.36 444.65,323.11
             445.03,322.93 445.17,322.75 445.47,322.58
             445.86,322.36 445.83,322.52 446.39,322.14
             446.39,322.14 448.43,320.97 448.43,320.97
             448.43,320.97 449.35,320.59 449.35,320.59
             449.35,320.59 451.19,319.42 451.19,319.42
             451.73,319.12 451.79,319.23 452.11,319.07
             452.11,319.07 452.72,318.67 452.72,318.67
             452.72,318.67 453.34,318.40 453.34,318.40
             453.34,318.40 454.26,317.86 454.26,317.86
             454.26,317.86 455.18,317.47 455.18,317.47
             456.30,317.01 456.44,316.31 458.04,316.30
             458.15,315.65 458.54,315.78 459.05,315.57
             459.05,315.57 460.69,314.75 460.69,314.75
             461.84,314.02 461.30,314.47 462.02,314.16
             462.02,314.16 462.84,313.63 462.84,313.63
             462.84,313.63 463.66,313.33 463.66,313.33
             463.66,313.33 464.27,312.98 464.27,312.98
             464.27,312.98 464.88,312.72 464.88,312.72
             464.88,312.72 465.70,312.21 465.70,312.21
             465.70,312.21 466.41,312.03 466.41,312.03
             466.75,311.89 467.12,311.56 467.74,311.37
             467.74,311.37 468.36,311.21 468.36,311.21
             468.36,311.21 470.09,310.52 470.09,310.52
             470.67,310.35 470.98,310.49 471.32,309.96
             471.87,310.05 471.95,309.88 472.44,309.71
             472.44,309.71 474.08,309.17 474.08,309.17
             474.08,309.17 476.22,308.56 476.22,308.56
             476.22,308.56 478.03,307.88 478.03,307.88
             478.03,307.88 479.49,307.57 479.49,307.57
             479.49,307.57 480.72,307.24 480.72,307.24
             480.72,307.24 481.43,307.13 481.43,307.13
             481.92,307.00 482.19,306.73 482.66,307.00
             482.66,307.00 482.87,306.80 482.87,306.80
             482.87,306.80 483.48,306.80 483.48,306.80
             483.48,306.80 485.11,306.44 485.11,306.44
             485.11,306.44 487.05,306.29 487.05,306.29
             487.05,306.29 487.77,306.22 487.77,306.22
             487.77,306.22 489.40,306.02 489.40,306.02
             489.40,306.02 489.61,305.78 489.61,305.78
             490.74,305.85 490.26,305.64 491.04,305.42 Z
           M 460.80,333.16
           C 460.80,333.16 457.32,334.99 457.32,334.99
             457.32,334.99 454.87,336.65 454.87,336.65
             454.87,336.65 453.34,337.58 453.34,337.58
             453.34,337.58 450.58,339.71 450.58,339.71
             450.58,339.71 448.02,341.32 448.02,341.32
             448.02,341.32 444.96,343.73 444.96,343.73
             444.96,343.73 441.79,346.15 441.79,346.15
             441.79,346.15 440.77,347.13 440.77,347.13
             440.77,347.13 438.01,349.80 438.01,349.80
             438.01,349.80 435.06,352.66 435.06,352.66
             435.06,352.66 432.20,356.23 432.20,356.23
             432.20,356.23 430.80,358.38 430.80,358.38
             430.80,358.38 429.86,360.01 429.86,360.01
             429.86,360.01 428.79,361.44 428.79,361.44
             428.79,361.44 426.15,365.73 426.15,365.73
             426.15,365.73 424.78,369.20 424.78,369.20
             424.78,369.20 423.31,372.67 423.31,372.67
             423.31,372.67 421.85,377.88 421.85,377.88
             421.85,377.88 420.30,383.71 420.30,383.71
             420.30,383.71 419.82,386.26 419.82,386.26
             419.82,386.26 419.48,387.59 419.48,387.59
             419.25,388.69 419.02,390.35 419.00,391.47
             419.00,391.47 418.60,395.86 418.60,395.86
             418.60,395.86 418.70,396.98 418.70,396.98
             418.70,396.98 418.60,398.62 418.60,398.62
             418.60,398.62 418.49,401.38 418.49,401.38
             418.49,401.38 418.29,404.13 418.29,404.13
             418.29,404.13 418.29,406.99 418.29,406.99
             418.29,406.99 418.19,408.52 418.19,408.52
             418.19,408.52 419.00,412.20 419.00,412.20
             419.00,412.20 419.00,413.33 419.00,413.33
             419.15,414.64 420.05,419.60 420.38,420.88
             420.38,420.88 420.84,422.21 420.84,422.21
             420.84,422.21 421.17,423.54 421.17,423.54
             421.17,423.54 421.62,424.87 421.62,424.87
             421.62,424.87 423.01,429.67 423.01,429.67
             423.01,429.67 423.88,431.61 423.88,431.61
             423.88,431.61 424.76,433.85 424.76,433.85
             424.76,433.85 426.54,437.33 426.54,437.33
             426.54,437.33 427.31,438.96 427.31,438.96
             427.31,438.96 428.07,440.39 428.07,440.39
             428.07,440.39 428.70,441.72 428.70,441.72
             428.70,441.72 431.75,446.42 431.75,446.42
             431.75,446.42 433.84,449.17 433.84,449.17
             434.37,449.74 434.69,449.68 435.08,450.20
             435.54,450.81 435.45,451.41 436.47,452.75
             437.01,453.47 438.18,454.77 438.83,455.40
             438.83,455.40 440.15,456.63 440.15,456.63
             440.15,456.63 442.31,459.29 442.31,459.29
             442.31,459.29 443.65,460.69 443.65,460.69
             443.65,460.69 445.26,462.15 445.26,462.15
             445.26,462.15 447.52,464.60 447.52,464.60
             447.52,464.60 448.69,465.82 448.69,465.82
             448.69,465.82 451.89,470.01 451.89,470.01
             451.89,470.01 453.21,471.65 453.21,471.65
             453.21,471.65 454.07,472.87 454.07,472.87
             454.07,472.87 456.52,476.45 456.52,476.45
             456.52,476.45 457.86,479.00 457.86,479.00
             457.86,479.00 459.90,483.08 459.90,483.08
             459.90,483.08 461.07,485.13 461.07,485.13
             461.07,485.13 462.81,488.60 462.81,488.60
             462.81,488.60 464.07,492.07 464.07,492.07
             464.07,492.07 464.77,493.71 464.77,493.71
             464.77,493.71 465.66,496.06 465.66,496.06
             465.66,496.06 465.96,497.08 465.96,497.08
             465.96,497.08 466.58,498.81 466.58,498.81
             466.58,498.81 467.08,500.96 467.08,500.96
             467.08,500.96 467.41,501.98 467.41,501.98
             467.41,501.98 467.68,503.82 467.68,503.82
             467.68,503.82 468.15,506.27 468.15,506.27
             468.15,506.27 468.46,509.64 468.46,509.64
             468.46,509.64 468.46,510.87 468.46,510.87
             468.69,512.52 468.99,513.97 468.97,515.67
             468.97,515.67 468.87,516.79 468.87,516.79
             468.87,516.79 468.96,518.12 468.96,518.12
             468.96,518.12 468.87,519.24 468.87,519.24
             468.87,519.24 468.87,520.06 468.87,520.06
             468.87,520.06 468.66,522.71 468.66,522.71
             468.66,523.49 468.63,524.29 468.52,525.06
             468.52,525.06 467.72,528.84 467.72,528.84
             467.72,528.84 467.19,531.40 467.19,531.40
             467.19,531.40 466.81,532.62 466.81,532.62
             466.81,532.62 466.29,534.66 466.29,534.66
             465.59,536.55 464.68,538.38 463.78,540.18
             463.78,540.18 462.28,543.14 462.28,543.14
             462.28,543.14 461.38,544.47 461.38,544.47
             461.38,544.47 460.31,546.21 460.31,546.21
             460.31,546.21 459.56,547.23 459.56,547.23
             459.56,547.23 458.49,549.06 458.49,549.06
             458.49,549.06 454.69,553.66 454.69,553.66
             454.69,553.66 452.00,556.82 452.00,556.82
             452.00,556.82 450.48,558.07 450.48,558.07
             448.75,559.62 447.01,561.18 445.06,562.44
             445.06,562.44 442.20,564.19 442.20,564.19
             442.20,564.19 439.64,565.83 439.64,565.83
             439.64,565.83 437.91,566.66 437.91,566.66
             437.91,566.66 435.25,568.23 435.25,568.23
             435.25,568.23 433.92,568.80 433.92,568.80
             433.92,568.80 432.29,569.67 432.29,569.67
             432.29,569.67 428.10,571.53 428.10,571.53
             428.10,571.53 426.36,572.15 426.36,572.15
             426.36,572.15 422.89,573.46 422.89,573.46
             422.89,573.46 420.44,574.42 420.44,574.42
             420.44,574.42 417.37,575.05 417.37,575.05
             417.37,575.05 415.74,575.45 415.74,575.45
             415.74,575.45 413.18,575.99 413.18,575.99
             413.18,575.99 412.57,576.11 412.57,576.11
             412.03,576.17 411.07,576.05 410.83,576.64
             410.46,576.61 409.98,576.46 409.81,576.85
             409.03,576.30 408.43,576.68 407.56,576.72
             407.56,576.72 406.44,576.65 406.44,576.65
             406.44,576.65 405.52,576.74 405.52,576.74
             405.52,576.74 404.09,576.64 404.09,576.64
             404.09,576.64 402.45,576.64 402.45,576.64
             401.47,576.64 401.20,576.47 400.31,576.35
             400.31,576.35 399.28,576.35 399.28,576.35
             399.28,576.35 396.73,576.02 396.73,576.02
             396.73,576.02 395.50,576.02 395.50,576.02
             395.50,576.02 392.13,575.27 392.13,575.27
             392.13,575.27 390.29,575.02 390.29,575.02
             390.29,575.02 387.13,574.13 387.13,574.13
             387.13,574.13 384.88,573.68 384.88,573.68
             383.43,573.39 381.75,572.95 380.38,572.41
             380.38,572.41 376.19,570.39 376.19,570.39
             376.19,570.39 375.07,569.64 375.07,569.64
             375.07,569.64 373.03,568.62 373.03,568.62
             373.03,568.62 370.16,566.44 370.16,566.44
             370.16,566.44 367.71,564.96 367.71,564.96
             367.71,564.96 363.52,561.42 363.52,561.42
             363.52,561.42 360.93,558.58 360.93,558.58
             360.93,558.58 359.60,557.32 359.60,557.32
             359.60,557.32 358.99,556.32 358.99,556.32
             358.65,555.91 358.33,555.80 358.00,555.29
             358.00,555.29 357.43,554.17 357.43,554.17
             357.43,554.17 356.82,553.25 356.82,553.25
             356.82,553.25 355.87,551.52 355.87,551.52
             355.87,551.52 355.01,549.58 355.01,549.58
             355.01,549.58 354.06,547.94 354.06,547.94
             354.06,547.94 353.11,546.10 353.11,546.10
             353.11,546.10 352.01,544.26 352.01,544.26
             352.01,544.26 350.44,541.10 350.44,541.10
             350.20,542.10 350.59,542.49 350.74,543.45
             350.74,543.45 350.98,545.90 350.98,545.90
             351.14,547.17 351.35,547.42 351.36,548.86
             351.36,548.86 351.82,553.35 351.82,553.35
             351.82,553.35 352.15,554.68 352.15,554.68
             352.15,554.68 352.33,555.91 352.33,555.91
             352.33,555.91 352.93,558.36 352.93,558.36
             352.93,558.36 353.25,559.79 353.25,559.79
             353.25,559.79 354.73,563.98 354.73,563.98
             354.73,563.98 355.36,565.82 355.36,565.82
             355.36,565.82 356.62,568.88 356.62,568.88
             356.62,568.88 357.26,570.21 357.26,570.21
             357.26,570.21 357.74,571.43 357.74,571.43
             357.74,571.43 358.37,572.76 358.37,572.76
             358.37,572.76 359.53,575.93 359.53,575.93
             359.53,575.93 361.19,578.89 361.19,578.89
             361.19,578.89 361.93,580.32 361.93,580.32
             361.93,580.32 363.37,582.57 363.37,582.57
             363.37,582.57 366.28,587.88 366.28,587.88
             366.28,587.88 368.58,591.04 368.58,591.04
             368.58,591.04 369.89,592.58 369.89,592.58
             369.89,592.58 373.77,597.38 373.77,597.38
             373.77,597.38 374.96,598.60 374.96,598.60
             374.96,598.60 376.67,600.54 376.67,600.54
             376.67,600.54 378.66,602.99 378.66,602.99
             378.66,602.99 381.08,605.44 381.08,605.44
             381.08,605.44 383.36,607.98 383.36,607.98
             383.36,607.98 384.16,608.71 384.16,608.71
             384.16,608.71 385.39,609.91 385.39,609.91
             385.39,609.91 386.72,610.98 386.72,610.98
             386.72,610.98 391.01,614.79 391.01,614.79
             391.01,614.79 393.46,616.39 393.46,616.39
             395.13,617.60 396.68,618.97 398.47,620.00
             398.47,620.00 400.51,620.91 400.51,620.91
             400.51,620.91 403.07,622.37 403.07,622.37
             403.07,622.37 404.60,623.04 404.60,623.04
             404.60,623.04 406.54,623.96 406.54,623.96
             406.54,623.96 408.07,624.70 408.07,624.70
             408.07,624.70 410.12,625.41 410.12,625.41
             410.12,625.41 412.87,626.53 412.87,626.53
             413.28,626.70 413.91,627.06 414.30,627.15
             414.65,627.22 414.82,627.13 415.12,627.15
             415.54,627.20 416.12,627.50 416.55,627.63
             416.55,627.63 417.78,627.93 417.78,627.93
             417.78,627.93 418.90,628.27 418.90,628.27
             418.90,628.27 422.58,629.11 422.58,629.11
             422.58,629.11 424.93,629.87 424.93,629.87
             424.93,629.87 426.46,630.09 426.46,630.09
             426.46,630.09 428.81,630.57 428.81,630.57
             428.81,630.57 430.24,630.93 430.24,630.93
             430.24,630.93 431.88,631.19 431.88,631.19
             431.88,631.19 435.05,631.78 435.05,631.78
             435.05,631.78 437.91,632.36 437.91,632.36
             437.91,632.36 441.79,632.71 441.79,632.71
             441.79,632.71 443.94,632.92 443.94,632.92
             443.94,632.92 444.96,632.92 444.96,632.92
             444.96,632.92 446.18,633.12 446.18,633.12
             446.18,633.12 447.10,633.12 447.10,633.12
             447.10,633.12 448.53,633.40 448.53,633.40
             448.53,633.40 450.78,633.64 450.78,633.64
             450.78,633.64 451.80,633.64 451.80,633.64
             451.80,633.64 452.72,633.81 452.72,633.81
             452.72,633.81 454.15,633.96 454.15,633.96
             454.15,633.96 455.89,634.22 455.89,634.22
             455.89,634.22 456.91,634.28 456.91,634.28
             456.91,634.28 458.44,634.45 458.44,634.45
             458.44,634.45 459.57,634.45 459.57,634.45
             459.57,634.45 462.63,634.76 462.63,634.76
             462.63,634.76 464.78,634.86 464.78,634.86
             464.78,634.86 466.62,634.86 466.62,634.86
             466.62,634.86 468.56,635.06 468.56,635.06
             468.56,635.06 470.91,635.18 470.91,635.18
             471.48,635.24 471.48,635.36 472.24,635.37
             472.86,635.38 473.46,635.42 474.08,635.52
             474.08,635.52 475.10,635.68 475.10,635.68
             475.10,635.68 476.22,635.68 476.22,635.68
             476.22,635.68 478.06,635.68 478.06,635.68
             478.06,635.68 479.49,635.78 479.49,635.78
             479.49,635.78 481.33,635.78 481.33,635.78
             481.33,635.78 482.66,635.68 482.66,635.68
             482.66,635.68 484.60,635.79 484.60,635.79
             484.60,635.79 487.87,636.09 487.87,636.09
             487.87,636.09 493.29,636.09 493.29,636.09
             493.29,636.09 494.31,635.97 494.31,635.97
             494.63,635.97 494.77,636.10 495.33,636.08
             495.33,636.08 497.37,635.90 497.37,635.90
             497.37,635.90 502.18,635.46 502.18,635.46
             502.18,635.46 503.91,635.11 503.91,635.11
             503.91,635.11 506.88,634.86 506.88,634.86
             506.88,634.86 509.43,634.73 509.43,634.73
             510.32,634.61 510.43,634.45 511.47,634.43
             511.47,634.43 513.01,634.43 513.01,634.43
             513.01,634.43 513.93,634.17 513.93,634.17
             514.46,634.09 514.67,634.22 515.77,634.02
             515.77,634.02 517.61,633.48 517.61,633.48
             517.61,633.48 519.85,633.30 519.85,633.30
             519.85,633.30 521.59,632.85 521.59,632.85
             521.59,632.85 522.31,632.85 522.31,632.85
             522.61,632.84 522.75,632.71 523.02,632.65
             523.02,632.65 523.63,632.65 523.63,632.65
             523.63,632.65 524.35,632.35 524.35,632.35
             524.35,632.35 525.06,632.25 525.06,632.25
             525.33,632.16 525.47,632.00 525.78,631.93
             525.78,631.93 527.31,631.71 527.31,631.71
             527.31,631.71 530.67,630.81 530.67,630.81
             531.06,630.74 531.18,630.89 531.50,630.81
             531.79,630.75 531.97,630.53 532.23,630.39
             532.23,630.39 533.65,629.90 533.65,629.90
             534.42,629.68 534.62,629.80 534.98,629.70
             534.98,629.70 535.89,629.29 535.89,629.29
             536.23,629.18 536.67,629.11 536.92,628.83
             537.96,629.17 537.95,628.85 538.86,628.44
             538.86,628.44 539.68,628.13 539.68,628.13
             540.03,627.94 540.05,627.83 540.49,627.69
             540.49,627.69 541.92,627.30 541.92,627.30
             541.92,627.30 543.05,626.87 543.05,626.87
             543.05,626.87 543.76,626.68 543.76,626.68
             543.76,626.68 544.48,626.26 544.48,626.26
             544.48,626.26 545.30,625.93 545.30,625.93
             545.30,625.93 546.21,625.49 546.21,625.49
             546.21,625.49 547.54,624.97 547.54,624.97
             549.19,624.29 550.80,623.50 552.35,622.61
             552.95,622.27 553.15,622.36 553.44,622.19
             553.44,622.19 554.18,621.62 554.18,621.62
             554.18,621.62 556.53,620.31 556.53,620.31
             556.53,620.31 557.56,619.63 557.56,619.63
             557.56,619.63 558.78,618.92 558.78,618.92
             558.78,618.92 559.91,618.16 559.91,618.16
             559.91,618.16 561.13,617.51 561.13,617.51
             561.13,617.51 562.56,616.58 562.56,616.58
             562.56,616.58 563.48,616.07 563.48,616.07
             563.48,616.07 564.61,615.30 564.61,615.30
             564.61,615.30 566.34,614.29 566.34,614.29
             566.34,614.29 570.43,611.63 570.43,611.63
             570.43,611.63 573.08,609.88 573.08,609.88
             573.54,609.51 573.72,609.06 574.31,608.58
             574.86,608.14 575.57,607.88 575.93,607.48
             576.36,606.99 576.14,606.78 576.77,606.18
             576.77,606.18 578.09,605.11 578.09,605.11
             578.09,605.11 579.12,604.18 579.12,604.18
             579.12,604.18 580.24,603.37 580.24,603.37
             580.24,603.37 581.47,602.24 581.47,602.24
             581.47,602.24 583.10,601.06 583.10,601.06
             583.50,600.76 584.08,600.28 584.42,599.93
             584.42,599.93 585.25,599.05 585.25,599.05
             585.25,599.05 587.29,597.29 587.29,597.29
             587.29,597.29 587.95,596.80 587.95,596.80
             587.95,596.80 588.84,595.75 588.84,595.75
             588.84,595.75 590.15,594.52 590.15,594.52
             590.15,594.52 591.48,593.10 591.48,593.10
             591.48,593.10 592.37,592.46 592.37,592.46
             592.81,592.02 592.85,591.61 593.52,591.45
             593.80,590.95 593.91,590.85 594.44,590.63
             594.52,589.94 594.99,589.76 595.46,589.30
             596.07,588.71 596.07,588.58 596.50,588.08
             596.50,588.08 597.39,587.24 597.39,587.24
             597.39,587.24 598.25,586.38 598.25,586.38
             598.25,586.38 598.75,585.63 598.75,585.63
             598.75,585.63 599.89,584.20 599.89,584.20
             599.89,584.20 600.81,582.97 600.81,582.97
             601.49,582.16 601.88,582.10 602.14,581.81
             602.14,581.81 602.73,580.93 602.73,580.93
             602.73,580.93 603.89,579.60 603.89,579.60
             603.89,579.60 605.61,577.26 605.61,577.26
             605.61,577.26 606.83,576.11 606.83,576.11
             606.83,576.11 608.30,574.19 608.30,574.19
             608.30,574.19 609.19,573.25 609.19,573.25
             609.19,573.25 610.33,571.43 610.33,571.43
             610.78,570.87 611.07,570.82 611.29,570.51
             611.29,570.51 611.55,570.09 611.55,570.09
             611.55,570.09 612.01,569.49 612.01,569.49
             612.01,569.49 612.32,568.88 612.32,568.88
             612.32,568.88 612.83,568.16 612.83,568.16
             612.83,568.16 613.13,567.45 613.13,567.45
             613.27,567.14 613.60,566.61 613.79,566.33
             613.79,566.33 615.81,563.77 615.81,563.77
             615.81,563.77 616.44,562.55 616.44,562.55
             616.44,562.55 616.97,561.63 616.97,561.63
             616.97,561.63 617.49,560.50 617.49,560.50
             617.49,560.50 618.55,559.07 618.55,559.07
             618.55,559.07 619.75,557.03 619.75,557.03
             619.75,557.03 620.25,556.11 620.25,556.11
             620.25,556.11 620.84,555.30 620.84,555.30
             620.84,555.30 621.32,554.48 621.32,554.48
             621.32,554.48 622.18,553.15 622.18,553.15
             622.18,553.15 623.64,549.88 623.64,549.88
             623.64,549.88 623.92,549.06 623.92,549.06
             623.92,549.06 624.30,548.15 624.30,548.15
             624.30,548.15 624.49,547.12 624.49,547.12
             624.49,547.12 624.93,546.10 624.93,546.10
             624.93,546.10 625.14,545.18 625.14,545.18
             625.14,545.18 625.47,544.06 625.47,544.06
             625.47,544.06 626.40,539.97 626.40,539.97
             626.40,539.97 627.00,538.44 627.00,538.44
             627.47,537.26 627.82,536.45 628.09,535.17
             628.09,535.17 628.34,533.74 628.34,533.74
             628.34,533.74 629.04,530.37 629.04,530.37
             629.16,529.78 629.08,528.95 629.50,528.54
             629.27,527.62 629.45,526.88 629.50,525.98
             629.50,525.98 629.50,524.96 629.50,524.96
             629.63,524.20 629.79,524.16 629.81,523.22
             629.81,523.22 629.81,521.49 629.81,521.49
             629.92,520.79 630.09,520.42 630.10,519.65
             630.13,517.47 629.69,516.27 629.42,514.24
             629.42,514.24 629.06,510.66 629.06,510.66
             629.06,510.66 628.71,508.62 628.71,508.62
             628.71,508.62 628.55,507.09 628.55,507.09
             628.38,505.79 627.72,504.53 627.96,503.21
             627.96,503.21 627.75,503.10 627.75,503.10
             627.75,503.10 627.65,503.21 627.65,503.21
             627.65,503.21 627.45,501.67 627.45,501.67
             627.45,501.67 627.14,501.78 627.14,501.78
             627.14,501.78 626.66,499.73 626.66,499.73
             626.66,499.73 626.27,498.93 626.27,498.93
             626.27,498.93 626.16,498.30 626.16,498.30
             626.16,498.30 625.55,496.46 625.55,496.46
             625.55,496.46 624.18,493.81 624.18,493.81
             624.18,493.81 623.97,493.81 623.97,493.81
             623.25,495.11 623.02,496.69 622.54,498.10
             622.54,498.10 621.15,501.37 621.15,501.37
             621.15,501.37 619.76,504.74 619.76,504.74
             619.76,504.74 616.95,509.84 616.95,509.84
             616.95,509.84 616.48,510.97 616.48,510.97
             616.48,510.97 615.08,513.73 615.08,513.73
             615.08,513.73 613.04,516.48 613.04,516.48
             613.04,516.48 611.51,518.73 611.51,518.73
             611.51,518.73 609.87,520.77 609.87,520.77
             609.87,520.77 605.14,526.48 605.14,526.48
             605.14,526.48 603.13,528.34 603.13,528.34
             603.13,528.34 601.39,530.06 601.39,530.06
             601.39,530.06 599.76,531.44 599.76,531.44
             599.76,531.44 597.61,533.39 597.61,533.39
             597.61,533.39 594.65,535.50 594.65,535.50
             594.65,535.50 593.32,536.52 593.32,536.52
             593.32,536.52 592.30,537.00 592.30,537.00
             592.30,537.00 589.23,538.71 589.23,538.71
             589.23,538.71 587.70,539.39 587.70,539.39
             587.70,539.39 583.92,541.20 583.92,541.20
             583.92,541.20 582.69,541.48 582.69,541.48
             582.69,541.48 581.67,541.86 581.67,541.86
             581.67,541.86 578.50,542.79 578.50,542.79
             578.50,542.79 575.23,543.35 575.23,543.35
             575.23,543.35 573.09,543.72 573.09,543.72
             573.09,543.72 571.15,543.87 571.15,543.87
             571.15,543.87 569.41,544.06 569.41,544.06
             569.41,544.06 566.75,544.17 566.75,544.17
             566.75,544.17 564.50,544.29 564.50,544.29
             564.50,544.29 561.34,544.01 561.34,544.01
             561.34,544.01 560.21,543.69 560.21,543.69
             560.21,543.69 559.09,543.60 559.09,543.60
             559.09,543.60 555.72,542.56 555.72,542.56
             555.72,542.56 554.80,542.34 554.80,542.34
             554.80,542.34 553.47,541.78 553.47,541.78
             551.89,541.22 550.27,540.70 548.77,539.95
             548.77,539.95 546.62,538.69 546.62,538.69
             546.62,538.69 545.50,538.10 545.50,538.10
             545.50,538.10 544.27,537.30 544.27,537.30
             544.27,537.30 542.74,536.51 542.74,536.51
             542.74,536.51 539.78,534.31 539.78,534.31
             539.78,534.31 537.53,532.22 537.53,532.22
             537.53,532.22 536.10,530.88 536.10,530.88
             534.77,529.50 532.96,527.32 531.80,525.78
             531.80,525.78 530.18,523.43 530.18,523.43
             530.18,523.43 529.36,522.50 529.36,522.50
             529.36,522.50 528.94,521.69 528.94,521.69
             528.94,521.69 527.57,519.55 527.57,519.55
             527.57,519.55 526.97,518.12 526.97,518.12
             526.97,518.12 525.49,514.95 525.49,514.95
             525.49,514.95 524.26,512.19 524.26,512.19
             524.26,512.19 523.39,508.41 523.39,508.41
             523.39,508.41 522.66,506.07 522.66,506.07
             522.66,506.07 522.26,505.04 522.26,505.04
             522.26,505.04 521.78,501.98 521.78,501.98
             521.78,501.98 521.54,500.96 521.54,500.96
             521.54,500.96 521.43,500.14 521.43,500.14
             521.26,499.21 520.90,498.59 520.87,497.49
             520.87,497.49 520.87,496.67 520.87,496.67
             520.87,496.67 520.81,495.85 520.81,495.85
             520.81,495.85 520.81,495.24 520.81,495.24
             520.81,494.84 520.65,494.65 520.67,493.91
             520.67,493.91 520.83,492.28 520.83,492.28
             520.83,492.28 521.00,491.66 521.00,491.66
             521.00,491.66 520.88,490.85 520.88,490.85
             520.88,490.85 520.88,489.01 520.88,489.01
             520.88,489.01 520.97,487.99 520.97,487.99
             520.97,487.99 520.97,486.25 520.97,486.25
             520.97,486.25 521.09,484.82 521.09,484.82
             521.09,484.82 521.09,482.37 521.09,482.37
             521.09,482.37 521.50,480.53 521.50,480.53
             521.50,480.53 521.72,479.92 521.72,479.92
             521.72,479.92 521.72,479.00 521.72,479.00
             521.72,479.00 522.09,477.26 522.09,477.26
             522.09,477.26 523.10,473.99 523.10,473.99
             523.10,473.99 523.42,473.08 523.42,473.08
             523.42,473.08 523.73,471.34 523.73,471.34
             523.73,471.34 524.67,468.27 524.67,468.27
             524.67,468.27 525.27,466.23 525.27,466.23
             525.27,466.23 525.83,464.19 525.83,464.19
             525.83,464.19 526.87,461.94 526.87,461.94
             526.87,461.94 528.40,458.57 528.40,458.57
             528.40,458.57 529.21,457.24 529.21,457.24
             529.21,457.24 530.49,454.89 530.49,454.89
             530.49,454.89 532.49,451.42 532.49,451.42
             532.49,451.42 533.29,449.79 533.29,449.79
             533.29,449.79 534.90,447.54 534.90,447.54
             534.90,447.54 535.54,446.42 535.54,446.42
             535.54,446.42 536.74,444.78 536.74,444.78
             536.74,444.78 537.98,443.05 537.98,443.05
             537.98,443.05 538.59,442.13 538.59,442.13
             539.54,440.87 541.03,439.30 542.14,438.15
             542.14,438.15 542.92,437.43 542.92,437.43
             542.92,437.43 544.52,435.39 544.52,435.39
             544.52,435.39 548.59,430.69 548.59,430.69
             548.59,430.69 551.83,427.97 551.83,427.97
             551.83,427.97 552.54,427.41 552.54,427.41
             552.54,427.41 553.68,426.10 553.68,426.10
             553.68,426.10 554.45,425.45 554.45,425.45
             554.45,425.45 554.92,424.90 554.92,424.90
             554.92,424.90 555.82,424.05 555.82,424.05
             555.82,424.05 557.29,422.55 557.29,422.55
             557.29,422.55 560.09,420.12 560.09,420.12
             560.56,419.66 560.52,419.38 560.87,418.94
             561.24,418.48 561.50,418.47 561.79,418.19
             561.79,418.19 562.27,417.64 562.27,417.64
             562.27,417.64 564.30,416.26 564.30,416.26
             564.30,416.26 565.93,414.77 565.93,414.77
             565.93,414.77 567.55,413.40 567.55,413.40
             567.55,413.40 568.90,411.90 568.90,411.90
             568.90,411.90 569.81,411.22 569.81,411.22
             569.81,411.22 571.00,410.13 571.00,410.13
             571.00,410.13 572.09,408.83 572.09,408.83
             572.85,407.97 573.42,407.47 574.10,406.48
             574.10,406.48 574.88,405.15 574.88,405.15
             575.30,404.51 575.81,404.09 576.22,403.32
             576.22,403.32 577.44,400.15 577.44,400.15
             577.44,400.15 578.02,399.03 578.02,399.03
             578.02,399.03 579.27,395.25 579.27,395.25
             579.27,395.25 579.34,394.12 579.34,394.12
             579.34,394.12 579.52,389.43 579.52,389.43
             579.51,388.52 579.16,386.68 578.95,385.75
             578.55,383.94 578.08,382.09 577.47,380.34
             577.47,380.34 576.87,378.80 576.87,378.80
             575.62,375.38 574.44,371.96 572.81,368.69
             572.81,368.69 571.46,366.14 571.46,366.14
             571.46,366.14 570.40,364.61 570.40,364.61
             569.82,363.71 569.49,363.01 568.59,362.36
             568.59,362.36 568.01,365.73 568.01,365.73
             568.01,365.73 567.83,367.16 567.83,367.16
             567.83,367.16 567.41,369.00 567.41,369.00
             567.41,369.00 566.99,370.94 566.99,370.94
             566.99,370.94 566.42,372.57 566.42,372.57
             566.42,372.57 566.18,373.49 566.18,373.49
             566.18,373.49 565.60,375.13 565.60,375.13
             565.60,375.13 564.98,377.07 564.98,377.07
             564.98,377.07 564.16,379.82 564.16,379.82
             564.16,379.82 562.89,382.68 562.89,382.68
             562.07,384.32 560.61,386.92 559.60,388.40
             559.60,388.40 556.35,392.59 556.35,392.59
             556.35,392.59 554.52,395.14 554.52,395.14
             554.52,395.14 552.36,397.49 552.36,397.49
             552.36,397.49 551.29,398.81 551.29,398.81
             551.29,398.81 550.51,399.54 550.51,399.54
             550.51,399.54 549.68,400.45 549.68,400.45
             549.68,400.45 548.87,401.18 548.87,401.18
             548.87,401.18 546.11,403.74 546.11,403.74
             546.11,403.74 544.17,405.55 544.17,405.55
             544.17,405.55 542.95,406.40 542.95,406.40
             542.95,406.40 539.98,409.12 539.98,409.12
             539.98,409.12 538.65,410.01 538.65,410.01
             538.65,410.01 537.94,410.61 537.94,410.61
             537.94,410.61 535.08,412.69 535.08,412.69
             535.08,412.69 532.63,414.51 532.63,414.51
             532.63,414.51 531.30,415.34 531.30,415.34
             531.30,415.34 528.03,417.53 528.03,417.53
             527.52,417.81 527.38,417.78 526.90,417.97
             526.90,417.97 525.68,418.51 525.68,418.51
             525.68,418.51 524.45,418.98 524.45,418.98
             524.45,418.98 523.12,419.83 523.12,419.83
             523.12,419.83 520.57,420.94 520.57,420.94
             520.57,420.94 516.69,422.13 516.69,422.13
             516.69,422.13 515.66,422.56 515.66,422.56
             515.66,422.56 512.39,423.55 512.39,423.55
             512.39,423.55 510.15,423.89 510.15,423.89
             510.15,423.89 508.20,424.31 508.20,424.31
             508.20,424.31 504.83,424.57 504.83,424.57
             504.83,424.57 501.56,424.87 501.56,424.87
             501.56,424.87 498.80,424.87 498.80,424.87
             498.80,424.87 497.17,424.66 497.17,424.66
             497.17,424.66 496.15,424.66 496.15,424.66
             496.15,424.66 492.88,424.09 492.88,424.09
             492.88,424.09 491.24,423.90 491.24,423.90
             491.24,423.90 489.81,423.51 489.81,423.51
             489.81,423.51 486.24,422.98 486.24,422.98
             486.24,422.98 484.09,422.15 484.09,422.15
             484.09,422.15 480.82,420.94 480.82,420.94
             480.82,420.94 479.49,420.30 479.49,420.30
             479.49,420.30 476.84,419.03 476.84,419.03
             476.84,419.03 475.41,418.42 475.41,418.42
             474.54,417.91 473.61,417.00 473.26,416.78
             473.26,416.78 472.34,416.33 472.34,416.33
             472.34,416.33 469.89,414.50 469.89,414.50
             469.89,414.50 468.56,413.65 468.56,413.65
             468.56,413.65 467.93,413.07 467.93,413.07
             467.93,413.07 467.23,412.58 467.23,412.58
             467.23,412.58 463.76,409.44 463.76,409.44
             463.76,409.44 462.21,407.71 462.21,407.71
             460.83,406.18 458.89,404.51 457.71,402.81
             457.71,402.81 455.05,397.60 455.05,397.60
             455.05,397.60 454.29,396.17 454.29,396.17
             454.29,396.17 453.85,395.04 453.85,395.04
             453.85,395.04 453.18,393.71 453.18,393.71
             453.18,393.71 452.21,390.96 452.21,390.96
             452.21,390.96 451.58,389.32 451.58,389.32
             451.58,389.32 450.31,383.60 450.31,383.60
             450.31,383.60 449.69,380.74 449.69,380.74
             449.69,380.74 449.45,377.07 449.45,377.07
             449.45,377.07 449.28,374.92 449.28,374.92
             449.28,374.92 449.45,372.98 449.45,372.98
             449.45,372.98 449.56,370.43 449.56,370.43
             449.56,370.43 449.66,369.00 449.66,369.00
             449.66,369.00 449.97,366.04 449.97,366.04
             449.97,366.04 449.97,364.91 449.97,364.91
             450.16,363.59 450.25,363.77 450.27,362.26
             450.29,361.03 450.62,359.96 450.90,358.78
             450.90,358.78 452.08,354.19 452.08,354.19
             452.08,354.19 452.65,352.66 452.65,352.66
             452.65,352.66 453.64,349.69 453.64,349.69
             453.64,349.69 453.94,348.57 453.94,348.57
             453.94,348.57 454.72,346.94 454.72,346.94
             454.72,346.94 455.57,344.79 455.57,344.79
             456.45,342.97 457.58,341.30 458.64,339.58
             458.64,339.58 459.42,338.15 459.42,338.15
             459.42,338.15 460.17,337.13 460.17,337.13
             460.17,337.13 462.82,333.45 462.82,333.45
             463.40,332.73 464.32,332.08 464.68,331.31
             463.00,331.63 462.24,332.36 460.80,333.16 Z
           M 410.83,576.74
           C 410.83,576.74 410.73,576.85 410.73,576.85
             410.73,576.85 410.73,576.74 410.73,576.74
             410.73,576.74 410.83,576.74 410.83,576.74 Z
           M 408.99,576.95
           C 408.99,576.95 408.89,577.05 408.89,577.05
             408.89,577.05 408.89,576.95 408.89,576.95
             408.89,576.95 408.99,576.95 408.99,576.95 Z
           M 410.42,577.15
           C 410.42,577.15 410.32,577.25 410.32,577.25
             410.32,577.25 410.32,577.15 410.32,577.15
             410.32,577.15 410.42,577.15 410.42,577.15 Z
           M 409.81,577.25
           C 409.81,577.25 409.71,577.36 409.71,577.36
             409.71,577.36 409.71,577.25 409.71,577.25
             409.71,577.25 409.81,577.25 409.81,577.25 Z
           M 540.08,627.81
           C 540.08,627.81 540.19,627.91 540.19,627.91
             540.19,627.91 540.19,627.81 540.19,627.81
             540.19,627.81 540.08,627.81 540.08,627.81 Z" />
</svg>
