<?xml version="1.0" encoding="UTF-8" standalone="no"?>
<svg xmlns="http://www.w3.org/2000/svg"
     xmlns:svg="http://www.w3.org/2000/svg"
     version="1.1"
     viewBox="0 0 400 400">
  <path id="path1" transform="translate(-290, -300)"
        d="M 334.81,360.17
           C 334.81,360.17 335.45,359.95 335.45,359.95
             335.45,359.95 337.57,358.48 337.57,358.48
             338.32,357.97 338.58,357.94 339.31,357.58
             339.31,357.58 340.84,356.68 340.84,356.68
             340.84,356.68 343.09,355.43 343.09,355.43
             343.09,355.43 344.01,354.84 344.01,354.84
             344.01,354.84 346.56,353.61 346.56,353.61
             346.56,353.61 348.09,353.05 348.09,353.05
             348.09,353.05 348.91,352.65 348.91,352.65
             348.91,352.65 351.36,351.83 351.36,351.83
             351.36,351.83 354.02,350.80 354.02,350.80
             354.56,350.62 355.55,350.51 356.17,350.40
             356.17,350.40 358.11,349.95 358.11,349.95
             358.11,349.95 359.84,349.67 359.84,349.67
             361.38,349.35 361.12,349.19 361.89,348.97
             362.84,348.70 363.02,348.84 363.83,348.76
             364.56,348.68 364.55,348.57 365.46,348.57
             365.46,348.57 366.89,348.57 366.89,348.57
             366.89,348.57 368.22,348.66 368.22,348.66
             368.22,348.66 369.24,348.57 369.24,348.57
             369.24,348.57 372.11,348.77 372.11,348.77
             374.15,348.80 375.16,349.10 377.11,349.45
             377.11,349.45 379.26,349.74 379.26,349.74
             379.26,349.74 381.30,350.16 381.30,350.16
             381.30,350.16 384.06,350.54 384.06,350.54
             384.06,350.54 385.29,350.90 385.29,350.90
             385.29,350.90 386.51,351.17 386.51,351.17
             386.51,351.17 388.66,351.84 388.66,351.84
             388.66,351.84 389.58,352.10 389.58,352.10
             389.58,352.10 390.50,352.51 390.50,352.51
             390.50,352.51 391.42,352.85 391.42,352.85
             391.42,352.85 393.87,354.00 393.87,354.00
             393.87,354.00 395.61,354.73 395.61,354.73
             395.61,354.73 396.83,355.38 396.83,355.38
             396.83,355.38 399.08,356.48 399.08,356.48
             399.08,356.48 403.68,359.57 403.68,359.57
             403.68,359.57 405.62,360.88 405.62,360.88
             405.62,360.88 408.99,363.87 408.99,363.87
             409.94,364.64 410.79,364.48 411.85,365.53
             411.85,365.53 413.58,367.47 413.58,367.47
             414.00,368.07 414.02,368.44 414.54,369.10
             414.54,369.10 416.83,371.76 416.83,371.76
             416.83,371.76 418.03,373.49 418.03,373.49
             418.03,373.49 419.14,374.82 419.14,374.82
             419.14,374.82 420.59,376.76 420.59,376.76
             420.59,376.76 424.27,381.15 424.27,381.15
             424.27,381.15 427.62,385.24 427.62,385.24
             427.62,385.24 429.21,386.97 429.21,386.97
             429.21,386.97 432.04,390.24 432.04,390.24
             432.04,390.24 433.33,391.98 433.33,391.98
             433.33,391.98 434.99,394.12 434.99,394.12
             434.99,394.12 436.65,395.96 436.65,395.96
             436.65,395.96 437.34,396.88 437.34,396.88
             437.34,396.88 438.73,398.41 438.73,398.41
             438.73,398.41 440.77,400.35 440.77,400.35
             440.77,400.35 442.81,402.60 442.81,402.60
             442.81,402.60 443.73,403.43 443.73,403.43
             443.73,403.43 444.65,404.30 444.65,404.30
             444.65,404.30 445.98,405.30 445.98,405.30
             445.98,405.30 449.35,408.01 449.35,408.01
             449.35,408.01 452.62,409.92 452.62,409.92
             452.62,409.92 454.77,411.34 454.77,411.34
             454.77,411.34 457.53,412.86 457.53,412.86
             457.53,412.86 459.36,413.91 459.36,413.91
             459.36,413.91 462.33,415.21 462.33,415.21
             462.33,415.21 463.55,415.56 463.55,415.56
             463.55,415.56 464.68,416.03 464.68,416.03
             464.68,416.03 467.13,416.68 467.13,416.68
             467.13,416.68 469.28,417.30 469.28,417.30
             469.28,417.30 470.20,417.30 470.20,417.30
             470.20,417.30 471.11,417.41 471.11,417.41
             472.54,417.43 473.16,417.59 474.59,417.27
             474.59,417.27 478.37,416.03 478.37,416.03
             478.37,416.03 480.52,414.85 480.52,414.85
             480.52,414.85 482.35,413.42 482.35,413.42
             482.35,413.42 484.19,411.97 484.19,411.97
             484.19,411.97 486.03,410.28 486.03,410.28
             486.03,410.28 488.08,408.51 488.08,408.51
             488.08,408.51 490.63,406.12 490.63,406.12
             490.63,406.12 493.08,404.39 493.08,404.39
             493.08,404.39 494.00,403.54 494.00,403.54
             494.00,403.54 495.13,402.58 495.13,402.58
             495.13,402.58 496.86,401.01 496.86,401.01
             496.86,401.01 498.70,399.60 498.70,399.60
             498.70,399.60 500.44,398.22 500.44,398.22
             500.44,398.22 501.97,397.14 501.97,397.14
             501.97,397.14 503.81,395.64 503.81,395.64
             503.81,395.64 505.65,394.38 505.65,394.38
             505.65,394.38 506.88,393.35 506.88,393.35
             506.88,393.35 508.51,392.12 508.51,392.12
             508.51,392.12 509.84,391.05 509.84,391.05
             509.84,391.05 512.91,388.88 512.91,388.88
             512.91,388.88 514.23,387.85 514.23,387.85
             514.23,387.85 515.56,387.07 515.56,387.07
             515.56,387.07 517.71,385.55 517.71,385.55
             517.71,385.55 519.65,384.24 519.65,384.24
             519.65,384.24 523.12,381.32 523.12,381.32
             523.12,381.32 524.55,380.31 524.55,380.31
             524.55,380.31 529.05,376.97 529.05,376.97
             529.05,376.97 531.09,375.69 531.09,375.69
             531.09,375.69 533.44,374.19 533.44,374.19
             533.44,374.19 536.10,372.84 536.10,372.84
             536.10,372.84 537.73,371.84 537.73,371.84
             537.73,371.84 541.82,369.58 541.82,369.58
             541.82,369.58 542.64,369.03 542.64,369.03
             542.64,369.03 543.86,368.46 543.86,368.46
             543.86,368.46 545.40,367.66 545.40,367.66
             545.40,367.66 550.81,365.52 550.81,365.52
             550.81,365.52 552.35,364.82 552.35,364.82
             552.35,364.82 555.41,363.72 555.41,363.72
             555.41,363.72 558.99,362.46 558.99,362.46
             558.99,362.46 562.05,361.60 562.05,361.60
             562.05,361.60 563.58,361.09 563.58,361.09
             563.58,361.09 564.30,360.76 564.30,360.76
             564.30,360.76 567.77,360.02 567.77,360.02
             567.77,360.02 571.45,359.19 571.45,359.19
             571.45,359.19 572.78,358.92 572.78,358.92
             572.78,358.92 574.31,358.76 574.31,358.76
             574.31,358.76 577.79,358.38 577.79,358.38
             577.79,358.38 580.65,358.38 580.65,358.38
             580.65,358.38 582.79,358.24 582.79,358.24
             582.79,358.24 584.43,358.07 584.43,358.07
             584.43,358.07 587.39,357.97 587.39,357.97
             587.39,357.97 588.92,357.87 588.92,357.87
             588.92,357.87 590.05,357.97 590.05,357.97
             590.05,357.97 591.79,357.97 591.79,357.97
             591.79,357.97 593.11,358.06 593.11,358.06
             593.11,358.06 594.44,357.98 594.44,357.98
             594.44,357.98 596.08,358.15 596.08,358.15
             596.08,358.15 599.14,358.49 599.14,358.49
             599.14,358.49 602.31,358.90 602.31,358.90
             602.62,358.94 603.40,359.14 603.63,359.09
             603.93,359.02 604.07,358.74 604.36,358.75
             604.66,358.75 604.92,359.09 605.27,359.29
             605.54,359.44 607.00,359.92 607.32,360.00
             607.32,360.00 608.34,360.00 608.34,360.00
             608.94,360.08 610.00,360.28 610.59,360.43
             610.59,360.43 613.24,361.47 613.24,361.47
             613.24,361.47 615.29,362.11 615.29,362.11
             615.29,362.11 616.31,362.54 616.31,362.54
             616.31,362.54 617.74,363.02 617.74,363.02
             617.74,363.02 620.29,364.05 620.29,364.05
             620.29,364.05 622.54,364.74 622.54,364.74
             622.54,364.74 626.22,366.20 626.22,366.20
             626.22,366.20 631.33,368.21 631.33,368.21
             631.33,368.21 633.58,369.52 633.58,369.52
             633.58,369.52 634.50,369.94 634.50,369.94
             634.50,369.94 635.72,370.65 635.72,370.65
             635.72,370.65 636.85,371.23 636.85,371.23
             636.85,371.23 638.48,372.26 638.48,372.26
             638.48,372.26 640.73,373.61 640.73,373.61
             640.73,373.61 643.69,375.33 643.69,375.33
             643.69,375.33 645.63,376.51 645.63,376.51
             645.63,376.51 648.08,377.87 648.08,377.87
             648.08,377.87 649.41,378.94 649.41,378.94
             649.41,378.94 651.25,380.28 651.25,380.28
             651.25,380.28 653.09,381.78 653.09,381.78
             653.09,381.78 655.13,383.24 655.13,383.24
             655.13,383.24 656.36,384.23 656.36,384.23
             656.36,384.23 657.79,385.27 657.79,385.27
             657.79,385.27 658.61,386.01 658.61,386.01
             658.61,386.01 659.61,386.80 659.61,386.80
             659.61,386.80 660.45,387.67 660.45,387.67
             660.98,388.12 661.40,388.14 661.74,388.46
             662.04,388.75 662.07,389.08 662.70,389.73
             662.70,389.73 663.62,390.56 663.62,390.56
             663.62,390.56 665.64,392.59 665.64,392.59
             665.64,392.59 667.18,394.63 667.18,394.63
             667.18,394.63 669.01,396.88 669.01,396.88
             669.01,396.88 669.90,398.11 669.90,398.11
             669.90,398.11 673.42,402.60 673.42,402.60
             673.42,402.60 676.27,407.30 676.27,407.30
             676.27,407.30 677.26,408.83 677.26,408.83
             677.26,408.83 678.05,410.36 678.05,410.36
             678.05,410.36 679.22,412.51 679.22,412.51
             679.22,412.51 680.30,414.96 680.30,414.96
             680.30,414.96 681.43,417.10 681.43,417.10
             681.43,417.10 681.81,417.72 681.81,417.72
             681.81,417.72 682.14,418.84 682.14,418.84
             682.14,418.84 683.74,422.31 683.74,422.31
             683.74,422.31 685.28,427.11 685.28,427.11
             685.28,427.11 686.25,429.67 686.25,429.67
             686.25,429.67 686.71,431.51 686.71,431.51
             686.71,431.51 687.37,433.45 687.37,433.45
             687.37,433.45 688.09,436.61 688.09,436.61
             688.09,436.61 688.29,438.25 688.29,438.25
             688.29,438.25 688.62,439.68 688.62,439.68
             688.62,439.68 689.28,444.58 689.28,444.58
             689.28,444.58 689.47,446.52 689.47,446.52
             689.48,447.83 689.60,447.72 689.74,448.87
             689.74,448.87 689.99,451.42 689.99,451.42
             689.99,451.42 690.15,453.16 690.15,453.16
             690.15,453.16 689.98,456.02 689.98,456.02
             689.96,457.37 689.47,460.50 689.24,461.94
             689.24,461.94 688.33,466.84 688.33,466.84
             688.33,466.84 686.98,470.62 686.98,470.62
             686.61,471.43 684.77,474.51 684.23,475.22
             683.50,476.18 681.82,477.88 680.88,478.65
             680.88,478.65 679.55,479.55 679.55,479.55
             679.55,479.55 678.74,480.25 678.74,480.25
             678.74,480.25 677.41,481.05 677.41,481.05
             677.41,481.05 676.28,481.88 676.28,481.88
             676.28,481.88 673.42,483.03 673.42,483.03
             673.42,483.03 668.42,484.46 668.42,484.46
             668.42,484.46 664.84,484.82 664.84,484.82
             664.84,484.82 663.10,484.72 663.10,484.72
             663.10,484.72 660.75,484.60 660.75,484.60
             660.75,484.60 659.53,484.45 659.53,484.45
             659.53,484.45 658.40,484.53 658.40,484.53
             657.75,484.56 657.30,484.28 656.67,484.13
             656.67,484.13 655.03,483.81 655.03,483.81
             655.03,483.81 652.78,483.18 652.78,483.18
             652.78,483.18 651.15,482.95 651.15,482.95
             651.15,482.95 647.57,482.42 647.57,482.42
             646.87,482.28 646.24,481.89 645.84,481.80
             645.84,481.80 645.02,481.73 645.02,481.73
             645.02,481.73 644.20,481.43 644.20,481.43
             643.57,481.22 643.68,481.51 642.67,480.74
             642.29,480.93 642.22,480.72 641.85,480.59
             641.49,480.46 640.89,480.25 640.52,480.22
             640.52,480.22 640.63,479.92 640.63,479.92
             640.63,479.92 640.32,480.02 640.32,480.02
             639.97,479.76 639.77,479.80 639.40,479.63
             639.40,479.63 638.79,479.30 638.79,479.30
             638.79,479.30 636.03,478.05 636.03,478.05
             636.03,478.05 631.23,475.68 631.23,475.68
             631.23,475.68 628.06,473.83 628.06,473.83
             628.06,473.83 625.50,472.36 625.50,472.36
             625.50,472.36 624.18,471.39 624.18,471.39
             624.18,471.39 621.11,469.38 621.11,469.38
             621.11,469.38 619.78,468.33 619.78,468.33
             619.78,468.33 618.66,467.56 618.66,467.56
             618.66,467.56 616.51,465.89 616.51,465.89
             616.51,465.89 615.59,465.28 615.59,465.28
             615.59,465.28 614.57,464.47 614.57,464.47
             614.57,464.47 613.34,463.68 613.34,463.68
             613.34,463.68 610.69,461.76 610.69,461.76
             610.69,461.76 609.97,461.19 609.97,461.19
             609.97,461.19 609.05,460.59 609.05,460.59
             609.05,460.59 606.19,458.60 606.19,458.60
             606.19,458.60 604.35,457.24 604.35,457.24
             604.35,457.24 600.88,455.26 600.88,455.26
             600.88,455.26 598.22,453.71 598.22,453.71
             598.22,453.71 595.46,452.59 595.46,452.59
             595.46,452.59 594.14,451.92 594.14,451.92
             594.14,451.92 592.19,451.16 592.19,451.16
             592.19,451.16 590.66,450.76 590.66,450.76
             590.66,450.76 589.23,450.17 589.23,450.17
             589.23,450.17 587.70,449.80 587.70,449.80
             587.70,449.80 585.04,449.06 585.04,449.06
             585.04,449.06 584.02,448.90 584.02,448.90
             584.02,448.90 583.10,448.69 583.10,448.69
             583.10,448.69 581.36,448.48 581.36,448.48
             580.78,448.51 580.22,448.79 579.63,448.75
             579.63,448.75 576.87,448.60 576.87,448.60
             576.87,448.60 575.85,448.66 575.85,448.66
             575.85,448.66 574.62,448.56 574.62,448.56
             574.62,448.56 573.09,448.66 573.09,448.66
             573.09,448.66 569.72,448.66 569.72,448.66
             569.72,448.66 567.16,448.87 567.16,448.87
             565.92,448.88 565.47,449.07 564.30,449.31
             564.30,449.31 563.38,449.45 563.38,449.45
             563.38,449.45 559.19,450.59 559.19,450.59
             559.19,450.59 556.33,451.39 556.33,451.39
             556.33,451.39 553.47,452.50 553.47,452.50
             553.47,452.50 552.14,452.92 552.14,452.92
             552.14,452.92 549.89,453.88 549.89,453.88
             549.89,453.88 546.83,455.67 546.83,455.67
             546.83,455.67 545.09,456.56 545.09,456.56
             545.09,456.56 540.39,459.52 540.39,459.52
             540.39,459.52 537.33,461.26 537.33,461.26
             537.33,461.26 533.54,464.17 533.54,464.17
             533.54,464.17 532.11,465.11 532.11,465.11
             532.11,465.11 529.97,466.70 529.97,466.70
             529.97,466.70 528.64,467.59 528.64,467.59
             528.64,467.59 525.98,469.67 525.98,469.67
             525.98,469.67 524.04,471.00 524.04,471.00
             524.04,471.00 521.69,472.68 521.69,472.68
             521.69,472.68 520.16,473.54 520.16,473.54
             520.16,473.54 517.81,475.22 517.81,475.22
             517.81,475.22 516.07,476.36 516.07,476.36
             516.07,476.36 514.03,477.92 514.03,477.92
             514.03,477.92 513.21,478.65 513.21,478.65
             513.21,478.65 511.68,479.60 511.68,479.60
             511.68,479.60 509.64,481.14 509.64,481.14
             509.64,481.14 505.45,483.42 505.45,483.42
             505.45,483.42 501.97,485.30 501.97,485.30
             501.97,485.30 500.75,485.87 500.75,485.87
             500.75,485.87 497.58,487.74 497.58,487.74
             497.58,487.74 495.02,489.03 495.02,489.03
             495.02,489.03 491.75,490.22 491.75,490.22
             491.75,490.22 489.81,491.12 489.81,491.12
             489.81,491.12 488.08,491.81 488.08,491.81
             488.08,491.81 486.24,492.58 486.24,492.58
             486.24,492.58 484.30,493.15 484.30,493.15
             484.30,493.15 483.07,493.64 483.07,493.64
             483.07,493.64 480.92,494.01 480.92,494.01
             480.92,494.01 479.90,494.30 479.90,494.30
             479.90,494.30 477.96,494.67 477.96,494.67
             477.96,494.67 476.53,495.08 476.53,495.08
             476.53,495.08 475.30,495.17 475.30,495.17
             475.30,495.17 474.49,495.34 474.49,495.34
             474.49,495.34 473.67,495.34 473.67,495.34
             473.67,495.34 472.85,495.47 472.85,495.47
             472.85,495.47 469.68,495.15 469.68,495.15
             469.68,495.15 467.95,495.01 467.95,495.01
             467.95,495.01 465.39,494.57 465.39,494.57
             465.39,494.57 461.41,493.87 461.41,493.87
             461.41,493.87 459.88,493.45 459.88,493.45
             459.88,493.45 458.55,493.25 458.55,493.25
             458.55,493.25 456.50,492.85 456.50,492.85
             456.50,492.85 455.58,492.71 455.58,492.71
             455.58,492.71 454.15,492.24 454.15,492.24
             454.15,492.24 451.09,491.35 451.09,491.35
             451.09,491.35 446.80,489.68 446.80,489.68
             446.80,489.68 444.75,488.99 444.75,488.99
             444.75,488.99 439.95,486.76 439.95,486.76
             439.95,486.76 439.13,486.42 439.13,486.42
             439.13,486.42 437.70,485.57 437.70,485.57
             437.70,485.57 434.64,483.94 434.64,483.94
             434.64,483.94 432.90,482.81 432.90,482.81
             432.90,482.81 431.06,481.83 431.06,481.83
             431.06,481.83 429.73,481.03 429.73,481.03
             429.73,481.03 425.03,478.12 425.03,478.12
             425.03,478.12 423.70,477.07 423.70,477.07
             423.70,477.07 420.95,475.22 420.95,475.22
             420.95,475.22 419.52,474.05 419.52,474.05
             419.52,474.05 416.65,472.03 416.65,472.03
             416.65,472.03 414.92,470.97 414.92,470.97
             414.92,470.97 410.52,467.79 410.52,467.79
             410.52,467.79 409.30,467.07 409.30,467.07
             409.30,467.07 407.05,465.45 407.05,465.45
             407.05,465.45 405.93,464.73 405.93,464.73
             405.93,464.73 404.80,464.13 404.80,464.13
             404.80,464.13 402.35,462.29 402.35,462.29
             402.35,462.29 399.18,459.94 399.18,459.94
             399.18,459.94 397.24,458.19 397.24,458.19
             397.24,458.19 395.71,457.03 395.71,457.03
             395.71,457.03 394.78,455.93 394.78,455.93
             394.78,455.93 392.65,453.87 392.65,453.87
             392.65,453.87 390.88,451.83 390.88,451.83
             390.88,451.83 389.80,450.71 389.80,450.71
             389.80,450.71 388.20,448.68 388.20,448.68
             388.20,448.68 387.23,447.75 387.23,447.75
             387.23,447.75 385.49,445.81 385.49,445.81
             384.43,444.80 382.98,443.68 381.81,442.78
             381.81,442.78 379.36,440.95 379.36,440.95
             378.87,440.65 377.66,440.08 377.11,439.89
             377.11,439.89 375.99,439.53 375.99,439.53
             375.99,439.53 374.66,438.97 374.66,438.97
             374.66,438.97 373.33,438.58 373.33,438.58
             373.33,438.58 371.59,438.01 371.59,438.01
             369.82,437.59 368.19,437.51 366.38,437.53
             365.62,437.54 363.52,437.90 362.81,438.15
             362.81,438.15 360.87,439.03 360.87,439.03
             360.87,439.03 358.82,439.92 358.82,439.92
             358.23,440.25 357.44,440.95 356.88,441.39
             356.88,441.39 354.66,443.18 354.66,443.18
             354.66,443.18 352.74,445.29 352.74,445.29
             352.74,445.29 351.55,446.83 351.55,446.83
             351.55,446.83 349.43,448.87 349.43,448.87
             349.43,448.87 347.16,451.52 347.16,451.52
             344.68,454.26 342.52,455.92 339.61,458.10
             339.61,458.10 336.24,460.53 336.24,460.53
             336.24,460.53 335.22,461.28 335.22,461.28
             333.94,462.11 332.60,462.74 331.24,463.40
             331.24,463.40 329.50,464.25 329.50,464.25
             329.50,464.25 327.86,464.85 327.86,464.85
             327.86,464.85 326.13,465.58 326.13,465.58
             324.72,466.06 321.47,466.65 320.00,466.73
             320.00,466.73 318.67,466.64 318.67,466.64
             318.67,466.64 316.93,466.64 316.93,466.64
             316.93,466.64 312.84,466.23 312.84,466.23
             312.84,466.23 311.00,465.71 311.00,465.71
             309.56,465.33 308.19,465.00 306.82,464.39
             306.82,464.39 305.69,463.81 305.69,463.81
             305.69,463.81 304.36,463.22 304.36,463.22
             303.72,462.86 302.46,461.82 301.81,461.32
             301.81,461.32 299.36,459.53 299.36,459.53
             299.36,459.53 297.43,457.84 297.43,457.84
             297.43,457.84 296.80,457.16 296.80,457.16
             296.80,457.16 295.40,455.89 295.40,455.89
             295.40,455.89 292.91,453.06 292.91,453.06
             292.91,453.06 291.45,451.42 291.45,451.42
             291.45,451.42 289.82,448.56 289.82,448.56
             289.82,448.56 289.40,447.54 289.40,447.54
             289.40,447.54 288.84,446.52 288.84,446.52
             288.84,446.52 287.96,444.37 287.96,444.37
             287.96,444.37 287.55,442.94 287.55,442.94
             287.55,442.94 286.62,440.80 286.62,440.80
             286.62,440.80 285.08,435.28 285.08,435.28
             285.08,435.28 284.69,433.85 284.69,433.85
             284.69,433.85 284.29,431.20 284.29,431.20
             284.29,431.20 283.76,428.44 283.76,428.44
             283.76,428.44 283.93,426.19 283.93,426.19
             283.93,426.19 283.83,424.46 283.83,424.46
             283.83,424.46 284.10,422.42 284.10,422.42
             284.10,422.42 284.41,420.07 284.41,420.07
             284.74,418.77 285.18,418.54 285.51,417.61
             285.51,417.61 286.17,415.78 286.17,415.78
             286.17,415.78 286.64,414.86 286.64,414.86
             286.64,414.86 288.85,409.55 288.85,409.55
             288.85,409.55 290.09,406.69 290.09,406.69
             290.92,404.87 292.08,402.76 293.15,401.07
             293.15,401.07 295.24,398.00 295.24,398.00
             295.24,398.00 296.17,396.88 296.17,396.88
             296.17,396.88 296.74,395.96 296.74,395.96
             296.74,395.96 298.60,393.41 298.60,393.41
             298.60,393.41 299.51,392.08 299.51,392.08
             299.51,392.08 303.82,386.97 303.82,386.97
             303.82,386.97 306.42,384.01 306.42,384.01
             306.42,384.01 308.64,381.96 308.64,381.96
             308.64,381.96 310.39,380.03 310.39,380.03
             310.39,380.03 311.31,379.20 311.31,379.20
             311.31,379.20 315.30,375.55 315.30,375.55
             315.30,375.55 316.22,374.80 316.22,374.80
             316.22,374.80 317.65,373.39 317.65,373.39
             317.65,373.39 318.97,372.24 318.97,372.24
             318.97,372.24 319.79,371.51 319.79,371.51
             320.28,371.15 320.83,370.95 320.99,370.83
             321.29,370.61 321.29,370.41 321.50,370.19
             321.50,370.19 322.23,369.61 322.23,369.61
             322.23,369.61 323.98,367.80 323.98,367.80
             323.98,367.80 327.35,365.11 327.35,365.11
             327.35,365.11 329.40,363.82 329.40,363.82
             329.40,363.82 330.41,363.11 330.41,363.11
             330.41,363.11 331.14,362.47 331.14,362.47
             331.14,362.47 333.99,360.83 333.99,360.83
             333.99,360.83 333.89,360.52 333.89,360.52
             334.41,360.47 334.38,360.36 334.81,360.17 Z
           M 335.94,359.29
           C 335.94,359.29 335.63,359.60 335.63,359.60
             335.63,359.60 335.73,359.19 335.73,359.19
             335.73,359.19 335.94,359.29 335.94,359.29 Z
           M 590.97,431.75
           C 590.97,431.75 591.99,432.06 591.99,432.06
             591.99,432.06 592.70,432.17 592.70,432.17
             592.70,432.17 593.73,432.61 593.73,432.61
             593.73,432.61 597.92,433.86 597.92,433.86
             597.92,433.86 598.94,434.28 598.94,434.28
             598.94,434.28 599.86,434.60 599.86,434.60
             599.86,434.60 603.02,436.18 603.02,436.18
             603.02,436.18 605.17,437.11 605.17,437.11
             605.17,437.11 608.44,439.04 608.44,439.04
             608.44,439.04 611.40,440.81 611.40,440.81
             611.40,440.81 612.94,441.85 612.94,441.85
             612.94,441.85 613.96,442.49 613.96,442.49
             613.96,442.49 615.80,443.94 615.80,443.94
             615.80,443.94 618.56,446.14 618.56,446.14
             618.56,446.14 624.38,451.04 624.38,451.04
             624.38,451.04 627.34,453.60 627.34,453.60
             627.34,453.60 629.69,455.38 629.69,455.38
             629.69,455.38 632.76,457.30 632.76,457.30
             632.76,457.30 634.29,458.17 634.29,458.17
             635.21,458.74 635.81,459.47 636.85,460.02
             636.85,460.02 640.63,461.79 640.63,461.79
             640.63,461.79 641.65,462.14 641.65,462.14
             641.65,462.14 643.18,462.82 643.18,462.82
             643.18,462.82 645.02,463.44 645.02,463.44
             645.02,463.44 647.06,464.19 647.06,464.19
             647.06,464.19 649.21,464.80 649.21,464.80
             649.21,464.80 653.70,466.26 653.70,466.26
             653.70,466.26 654.93,466.44 654.93,466.44
             654.93,466.44 659.12,467.15 659.12,467.15
             659.12,467.15 661.16,467.15 661.16,467.15
             661.82,467.14 662.18,467.02 662.80,466.89
             662.80,466.89 664.13,466.57 664.13,466.57
             665.61,466.04 667.67,464.54 668.71,463.37
             668.71,463.37 669.69,462.04 669.69,462.04
             669.69,462.04 670.60,460.72 670.60,460.72
             670.78,460.37 671.21,459.00 671.32,458.57
             671.58,457.55 671.62,456.36 671.70,455.30
             671.70,455.30 671.89,453.67 671.89,453.67
             671.89,453.67 671.89,451.93 671.89,451.93
             671.89,451.93 671.50,448.56 671.50,448.56
             671.50,448.56 671.03,445.40 671.03,445.40
             671.03,445.40 670.35,442.54 670.35,442.54
             670.35,442.54 669.91,440.60 669.91,440.60
             669.91,440.60 668.73,436.92 668.73,436.92
             668.73,436.92 668.00,434.37 668.00,434.37
             668.00,434.37 667.33,432.63 667.33,432.63
             667.33,432.63 666.07,428.85 666.07,428.85
             666.07,428.85 664.87,426.50 664.87,426.50
             664.87,426.50 663.64,423.54 663.64,423.54
             663.64,423.54 662.63,421.80 662.63,421.80
             662.63,421.80 661.89,420.37 661.89,420.37
             661.89,420.37 660.29,417.82 660.29,417.82
             660.29,417.82 659.52,416.49 659.52,416.49
             659.52,416.49 657.93,414.24 657.93,414.24
             657.93,414.24 655.85,411.28 655.85,411.28
             655.85,411.28 654.64,409.55 654.64,409.55
             654.64,409.55 653.22,407.91 653.22,407.91
             653.22,407.91 650.74,405.05 650.74,405.05
             650.74,405.05 649.11,403.52 649.11,403.52
             649.11,403.52 647.27,401.58 647.27,401.58
             647.27,401.58 645.12,399.71 645.12,399.71
             645.12,399.71 644.00,398.63 644.00,398.63
             644.00,398.63 642.67,397.55 642.67,397.55
             642.67,397.55 637.05,392.94 637.05,392.94
             637.05,392.94 633.17,390.34 633.17,390.34
             633.17,390.34 630.41,388.54 630.41,388.54
             630.41,388.54 629.18,387.97 629.18,387.97
             629.18,387.97 625.71,386.22 625.71,386.22
             625.71,386.22 624.58,385.48 624.58,385.48
             624.58,385.48 620.91,383.53 620.91,383.53
             620.91,383.53 619.27,382.81 619.27,382.81
             619.27,382.81 618.04,382.11 618.04,382.11
             618.04,382.11 616.51,381.47 616.51,381.47
             616.51,381.47 615.08,380.79 615.08,380.79
             615.08,380.79 613.24,380.16 613.24,380.16
             613.24,380.16 610.79,379.18 610.79,379.18
             610.79,379.18 608.03,378.36 608.03,378.36
             608.03,378.36 605.68,377.45 605.68,377.45
             605.68,377.45 602.82,376.77 602.82,376.77
             602.82,376.77 599.45,375.82 599.45,375.82
             599.45,375.82 597.81,375.61 597.81,375.61
             597.81,375.61 595.67,375.33 595.67,375.33
             595.67,375.33 592.70,375.13 592.70,375.13
             592.70,375.13 590.87,375.13 590.87,375.13
             590.87,375.13 589.33,375.23 589.33,375.23
             589.33,375.23 584.74,375.23 584.74,375.23
             584.74,375.23 582.79,375.42 582.79,375.42
             582.79,375.42 579.93,375.67 579.93,375.67
             579.93,375.67 576.05,376.30 576.05,376.30
             576.05,376.30 574.52,376.50 574.52,376.50
             574.52,376.50 571.15,377.28 571.15,377.28
             571.15,377.28 569.51,377.70 569.51,377.70
             569.51,377.70 563.69,379.90 563.69,379.90
             563.69,379.90 560.83,380.76 560.83,380.76
             560.83,380.76 559.29,381.54 559.29,381.54
             559.29,381.54 554.39,384.05 554.39,384.05
             554.39,384.05 552.86,384.83 552.86,384.83
             552.86,384.83 551.63,385.37 551.63,385.37
             551.63,385.37 549.89,386.48 549.89,386.48
             549.89,386.48 547.54,387.72 547.54,387.72
             547.54,387.72 546.42,388.51 546.42,388.51
             546.42,388.51 543.76,389.98 543.76,389.98
             543.76,389.98 541.11,391.67 541.11,391.67
             541.11,391.67 537.84,393.52 537.84,393.52
             537.84,393.52 534.26,396.02 534.26,396.02
             534.26,396.02 532.83,396.96 532.83,396.96
             532.83,396.96 531.50,398.06 531.50,398.06
             531.50,398.06 529.46,399.73 529.46,399.73
             529.46,399.73 526.70,401.83 526.70,401.83
             526.70,401.83 524.25,403.99 524.25,403.99
             524.25,403.99 522.92,405.00 522.92,405.00
             522.92,405.00 520.36,407.15 520.36,407.15
             520.36,407.15 517.30,409.59 517.30,409.59
             517.30,409.59 516.07,410.67 516.07,410.67
             516.07,410.67 514.54,412.17 514.54,412.17
             514.54,412.17 512.39,413.78 512.39,413.78
             512.39,413.78 509.84,416.07 509.84,416.07
             509.84,416.07 507.80,417.73 507.80,417.73
             507.80,417.73 504.94,420.45 504.94,420.45
             504.94,420.45 502.48,422.46 502.48,422.46
             502.48,422.46 500.54,424.17 500.54,424.17
             500.54,424.17 498.60,425.65 498.60,425.65
             498.60,425.65 496.56,426.99 496.56,426.99
             496.56,426.99 495.43,427.88 495.43,427.88
             495.43,427.88 494.00,428.90 494.00,428.90
             494.00,428.90 492.98,429.66 492.98,429.66
             492.98,429.66 491.45,430.41 491.45,430.41
             491.45,430.41 489.92,431.27 489.92,431.27
             489.92,431.27 487.05,432.55 487.05,432.55
             487.05,432.55 485.42,433.44 485.42,433.44
             483.58,434.26 481.62,434.79 479.70,435.39
             479.70,435.39 477.65,436.05 477.65,436.05
             477.65,436.05 472.85,436.71 472.85,436.71
             472.85,436.71 471.42,436.71 471.42,436.71
             471.42,436.71 469.79,436.82 469.79,436.82
             469.79,436.82 466.52,436.82 466.52,436.82
             464.88,436.81 461.85,436.23 460.28,435.72
             460.28,435.72 459.16,435.24 459.16,435.24
             459.16,435.24 457.12,434.60 457.12,434.60
             457.12,434.60 453.13,432.90 453.13,432.90
             453.13,432.90 449.15,430.62 449.15,430.62
             449.15,430.62 447.00,429.39 447.00,429.39
             447.00,429.39 445.67,428.70 445.67,428.70
             445.67,428.70 444.55,427.99 444.55,427.99
             444.55,427.99 443.53,427.43 443.53,427.43
             443.53,427.43 442.51,426.68 442.51,426.68
             442.51,426.68 439.75,424.94 439.75,424.94
             439.75,424.94 438.83,424.45 438.83,424.45
             438.83,424.45 437.91,423.80 437.91,423.80
             437.91,423.80 435.66,422.36 435.66,422.36
             435.66,422.36 431.06,418.46 431.06,418.46
             431.06,418.46 427.79,415.75 427.79,415.75
             427.79,415.75 426.87,414.87 426.87,414.87
             426.87,414.87 425.37,413.51 425.37,413.51
             425.37,413.51 423.38,411.28 423.38,411.28
             423.38,411.28 421.78,409.55 421.78,409.55
             421.78,409.55 420.94,408.52 420.94,408.52
             420.94,408.52 419.43,406.99 419.43,406.99
             419.43,406.99 418.08,405.36 418.08,405.36
             418.08,405.36 416.11,403.42 416.11,403.42
             416.11,403.42 415.30,402.29 415.30,402.29
             415.30,402.29 413.63,400.15 413.63,400.15
             413.63,400.15 412.64,398.72 412.64,398.72
             412.64,398.72 411.80,397.80 411.80,397.80
             411.80,397.80 409.79,395.35 409.79,395.35
             409.79,395.35 408.49,394.02 408.49,394.02
             408.49,394.02 407.13,392.39 407.13,392.39
             407.13,392.39 406.16,391.37 406.16,391.37
             406.16,391.37 402.82,387.48 402.82,387.48
             402.82,387.48 402.08,386.39 402.08,386.39
             401.84,386.12 401.47,385.93 401.16,385.54
             401.16,385.54 400.82,385.00 400.82,385.00
             400.63,384.77 400.30,384.76 399.84,384.29
             399.84,384.29 399.05,383.33 399.05,383.33
             399.05,383.33 397.51,381.86 397.51,381.86
             397.51,381.86 396.70,380.85 396.70,380.85
             396.70,380.85 395.30,379.42 395.30,379.42
             395.30,379.42 392.13,376.86 392.13,376.86
             392.13,376.86 389.48,374.77 389.48,374.77
             389.48,374.77 385.59,372.40 385.59,372.40
             385.59,372.40 384.26,371.83 384.26,371.83
             384.26,371.83 383.45,371.39 383.45,371.39
             383.45,371.39 382.74,371.11 382.74,371.11
             382.74,371.11 382.20,370.82 382.20,370.82
             382.20,370.82 379.97,370.35 379.97,370.35
             379.97,370.35 377.93,369.92 377.93,369.92
             377.93,369.92 376.91,369.92 376.91,369.92
             376.91,369.92 375.58,369.72 375.58,369.72
             375.58,369.72 373.33,369.72 373.33,369.72
             373.33,369.72 369.76,369.41 369.76,369.41
             369.76,369.41 368.43,369.32 368.43,369.32
             368.43,369.32 367.30,369.51 367.30,369.51
             367.30,369.51 366.28,369.51 366.28,369.51
             364.64,369.74 363.14,370.34 361.58,370.83
             361.58,370.83 360.25,371.20 360.25,371.20
             360.25,371.20 358.72,371.87 358.72,371.87
             358.72,371.87 357.70,372.21 357.70,372.21
             357.70,372.21 356.37,372.81 356.37,372.81
             356.37,372.81 352.79,374.79 352.79,374.79
             352.79,374.79 349.52,376.28 349.52,376.28
             349.52,376.28 347.99,377.07 347.99,377.07
             347.99,377.07 346.66,377.70 346.66,377.70
             346.66,377.70 340.94,381.16 340.94,381.16
             340.94,381.16 338.39,383.15 338.39,383.15
             338.39,383.15 335.53,385.05 335.53,385.05
             335.53,385.05 333.18,386.91 333.18,386.91
             333.18,386.91 330.01,389.35 330.01,389.35
             330.01,389.35 327.35,391.76 327.35,391.76
             327.35,391.76 323.57,395.23 323.57,395.23
             323.57,395.23 321.24,397.39 321.24,397.39
             321.24,397.39 319.95,399.03 319.95,399.03
             319.95,399.03 318.21,401.27 318.21,401.27
             318.21,401.27 316.88,402.81 316.88,402.81
             316.88,402.81 316.04,404.03 316.04,404.03
             316.04,404.03 315.37,404.85 315.37,404.85
             315.37,404.85 312.67,408.52 312.67,408.52
             312.67,408.52 310.87,410.87 310.87,410.87
             310.55,411.34 310.29,411.62 310.39,412.20
             309.65,412.38 308.95,414.28 308.65,414.96
             308.65,414.96 306.77,419.25 306.77,419.25
             306.32,420.62 306.08,422.03 305.81,423.44
             305.81,423.44 305.39,425.68 305.39,425.68
             305.39,425.68 305.39,426.71 305.39,426.71
             305.39,426.71 305.28,428.03 305.28,428.03
             305.28,428.03 305.38,428.95 305.38,428.95
             305.38,428.95 305.52,430.79 305.52,430.79
             305.52,430.79 306.79,435.49 306.79,435.49
             306.95,435.92 307.07,435.98 307.23,436.31
             307.23,436.31 307.52,437.12 307.52,437.12
             307.52,437.12 308.00,438.04 308.00,438.04
             308.00,438.04 308.58,439.88 308.58,439.88
             309.08,441.00 310.26,442.58 311.11,443.46
             312.22,444.60 313.04,444.91 314.38,445.63
             314.38,445.63 316.52,446.78 316.52,446.78
             317.91,447.34 320.54,447.76 322.04,447.74
             322.67,447.74 322.79,447.66 323.37,447.57
             323.37,447.57 325.31,447.24 325.31,447.24
             326.09,447.02 328.79,445.74 329.50,445.29
             329.50,445.29 331.75,443.52 331.75,443.52
             331.75,443.52 334.40,441.57 334.40,441.57
             334.40,441.57 339.00,437.33 339.00,437.33
             339.00,437.33 341.35,435.08 341.35,435.08
             341.35,435.08 344.72,431.62 344.72,431.62
             344.72,431.62 347.69,429.03 347.69,429.03
             347.69,429.03 348.81,427.98 348.81,427.98
             348.81,427.98 350.34,426.85 350.34,426.85
             352.35,425.25 355.27,423.21 357.60,422.14
             358.75,421.61 362.54,420.54 363.83,420.30
             363.83,420.30 367.61,419.87 367.61,419.87
             367.61,419.87 368.94,419.96 368.94,419.96
             368.94,419.96 370.27,419.96 370.27,419.96
             370.27,419.96 371.90,420.31 371.90,420.31
             371.90,420.31 372.82,420.40 372.82,420.40
             372.82,420.40 374.15,420.64 374.15,420.64
             374.15,420.64 376.30,420.91 376.30,420.91
             377.49,421.10 379.05,421.59 380.18,422.05
             381.58,422.63 382.86,423.49 384.16,424.25
             384.16,424.25 386.41,425.54 386.41,425.54
             386.41,425.54 391.52,429.40 391.52,429.40
             391.52,429.40 394.58,432.20 394.58,432.20
             394.58,432.20 395.71,433.15 395.71,433.15
             395.71,433.15 398.06,435.59 398.06,435.59
             398.06,435.59 400.61,437.86 400.61,437.86
             400.61,437.86 401.84,439.05 401.84,439.05
             401.84,439.05 405.52,442.16 405.52,442.16
             405.52,442.16 412.26,447.80 412.26,447.80
             412.26,447.80 413.90,449.00 413.90,449.00
             413.90,449.00 417.17,452.11 417.17,452.11
             417.17,452.11 418.60,453.29 418.60,453.29
             418.60,453.29 422.07,456.28 422.07,456.28
             422.07,456.28 423.70,457.48 423.70,457.48
             423.70,457.48 424.62,458.34 424.62,458.34
             424.62,458.34 427.28,460.56 427.28,460.56
             427.28,460.56 429.22,462.23 429.22,462.23
             429.22,462.23 432.49,464.53 432.49,464.53
             432.49,464.53 433.59,465.09 433.59,465.09
             433.59,465.09 434.23,465.75 434.23,465.75
             434.23,465.75 436.68,467.51 436.68,467.51
             436.68,467.51 437.81,468.54 437.81,468.54
             437.81,468.54 441.07,470.84 441.07,470.84
             441.07,470.84 443.63,472.76 443.63,472.76
             444.76,473.45 445.01,472.97 445.67,473.35
             445.67,473.35 447.41,474.61 447.41,474.61
             449.59,475.94 450.94,476.60 453.34,477.47
             453.34,477.47 455.07,478.09 455.07,478.09
             455.07,478.09 457.63,478.55 457.63,478.55
             458.89,478.79 461.10,479.20 462.33,479.20
             462.33,479.20 465.60,479.20 465.60,479.20
             465.60,479.20 466.82,479.11 466.82,479.11
             466.82,479.11 468.05,479.11 468.05,479.11
             468.05,479.11 470.71,478.83 470.71,478.83
             470.71,478.83 472.03,478.54 472.03,478.54
             472.03,478.54 474.28,478.24 474.28,478.24
             474.28,478.24 476.73,477.66 476.73,477.66
             476.73,477.66 478.47,477.39 478.47,477.39
             478.47,477.39 480.11,476.90 480.11,476.90
             480.11,476.90 482.25,476.31 482.25,476.31
             482.25,476.31 484.30,475.56 484.30,475.56
             484.30,475.56 486.54,474.95 486.54,474.95
             486.54,474.95 490.94,472.70 490.94,472.70
             490.94,472.70 492.88,471.72 492.88,471.72
             492.88,471.72 495.33,470.30 495.33,470.30
             495.33,470.30 497.07,469.35 497.07,469.35
             497.07,469.35 499.21,467.90 499.21,467.90
             499.21,467.90 501.05,466.77 501.05,466.77
             501.05,466.77 503.19,465.28 503.19,465.28
             503.71,464.91 503.66,464.72 504.12,464.43
             504.12,464.43 505.34,463.75 505.34,463.75
             505.34,463.75 507.49,462.31 507.49,462.31
             507.49,462.31 508.61,461.49 508.61,461.49
             508.61,461.49 509.64,460.93 509.64,460.93
             509.64,460.93 512.91,458.72 512.91,458.72
             512.91,458.72 517.61,456.05 517.61,456.05
             517.61,456.05 527.72,449.35 527.72,449.35
             527.72,449.35 529.66,448.30 529.66,448.30
             529.66,448.30 534.36,445.27 534.36,445.27
             534.36,445.27 535.49,444.75 535.49,444.75
             535.49,444.75 537.02,443.91 537.02,443.91
             537.02,443.91 537.84,443.51 537.84,443.51
             537.84,443.51 539.16,442.65 539.16,442.65
             539.16,442.65 540.29,442.04 540.29,442.04
             540.29,442.04 541.72,441.15 541.72,441.15
             541.72,441.15 545.91,438.78 545.91,438.78
             545.91,438.78 547.54,437.58 547.54,437.58
             547.54,437.58 550.30,436.17 550.30,436.17
             550.30,436.17 552.04,435.21 552.04,435.21
             552.04,435.21 554.39,434.30 554.39,434.30
             554.39,434.30 558.88,432.58 558.88,432.58
             558.88,432.58 559.91,432.30 559.91,432.30
             559.91,432.30 561.13,431.90 561.13,431.90
             561.13,431.90 563.07,431.48 563.07,431.48
             563.07,431.48 564.20,431.15 564.20,431.15
             564.20,431.15 565.12,431.03 565.12,431.03
             565.12,431.03 570.02,430.28 570.02,430.28
             570.02,430.28 571.04,430.28 571.04,430.28
             571.04,430.28 573.29,430.15 573.29,430.15
             573.29,430.15 578.40,430.15 578.40,430.15
             578.40,430.15 581.47,430.48 581.47,430.48
             582.22,430.49 582.97,430.55 583.71,430.69
             583.71,430.69 583.82,430.38 583.82,430.38
             583.82,430.38 584.02,430.38 584.02,430.38
             584.42,430.91 584.53,430.48 585.14,430.73
             586.15,431.14 587.53,431.44 588.62,431.36
             588.94,431.34 589.31,431.48 589.54,431.30
             590.28,431.86 590.23,431.60 590.97,431.75 Z
           M 593.32,372.67
           C 593.32,372.67 593.32,372.98 593.32,372.98
             593.32,372.98 593.73,372.98 593.73,372.98
             593.73,372.98 593.73,372.67 593.73,372.67
             593.73,372.67 593.32,372.67 593.32,372.67 Z
           M 593.93,372.67
           C 593.93,372.67 594.03,373.08 594.03,373.08
             594.03,373.08 594.24,373.08 594.24,373.08
             594.24,373.08 594.44,372.67 594.44,372.67
             594.44,372.67 593.93,372.67 593.93,372.67 Z
           M 287.20,413.12
           C 287.20,413.12 287.09,413.22 287.09,413.22
             287.09,413.22 287.09,413.12 287.09,413.12
             287.09,413.12 287.20,413.12 287.20,413.12 Z
           M 503.81,563.81
           C 504.17,563.66 504.38,563.70 504.69,563.43
             504.69,563.43 505.34,562.76 505.34,562.76
             505.34,562.76 507.08,561.35 507.08,561.35
             507.41,561.12 507.51,561.17 507.71,561.03
             507.71,561.03 508.51,560.27 508.51,560.27
             509.13,559.75 509.88,559.21 510.56,558.76
             510.56,558.76 512.60,557.62 512.60,557.62
             512.60,557.62 516.99,554.30 516.99,554.30
             516.99,554.30 518.12,553.60 518.12,553.60
             518.12,553.60 520.47,551.87 520.47,551.87
             520.47,551.87 522.00,550.81 522.00,550.81
             522.00,550.81 523.74,549.35 523.74,549.35
             523.74,549.35 526.60,547.28 526.60,547.28
             526.60,547.28 528.74,545.42 528.74,545.42
             528.74,545.42 529.97,544.44 529.97,544.44
             529.97,544.44 531.30,543.34 531.30,543.34
             532.05,542.64 532.33,542.24 533.24,541.61
             533.24,541.61 536.81,539.34 536.81,539.34
             536.81,539.34 538.04,538.58 538.04,538.58
             538.04,538.58 539.27,537.95 539.27,537.95
             539.27,537.95 540.80,537.04 540.80,537.04
             540.80,537.04 542.13,536.35 542.13,536.35
             542.13,536.35 543.35,535.49 543.35,535.49
             543.35,535.49 544.68,534.78 544.68,534.78
             544.68,534.78 546.21,533.83 546.21,533.83
             546.21,533.83 548.05,532.97 548.05,532.97
             548.05,532.97 550.91,531.27 550.91,531.27
             550.91,531.27 552.04,530.50 552.04,530.50
             552.04,530.50 553.88,529.63 553.88,529.63
             553.88,529.63 556.23,528.47 556.23,528.47
             556.23,528.47 557.35,528.04 557.35,528.04
             557.35,528.04 558.27,527.56 558.27,527.56
             558.27,527.56 560.11,527.05 560.11,527.05
             560.11,527.05 561.54,526.55 561.54,526.55
             561.54,526.55 562.77,526.04 562.77,526.04
             562.77,526.04 563.99,525.76 563.99,525.76
             563.99,525.76 567.37,524.78 567.37,524.78
             567.37,524.78 569.20,524.15 569.20,524.15
             569.20,524.15 570.53,523.88 570.53,523.88
             570.53,523.88 571.55,523.51 571.55,523.51
             571.55,523.51 576.87,522.22 576.87,522.22
             578.81,521.84 579.40,521.61 581.47,521.59
             581.47,521.59 582.49,521.49 582.49,521.49
             582.49,521.49 584.02,521.49 584.02,521.49
             584.02,521.49 586.27,521.30 586.27,521.30
             586.27,521.30 587.80,521.41 587.80,521.41
             587.80,521.41 588.72,521.41 588.72,521.41
             588.72,521.41 589.54,521.48 589.54,521.48
             589.54,521.48 595.16,522.02 595.16,522.02
             595.16,522.02 596.18,522.26 596.18,522.26
             596.18,522.26 598.43,522.54 598.43,522.54
             598.43,522.54 599.35,522.78 599.35,522.78
             599.35,522.78 600.57,522.84 600.57,522.84
             600.57,522.84 605.99,523.78 605.99,523.78
             605.99,523.78 608.64,524.69 608.64,524.69
             608.64,524.69 611.71,525.67 611.71,525.67
             611.71,525.67 614.78,526.62 614.78,526.62
             614.78,526.62 616.51,527.11 616.51,527.11
             616.51,527.11 618.35,527.82 618.35,527.82
             618.35,527.82 619.99,528.38 619.99,528.38
             619.99,528.38 620.80,528.75 620.80,528.75
             620.80,528.75 621.93,529.12 621.93,529.12
             621.93,529.12 623.87,529.91 623.87,529.91
             623.87,529.91 624.89,530.42 624.89,530.42
             624.89,530.42 625.81,530.77 625.81,530.77
             625.81,530.77 627.65,531.61 627.65,531.61
             627.65,531.61 628.47,531.92 628.47,531.92
             629.00,532.17 629.17,532.48 629.69,532.73
             629.69,532.73 631.23,533.36 631.23,533.36
             631.23,533.36 636.13,535.82 636.13,535.82
             636.13,535.82 637.97,536.92 637.97,536.92
             637.97,536.92 638.99,537.46 638.99,537.46
             638.99,537.46 639.81,538.05 639.81,538.05
             639.81,538.05 640.83,538.55 640.83,538.55
             640.83,538.55 645.22,541.78 645.22,541.78
             645.22,541.78 646.65,542.62 646.65,542.62
             646.65,542.62 647.78,543.44 647.78,543.44
             647.78,543.44 649.31,544.35 649.31,544.35
             649.31,544.35 650.23,545.03 650.23,545.03
             650.23,545.03 650.92,545.46 650.92,545.46
             650.92,545.46 651.46,545.92 651.46,545.92
             651.46,545.92 652.38,546.50 652.38,546.50
             652.38,546.50 654.42,548.24 654.42,548.24
             654.42,548.24 657.38,550.63 657.38,550.63
             657.38,550.63 659.22,552.32 659.22,552.32
             659.22,552.32 661.16,553.98 661.16,553.98
             661.16,553.98 662.59,555.38 662.59,555.38
             662.59,555.38 663.39,556.04 663.39,556.04
             663.39,556.04 664.05,556.83 664.05,556.83
             664.05,556.83 665.76,558.66 665.76,558.66
             667.51,560.38 669.37,561.99 670.94,563.87
             670.94,563.87 672.86,566.53 672.86,566.53
             672.86,566.53 674.76,568.98 674.76,568.98
             674.76,568.98 675.46,570.41 675.46,570.41
             675.46,570.41 676.24,571.43 676.24,571.43
             676.24,571.43 678.12,574.70 678.12,574.70
             678.12,574.70 679.15,576.34 679.15,576.34
             679.15,576.34 679.75,577.87 679.75,577.87
             679.75,577.87 680.28,578.89 680.28,578.89
             680.28,578.89 681.12,581.03 681.12,581.03
             681.12,581.03 681.52,582.46 681.52,582.46
             681.52,582.46 682.16,583.89 682.16,583.89
             682.16,583.89 682.74,585.73 682.74,585.73
             682.74,585.73 683.15,586.86 683.15,586.86
             683.15,586.86 683.49,588.29 683.49,588.29
             683.49,588.29 683.88,589.72 683.88,589.72
             683.88,589.72 684.22,591.35 684.22,591.35
             684.22,591.35 684.80,593.70 684.80,593.70
             684.80,593.70 685.02,595.13 685.02,595.13
             685.02,595.13 685.33,596.56 685.33,596.56
             685.33,596.56 685.52,598.29 685.52,598.29
             685.52,598.29 686.06,601.46 686.06,601.46
             686.06,601.46 686.21,603.10 686.21,603.10
             686.21,603.10 686.40,604.22 686.40,604.22
             686.40,604.22 686.40,605.04 686.40,605.04
             686.40,605.04 686.61,607.69 686.61,607.69
             686.61,607.69 686.61,609.33 686.61,609.33
             686.61,609.33 686.69,610.55 686.69,610.55
             686.69,610.55 686.62,611.06 686.62,611.06
             686.62,611.06 686.70,612.08 686.70,612.08
             686.70,612.08 686.61,612.90 686.61,612.90
             686.61,612.90 686.61,614.33 686.61,614.33
             686.61,614.33 686.40,616.99 686.40,616.99
             686.40,616.99 686.40,618.31 686.40,618.31
             686.40,618.31 686.05,621.48 686.05,621.48
             685.93,622.12 685.80,622.42 685.79,623.11
             685.79,623.11 685.79,623.73 685.79,623.73
             685.77,625.10 685.06,627.52 684.73,628.94
             684.73,628.94 684.00,632.00 684.00,632.00
             684.00,632.00 682.28,636.39 682.28,636.39
             682.28,636.39 681.55,637.82 681.55,637.82
             681.55,637.82 681.00,639.15 681.00,639.15
             681.00,639.15 679.52,642.21 679.52,642.21
             679.52,642.21 677.38,645.48 677.38,645.48
             677.18,645.77 676.82,646.29 676.69,646.61
             676.58,646.90 676.60,647.14 676.41,647.42
             676.41,647.42 675.17,648.65 675.17,648.65
             674.14,649.75 673.51,650.65 672.20,651.53
             670.61,652.60 668.78,653.26 666.99,653.89
             666.99,653.89 664.94,654.62 664.94,654.62
             664.94,654.62 662.29,655.09 662.29,655.09
             662.29,655.09 661.47,655.09 661.47,655.09
             661.47,655.09 660.14,655.36 660.14,655.36
             660.14,655.36 658.61,655.51 658.61,655.51
             658.32,655.54 658.20,655.58 657.89,655.56
             657.89,655.56 655.85,655.38 655.85,655.38
             655.85,655.38 654.62,655.38 654.62,655.38
             654.62,655.38 653.40,655.29 653.40,655.29
             651.51,655.28 649.08,655.30 647.27,654.76
             646.36,654.48 643.42,653.34 642.67,652.90
             642.67,652.90 641.44,652.01 641.44,652.01
             641.44,652.01 639.60,650.66 639.60,650.66
             639.60,650.66 637.36,648.69 637.36,648.69
             637.36,648.69 634.80,646.59 634.80,646.59
             634.80,646.59 633.96,645.64 633.96,645.64
             633.96,645.64 631.13,643.23 631.13,643.23
             631.13,643.23 630.09,641.91 630.09,641.91
             630.09,641.91 628.06,639.86 628.06,639.86
             628.06,639.86 627.12,638.74 627.12,638.74
             627.12,638.74 626.45,638.11 626.45,638.11
             626.45,638.11 625.49,637.00 625.49,637.00
             625.49,637.00 623.56,635.06 623.56,635.06
             623.56,635.06 622.44,633.84 622.44,633.84
             622.44,633.84 620.20,631.59 620.20,631.59
             620.20,631.59 618.61,629.65 618.61,629.65
             618.61,629.65 617.29,628.31 617.29,628.31
             617.29,628.31 616.21,626.48 616.21,626.48
             615.45,626.40 614.98,625.58 614.67,624.95
             614.48,624.95 614.46,624.99 614.26,624.88
             613.84,624.65 612.82,623.26 612.45,622.81
             611.79,622.01 611.68,622.24 611.38,621.93
             611.38,621.93 610.97,621.38 610.97,621.38
             610.97,621.38 609.85,620.15 609.85,620.15
             609.85,620.15 608.76,619.13 608.76,619.13
             608.76,619.13 607.21,617.39 607.21,617.39
             607.21,617.39 605.69,615.86 605.69,615.86
             605.69,615.86 605.12,615.13 605.12,615.13
             605.12,615.13 604.35,614.60 604.35,614.60
             604.35,614.60 603.02,613.33 603.02,613.33
             603.02,613.33 601.59,612.16 601.59,612.16
             601.59,612.16 600.56,611.14 600.56,611.14
             600.56,611.14 598.53,609.77 598.53,609.77
             596.98,608.73 594.99,607.54 593.22,606.98
             592.49,606.75 591.81,606.75 591.07,606.64
             591.07,606.64 588.82,606.24 588.82,606.24
             588.82,606.24 587.90,606.24 587.90,606.24
             583.73,606.31 580.69,607.75 576.97,609.34
             576.97,609.34 574.93,610.05 574.93,610.05
             574.93,610.05 572.88,610.94 572.88,610.94
             572.88,610.94 566.34,613.57 566.34,613.57
             566.34,613.57 564.40,614.36 564.40,614.36
             564.40,614.36 560.52,616.40 560.52,616.40
             560.52,616.40 557.66,617.81 557.66,617.81
             557.66,617.81 556.02,618.84 556.02,618.84
             556.02,618.84 550.00,622.24 550.00,622.24
             550.00,622.24 547.65,623.89 547.65,623.89
             547.65,623.89 546.74,624.33 546.74,624.33
             546.44,624.53 546.33,624.80 545.70,625.21
             545.70,625.21 541.21,627.97 541.21,627.97
             541.21,627.97 539.68,628.74 539.68,628.74
             539.68,628.74 538.14,629.92 538.14,629.92
             538.14,629.92 535.89,631.44 535.89,631.44
             535.89,631.44 532.63,633.30 532.63,633.30
             532.63,633.30 531.51,633.87 531.51,633.87
             531.08,634.12 531.08,634.37 530.28,634.89
             530.28,634.89 527.31,636.48 527.31,636.48
             527.31,636.48 524.55,638.08 524.55,638.08
             524.55,638.08 520.16,639.90 520.16,639.90
             520.16,639.90 518.73,640.32 518.73,640.32
             518.73,640.32 517.91,640.67 517.91,640.67
             517.91,640.67 517.09,640.93 517.09,640.93
             517.09,640.93 516.17,641.34 516.17,641.34
             516.17,641.34 511.88,642.79 511.88,642.79
             511.88,642.79 510.15,643.46 510.15,643.46
             510.15,643.46 508.31,643.89 508.31,643.89
             508.31,643.89 507.08,644.31 507.08,644.31
             507.08,644.31 505.96,644.54 505.96,644.54
             505.96,644.54 502.48,645.34 502.48,645.34
             502.48,645.34 501.15,645.43 501.15,645.43
             501.15,645.43 499.52,645.99 499.52,645.99
             499.52,645.99 497.17,646.31 497.17,646.31
             497.17,646.31 496.25,646.57 496.25,646.57
             496.25,646.57 493.18,646.81 493.18,646.81
             491.85,646.83 491.18,647.04 489.92,647.19
             489.92,647.19 488.18,647.34 488.18,647.34
             488.18,647.34 486.24,647.61 486.24,647.61
             486.24,647.61 484.50,647.75 484.50,647.75
             484.50,647.75 481.13,648.14 481.13,648.14
             481.13,648.14 479.80,648.07 479.80,648.07
             479.80,648.07 478.17,648.14 478.17,648.14
             478.17,648.14 475.20,648.34 475.20,648.34
             475.20,648.34 473.98,648.24 473.98,648.24
             473.98,648.24 472.75,648.24 472.75,648.24
             472.75,648.24 469.89,647.86 469.89,647.86
             469.89,647.86 467.54,647.71 467.54,647.71
             467.54,647.71 466.41,647.52 466.41,647.52
             466.41,647.52 465.50,647.52 465.50,647.52
             465.50,647.52 464.27,647.24 464.27,647.24
             464.27,647.24 461.31,646.91 461.31,646.91
             461.31,646.91 460.28,646.91 460.28,646.91
             460.28,646.91 457.93,646.53 457.93,646.53
             457.93,646.53 456.81,646.47 456.81,646.47
             456.81,646.47 455.89,646.25 455.89,646.25
             455.89,646.25 455.18,646.14 455.18,646.14
             455.18,646.14 453.64,645.70 453.64,645.70
             453.64,645.70 451.39,645.22 451.39,645.22
             451.39,645.22 449.25,644.90 449.25,644.90
             449.25,644.90 448.43,644.82 448.43,644.82
             448.43,644.82 446.08,644.13 446.08,644.13
             446.08,644.13 439.24,642.30 439.24,642.30
             439.24,642.30 437.29,641.74 437.29,641.74
             437.29,641.74 435.05,641.20 435.05,641.20
             435.05,641.20 431.27,640.15 431.27,640.15
             431.27,640.15 430.04,639.88 430.04,639.88
             430.04,639.88 426.97,638.97 426.97,638.97
             426.97,638.97 425.65,638.49 425.65,638.49
             425.65,638.49 420.33,636.65 420.33,636.65
             420.33,636.65 418.70,635.93 418.70,635.93
             418.70,635.93 417.37,635.49 417.37,635.49
             417.37,635.49 412.77,633.25 412.77,633.25
             412.77,633.25 407.66,630.51 407.66,630.51
             407.66,630.51 406.54,629.90 406.54,629.90
             406.54,629.90 404.70,628.51 404.70,628.51
             402.03,626.51 399.62,624.59 397.36,622.09
             397.36,622.09 394.87,618.93 394.87,618.93
             394.87,618.93 392.73,616.48 392.73,616.48
             392.73,616.48 391.21,614.85 391.21,614.85
             391.21,614.85 388.86,612.69 388.86,612.69
             388.86,612.69 385.49,609.33 385.49,609.33
             385.49,609.33 384.26,608.01 384.26,608.01
             384.26,608.01 382.75,606.57 382.75,606.57
             381.82,605.54 380.95,604.43 379.87,603.54
             379.87,603.54 377.11,601.61 377.11,601.61
             377.11,601.61 375.99,601.04 375.99,601.04
             375.99,601.04 374.86,600.40 374.86,600.40
             374.86,600.40 373.74,599.98 373.74,599.98
             373.36,599.81 373.26,599.70 372.82,599.57
             372.20,599.37 370.26,598.92 369.65,598.91
             369.65,598.91 364.65,598.60 364.65,598.60
             362.93,598.62 360.42,599.28 358.82,599.92
             358.19,600.18 357.85,600.56 357.19,600.77
             356.34,601.03 355.99,600.88 355.35,601.00
             354.68,601.12 354.05,601.41 353.41,601.63
             353.41,601.63 351.67,602.16 351.67,602.16
             351.67,602.16 349.63,603.27 349.63,603.27
             349.63,603.27 348.40,603.84 348.40,603.84
             348.40,603.84 347.17,604.54 347.17,604.54
             347.17,604.54 345.03,605.71 345.03,605.71
             345.03,605.71 343.80,606.37 343.80,606.37
             343.80,606.37 338.39,610.17 338.39,610.17
             338.39,610.17 333.69,613.05 333.69,613.05
             333.69,613.05 331.13,614.55 331.13,614.55
             331.13,614.55 329.29,615.43 329.29,615.43
             329.29,615.43 326.23,616.84 326.23,616.84
             326.23,616.84 324.08,617.50 324.08,617.50
             324.08,617.50 321.94,618.24 321.94,618.24
             321.94,618.24 319.69,618.81 319.69,618.81
             319.69,618.81 317.13,619.59 317.13,619.59
             317.13,619.59 314.99,619.86 314.99,619.86
             313.45,620.07 312.82,620.24 311.21,620.25
             311.21,620.25 309.88,620.36 309.88,620.36
             309.88,620.36 307.94,620.36 307.94,620.36
             307.94,620.36 305.28,620.15 305.28,620.15
             303.34,620.13 303.21,619.98 301.40,619.56
             300.85,619.44 300.27,619.43 299.76,619.18
             299.27,618.93 298.83,618.35 298.33,617.98
             298.33,617.98 296.29,616.70 296.29,616.70
             296.29,616.70 294.35,615.05 294.35,615.05
             292.79,613.93 292.92,613.95 291.59,612.71
             291.59,612.71 290.42,611.67 290.42,611.67
             289.74,610.87 289.44,609.99 288.91,609.22
             288.33,608.38 287.62,607.62 287.19,606.67
             287.19,606.67 286.31,604.01 286.31,604.01
             286.31,604.01 285.60,602.07 285.60,602.07
             285.60,602.07 284.86,599.93 284.86,599.93
             284.86,599.93 283.94,598.09 283.94,598.09
             283.94,598.09 283.67,596.66 283.67,596.66
             283.27,594.83 282.93,592.92 282.91,591.04
             282.91,591.04 282.70,588.90 282.70,588.90
             282.70,588.90 282.80,586.86 282.80,586.86
             282.80,586.86 283.31,581.95 283.31,581.95
             283.33,580.93 283.64,579.88 283.89,578.89
             283.89,578.89 284.33,577.25 284.33,577.25
             284.56,576.74 284.90,576.56 285.21,575.93
             285.21,575.93 286.00,574.09 286.00,574.09
             286.00,574.09 287.87,570.72 287.87,570.72
             287.87,570.72 288.78,569.08 288.78,569.08
             288.78,569.08 289.48,568.06 289.48,568.06
             289.48,568.06 292.47,563.67 292.47,563.67
             292.47,563.67 293.66,561.93 293.66,561.93
             293.66,561.93 295.91,559.18 295.91,559.18
             295.91,559.18 296.76,558.26 296.76,558.26
             296.76,558.26 299.39,554.99 299.39,554.99
             299.39,554.99 300.88,553.46 300.88,553.46
             300.88,553.46 301.71,552.54 301.71,552.54
             301.71,552.54 303.54,550.70 303.54,550.70
             303.54,550.70 307.02,547.14 307.02,547.14
             307.02,547.14 308.65,545.86 308.65,545.86
             308.65,545.86 310.60,544.24 310.60,544.24
             310.60,544.24 311.72,543.19 311.72,543.19
             311.72,543.19 314.68,541.01 314.68,541.01
             314.68,541.01 316.62,539.47 316.62,539.47
             316.62,539.47 321.73,536.17 321.73,536.17
             321.73,536.17 323.16,535.22 323.16,535.22
             323.16,535.22 327.05,532.98 327.05,532.98
             327.05,532.98 329.19,531.51 329.19,531.51
             329.19,531.51 330.83,530.62 330.83,530.62
             330.83,530.62 335.02,528.14 335.02,528.14
             335.02,528.14 337.57,526.93 337.57,526.93
             337.57,526.93 338.90,526.36 338.90,526.36
             338.90,526.36 341.45,525.05 341.45,525.05
             341.45,525.05 346.05,523.33 346.05,523.33
             346.05,523.33 347.69,522.94 347.69,522.94
             347.69,522.94 349.32,522.43 349.32,522.43
             349.32,522.43 350.96,522.18 350.96,522.18
             350.96,522.18 352.39,521.84 352.39,521.84
             352.39,521.84 354.02,521.66 354.02,521.66
             354.02,521.66 356.37,521.39 356.37,521.39
             356.37,521.39 357.80,521.39 357.80,521.39
             357.80,521.39 359.33,521.48 359.33,521.48
             359.33,521.48 360.87,521.48 360.87,521.48
             360.87,521.48 362.09,521.39 362.09,521.39
             362.09,521.39 363.63,521.39 363.63,521.39
             363.63,521.39 367.00,521.74 367.00,521.74
             367.00,521.74 368.33,522.05 368.33,522.05
             368.33,522.05 369.14,522.15 369.14,522.15
             369.14,522.15 373.94,523.31 373.94,523.31
             373.94,523.31 375.27,523.75 375.27,523.75
             375.27,523.75 376.91,524.07 376.91,524.07
             376.91,524.07 379.77,524.89 379.77,524.89
             379.77,524.89 383.04,526.12 383.04,526.12
             383.04,526.12 384.98,527.07 384.98,527.07
             384.98,527.07 387.23,527.95 387.23,527.95
             387.23,527.95 389.27,529.00 389.27,529.00
             389.27,529.00 392.95,530.65 392.95,530.65
             392.95,530.65 395.30,531.69 395.30,531.69
             395.30,531.69 397.75,533.10 397.75,533.10
             397.75,533.10 398.88,533.87 398.88,533.87
             398.88,533.87 400.61,534.85 400.61,534.85
             400.61,534.85 401.94,535.80 401.94,535.80
             401.94,535.80 403.47,536.67 403.47,536.67
             403.47,536.67 404.50,537.14 404.50,537.14
             404.50,537.14 405.42,537.74 405.42,537.74
             405.42,537.74 406.95,538.62 406.95,538.62
             406.95,538.62 408.07,539.43 408.07,539.43
             408.07,539.43 409.20,540.14 409.20,540.14
             409.20,540.14 410.03,540.93 410.03,540.93
             410.03,540.93 410.73,541.31 410.73,541.31
             410.73,541.31 411.95,542.16 411.95,542.16
             411.95,542.16 414.82,544.59 414.82,544.59
             414.82,544.59 415.84,545.56 415.84,545.56
             415.84,545.56 417.27,546.66 417.27,546.66
             417.27,546.66 419.82,548.79 419.82,548.79
             419.82,548.79 421.56,550.48 421.56,550.48
             421.56,550.48 424.73,553.27 424.73,553.27
             424.73,553.27 426.97,555.37 426.97,555.37
             426.97,555.37 428.81,556.86 428.81,556.86
             428.81,556.86 430.55,558.44 430.55,558.44
             430.55,558.44 432.18,559.83 432.18,559.83
             432.18,559.83 432.81,560.45 432.81,560.45
             432.81,560.45 434.02,561.37 434.02,561.37
             434.02,561.37 435.46,562.60 435.46,562.60
             435.46,562.60 439.44,565.11 439.44,565.11
             439.44,565.11 440.56,565.94 440.56,565.94
             440.56,565.94 441.89,566.74 441.89,566.74
             441.89,566.74 442.91,567.44 442.91,567.44
             442.91,567.44 444.24,568.21 444.24,568.21
             444.24,568.21 445.26,568.85 445.26,568.85
             445.26,568.85 447.82,569.99 447.82,569.99
             447.82,569.99 449.96,570.98 449.96,570.98
             449.96,570.98 453.54,572.09 453.54,572.09
             453.54,572.09 455.28,572.68 455.28,572.68
             455.28,572.68 458.65,573.41 458.65,573.41
             460.85,573.86 461.93,574.60 464.37,574.60
             464.37,574.60 469.48,574.60 469.48,574.60
             469.48,574.60 471.22,574.70 471.22,574.70
             471.22,574.70 474.59,574.70 474.59,574.70
             474.59,574.70 477.45,574.41 477.45,574.41
             481.00,573.99 482.55,573.55 485.93,572.56
             485.93,572.56 486.85,572.32 486.85,572.32
             486.85,572.32 487.87,571.95 487.87,571.95
             488.69,571.71 488.29,571.99 489.51,571.45
             489.51,571.45 493.49,569.56 493.49,569.56
             493.49,569.56 495.74,568.26 495.74,568.26
             495.74,568.26 497.17,567.61 497.17,567.61
             497.17,567.61 498.29,566.98 498.29,566.98
             498.29,566.98 499.01,566.74 499.01,566.74
             499.49,566.53 499.45,566.37 500.03,566.43
             500.34,565.79 501.25,565.10 501.97,565.41
             502.41,564.40 502.84,564.23 503.81,563.81 Z
           M 669.75,623.01
           C 669.75,623.01 670.13,621.79 670.13,621.79
             670.13,621.79 670.44,620.36 670.44,620.36
             670.44,620.36 671.02,618.62 671.02,618.62
             671.02,618.62 671.39,616.48 671.39,616.48
             671.50,615.80 671.75,614.24 671.67,613.62
             671.58,612.99 671.22,612.77 671.19,612.19
             671.19,612.19 671.28,611.27 671.28,611.27
             671.28,611.27 671.28,609.43 671.28,609.43
             671.28,609.43 671.36,608.00 671.36,608.00
             671.36,608.00 670.99,605.55 670.99,605.55
             671.00,605.11 671.20,604.83 671.26,604.42
             671.33,603.90 671.23,603.02 671.15,602.48
             671.15,602.48 670.06,598.60 670.06,598.60
             670.06,598.60 668.83,594.52 668.83,594.52
             668.83,594.52 667.83,592.47 667.83,592.47
             667.83,592.47 666.96,590.43 666.96,590.43
             666.96,590.43 666.01,588.59 666.01,588.59
             666.01,588.59 664.26,585.12 664.26,585.12
             664.26,585.12 662.81,581.95 662.81,581.95
             662.81,581.95 661.96,580.63 661.96,580.63
             661.96,580.63 659.93,577.36 659.93,577.36
             659.93,577.36 657.17,573.58 657.17,573.58
             657.17,573.58 653.69,568.57 653.69,568.57
             653.69,568.57 652.39,567.35 652.39,567.35
             652.39,567.35 650.21,565.06 650.21,565.06
             650.21,565.06 648.08,563.29 648.08,563.29
             648.08,563.29 646.86,562.16 646.86,562.16
             646.86,562.16 645.43,560.99 645.43,560.99
             645.43,560.99 642.57,558.55 642.57,558.55
             642.57,558.55 641.34,557.39 641.34,557.39
             641.34,557.39 636.33,553.71 636.33,553.71
             636.33,553.71 633.78,552.16 633.78,552.16
             633.78,552.16 632.66,551.63 632.66,551.63
             632.66,551.63 630.92,550.62 630.92,550.62
             630.92,550.62 629.69,550.17 629.69,550.17
             629.69,550.17 628.57,549.51 628.57,549.51
             628.57,549.51 626.32,548.37 626.32,548.37
             626.32,548.37 622.34,546.34 622.34,546.34
             622.34,546.34 621.01,545.85 621.01,545.85
             621.01,545.85 617.94,544.61 617.94,544.61
             617.94,544.61 616.00,544.09 616.00,544.09
             616.00,544.09 610.59,542.30 610.59,542.30
             610.59,542.30 609.36,542.03 609.36,542.03
             609.36,542.03 604.66,540.91 604.66,540.91
             604.66,540.91 598.63,539.51 598.63,539.51
             598.63,539.51 597.20,539.33 597.20,539.33
             596.22,539.20 595.46,538.96 594.44,538.95
             594.44,538.95 593.22,538.95 593.22,538.95
             592.52,538.94 592.55,538.86 591.99,538.78
             591.99,538.78 590.46,538.65 590.46,538.65
             590.46,538.65 589.03,538.76 589.03,538.76
             589.03,538.76 587.39,538.76 587.39,538.76
             587.39,538.76 584.74,538.76 584.74,538.76
             584.74,538.76 583.51,538.85 583.51,538.85
             583.51,538.85 582.08,538.85 582.08,538.85
             581.22,538.85 581.20,538.93 580.44,539.03
             580.44,539.03 579.42,539.10 579.42,539.10
             579.42,539.10 576.46,539.89 576.46,539.89
             576.46,539.89 574.21,540.43 574.21,540.43
             574.21,540.43 572.68,540.92 572.68,540.92
             572.68,540.92 571.25,541.26 571.25,541.26
             571.25,541.26 569.51,541.97 569.51,541.97
             569.51,541.97 565.42,543.55 565.42,543.55
             563.31,544.42 561.57,544.70 559.40,545.82
             558.99,546.03 557.90,546.70 557.56,546.97
             557.56,546.97 556.64,547.74 556.64,547.74
             556.64,547.74 555.51,548.44 555.51,548.44
             555.51,548.44 553.26,550.12 553.26,550.12
             553.26,550.12 550.30,552.06 550.30,552.06
             550.30,552.06 548.36,553.62 548.36,553.62
             548.36,553.62 542.84,557.41 542.84,557.41
             542.84,557.41 540.49,559.29 540.49,559.29
             540.49,559.29 537.53,561.12 537.53,561.12
             537.53,561.12 533.85,563.67 533.85,563.67
             533.85,563.67 532.63,564.69 532.63,564.69
             532.63,564.69 530.68,566.09 530.68,566.09
             530.68,566.09 527.93,568.35 527.93,568.35
             527.93,568.35 525.78,569.80 525.78,569.80
             525.78,569.80 524.25,570.95 524.25,570.95
             524.25,570.95 522.61,571.95 522.61,571.95
             522.61,571.95 520.98,573.12 520.98,573.12
             520.98,573.12 518.93,574.40 518.93,574.40
             518.93,574.40 513.62,577.94 513.62,577.94
             513.62,577.94 511.69,579.10 511.69,579.10
             511.07,579.60 511.70,580.08 511.15,580.42
             510.85,580.60 510.02,580.44 509.23,580.78
             509.23,580.78 507.69,581.76 507.69,581.76
             507.69,581.76 504.94,583.09 504.94,583.09
             504.94,583.09 497.89,586.14 497.89,586.14
             497.89,586.14 489.92,588.55 489.92,588.55
             489.92,588.55 487.46,588.89 487.46,588.89
             487.46,588.89 486.13,589.32 486.13,589.32
             486.13,589.32 484.09,589.64 484.09,589.64
             484.09,589.64 483.17,589.94 483.17,589.94
             483.17,589.94 480.41,590.37 480.41,590.37
             480.41,590.37 478.68,590.82 478.68,590.82
             478.68,590.82 477.35,590.82 477.35,590.82
             477.35,590.82 473.57,591.25 473.57,591.25
             473.57,591.25 471.11,591.14 471.11,591.14
             471.11,591.14 469.79,591.04 469.79,591.04
             469.79,591.04 467.74,590.94 467.74,590.94
             466.60,590.97 466.42,591.58 465.80,591.53
             465.30,591.50 465.16,591.07 464.77,590.86
             464.46,590.68 463.91,590.64 463.55,590.63
             463.55,590.63 463.15,590.63 463.15,590.63
             462.01,590.62 461.05,590.23 459.98,589.94
             459.98,589.94 457.73,589.39 457.73,589.39
             457.73,589.39 455.18,588.59 455.18,588.59
             454.50,588.37 453.15,588.27 453.04,588.22
             452.83,588.14 452.76,588.04 452.62,587.88
             451.77,587.92 451.68,587.69 450.99,587.42
             450.99,587.42 450.29,587.22 450.29,587.22
             449.53,586.98 449.41,586.75 448.53,586.96
             448.53,586.96 448.64,586.65 448.64,586.65
             448.64,586.65 447.51,586.75 447.51,586.75
             447.51,586.75 447.61,586.45 447.61,586.45
             447.09,586.40 446.67,586.11 446.18,585.92
             446.18,585.92 443.94,585.12 443.94,585.12
             443.94,585.12 441.69,584.24 441.69,584.24
             441.69,584.24 440.97,584.00 440.97,584.00
             440.97,584.00 440.16,583.53 440.16,583.53
             438.98,583.02 439.18,583.37 437.81,582.50
             436.39,581.61 436.41,581.54 434.84,580.87
             434.42,580.69 434.05,580.41 433.62,580.63
             433.33,579.79 432.59,579.54 431.88,579.10
             431.88,579.10 429.22,577.26 429.22,577.26
             429.22,577.26 428.00,576.49 428.00,576.49
             428.00,576.49 425.03,574.44 425.03,574.44
             425.03,574.44 424.11,574.00 424.11,574.00
             424.11,574.00 422.07,572.71 422.07,572.71
             422.07,572.71 418.70,569.79 418.70,569.79
             418.70,569.79 417.87,568.92 417.87,568.92
             417.87,568.92 415.34,566.79 415.34,566.79
             415.34,566.79 414.58,565.98 414.58,565.98
             414.32,565.76 413.86,565.58 413.18,564.98
             413.18,564.98 411.04,563.05 411.04,563.05
             411.04,563.05 410.20,562.11 410.20,562.11
             410.20,562.11 409.20,561.38 409.20,561.38
             409.20,561.38 407.77,560.12 407.77,560.12
             407.77,560.12 405.52,558.43 405.52,558.43
             405.52,558.43 401.63,555.16 401.63,555.16
             401.63,555.16 396.42,551.48 396.42,551.48
             396.42,551.48 395.30,550.66 395.30,550.66
             395.30,550.66 392.85,549.23 392.85,549.23
             392.85,549.23 389.58,547.34 389.58,547.34
             389.58,547.34 388.25,546.48 388.25,546.48
             388.25,546.48 386.92,545.75 386.92,545.75
             386.92,545.75 385.29,544.75 385.29,544.75
             385.29,544.75 383.65,544.12 383.65,544.12
             383.65,544.12 382.32,543.48 382.32,543.48
             382.32,543.48 381.71,543.29 381.71,543.29
             381.71,543.29 380.69,542.66 380.69,542.66
             380.69,542.66 377.73,541.46 377.73,541.46
             377.73,541.46 375.48,540.50 375.48,540.50
             375.48,540.50 373.54,540.04 373.54,540.04
             373.54,540.04 372.51,539.88 372.51,539.88
             372.51,539.88 369.76,539.26 369.76,539.26
             369.76,539.26 368.73,539.26 368.73,539.26
             368.73,539.26 367.51,539.16 367.51,539.16
             367.51,539.16 365.87,539.16 365.87,539.16
             365.87,539.16 364.75,539.26 364.75,539.26
             364.75,539.26 363.01,539.26 363.01,539.26
             363.01,539.26 361.48,539.36 361.48,539.36
             361.48,539.36 358.72,539.36 358.72,539.36
             357.79,539.36 357.24,539.53 356.37,539.66
             356.37,539.66 355.45,539.66 355.45,539.66
             355.45,539.66 354.02,539.92 354.02,539.92
             354.02,539.92 351.16,540.75 351.16,540.75
             351.16,540.75 347.99,541.63 347.99,541.63
             347.99,541.63 342.68,544.30 342.68,544.30
             342.02,544.66 341.81,544.90 341.25,545.31
             341.25,545.31 340.23,545.96 340.23,545.96
             340.23,545.96 337.26,548.06 337.26,548.06
             337.26,548.06 336.14,548.64 336.14,548.64
             336.14,548.64 334.61,549.54 334.61,549.54
             334.61,549.54 333.18,550.31 333.18,550.31
             333.18,550.31 331.64,551.41 331.64,551.41
             331.64,551.41 328.48,553.59 328.48,553.59
             328.48,553.59 326.74,555.08 326.74,555.08
             326.74,555.08 324.08,557.42 324.08,557.42
             324.08,557.42 321.75,559.50 321.75,559.50
             321.75,559.50 318.15,563.26 318.15,563.26
             318.15,563.26 315.53,565.92 315.53,565.92
             315.53,565.92 314.29,567.55 314.29,567.55
             314.29,567.55 312.50,569.90 312.50,569.90
             310.71,572.27 310.85,571.97 309.33,574.60
             309.33,574.60 308.44,576.13 308.44,576.13
             308.44,576.13 307.33,579.40 307.33,579.40
             307.33,579.40 306.72,581.14 306.72,581.14
             306.72,581.14 305.80,585.83 305.80,585.83
             305.76,586.42 305.83,586.71 305.88,587.26
             306.18,590.38 305.96,594.18 308.01,596.76
             308.60,597.51 309.59,598.24 310.39,598.77
             311.37,599.43 311.70,599.57 312.84,599.84
             313.34,599.96 314.41,600.20 314.89,600.23
             314.89,600.23 316.62,600.13 316.62,600.13
             317.76,600.12 318.88,599.89 320.00,599.69
             320.00,599.69 321.53,599.43 321.53,599.43
             321.53,599.43 322.86,599.01 322.86,599.01
             322.86,599.01 325.51,598.15 325.51,598.15
             325.51,598.15 327.45,597.20 327.45,597.20
             327.45,597.20 329.19,596.39 329.19,596.39
             329.19,596.39 331.34,595.17 331.34,595.17
             331.34,595.17 335.42,592.45 335.42,592.45
             335.42,592.45 337.47,591.41 337.47,591.41
             337.47,591.41 339.51,590.16 339.51,590.16
             339.51,590.16 343.19,588.25 343.19,588.25
             343.19,588.25 344.82,587.29 344.82,587.29
             344.82,587.29 348.81,585.63 348.81,585.63
             348.81,585.63 351.57,584.49 351.57,584.49
             351.57,584.49 353.20,584.03 353.20,584.03
             353.20,584.03 354.33,583.53 354.33,583.53
             354.33,583.53 356.17,582.99 356.17,582.99
             356.17,582.99 357.39,582.78 357.39,582.78
             357.39,582.78 360.05,582.11 360.05,582.11
             360.05,582.11 361.99,581.79 361.99,581.79
             362.66,581.66 363.35,581.45 364.03,581.43
             364.03,581.43 365.16,581.43 365.16,581.43
             365.16,581.43 366.89,581.24 366.89,581.24
             366.89,581.24 368.84,581.44 368.84,581.44
             368.84,581.44 369.96,581.44 369.96,581.44
             369.96,581.44 371.29,581.54 371.29,581.54
             371.29,581.54 373.84,581.85 373.84,581.85
             374.22,581.85 374.82,581.82 375.17,581.90
             375.17,581.90 376.60,582.42 376.60,582.42
             376.60,582.42 380.79,583.76 380.79,583.76
             380.79,583.76 382.43,584.31 382.43,584.31
             382.43,584.31 386.10,585.98 386.10,585.98
             386.10,585.98 387.43,586.97 387.43,586.97
             388.34,587.53 390.17,588.63 390.90,589.32
             390.90,589.32 391.95,590.63 391.95,590.63
             391.95,590.63 393.00,591.76 393.00,591.76
             393.00,591.76 394.64,593.90 394.64,593.90
             395.21,594.64 395.88,595.37 396.53,596.05
             396.53,596.05 398.98,598.48 398.98,598.48
             398.98,598.48 399.80,599.14 399.80,599.14
             400.67,599.89 401.56,600.72 402.34,601.56
             402.34,601.56 403.49,602.99 403.49,602.99
             403.49,602.99 404.38,603.91 404.38,603.91
             404.38,603.91 405.52,605.24 405.52,605.24
             405.52,605.24 407.76,607.49 407.76,607.49
             407.76,607.49 410.63,610.44 410.63,610.44
             410.63,610.44 413.69,612.94 413.69,612.94
             413.69,612.94 414.92,613.96 414.92,613.96
             414.92,613.96 416.45,614.92 416.45,614.92
             416.45,614.92 418.70,616.63 418.70,616.63
             420.38,617.72 422.29,618.77 424.11,619.61
             424.11,619.61 425.24,620.08 425.24,620.08
             425.24,620.08 427.69,621.33 427.69,621.33
             427.69,621.33 429.94,622.04 429.94,622.04
             429.94,622.04 431.88,622.94 431.88,622.94
             431.88,622.94 435.76,624.24 435.76,624.24
             435.76,624.24 437.81,625.00 437.81,625.00
             437.81,625.00 439.64,625.38 439.64,625.38
             439.64,625.38 440.87,625.87 440.87,625.87
             440.87,625.87 442.61,626.41 442.61,626.41
             442.61,626.41 446.29,627.29 446.29,627.29
             446.29,627.29 450.07,628.36 450.07,628.36
             450.07,628.36 451.19,628.60 451.19,628.60
             451.19,628.60 452.11,628.72 452.11,628.72
             452.11,628.72 455.79,629.60 455.79,629.60
             455.79,629.60 457.32,629.81 457.32,629.81
             457.32,629.81 458.14,630.01 458.14,630.01
             458.14,630.01 460.18,630.37 460.18,630.37
             460.86,630.50 461.21,630.66 461.92,630.67
             462.75,630.68 462.62,630.67 463.45,630.79
             463.45,630.79 468.15,631.29 468.15,631.29
             468.15,631.29 469.79,631.29 469.79,631.29
             469.79,631.29 472.24,631.59 472.24,631.59
             472.24,631.59 472.65,631.59 472.65,631.59
             472.65,631.59 474.79,631.80 474.79,631.80
             474.79,631.80 476.84,631.80 476.84,631.80
             476.84,631.80 478.37,631.89 478.37,631.89
             479.49,631.91 479.82,632.01 481.03,631.89
             481.03,631.89 482.25,631.61 482.25,631.61
             482.25,631.61 486.54,630.88 486.54,630.88
             486.54,630.88 487.05,630.88 487.05,630.88
             487.05,630.88 489.92,630.48 489.92,630.48
             491.86,630.21 493.33,630.05 495.23,629.44
             495.23,629.44 498.70,628.13 498.70,628.13
             498.70,628.13 499.52,627.92 499.52,627.92
             499.52,627.92 500.44,627.62 500.44,627.62
             500.44,627.62 502.18,627.16 502.18,627.16
             502.18,627.16 503.91,626.44 503.91,626.44
             503.91,626.44 505.55,625.99 505.55,625.99
             505.55,625.99 507.08,625.40 507.08,625.40
             507.08,625.40 508.10,625.06 508.10,625.06
             508.10,625.06 509.74,624.26 509.74,624.26
             509.74,624.26 512.50,622.94 512.50,622.94
             512.50,622.94 515.15,621.86 515.15,621.86
             515.15,621.86 516.99,621.18 516.99,621.18
             516.99,621.18 520.36,619.37 520.36,619.37
             520.36,619.37 521.90,618.59 521.90,618.59
             521.90,618.59 523.22,617.72 523.22,617.72
             523.22,617.72 525.27,616.94 525.27,616.94
             525.27,616.94 527.41,615.89 527.41,615.89
             527.41,615.89 528.64,615.36 528.64,615.36
             528.64,615.36 532.42,613.10 532.42,613.10
             532.42,613.10 533.54,612.54 533.54,612.54
             534.02,612.26 534.13,612.00 534.34,611.86
             534.57,611.70 534.69,611.81 535.18,611.48
             535.18,611.48 537.73,609.72 537.73,609.72
             537.73,609.72 539.57,608.35 539.57,608.35
             539.57,608.35 541.00,607.51 541.00,607.51
             541.00,607.51 541.92,606.83 541.92,606.83
             541.92,606.83 543.15,606.06 543.15,606.06
             543.15,606.06 546.21,604.02 546.21,604.02
             546.21,604.02 548.46,602.76 548.46,602.76
             548.46,602.76 550.71,601.49 550.71,601.49
             550.71,601.49 552.35,600.66 552.35,600.66
             553.14,600.23 553.36,599.89 553.67,599.73
             553.92,599.60 554.30,599.63 555.00,599.26
             555.00,599.26 556.02,598.59 556.02,598.59
             556.02,598.59 558.48,597.31 558.48,597.31
             558.48,597.31 562.56,595.45 562.56,595.45
             562.56,595.45 564.71,594.46 564.71,594.46
             564.71,594.46 565.93,594.06 565.93,594.06
             565.93,594.06 568.18,593.09 568.18,593.09
             568.18,593.09 570.12,592.40 570.12,592.40
             570.12,592.40 571.25,591.87 571.25,591.87
             571.25,591.87 572.98,591.31 572.98,591.31
             572.98,591.31 574.93,590.54 574.93,590.54
             574.93,590.54 577.99,589.65 577.99,589.65
             577.99,589.65 579.52,589.38 579.52,589.38
             579.52,589.38 581.16,588.85 581.16,588.85
             581.16,588.85 583.20,588.63 583.20,588.63
             583.85,588.51 584.49,588.29 585.14,588.28
             585.14,588.28 586.17,588.28 586.17,588.28
             586.17,588.28 587.19,588.18 587.19,588.18
             589.71,588.15 593.26,588.74 595.77,589.22
             597.17,589.49 598.61,589.71 599.96,590.16
             599.96,590.16 602.82,591.42 602.82,591.42
             602.82,591.42 604.66,592.21 604.66,592.21
             604.66,592.21 605.99,593.05 605.99,593.05
             607.89,594.10 609.84,595.15 611.61,596.43
             611.61,596.43 613.96,598.37 613.96,598.37
             613.96,598.37 616.21,600.15 616.21,600.15
             616.21,600.15 617.84,601.77 617.84,601.77
             617.84,601.77 620.08,604.01 620.08,604.01
             620.08,604.01 621.43,605.54 621.43,605.54
             621.43,605.54 623.76,607.69 623.76,607.69
             623.76,607.69 626.84,611.16 626.84,611.16
             626.84,611.16 628.57,612.90 628.57,612.90
             628.57,612.90 631.18,615.86 631.18,615.86
             631.18,615.86 632.38,617.38 632.38,617.38
             632.38,617.38 633.08,618.03 633.08,618.03
             633.26,618.27 633.25,618.51 633.80,619.23
             634.13,619.66 634.43,620.22 635.01,620.25
             635.44,621.47 635.92,621.70 636.71,622.60
             636.71,622.60 638.31,624.54 638.31,624.54
             638.31,624.54 639.18,625.46 639.18,625.46
             639.18,625.46 640.34,626.89 640.34,626.89
             640.34,626.89 641.64,628.22 641.64,628.22
             641.64,628.22 642.78,629.55 642.78,629.55
             642.78,629.55 645.53,632.31 645.53,632.31
             646.37,633.17 647.13,634.13 648.08,634.88
             648.69,635.36 648.80,635.20 649.30,635.56
             649.30,635.56 650.03,636.19 650.03,636.19
             650.88,636.77 652.30,637.27 653.30,637.56
             653.80,637.70 654.61,637.93 655.13,637.89
             655.87,637.83 656.67,637.55 657.38,637.35
             657.38,637.35 658.51,637.09 658.51,637.09
             659.13,636.90 660.42,636.26 660.96,635.89
             661.49,635.52 661.63,635.23 661.91,635.02
             662.22,634.77 662.68,634.74 663.31,634.21
             663.78,633.82 664.38,633.01 664.78,632.51
             665.47,631.65 666.21,630.79 666.78,629.86
             667.49,628.70 667.72,628.03 668.19,626.79
             668.40,626.26 668.65,625.83 668.52,625.26
             669.30,624.82 669.48,623.81 669.75,623.01 Z
           M 448.13,587.26
           C 448.13,587.26 448.02,587.37 448.02,587.37
             448.02,587.37 448.02,587.26 448.02,587.26
             448.02,587.26 448.13,587.26 448.13,587.26 Z
           M 450.07,587.47
           C 450.07,587.47 449.96,587.57 449.96,587.57
             449.96,587.57 449.96,587.47 449.96,587.47
             449.96,587.47 450.07,587.47 450.07,587.47 Z
           M 450.78,587.47
           C 450.78,587.47 450.68,587.57 450.68,587.57
             450.68,587.57 450.68,587.47 450.68,587.47
             450.68,587.47 450.78,587.47 450.78,587.47 Z
           M 499.42,627.71
           C 499.42,627.71 499.32,627.81 499.32,627.81
             499.32,627.81 499.32,627.71 499.32,627.71
             499.32,627.71 499.42,627.71 499.42,627.71 Z" />
</svg>
