<?xml version="1.0" encoding="UTF-8" standalone="no"?>
<svg xmlns="http://www.w3.org/2000/svg"
     xmlns:svg="http://www.w3.org/2000/svg"
     version="1.1"
     viewBox="0 0 400 400">
  <path id="path1" transform="translate(-280, -300)"
        d="M 390.29,634.25
           C 390.44,634.71 390.54,634.72 391.01,634.76
             391.04,634.96 391.04,635.06 391.17,635.23
             391.17,635.23 392.75,636.35 392.75,636.35
             392.75,636.35 395.20,637.96 395.20,637.96
             395.20,637.96 396.63,638.99 396.63,638.99
             396.63,638.99 398.57,640.06 398.57,640.06
             398.57,640.06 400.00,641.00 400.00,641.00
             400.00,641.00 403.78,642.93 403.78,642.93
             403.78,642.93 404.90,643.61 404.90,643.61
             404.90,643.61 406.33,644.24 406.33,644.24
             406.33,644.24 408.48,645.37 408.48,645.37
             408.48,645.37 411.44,646.64 411.44,646.64
             411.44,646.64 413.18,647.48 413.18,647.48
             413.18,647.48 417.37,649.00 417.37,649.00
             417.37,649.00 419.31,649.77 419.31,649.77
             419.31,649.77 420.64,650.23 420.64,650.23
             420.64,650.23 422.07,650.82 422.07,650.82
             422.07,650.82 424.01,651.35 424.01,651.35
             424.01,651.35 426.57,652.36 426.57,652.36
             426.57,652.36 428.81,653.01 428.81,653.01
             428.81,653.01 430.76,653.68 430.76,653.68
             430.76,653.68 434.74,654.72 434.74,654.72
             434.74,654.72 436.78,655.29 436.78,655.29
             436.78,655.29 438.32,655.77 438.32,655.77
             438.32,655.77 441.59,656.38 441.59,656.38
             441.59,656.38 443.43,656.59 443.43,656.59
             443.43,656.59 449.66,657.90 449.66,657.90
             449.66,657.90 453.03,658.16 453.03,658.16
             453.03,658.16 454.05,658.34 454.05,658.34
             454.05,658.34 456.40,658.63 456.40,658.63
             456.40,658.63 457.63,658.69 457.63,658.69
             457.63,658.69 459.06,658.96 459.06,658.96
             459.06,658.96 460.08,658.96 460.08,658.96
             460.08,658.96 461.51,659.15 461.51,659.15
             461.51,659.15 462.43,659.15 462.43,659.15
             462.43,659.15 464.47,659.43 464.47,659.43
             464.47,659.43 465.70,659.52 465.70,659.52
             465.70,659.52 467.44,659.94 467.44,659.94
             468.81,660.25 470.22,660.38 471.63,660.39
             471.63,660.39 472.65,660.49 472.65,660.49
             472.65,660.49 475.30,660.60 475.30,660.60
             475.30,660.60 478.37,660.39 478.37,660.39
             478.37,660.39 480.52,660.39 480.52,660.39
             480.52,660.39 481.84,660.29 481.84,660.29
             481.84,660.29 486.44,659.99 486.44,659.99
             486.44,659.99 487.46,659.99 487.46,659.99
             488.56,659.85 488.40,659.60 490.12,659.58
             490.12,659.58 492.37,659.30 492.37,659.30
             492.37,659.30 496.35,658.83 496.35,658.83
             498.14,658.61 497.37,658.48 499.62,658.45
             499.62,658.45 501.87,658.16 501.87,658.16
             501.87,658.16 503.50,658.02 503.50,658.02
             503.50,658.02 505.65,657.60 505.65,657.60
             505.65,657.60 507.69,657.28 507.69,657.28
             507.69,657.28 509.33,656.92 509.33,656.92
             509.33,656.92 512.39,656.36 512.39,656.36
             512.39,656.36 513.72,655.98 513.72,655.98
             513.72,655.98 515.36,655.74 515.36,655.74
             515.36,655.74 516.38,655.39 516.38,655.39
             516.38,655.39 518.12,654.95 518.12,654.95
             518.12,654.95 520.26,654.55 520.26,654.55
             520.26,654.55 523.12,653.78 523.12,653.78
             523.12,653.78 524.66,653.20 524.66,653.20
             524.66,653.20 525.98,652.89 525.98,652.89
             525.98,652.89 527.72,652.36 527.72,652.36
             527.72,652.36 531.09,650.84 531.09,650.84
             531.09,650.84 534.06,649.77 534.06,649.77
             534.06,649.77 537.02,648.60 537.02,648.60
             537.02,648.60 538.04,648.09 538.04,648.09
             538.04,648.09 539.16,647.69 539.16,647.69
             539.16,647.69 540.90,646.97 540.90,646.97
             540.90,646.97 544.99,645.07 544.99,645.07
             544.99,645.07 546.42,644.47 546.42,644.47
             546.42,644.47 547.34,643.87 547.34,643.87
             547.34,643.87 550.10,642.71 550.10,642.71
             550.78,642.42 551.68,642.31 552.04,641.60
             552.90,641.73 554.97,640.79 555.82,640.41
             555.82,640.41 557.45,639.73 557.45,639.73
             557.45,639.73 559.19,638.90 559.19,638.90
             559.19,638.90 559.91,638.63 559.91,638.63
             559.91,638.63 560.62,638.23 560.62,638.23
             560.62,638.23 562.26,637.41 562.26,637.41
             562.26,637.41 563.18,636.80 563.18,636.80
             563.18,636.80 564.91,636.09 564.91,636.09
             564.91,636.09 566.14,635.49 566.14,635.49
             566.14,635.49 567.37,634.74 567.37,634.74
             567.37,634.74 569.51,633.55 569.51,633.55
             569.51,633.55 570.74,632.68 570.74,632.68
             570.74,632.68 571.66,632.24 571.66,632.24
             571.66,632.24 572.68,631.55 572.68,631.55
             572.68,631.55 573.90,630.87 573.90,630.87
             573.90,630.87 575.64,629.63 575.64,629.63
             575.64,629.63 577.99,628.29 577.99,628.29
             577.99,628.29 578.81,627.67 578.81,627.67
             578.81,627.67 579.73,627.05 579.73,627.05
             579.73,627.05 580.95,626.05 580.95,626.05
             580.95,626.05 583.00,624.87 583.00,624.87
             583.00,624.87 585.35,622.84 585.35,622.84
             585.35,622.84 586.98,621.57 586.98,621.57
             586.98,621.57 591.27,618.06 591.27,618.06
             591.27,618.06 592.91,616.98 592.91,616.98
             592.91,616.98 594.24,615.79 594.24,615.79
             594.24,615.79 594.95,615.33 594.95,615.33
             594.95,615.33 596.38,614.11 596.38,614.11
             596.38,614.11 597.71,612.82 597.71,612.82
             597.71,612.82 598.81,612.05 598.81,612.05
             598.81,612.05 599.86,610.98 599.86,610.98
             599.86,610.98 601.68,609.32 601.68,609.32
             601.68,609.32 603.13,607.62 603.13,607.62
             603.13,607.62 604.97,606.12 604.97,606.12
             604.97,606.12 606.40,604.86 606.40,604.86
             606.40,604.86 607.93,603.70 607.93,603.70
             607.93,603.70 609.39,601.97 609.39,601.97
             610.25,600.97 611.17,600.03 612.12,599.12
             612.12,599.12 614.66,597.07 614.66,597.07
             614.66,597.07 616.11,595.23 616.11,595.23
             616.11,595.23 617.32,594.10 617.32,594.10
             617.32,594.10 619.56,591.66 619.56,591.66
             619.56,591.66 621.34,589.41 621.34,589.41
             621.34,589.41 623.14,587.47 623.14,587.47
             623.14,587.47 623.91,586.45 623.91,586.45
             623.91,586.45 625.74,584.20 625.74,584.20
             625.74,584.20 627.38,581.95 627.38,581.95
             627.38,581.95 629.60,579.09 629.60,579.09
             629.60,579.09 631.67,576.03 631.67,576.03
             631.67,576.03 633.06,574.09 633.06,574.09
             633.06,574.09 634.91,571.02 634.91,571.02
             634.91,571.02 637.16,567.65 637.16,567.65
             637.16,567.65 638.47,565.30 638.47,565.30
             638.47,565.30 639.36,563.87 639.36,563.87
             639.36,563.87 640.96,560.91 640.96,560.91
             640.96,560.91 642.53,558.26 642.53,558.26
             642.53,558.26 643.92,555.30 643.92,555.30
             643.92,555.30 645.38,552.54 645.38,552.54
             645.38,552.54 646.07,550.90 646.07,550.90
             646.07,550.90 647.39,548.25 647.39,548.25
             647.39,548.25 648.30,546.61 648.30,546.61
             648.30,546.61 649.75,542.94 649.75,542.94
             649.75,542.94 652.16,538.54 652.16,538.54
             652.16,538.54 652.71,537.32 652.71,537.32
             652.71,537.32 653.92,534.87 653.92,534.87
             653.92,534.87 655.02,532.31 655.02,532.31
             655.02,532.31 655.62,531.19 655.62,531.19
             655.62,531.19 656.09,530.07 656.09,530.07
             656.09,530.07 656.89,528.43 656.89,528.43
             656.89,528.43 657.43,527.00 657.43,527.00
             657.43,527.00 658.05,525.57 658.05,525.57
             658.05,525.57 658.39,524.55 658.39,524.55
             658.39,524.55 658.91,523.33 658.91,523.33
             658.91,523.33 659.78,520.88 659.78,520.88
             659.78,520.88 660.29,519.65 660.29,519.65
             660.29,519.65 660.61,518.63 660.61,518.63
             660.61,518.63 661.65,516.28 661.65,516.28
             661.65,516.28 663.02,512.70 663.02,512.70
             663.02,512.70 663.45,511.17 663.45,511.17
             663.45,511.17 664.05,509.44 664.05,509.44
             664.05,509.44 664.57,507.60 664.57,507.60
             664.57,507.60 664.97,506.47 664.97,506.47
             664.97,506.47 665.20,505.45 665.20,505.45
             665.20,505.45 665.54,504.33 665.54,504.33
             665.54,504.33 666.11,502.08 666.11,502.08
             666.11,502.08 666.97,499.53 666.97,499.53
             666.97,499.53 667.59,497.08 667.59,497.08
             667.59,497.08 667.96,495.85 667.96,495.85
             667.96,495.85 668.52,492.69 668.52,492.69
             668.71,491.74 669.22,490.08 669.24,489.21
             669.24,489.21 669.24,486.05 669.24,486.05
             669.24,486.05 669.13,484.41 669.13,484.41
             669.13,484.41 669.03,482.17 669.03,482.17
             669.03,482.17 669.03,481.25 669.03,481.25
             669.03,481.25 668.35,477.57 668.35,477.57
             668.35,477.57 667.59,473.18 667.59,473.18
             667.59,473.18 666.41,470.73 666.41,470.73
             665.78,469.37 665.56,468.44 664.62,467.15
             664.11,466.46 663.55,466.02 662.90,465.48
             661.72,464.49 660.00,463.35 658.51,462.94
             658.51,462.94 657.08,462.75 657.08,462.75
             656.39,462.63 655.97,462.28 655.24,462.25
             654.40,462.22 654.10,462.46 653.40,462.54
             651.91,462.70 650.44,462.79 649.11,463.61
             649.11,463.61 646.96,465.62 646.96,465.62
             646.96,465.62 644.36,468.09 644.36,468.09
             644.36,468.09 643.23,469.70 643.23,469.70
             643.23,469.70 642.61,470.33 642.61,470.33
             642.61,470.33 641.82,471.34 641.82,471.34
             641.82,471.34 640.01,473.38 640.01,473.38
             640.01,473.38 636.55,478.28 636.55,478.28
             636.55,478.28 633.25,482.27 633.25,482.27
             633.25,482.27 631.90,483.70 631.90,483.70
             631.90,483.70 629.83,486.35 629.83,486.35
             629.83,486.35 628.56,487.78 628.56,487.78
             628.56,487.78 626.62,490.44 626.62,490.44
             626.62,490.44 622.35,494.45 622.35,494.45
             622.35,494.45 620.19,496.77 620.19,496.77
             620.19,496.77 618.04,498.72 618.04,498.72
             618.04,498.72 614.57,501.93 614.57,501.93
             614.57,501.93 613.24,502.92 613.24,502.92
             613.24,502.92 610.99,504.66 610.99,504.66
             610.99,504.66 609.36,505.83 609.36,505.83
             609.36,505.83 608.14,506.81 608.14,506.81
             607.80,507.12 607.74,507.29 607.32,507.62
             607.32,507.62 604.97,509.27 604.97,509.27
             604.97,509.27 603.23,510.85 603.23,510.85
             603.23,510.85 602.21,511.70 602.21,511.70
             602.21,511.70 601.57,512.33 601.57,512.33
             601.57,512.33 599.35,513.65 599.35,513.65
             599.35,513.65 597.30,515.09 597.30,515.09
             597.30,515.09 591.48,518.57 591.48,518.57
             591.48,518.57 588.11,520.66 588.11,520.66
             588.11,520.66 586.88,521.36 586.88,521.36
             586.88,521.36 584.43,523.18 584.43,523.18
             584.43,523.18 582.08,524.60 582.08,524.60
             582.08,524.60 580.95,525.30 580.95,525.30
             580.95,525.30 579.53,525.92 579.53,525.92
             579.53,525.92 578.79,526.34 578.79,526.34
             578.79,526.34 578.20,526.53 578.20,526.53
             578.20,526.53 577.28,526.97 577.28,526.97
             577.28,526.97 576.05,527.44 576.05,527.44
             576.05,527.44 575.33,527.67 575.33,527.67
             575.33,527.67 574.11,528.32 574.11,528.32
             574.11,528.32 572.37,528.89 572.37,528.89
             572.37,528.89 571.15,529.41 571.15,529.41
             571.15,529.41 568.49,530.23 568.49,530.23
             568.49,530.23 567.77,530.57 567.77,530.57
             567.47,530.67 567.20,530.57 566.65,530.78
             566.65,530.78 565.73,531.20 565.73,531.20
             565.73,531.20 564.61,531.59 564.61,531.59
             564.61,531.59 563.69,532.00 563.69,532.00
             563.69,532.00 560.93,532.83 560.93,532.83
             560.93,532.83 560.02,533.14 560.02,533.14
             560.02,533.14 559.48,533.39 559.48,533.39
             559.48,533.39 558.68,533.53 558.68,533.53
             558.68,533.53 557.56,533.86 557.56,533.86
             557.56,533.86 556.53,534.04 556.53,534.04
             556.53,534.04 555.00,534.47 555.00,534.47
             555.00,534.47 553.57,534.75 553.57,534.75
             553.57,534.75 551.02,535.24 551.02,535.24
             550.36,535.40 550.30,535.57 549.59,535.58
             549.59,535.58 549.18,535.58 549.18,535.58
             549.18,535.58 547.44,535.86 547.44,535.86
             547.44,535.86 543.35,536.53 543.35,536.53
             542.65,536.66 541.79,536.91 541.11,536.92
             541.11,536.92 537.84,536.92 537.84,536.92
             536.96,536.91 537.15,537.03 536.61,537.04
             536.61,537.04 535.79,537.04 535.79,537.04
             535.79,537.04 532.11,537.31 532.11,537.31
             531.07,537.26 531.26,537.41 530.68,537.42
             530.68,537.42 529.66,537.33 529.66,537.33
             529.66,537.33 528.95,537.43 528.95,537.43
             528.95,537.43 527.93,537.43 527.93,537.43
             527.93,537.43 527.21,537.58 527.21,537.58
             526.72,537.60 526.22,537.29 525.57,537.34
             525.57,537.34 523.63,537.59 523.63,537.59
             523.63,537.59 521.18,537.52 521.18,537.52
             521.18,537.52 519.34,537.32 519.34,537.32
             519.34,537.32 517.09,537.32 517.09,537.32
             516.31,537.32 515.73,537.13 514.95,537.32
             514.66,537.00 514.12,537.12 513.72,537.11
             512.70,537.11 512.88,536.97 512.29,536.92
             512.29,536.92 511.17,537.00 511.17,537.00
             511.17,537.00 510.04,536.90 510.04,536.90
             510.04,536.90 508.82,536.90 508.82,536.90
             508.82,536.90 507.08,536.61 507.08,536.61
             507.08,536.61 506.06,536.61 506.06,536.61
             506.06,536.61 502.07,536.31 502.07,536.31
             502.07,536.31 501.36,536.09 501.36,536.09
             501.36,536.09 500.64,536.09 500.64,536.09
             500.64,536.09 499.93,535.89 499.93,535.89
             499.93,535.89 499.21,535.89 499.21,535.89
             499.21,535.89 496.86,535.55 496.86,535.55
             496.86,535.55 493.80,534.92 493.80,534.92
             493.05,534.78 492.65,534.48 491.96,534.28
             491.96,534.28 490.26,533.93 490.26,533.93
             490.26,533.93 489.51,533.60 489.51,533.60
             489.51,533.60 488.48,533.46 488.48,533.46
             487.84,533.33 487.21,533.03 486.54,533.13
             486.29,532.70 485.86,532.68 485.42,532.42
             484.49,531.88 482.69,531.28 481.64,530.88
             481.64,530.88 479.70,530.01 479.70,530.01
             479.70,530.01 478.37,529.56 478.37,529.56
             478.37,529.56 476.03,528.39 476.03,528.39
             475.70,528.21 475.60,527.99 475.30,527.82
             475.30,527.82 474.82,527.62 474.82,527.62
             474.58,527.48 474.42,527.23 473.98,527.00
             473.98,527.00 473.29,526.70 473.29,526.70
             473.29,526.70 471.32,525.22 471.32,525.22
             470.54,524.73 470.08,524.71 469.58,524.43
             468.85,524.01 468.78,523.68 467.85,523.63
             467.64,522.93 466.95,522.50 466.31,522.21
             466.31,522.21 465.82,522.00 465.82,522.00
             465.82,522.00 464.37,520.93 464.37,520.93
             464.37,520.93 463.25,520.03 463.25,520.03
             463.25,520.03 460.80,518.42 460.80,518.42
             460.80,518.42 459.77,517.59 459.77,517.59
             459.77,517.59 458.76,516.94 458.76,516.94
             458.76,516.94 457.32,515.27 457.32,515.27
             457.32,515.27 454.67,513.10 454.67,513.10
             454.67,513.10 453.18,511.58 453.18,511.58
             453.18,511.58 451.45,509.34 451.45,509.34
             451.45,509.34 450.27,508.21 450.27,508.21
             450.27,508.21 449.04,506.78 449.04,506.78
             449.04,506.78 445.66,503.21 445.66,503.21
             445.66,503.21 444.89,502.39 444.89,502.39
             444.89,502.39 443.35,500.14 443.35,500.14
             443.35,500.14 442.35,498.92 442.35,498.92
             442.35,498.92 441.44,497.59 441.44,497.59
             441.44,497.59 439.96,495.55 439.96,495.55
             439.96,495.55 438.53,493.09 438.53,493.09
             438.53,493.09 437.74,492.07 437.74,492.07
             437.74,492.07 436.11,489.83 436.11,489.83
             436.11,489.83 435.43,488.70 435.43,488.70
             435.43,488.70 432.97,485.03 432.97,485.03
             432.97,485.03 432.35,484.00 432.35,484.00
             432.35,484.00 430.56,481.55 430.56,481.55
             430.56,481.55 429.38,479.31 429.38,479.31
             429.38,479.31 427.05,475.22 427.05,475.22
             427.05,475.22 425.75,472.56 425.75,472.56
             425.37,471.90 425.51,471.75 424.93,471.65
             424.90,470.29 424.26,469.74 423.74,468.58
             423.74,468.58 423.29,467.36 423.29,467.36
             423.29,467.36 422.60,465.72 422.60,465.72
             422.60,465.72 421.16,462.96 421.16,462.96
             421.16,462.96 420.69,461.53 420.69,461.53
             420.69,461.53 420.24,460.61 420.24,460.61
             420.24,460.61 419.48,458.57 419.48,458.57
             419.48,458.57 419.37,457.86 419.37,457.86
             419.37,457.86 419.16,457.14 419.16,457.14
             419.16,457.14 418.96,456.02 418.96,456.02
             418.96,456.02 417.83,452.24 417.83,452.24
             417.83,452.24 417.66,450.81 417.66,450.81
             417.66,450.81 417.40,449.18 417.40,449.18
             417.40,449.18 417.25,447.44 417.25,447.44
             417.25,447.44 416.56,442.43 416.56,442.43
             416.56,442.43 416.56,441.51 416.56,441.51
             416.56,441.51 416.29,440.19 416.29,440.19
             416.29,440.19 416.04,437.43 416.04,437.43
             416.04,436.34 415.94,436.53 415.85,435.69
             415.85,435.69 415.79,434.88 415.79,434.88
             415.66,434.02 415.53,433.77 415.53,432.83
             415.53,432.83 415.53,429.77 415.53,429.77
             415.53,429.77 415.33,427.01 415.33,427.01
             415.33,427.01 415.33,424.76 415.33,424.76
             415.33,424.76 415.43,423.33 415.43,423.33
             415.43,423.33 415.43,420.27 415.43,420.27
             415.43,420.27 415.33,418.84 415.33,418.84
             415.33,418.84 415.33,413.43 415.33,413.43
             415.33,413.43 415.42,412.20 415.42,412.20
             415.42,412.20 415.42,410.87 415.42,410.87
             415.43,409.52 415.62,409.77 415.83,408.83
             415.97,408.16 415.95,407.47 415.95,406.79
             415.93,406.01 415.84,406.17 415.95,405.26
             415.95,405.26 416.13,404.24 416.13,404.24
             416.13,404.24 416.05,403.21 416.05,403.21
             416.05,403.21 416.14,402.40 416.14,402.40
             416.14,402.40 416.14,401.58 416.14,401.58
             416.14,401.58 416.47,398.00 416.47,398.00
             416.47,398.00 416.47,396.88 416.47,396.88
             416.57,396.50 416.83,396.38 417.05,394.94
             417.05,394.94 417.29,393.00 417.29,393.00
             417.29,393.00 418.06,389.02 418.06,389.02
             418.06,389.02 418.23,387.48 418.23,387.48
             418.23,387.48 418.81,385.14 418.81,385.14
             418.81,385.14 419.06,383.81 419.06,383.81
             419.06,383.81 419.44,382.68 419.44,382.68
             419.44,382.68 419.70,381.25 419.70,381.25
             419.70,381.25 420.28,379.31 420.28,379.31
             420.28,379.31 420.64,376.86 420.64,376.86
             420.64,376.86 421.00,375.64 421.00,375.64
             421.00,375.64 421.37,373.90 421.37,373.90
             421.37,373.90 422.37,370.73 422.37,370.73
             422.37,370.73 422.96,368.49 422.96,368.49
             422.96,368.49 424.27,365.12 424.27,365.12
             424.27,365.12 424.68,363.79 424.68,363.79
             424.68,363.79 425.10,362.77 425.10,362.77
             425.10,362.77 425.51,361.44 425.51,361.44
             425.51,361.44 426.10,359.91 426.10,359.91
             426.10,359.91 426.82,357.66 426.82,357.66
             426.82,357.66 427.53,355.92 427.53,355.92
             427.53,355.92 428.03,354.49 428.03,354.49
             428.03,354.49 429.00,352.86 429.00,352.86
             429.31,352.22 429.24,351.80 429.47,351.33
             429.47,351.33 429.97,350.51 429.97,350.51
             429.97,350.51 431.68,347.55 431.68,347.55
             431.68,347.55 433.36,345.20 433.36,345.20
             433.36,345.20 434.44,343.57 434.44,343.57
             434.44,343.57 435.79,341.63 435.79,341.63
             435.79,341.63 436.85,339.89 436.85,339.89
             436.85,339.89 437.81,338.05 437.81,338.05
             437.81,338.05 438.90,336.42 438.90,336.42
             438.90,336.42 439.58,335.50 439.58,335.50
             440.17,334.53 441.64,331.35 441.92,330.29
             441.92,330.29 442.20,328.65 442.20,328.65
             442.32,328.04 442.50,327.12 442.51,326.51
             442.51,326.51 442.51,324.87 442.51,324.87
             442.49,323.70 442.00,322.33 441.46,321.30
             441.46,321.30 440.69,319.77 440.69,319.77
             440.47,319.25 440.34,318.68 439.92,318.28
             439.67,318.04 439.23,317.86 438.93,317.68
             437.76,316.99 438.02,317.24 436.89,316.84
             436.28,316.62 436.15,316.45 435.46,316.34
             435.46,316.34 434.13,316.28 434.13,316.28
             434.13,316.28 432.08,316.05 432.08,316.05
             431.12,315.85 431.00,315.68 429.94,315.69
             429.94,315.69 427.89,315.69 427.89,315.69
             426.89,315.80 426.64,315.98 425.44,315.99
             425.44,315.99 423.81,316.16 423.81,316.16
             423.81,316.16 422.58,316.25 422.58,316.25
             422.58,316.25 419.52,317.14 419.52,317.14
             419.52,317.14 418.39,317.42 418.39,317.42
             418.39,317.42 414.51,318.87 414.51,318.87
             414.51,318.87 413.08,319.38 413.08,319.38
             413.08,319.38 411.75,320.13 411.75,320.13
             411.75,320.13 409.81,320.92 409.81,320.92
             409.81,320.92 406.13,322.70 406.13,322.70
             406.13,322.70 405.01,323.17 405.01,323.17
             405.01,323.17 403.78,323.83 403.78,323.83
             403.78,323.83 402.15,324.59 402.15,324.59
             402.15,324.59 400.41,325.50 400.41,325.50
             400.41,325.50 396.53,327.32 396.53,327.32
             396.53,327.32 395.71,327.89 395.71,327.89
             395.71,327.89 392.75,329.88 392.75,329.88
             392.75,329.88 389.58,332.02 389.58,332.02
             389.58,332.02 388.15,333.01 388.15,333.01
             388.15,333.01 386.10,334.75 386.10,334.75
             386.10,334.75 384.88,335.72 384.88,335.72
             384.88,335.72 382.73,337.71 382.73,337.71
             382.73,337.71 380.18,339.70 380.18,339.70
             380.18,339.70 377.93,341.89 377.93,341.89
             377.28,342.40 376.99,342.25 375.68,343.47
             375.68,343.47 372.00,347.55 372.00,347.55
             372.00,347.55 369.46,350.10 369.46,350.10
             369.46,350.10 368.21,351.53 368.21,351.53
             368.21,351.53 366.09,353.78 366.09,353.78
             366.09,353.78 364.22,355.92 364.22,355.92
             364.22,355.92 363.12,357.05 363.12,357.05
             363.12,357.05 362.28,358.07 362.28,358.07
             362.28,358.07 359.66,360.93 359.66,360.93
             359.66,360.93 357.92,363.28 357.92,363.28
             357.92,363.28 356.24,365.42 356.24,365.42
             356.24,365.42 354.79,367.77 354.79,367.77
             354.79,367.77 353.27,369.81 353.27,369.81
             353.27,369.81 352.74,370.63 352.74,370.63
             352.74,370.63 351.93,371.65 351.93,371.65
             351.93,371.65 350.93,373.19 350.93,373.19
             350.93,373.19 349.74,374.82 349.74,374.82
             349.74,374.82 348.53,376.96 348.53,376.96
             348.53,376.96 347.39,378.70 347.39,378.70
             347.39,378.70 346.56,380.13 346.56,380.13
             346.56,380.13 345.57,381.66 345.57,381.66
             345.57,381.66 345.10,382.68 345.10,382.68
             345.10,382.68 344.30,384.32 344.30,384.32
             344.30,384.32 343.77,385.65 343.77,385.65
             343.77,385.65 342.21,388.51 342.21,388.51
             342.21,388.51 341.54,390.14 341.54,390.14
             341.54,390.14 340.76,391.57 340.76,391.57
             340.76,391.57 339.97,393.41 339.97,393.41
             339.97,393.41 338.92,395.04 338.92,395.04
             338.92,395.04 336.42,399.95 336.42,399.95
             336.42,399.95 335.61,401.38 335.61,401.38
             335.61,401.38 334.53,403.72 334.53,403.72
             334.53,403.72 333.88,404.95 333.88,404.95
             333.88,404.95 333.13,406.69 333.13,406.69
             333.13,406.69 332.29,408.22 332.29,408.22
             332.29,408.22 331.81,409.44 331.81,409.44
             331.81,409.44 331.20,410.87 331.20,410.87
             331.20,410.87 330.69,412.30 330.69,412.30
             330.69,412.30 330.23,413.22 330.23,413.22
             330.23,413.22 329.55,414.76 329.55,414.76
             329.55,414.76 328.70,416.29 328.70,416.29
             328.70,416.29 328.02,418.13 328.02,418.13
             328.02,418.13 326.94,420.68 326.94,420.68
             326.94,420.68 326.64,421.60 326.64,421.60
             326.64,421.60 325.73,423.54 325.73,423.54
             325.73,423.54 325.28,425.07 325.28,425.07
             325.28,425.07 324.43,427.52 324.43,427.52
             324.43,427.52 323.70,430.38 323.70,430.38
             323.70,430.38 323.03,432.32 323.03,432.32
             323.03,432.32 322.44,434.37 322.44,434.37
             322.44,434.37 321.63,436.71 321.63,436.71
             321.63,436.71 320.92,439.37 320.92,439.37
             320.92,439.37 320.30,441.00 320.30,441.00
             320.30,441.00 319.62,443.46 319.62,443.46
             319.62,443.46 319.02,445.19 319.02,445.19
             319.02,445.19 318.48,447.44 318.48,447.44
             318.48,447.44 318.10,448.97 318.10,448.97
             318.10,448.97 317.91,450.20 317.91,450.20
             317.91,450.20 317.69,451.12 317.69,451.12
             317.69,451.12 317.53,452.24 317.53,452.24
             317.53,452.24 316.86,455.61 316.86,455.61
             316.86,455.61 316.70,457.35 316.70,457.35
             316.53,458.68 316.13,459.33 316.11,460.92
             316.11,460.92 315.89,464.80 315.89,464.80
             315.89,464.80 315.60,467.15 315.60,467.15
             315.60,467.15 315.60,468.99 315.60,468.99
             315.60,468.99 315.40,471.54 315.40,471.54
             315.40,471.54 315.40,477.47 315.40,477.47
             315.40,477.47 315.19,479.82 315.19,479.82
             315.19,479.82 315.19,483.19 315.19,483.19
             315.19,483.19 315.30,484.82 315.30,484.82
             315.30,484.82 315.30,486.35 315.30,486.35
             315.30,486.35 315.40,488.09 315.40,488.09
             315.40,488.09 315.40,494.12 315.40,494.12
             315.40,494.12 315.49,495.34 315.49,495.34
             315.49,495.34 315.84,499.32 315.84,499.32
             315.84,499.32 316.19,501.57 316.19,501.57
             316.19,501.57 316.55,504.94 316.55,504.94
             316.55,504.94 316.89,506.58 316.89,506.58
             316.89,506.58 317.28,509.64 317.28,509.64
             317.28,509.64 317.64,511.48 317.64,511.48
             317.64,511.48 317.81,512.81 317.81,512.81
             317.81,512.81 318.51,516.89 318.51,516.89
             318.51,516.89 318.61,517.81 318.61,517.81
             318.61,517.81 318.99,519.55 318.99,519.55
             318.99,519.55 319.13,520.47 319.13,520.47
             319.13,520.47 319.72,522.41 319.72,522.41
             319.72,522.41 320.65,525.98 320.65,525.98
             320.65,525.98 321.38,528.33 321.38,528.33
             321.38,528.33 322.15,531.40 322.15,531.40
             322.15,531.40 322.52,532.93 322.52,532.93
             322.52,532.93 323.62,535.69 323.62,535.69
             323.62,535.69 323.92,536.81 323.92,536.81
             323.92,536.81 325.38,541.71 325.38,541.71
             325.38,541.71 325.88,542.83 325.88,542.83
             325.88,542.83 326.99,545.39 326.99,545.39
             326.99,545.39 327.45,546.31 327.45,546.31
             327.45,546.31 328.04,548.15 328.04,548.15
             328.04,548.15 328.74,549.78 328.74,549.78
             328.74,549.78 329.20,551.21 329.20,551.21
             329.20,551.21 329.76,552.33 329.76,552.33
             329.76,552.33 331.07,555.70 331.07,555.70
             331.07,555.70 331.92,557.54 331.92,557.54
             331.92,557.54 332.49,558.87 332.49,558.87
             332.49,558.87 333.14,560.10 333.14,560.10
             333.14,560.10 333.58,561.22 333.58,561.22
             333.58,561.22 334.07,562.14 334.07,562.14
             334.07,562.14 334.74,563.67 334.74,563.67
             334.74,563.67 335.43,565.00 335.43,565.00
             335.43,565.00 335.84,566.02 335.84,566.02
             335.84,566.02 336.31,566.94 336.31,566.94
             336.31,566.94 336.67,567.86 336.67,567.86
             336.67,567.86 337.44,569.39 337.44,569.39
             337.44,569.39 338.53,571.74 338.53,571.74
             338.53,571.74 339.04,572.96 339.04,572.96
             339.04,572.96 340.07,574.60 340.07,574.60
             340.07,574.60 340.52,575.62 340.52,575.62
             340.52,575.62 341.50,577.46 341.50,577.46
             341.50,577.46 342.38,578.89 342.38,578.89
             342.38,578.89 343.04,579.81 343.04,579.81
             343.04,579.81 343.49,580.73 343.49,580.73
             343.49,580.73 344.62,582.46 344.62,582.46
             344.62,582.46 346.25,585.22 346.25,585.22
             346.25,585.22 346.82,586.24 346.82,586.24
             346.82,586.24 347.62,587.37 347.62,587.37
             347.62,587.37 348.76,589.31 348.76,589.31
             348.76,589.31 351.11,592.58 351.11,592.58
             351.11,592.58 352.03,593.60 352.03,593.60
             352.03,593.60 353.31,595.54 353.31,595.54
             353.31,595.54 355.60,598.60 355.60,598.60
             355.60,598.60 356.55,600.13 356.55,600.13
             356.55,600.13 357.43,601.26 357.43,601.26
             357.43,601.26 358.25,602.58 358.25,602.58
             358.25,602.58 360.52,605.65 360.52,605.65
             360.52,605.65 362.04,607.69 362.04,607.69
             362.04,607.69 362.89,608.61 362.89,608.61
             362.89,608.61 363.74,609.63 363.74,609.63
             363.74,609.63 364.83,610.76 364.83,610.76
             364.83,610.76 367.73,614.01 367.73,614.01
             367.73,614.01 369.13,615.35 369.13,615.35
             369.13,615.35 371.20,618.01 371.20,618.01
             371.20,618.01 372.41,619.33 372.41,619.33
             372.41,619.33 373.23,620.06 373.23,620.06
             373.23,620.06 374.05,620.97 374.05,620.97
             374.05,620.97 375.47,622.40 375.47,622.40
             375.47,622.40 376.30,623.30 376.30,623.30
             376.30,623.30 377.50,624.37 377.50,624.37
             377.50,624.37 378.24,625.15 378.24,625.15
             378.24,625.15 381.40,627.99 381.40,627.99
             381.40,627.99 383.04,629.26 383.04,629.26
             383.04,629.26 385.18,631.08 385.18,631.08
             386.27,632.02 387.49,632.93 388.76,633.61
             389.41,633.96 389.53,634.20 390.29,634.25 Z
           M 402.25,365.22
           C 402.25,365.22 402.25,365.42 402.25,365.42
             403.02,365.70 402.83,366.11 402.62,366.75
             402.62,366.75 401.60,370.22 401.60,370.22
             401.60,370.22 401.41,371.35 401.41,371.35
             401.41,371.35 400.96,373.29 400.96,373.29
             400.96,373.29 400.47,377.07 400.47,377.07
             400.47,377.07 399.64,380.74 399.64,380.74
             399.64,380.74 399.14,383.91 399.14,383.91
             399.14,383.91 398.84,385.34 398.84,385.34
             398.84,385.34 398.05,389.73 398.05,389.73
             398.05,389.73 397.78,391.16 397.78,391.16
             397.78,391.16 397.62,392.59 397.62,392.59
             397.62,392.59 397.37,393.92 397.37,393.92
             397.37,393.92 397.12,396.88 397.12,396.88
             397.12,396.88 396.78,398.41 396.78,398.41
             396.78,398.41 396.67,399.64 396.67,399.64
             396.67,399.64 396.32,401.78 396.32,401.78
             396.32,401.78 395.85,403.93 395.85,403.93
             395.85,403.93 395.58,406.38 395.58,406.38
             395.58,406.38 395.34,407.50 395.34,407.50
             395.34,407.50 395.25,408.42 395.25,408.42
             395.11,409.24 394.90,409.81 394.89,410.67
             394.89,410.67 394.89,412.00 394.89,412.00
             394.89,412.00 394.78,413.02 394.78,413.02
             394.78,413.02 394.78,414.04 394.78,414.04
             394.78,414.04 394.58,416.08 394.58,416.08
             394.58,416.08 394.69,418.13 394.69,418.13
             394.69,418.13 394.48,421.29 394.48,421.29
             394.48,422.26 394.32,422.33 394.31,422.72
             394.31,422.72 394.48,424.36 394.48,424.36
             394.48,424.36 394.48,426.40 394.48,426.40
             394.48,426.40 394.58,427.83 394.58,427.83
             394.58,427.83 394.58,429.97 394.58,429.97
             394.58,429.97 394.38,432.42 394.38,432.42
             394.38,432.42 394.38,433.85 394.38,433.85
             394.38,433.85 394.79,438.04 394.79,438.04
             394.79,438.04 394.79,439.27 394.79,439.27
             394.79,440.31 395.07,441.31 395.26,442.33
             395.26,442.33 396.01,446.21 396.01,446.21
             396.01,446.21 396.58,447.95 396.58,447.95
             396.58,447.95 396.69,448.66 396.69,448.66
             396.69,448.66 396.96,449.28 396.96,449.28
             397.15,449.79 397.14,450.37 397.14,450.91
             397.14,450.91 397.44,450.91 397.44,450.91
             397.44,450.91 397.44,451.63 397.44,451.63
             397.44,451.63 398.29,454.49 398.29,454.49
             398.29,454.49 398.52,455.61 398.52,455.61
             398.52,455.61 398.91,456.63 398.91,456.63
             398.91,456.63 399.07,457.65 399.07,457.65
             399.07,457.65 399.69,460.72 399.69,460.72
             399.69,460.72 400.00,460.72 400.00,460.72
             400.00,460.72 400.76,462.66 400.76,462.66
             400.96,463.20 400.93,463.65 401.33,464.50
             401.33,464.50 401.79,465.24 401.79,465.24
             402.04,465.83 401.80,466.48 402.45,466.84
             402.48,467.93 403.50,470.50 403.91,471.65
             403.91,471.65 404.69,473.79 404.69,473.79
             404.69,473.79 404.96,474.81 404.96,474.81
             404.96,474.81 405.71,476.55 405.71,476.55
             405.71,476.55 406.28,478.39 406.28,478.39
             406.28,478.39 407.44,480.94 407.44,480.94
             407.44,480.94 407.65,481.65 407.65,481.65
             407.89,482.37 408.26,482.84 408.59,483.49
             408.59,483.49 409.00,484.41 409.00,484.41
             409.32,485.02 409.58,484.91 409.50,485.64
             409.92,485.81 409.76,486.02 409.90,486.56
             409.90,486.56 410.83,488.70 410.83,488.70
             411.01,489.20 411.21,489.69 411.51,490.13
             411.51,490.13 411.93,490.74 411.93,490.74
             411.93,490.74 412.87,492.58 412.87,492.58
             412.87,492.58 413.51,493.40 413.51,493.40
             413.96,494.10 414.01,494.74 414.71,495.34
             414.66,496.05 414.92,496.29 415.27,496.87
             415.81,497.80 415.84,497.91 416.51,498.81
             416.51,498.81 417.99,501.06 417.99,501.06
             417.99,501.06 418.44,501.98 418.44,501.98
             418.44,501.98 420.12,504.74 420.12,504.74
             420.12,504.74 421.18,506.98 421.18,506.98
             421.18,506.98 422.48,508.52 422.48,508.52
             422.48,508.52 424.22,510.91 424.22,510.91
             424.41,511.22 424.35,511.47 424.92,512.30
             424.92,512.30 426.01,513.82 426.01,513.82
             426.01,513.82 426.57,514.39 426.57,514.39
             426.57,514.39 427.12,515.97 427.12,515.97
             427.42,516.67 428.17,517.81 428.63,518.42
             428.63,518.42 429.80,519.75 429.80,519.75
             429.80,519.75 431.52,521.89 431.52,521.89
             431.52,521.89 432.38,522.82 432.38,522.82
             432.38,522.82 434.46,525.57 434.46,525.57
             434.46,525.57 435.18,526.59 435.18,526.59
             435.18,526.59 436.68,528.03 436.68,528.03
             436.68,528.03 438.71,530.27 438.71,530.27
             438.71,530.27 439.46,531.19 439.46,531.19
             439.46,531.19 440.31,532.11 440.31,532.11
             440.31,532.11 441.03,533.13 441.03,533.13
             441.03,533.13 443.74,536.17 443.74,536.17
             444.56,536.92 445.28,537.05 445.87,537.50
             445.87,537.50 446.90,538.51 446.90,538.51
             446.90,538.51 448.53,539.56 448.53,539.56
             448.53,539.56 450.68,541.09 450.68,541.09
             450.68,541.09 454.66,543.36 454.66,543.36
             455.25,543.75 455.39,544.07 455.70,544.27
             455.70,544.27 456.40,544.57 456.40,544.57
             456.40,544.57 458.04,545.64 458.04,545.64
             458.04,545.64 458.96,546.46 458.96,546.46
             459.48,546.90 460.82,547.82 461.41,548.16
             461.41,548.16 463.66,549.18 463.66,549.18
             463.66,549.18 465.09,550.02 465.09,550.02
             465.09,550.02 466.31,550.44 466.31,550.44
             466.31,550.44 467.33,550.97 467.33,550.97
             467.33,550.97 468.25,551.33 468.25,551.33
             468.25,551.33 470.20,552.40 470.20,552.40
             470.20,552.40 475.00,554.44 475.00,554.44
             475.00,554.44 476.94,555.04 476.94,555.04
             476.94,555.04 477.86,555.21 477.86,555.21
             478.32,555.35 478.68,555.71 479.49,555.97
             479.49,555.97 482.56,556.78 482.56,556.78
             482.56,556.78 483.99,557.05 483.99,557.05
             485.02,557.32 485.03,557.56 485.73,557.75
             485.73,557.75 489.51,558.72 489.51,558.72
             489.51,558.72 490.43,558.80 490.43,558.80
             490.43,558.80 492.27,559.10 492.27,559.10
             492.27,559.10 493.49,559.35 493.49,559.35
             493.49,559.35 495.43,559.49 495.43,559.49
             495.43,559.49 496.56,559.49 496.56,559.49
             496.56,559.49 497.68,559.69 497.68,559.69
             497.68,559.69 498.80,559.69 498.80,559.69
             499.54,559.80 499.29,559.99 500.44,559.99
             500.44,559.99 503.30,559.92 503.30,559.92
             503.30,559.92 506.37,560.19 506.37,560.19
             506.37,560.19 508.00,560.19 508.00,560.19
             508.00,560.19 509.94,559.99 509.94,559.99
             509.94,559.99 511.58,559.99 511.58,559.99
             511.58,559.99 514.95,559.70 514.95,559.70
             514.95,559.70 516.28,559.79 516.28,559.79
             517.39,559.80 517.35,559.68 518.01,559.66
             518.01,559.66 519.14,559.66 519.14,559.66
             520.14,559.57 519.92,559.48 521.18,559.48
             521.18,559.48 522.82,559.38 522.82,559.38
             522.82,559.38 524.96,559.38 524.96,559.38
             524.96,559.38 528.03,559.07 528.03,559.07
             528.03,559.07 529.46,559.07 529.46,559.07
             530.45,558.96 530.31,558.81 531.50,558.86
             532.09,558.89 532.39,558.74 532.93,558.68
             532.93,558.68 535.69,558.44 535.69,558.44
             535.69,558.44 536.92,558.16 536.92,558.16
             537.98,557.98 539.01,557.86 540.08,557.85
             540.08,557.85 541.11,557.76 541.11,557.76
             541.11,557.76 543.66,557.52 543.66,557.52
             543.66,557.52 544.48,557.36 544.48,557.36
             544.48,557.36 547.95,557.12 547.95,557.12
             547.95,557.12 548.67,556.99 548.67,556.99
             549.03,556.95 549.17,557.08 549.79,556.99
             549.79,556.99 553.16,556.18 553.16,556.18
             553.16,556.18 554.59,556.10 554.59,556.10
             555.32,556.02 555.61,555.83 556.02,555.74
             556.44,555.66 556.68,555.77 557.45,555.58
             558.34,555.36 558.58,554.98 558.99,554.84
             559.24,554.76 559.62,554.80 559.91,554.77
             559.91,554.77 561.54,554.44 561.54,554.44
             561.54,554.44 563.38,553.99 563.38,553.99
             563.38,553.99 564.91,553.40 564.91,553.40
             564.91,553.40 568.39,552.59 568.39,552.59
             568.39,552.59 569.61,552.22 569.61,552.22
             569.61,552.22 570.94,551.98 570.94,551.98
             570.94,551.98 574.01,551.03 574.01,551.03
             574.01,551.03 578.40,550.15 578.40,550.15
             579.20,550.00 580.07,549.90 580.85,549.64
             580.85,549.64 582.89,548.79 582.89,548.79
             583.32,548.47 583.40,548.08 584.22,547.72
             584.22,547.72 585.55,547.28 585.55,547.28
             585.55,547.28 586.98,546.66 586.98,546.66
             586.98,546.66 591.07,545.14 591.07,545.14
             591.07,545.14 592.30,544.50 592.30,544.50
             592.30,544.50 593.62,543.93 593.62,543.93
             593.62,543.93 594.85,543.27 594.85,543.27
             594.85,543.27 596.38,542.59 596.38,542.59
             596.38,542.59 600.98,540.11 600.98,540.11
             600.98,540.11 603.84,538.70 603.84,538.70
             603.84,538.70 606.19,537.26 606.19,537.26
             606.19,537.26 607.42,536.67 607.42,536.67
             607.42,536.67 610.07,535.03 610.07,535.03
             610.07,535.03 611.61,534.14 611.61,534.14
             611.61,534.14 614.37,532.02 614.37,532.02
             614.37,532.02 616.72,530.48 616.72,530.48
             616.72,530.48 618.25,529.31 618.25,529.31
             618.25,529.31 619.17,528.69 619.17,528.69
             619.17,528.69 620.80,527.25 620.80,527.25
             620.80,527.25 621.93,526.46 621.93,526.46
             621.93,526.46 623.15,525.50 623.15,525.50
             623.15,525.50 625.20,524.18 625.20,524.18
             625.20,524.18 629.59,521.11 629.59,521.11
             630.79,520.16 630.84,519.65 631.74,518.73
             631.74,518.73 633.26,517.20 633.26,517.20
             633.26,517.20 633.99,516.40 633.99,516.40
             633.99,516.40 634.90,515.56 634.90,515.56
             634.90,515.56 636.15,514.13 636.15,514.13
             636.15,514.13 637.76,512.40 637.76,512.40
             638.66,511.42 639.50,509.38 640.93,509.23
             640.93,509.23 641.14,511.27 641.14,511.27
             641.14,511.27 641.14,512.19 641.14,512.19
             641.13,513.38 640.89,513.95 640.61,515.05
             640.61,515.05 640.04,517.61 640.04,517.61
             640.04,517.61 639.50,519.14 639.50,519.14
             639.50,519.14 638.58,522.82 638.58,522.82
             638.58,522.82 638.00,524.25 638.00,524.25
             638.00,524.25 637.40,525.88 637.40,525.88
             637.40,525.88 636.96,527.41 636.96,527.41
             636.96,527.41 636.35,528.84 636.35,528.84
             636.35,528.84 635.89,530.07 635.89,530.07
             635.89,530.07 635.14,531.60 635.14,531.60
             635.14,531.60 634.46,533.23 634.46,533.23
             634.46,533.23 633.71,534.56 633.71,534.56
             633.71,534.56 632.90,536.40 632.90,536.40
             632.90,536.40 630.44,540.69 630.44,540.69
             630.44,540.69 629.74,542.32 629.74,542.32
             629.74,542.32 628.93,543.75 628.93,543.75
             628.93,543.75 628.40,544.88 628.40,544.88
             628.40,544.88 627.39,546.41 627.39,546.41
             627.39,546.41 626.74,547.64 626.74,547.64
             626.74,547.64 625.15,550.39 625.15,550.39
             625.15,550.39 623.00,553.56 623.00,553.56
             623.00,553.56 620.43,557.44 620.43,557.44
             620.43,557.44 619.32,559.18 619.32,559.18
             619.32,559.18 617.48,561.63 617.48,561.63
             617.48,561.63 616.49,562.85 616.49,562.85
             616.49,562.85 614.28,566.02 614.28,566.02
             614.28,566.02 612.93,567.76 612.93,567.76
             612.93,567.76 612.06,568.78 612.06,568.78
             611.77,569.17 611.88,569.30 611.52,569.80
             611.52,569.80 608.07,573.78 608.07,573.78
             608.07,573.78 606.25,576.13 606.25,576.13
             606.25,576.13 605.08,577.36 605.08,577.36
             605.08,577.36 604.34,578.28 604.34,578.28
             604.34,578.28 602.92,579.52 602.92,579.52
             602.92,579.52 601.96,580.59 601.96,580.59
             601.96,580.59 600.78,581.65 600.78,581.65
             600.78,581.65 599.55,582.97 599.55,582.97
             598.51,584.06 597.43,585.15 596.28,586.13
             596.28,586.13 592.50,589.03 592.50,589.03
             592.50,589.03 589.64,592.02 589.64,592.02
             589.16,592.42 588.97,592.40 588.62,592.63
             588.62,592.63 587.60,593.44 587.60,593.44
             587.60,593.44 585.25,595.41 585.25,595.41
             585.25,595.41 583.51,596.69 583.51,596.69
             583.51,596.69 582.49,597.65 582.49,597.65
             582.49,597.65 581.47,598.43 581.47,598.43
             581.47,598.43 580.72,599.12 580.72,599.12
             580.72,599.12 579.73,599.73 579.73,599.73
             579.73,599.73 577.99,601.02 577.99,601.02
             577.99,601.02 576.05,602.22 576.05,602.22
             576.05,602.22 573.90,603.83 573.90,603.83
             573.90,603.83 572.47,604.76 572.47,604.76
             572.47,604.76 570.84,605.95 570.84,605.95
             570.84,605.95 569.61,606.72 569.61,606.72
             569.61,606.72 568.59,607.44 568.59,607.44
             568.59,607.44 562.56,610.52 562.56,610.52
             562.56,610.52 561.23,611.09 561.23,611.09
             561.23,611.09 559.40,612.09 559.40,612.09
             559.40,612.09 555.41,613.95 555.41,613.95
             555.41,613.95 551.12,616.08 551.12,616.08
             551.12,616.08 549.48,616.72 549.48,616.72
             549.48,616.72 544.68,618.70 544.68,618.70
             544.68,618.70 543.15,619.17 543.15,619.17
             543.15,619.17 540.19,620.63 540.19,620.63
             540.19,620.63 537.73,621.61 537.73,621.61
             537.73,621.61 535.59,622.59 535.59,622.59
             535.59,622.59 532.42,623.50 532.42,623.50
             532.42,623.50 530.89,624.09 530.89,624.09
             530.89,624.09 528.64,624.81 528.64,624.81
             528.64,624.81 526.49,625.26 526.49,625.26
             526.49,625.26 524.86,625.80 524.86,625.80
             524.86,625.80 523.33,626.26 523.33,626.26
             523.33,626.26 520.16,627.55 520.16,627.55
             520.16,627.55 518.73,627.90 518.73,627.90
             518.73,627.90 515.36,628.75 515.36,628.75
             515.36,628.75 511.88,629.67 511.88,629.67
             511.88,629.67 510.45,630.21 510.45,630.21
             510.08,630.28 509.90,630.18 509.64,630.21
             509.46,630.25 509.38,630.30 509.23,630.35
             508.87,630.24 508.95,630.32 508.61,630.35
             508.28,630.40 508.16,630.28 507.80,630.35
             507.22,630.42 506.73,630.73 506.37,630.83
             506.37,630.83 505.24,631.00 505.24,631.00
             505.24,631.00 501.15,631.85 501.15,631.85
             500.00,632.08 499.89,631.94 499.21,632.04
             499.21,632.04 497.99,632.29 497.99,632.29
             497.99,632.29 495.13,632.63 495.13,632.63
             495.13,632.63 491.14,633.12 491.14,633.12
             491.14,633.12 490.22,633.12 490.22,633.12
             490.22,633.12 487.05,633.53 487.05,633.53
             487.05,633.53 483.99,633.33 483.99,633.33
             483.99,633.33 479.19,633.43 479.19,633.43
             479.19,633.43 477.96,633.51 477.96,633.51
             477.96,633.51 476.73,633.43 476.73,633.43
             476.73,633.43 474.59,633.43 474.59,633.43
             474.59,633.43 473.06,633.33 473.06,633.33
             473.06,633.33 470.20,633.33 470.20,633.33
             470.20,633.33 468.97,633.23 468.97,633.23
             468.97,633.23 466.21,633.12 466.21,633.12
             465.37,633.12 464.76,632.95 463.96,632.85
             463.96,632.85 462.33,632.70 462.33,632.70
             461.05,632.52 460.42,632.32 459.06,632.31
             458.30,632.30 457.26,632.03 456.50,631.89
             456.50,631.89 455.18,631.62 455.18,631.62
             455.18,631.62 454.56,631.62 454.56,631.62
             454.24,631.53 454.05,631.30 453.23,631.11
             453.23,631.11 450.07,630.44 450.07,630.44
             450.07,630.44 447.82,629.84 447.82,629.84
             447.82,629.84 446.29,629.50 446.29,629.50
             446.29,629.50 445.26,629.11 445.26,629.11
             445.26,629.11 443.83,628.72 443.83,628.72
             443.83,628.72 442.81,628.28 442.81,628.28
             442.81,628.28 441.99,628.07 441.99,628.07
             441.99,628.07 440.87,627.67 440.87,627.67
             440.87,627.67 438.01,626.95 438.01,626.95
             438.01,626.95 433.82,625.47 433.82,625.47
             433.82,625.47 432.08,624.93 432.08,624.93
             432.08,624.93 430.24,624.18 430.24,624.18
             430.24,624.18 429.02,623.74 429.02,623.74
             429.02,623.74 427.59,623.04 427.59,623.04
             427.59,623.04 425.95,622.35 425.95,622.35
             425.95,622.35 423.91,621.32 423.91,621.32
             423.91,621.32 421.05,620.10 421.05,620.10
             421.05,620.10 419.00,619.27 419.00,619.27
             419.00,619.27 418.29,619.00 418.29,619.00
             418.29,619.00 417.27,618.31 417.27,618.31
             417.27,618.31 414.10,616.31 414.10,616.31
             414.10,616.31 411.95,614.65 411.95,614.65
             411.95,614.65 410.73,613.83 410.73,613.83
             410.73,613.83 406.03,610.20 406.03,610.20
             406.03,610.20 404.29,609.04 404.29,609.04
             404.29,609.04 401.23,606.30 401.23,606.30
             401.23,606.30 399.59,605.03 399.59,605.03
             399.59,605.03 395.91,601.90 395.91,601.90
             395.91,601.90 394.99,601.22 394.99,601.22
             394.99,601.22 392.34,598.90 392.34,598.90
             392.34,598.90 391.20,597.68 391.20,597.68
             391.20,597.68 390.32,596.86 390.32,596.86
             390.32,596.86 389.36,595.74 389.36,595.74
             389.36,595.74 387.53,593.89 387.53,593.89
             387.53,593.89 383.70,589.20 383.70,589.20
             383.70,589.20 382.71,587.98 382.71,587.98
             382.71,587.98 381.43,586.14 381.43,586.14
             381.43,586.14 379.33,583.38 379.33,583.38
             379.33,583.38 378.17,581.75 378.17,581.75
             378.17,581.75 376.44,579.71 376.44,579.71
             376.44,579.71 375.21,577.97 375.21,577.97
             375.21,577.97 372.42,574.29 372.42,574.29
             372.42,574.29 371.69,573.07 371.69,573.07
             371.69,573.07 370.75,571.74 370.75,571.74
             370.75,571.74 369.86,570.31 369.86,570.31
             369.86,570.31 368.30,568.06 368.30,568.06
             368.30,568.06 366.95,565.92 366.95,565.92
             366.95,565.92 365.71,563.98 365.71,563.98
             365.71,563.98 364.05,560.91 364.05,560.91
             364.05,560.91 362.79,558.77 362.79,558.77
             362.79,558.77 361.65,556.52 361.65,556.52
             361.65,556.52 360.22,553.87 360.22,553.87
             360.22,553.87 359.46,552.54 359.46,552.54
             359.46,552.54 358.59,550.70 358.59,550.70
             358.59,550.70 357.17,548.04 357.17,548.04
             357.17,548.04 356.82,547.02 356.82,547.02
             356.82,547.02 356.45,546.21 356.45,546.21
             356.45,546.21 355.92,544.78 355.92,544.78
             355.92,544.78 354.77,542.12 354.77,542.12
             354.77,542.12 353.46,538.14 353.46,538.14
             353.46,538.14 352.19,535.48 352.19,535.48
             352.19,535.48 351.08,532.21 351.08,532.21
             351.08,532.21 350.72,531.19 350.72,531.19
             350.72,531.19 350.34,529.76 350.34,529.76
             350.34,529.76 349.49,527.00 349.49,527.00
             349.49,527.00 349.07,525.78 349.07,525.78
             349.07,525.78 348.86,524.65 348.86,524.65
             348.86,524.65 348.44,523.12 348.44,523.12
             348.44,523.12 348.15,521.49 348.15,521.49
             348.15,521.49 347.61,519.45 347.61,519.45
             347.61,519.45 346.84,515.56 346.84,515.56
             346.84,515.56 346.42,513.73 346.42,513.73
             346.42,513.73 345.90,510.36 345.90,510.36
             345.90,510.36 345.23,507.50 345.23,507.50
             345.03,506.50 344.83,505.66 344.82,504.64
             344.82,504.64 344.51,501.37 344.51,501.37
             344.51,501.37 344.51,499.73 344.51,499.73
             344.51,499.73 344.13,496.98 344.13,496.98
             344.13,496.98 343.90,492.89 343.90,492.89
             343.90,492.89 343.70,490.54 343.70,490.54
             343.70,490.54 343.70,484.92 343.70,484.92
             343.70,484.92 343.60,483.39 343.60,483.39
             343.60,483.39 343.50,481.14 343.50,481.14
             343.50,481.14 343.50,476.55 343.50,476.55
             343.50,476.55 343.29,473.69 343.29,473.69
             343.29,473.69 343.29,473.28 343.29,473.28
             343.28,472.61 343.11,471.99 343.02,471.34
             343.02,471.34 342.95,470.42 342.95,470.42
             342.87,469.89 342.79,469.95 342.78,469.30
             342.75,466.99 343.07,467.53 343.43,465.52
             343.43,465.52 343.64,463.99 343.64,463.99
             343.64,463.99 344.34,459.80 344.34,459.80
             344.34,459.80 345.00,457.14 345.00,457.14
             345.00,457.14 346.03,450.30 346.03,450.30
             346.03,450.30 346.42,448.77 346.42,448.77
             346.42,448.77 346.81,446.93 346.81,446.93
             346.81,446.93 347.30,445.40 347.30,445.40
             347.30,445.40 347.56,444.27 347.56,444.27
             347.56,444.27 347.93,443.15 347.93,443.15
             347.93,443.15 348.08,442.13 348.08,442.13
             348.08,442.13 348.72,440.09 348.72,440.09
             348.72,440.09 348.99,438.76 348.99,438.76
             348.99,438.76 349.39,437.63 349.39,437.63
             349.39,437.63 349.99,435.80 349.99,435.80
             349.99,435.80 350.37,434.88 350.37,434.88
             350.37,434.88 351.15,432.53 351.15,432.53
             351.15,432.53 352.44,429.56 352.44,429.56
             352.44,429.56 353.25,427.22 353.25,427.22
             353.25,427.22 354.24,425.07 354.24,425.07
             354.24,425.07 354.87,423.44 354.87,423.44
             354.87,423.44 355.73,421.80 355.73,421.80
             355.73,421.80 356.40,420.37 356.40,420.37
             356.40,420.37 357.37,418.64 357.37,418.64
             357.37,418.64 358.15,417.10 358.15,417.10
             358.15,417.10 359.00,415.67 359.00,415.67
             359.00,415.67 360.29,413.02 360.29,413.02
             360.29,413.02 361.10,411.79 361.10,411.79
             361.10,411.79 362.02,410.06 362.02,410.06
             362.02,410.06 362.59,409.14 362.59,409.14
             362.59,409.14 363.43,407.40 363.43,407.40
             363.43,407.40 364.14,406.18 364.14,406.18
             364.14,406.18 364.63,405.05 364.63,405.05
             364.63,405.05 365.87,403.21 365.87,403.21
             365.87,403.21 366.50,401.89 366.50,401.89
             366.50,401.89 368.96,397.39 368.96,397.39
             368.96,397.39 369.85,395.35 369.85,395.35
             369.85,395.35 370.60,394.23 370.60,394.23
             370.60,394.23 371.35,392.90 371.35,392.90
             371.35,392.90 372.13,391.98 372.13,391.98
             372.13,391.98 373.14,390.34 373.14,390.34
             373.14,390.34 374.10,389.02 374.10,389.02
             374.10,389.02 376.47,385.14 376.47,385.14
             376.47,385.14 378.86,381.66 378.86,381.66
             378.86,381.66 380.33,379.21 380.33,379.21
             380.33,379.21 381.62,377.37 381.62,377.37
             381.62,377.37 382.83,375.84 382.83,375.84
             382.83,375.84 383.60,374.82 383.60,374.82
             383.60,374.82 384.33,374.00 384.33,374.00
             384.33,374.00 385.20,372.88 385.20,372.88
             385.20,372.88 386.50,371.55 386.50,371.55
             386.50,371.55 387.51,370.33 387.51,370.33
             388.84,368.67 390.23,367.12 391.72,365.63
             391.72,365.63 393.67,363.75 393.67,363.75
             394.83,362.88 395.99,361.92 397.24,361.18
             397.51,361.02 397.86,360.83 398.16,360.76
             398.38,360.71 398.64,360.74 398.84,360.62
             399.03,360.50 399.11,360.27 399.32,360.07
             399.73,359.71 401.85,358.63 402.45,358.35
             402.81,358.19 403.39,357.96 403.74,358.25
             404.05,358.51 403.99,359.13 403.98,359.50
             403.97,360.35 403.67,361.04 403.46,361.85
             403.46,361.85 403.09,364.10 403.09,364.10
             402.96,364.73 402.90,364.99 402.25,365.22 Z" />
</svg>
